/* XPM */
static char *result[] = {
/* columns rows colors chars-per-pixel */
"64 64 46 1 ",
"  c #1C121E",
". c #1D121E",
"X c #1C131E",
"o c #1D131E",
"O c #1D131F",
"+ c #2E2532",
"@ c #2E2433",
"# c #2E2533",
"$ c #2F2533",
"% c #3D3748",
"& c #4C4A5D",
"* c #4D4A5D",
"= c #4D4B5D",
"- c #726A7E",
"; c #726B7E",
": c #736B7E",
"> c #726A7F",
", c #726B7F",
"< c #847A6B",
"1 c #8A7776",
"2 c #948878",
"3 c #988D7C",
"4 c #9B9B86",
"5 c #A38D8C",
"6 c #A49785",
"7 c #B19898",
"8 c #B09998",
"9 c #B19998",
"0 c #B19999",
"q c #ADAE96",
"w c #B4A692",
"e c #C4B59E",
"r c #C4B49F",
"t c #C4B59F",
"y c #C5B59F",
"u c #C0C1A7",
"i c #E5E6C6",
"p c #E4E6C7",
"a c #E5E6C7",
"s c #E5E7C7",
"d c #FFFFFE",
"f c #FEFEFF",
"g c #FFFEFF",
"h c #FEFFFF",
"j c white",
"k c None",
/* pixels */
"kkkkkkkkkkkkkkkkkkkkkkkkkkkkkkkkkkkkkkkkkkkkkkkkkkkkkkkkkkkkkkkk",
"kkkkkkkkkkkkkkkkkkkkkkkkkkkkkkkkkkkkkkkkkkkkkkkkkkkkkkkkkkkkkkkk",
"kkkkkkkkkkkkkkkkkkkkkkkkkkkkkkkkkkkkkkkkkkkkkkkkkkkkkkkkkkkkkkkk",
"kkkkkkkkkkkkkkkkkkkkkkkkkkkkkkkkkkkkkkkkkkkkkkkkkkkkkkkkkkkkkkkk",
"kkkkkkkkkkkkkkkkkkkkkkkkkkkkkkkkkkkkkkkkkkkkkkkkkkkkkkkkkkkkkkkk",
"kkkkkkkkkkkkkkkkkkkkkkkkkkkkkkkkkkkkkkkkkkkkkkkkkkkkkkkkkkkkkkkk",
"kkkkkkkkkkkkkkkkkkkkkkkkkkkkkkkkkkkkkkkkkkkkkkkkkkkkkkkkkkkkkkkk",
"kkkkkkkkkkkkkkkkkkkkkkkkkkkkkkkkkkkkkkkkkkkkkkkkkkkkkkkkkkkkkkkk",
"kkkkkkkkkkkkkkkkkkkkkkkkkkkkkkkkkkkkkkkkkkkkkkkkkkkkkkkkkkkkkkkk",
"kkkkkkkkkkkkkkkkkkkkkkkkkkkkkkkkkkkkkkkkkkkkkkkkkkkkkkkkkkkkkkkk",
"kkkkkkkkkkkkkkkkkkkkkkkkkkkkkkkkkkkkkkkkkkkkkkkkkkkkkkkkkkkkkkkk",
"kkkkkkkkkkkkkkkkkkkkkkkkkkkkkkkkkkkkkkkkkkkkkkkkkkkkkkkkkkkkkkkk",
"kkkkkkkkkkkkkkkkkkkkkkkkkkkkkkkkkkkkkkkkkkkkkkkkkkkkkkkkkkkkkkkk",
"kkkkkkkkkkkkkkkkkkkkkkkkkkkkkkkkkkkkkkkkkkkkkkkkkkkkkkkkkkkkkkkk",
"kkkkkkkkkkkkkkkkkkkkkkkkkkkkkkkkkkkkkkkkkkkkkkkkkkkkkkkkkkkkkkkk",
"kkkkkkkkkkkkkkkkkkkkkkkkkkkkkkkkkkkkkkkkkkkkkkkkkkkkkkkkkkkkkkkk",
"kkkkkkkkkkkkkkkkkkkkkkkkkkkooooooooookkkkkkkkkkkkkkkkkkkkkkkkkkk",
"kkkkkkkkkkkkkkkkkkkkkkkkkXO99ttttte99ookkkkkkkkkkkkkkkkkkkkkkkkk",
"kkkkkkkkkkkkkkkkkkkkkkkko7tyaaapaaaatt9okkkkkkkkkkkkkkkkkkkkkkkk",
"kkkkkkkkkkkkkkkkkkkkkkko9taaiaaapaaaaat9okkkkkkkkkkkkkkkkkkkkkkk",
"kkkkkkkkkkkkkkkkkkkkkkko9aaaajjjjjhpaaatokkkkkkkkkkkkkkkkkkkkkkk",
"kkkkkkkkkkkkkkkkkkkkkkO9raaajjjjjjhjaaat9okkkkkkkkkkkkkkkkkkkkkk",
"kkkkkkkkkkkkkkkkkkkkkkX9taajjdjjhjjhjaat9okkkkkkkkkkkkkkkkkkkkkk",
"kkkkkkkkkkkkkkkkkkkkkko9yaajjjjjjjhjjaay9okkkkkkkkkkkkkkkkkkkkkk",
"kkkkkkkkkkkkkkkkkkkkkko9taajjjjjjjjjjaat9okkkkkkkkkkkkkkkkkkkkkk",
"kkkkkkkkkkkkkkkkkkkkkko9trspjjjjjjjjsatt7okkkkkkkkkkkkkkkkkkkkkk",
"kkkkkkkkkkkkkkkkkkkkkkX9t8aaajjjjhjaaa7t9okkkkkkkkkkkkkkkkkkkkkk",
"kkkkkkkkkkkkkkkkkkkkkko;t99ajjpaaadjp99t;Okkkkkkkkkkkkkkkkkkkkkk",
"kkkkkkkkkkkkkkkkkkkkkkX*99&jjdjaajjjj*90*okkkkkkkkkkkkkkkkkkkkkk",
"kkkkkkkkkkkkkkkkkkkkkkk.9%jjaajjjjaajj%9.kkkkkkkkkkkkkkkkkkkkkkk",
"kkkkkkkkkkkkkkkkkkkkkkkO*%joo;aaaa;ooj%*okkkkkkkkkkkkkkkkkkkkkkk",
"kkkkkkkkkkkkkkkkkkkkkkkko0ao***aa***oa9okkkkkkkkkkkkkkkkkkkkkkkk",
"kkkkkkkkkkkkkkkkkkkkkkkkko99;*toot*;99.kkkkkkkkkkkkkkkkkkkkkkkkk",
"kkkkkkkkkkkkkkkkkkkkkoooooo;9aj**js9:ooooookkkkkkkkkkkkkkkkkkkkk",
"kkkkkkkkkkkkkkkkkkkkoja8a;o;9aajaaa9-o-a9ajokkkkkkkkkkkkkkkkkkkk",
"kkkkkkkkkkkkkkkkkkko99;>9;#***j*j*a**#;9;;79okkkkkkkkkkkkkkkkkkk",
"kkkkkkkkkkkkkkkkkkko*df###;oooooooooo;+##jj*okkkkkkkkkkkkkkkkkkk",
"kkkkkkkkkkkkkkkkkkko#*9jjajj99;;;;99jjadj9*#okkkkkkkkkkkkkkkkkkk",
"kkkkkkkkkkkkkkkkkkkoaoOo##**aa;hs;ap**##..oaokkkkkkkkkkkkkkkkkkk",
"kkkkkkkkkkkkkkkkkkko31oo;*i9;=eatt*;9a*;oo5wXkkkkkkkkkkkkkkkkkkk",
"kkkkkkkkkkkkkkkkkkosooko;9*gja*ja*ajj*9;oko6uokkkkkkkkkkkkkkkkkk",
"kkkkkkkkkkkkkkkkkkojtoko**s*;*tatt*;*a&*oko2qokkkkkkkkkkkkkkkkkk",
"kkkkkkkkkkkkkkkkkkotooko#9*gja*ga*ajj*9#oko<4okkkkkkkkkkkkkkkkkk",
"kkkkkkkkkkkkkkkkkko*9*ooo#9*:=9**9*;*0#ookoo&.kkkkkkkkkkkkkkkkkk",
"kkkkkkkkkkkkkkkkko*ajjaoo;9pa0*oo*9aa9;okkX9tOkkkkkkkkkkkkkkkkkk",
"kkkkkkkkkkkkkkkkkoajj*ao*@**:*o9;o*-**#*oko7jokkkkkkkkkkkkkkkkkk",
"kkkkkkkkkkkkkkkkk 9=j**Xt9#99;o;*o;90#9toko9jokkkkkkkkkkkkkkkkkk",
"kkkkkkkkkkkkkkkkkko9*a9Xa9##ooo9;ooo##9aokooj.kkkkkkkkkkkkkkkkkk",
"kkkkkkkkkkkkkkkkkkkoooOooa9%*oooooo*%9aXo***ookkkkkkkkkkkkkkkkkk",
"kkkkkkkkkkkkkkkkkkkkkkkk9t###9t=*t9####oOajhs*okkkkkkkkkkkkkkkkk",
"kkkkkkkkkkkkkkkkkkkkkkkkoojso+%;;%#ojaaooi*jjaokkkkkkkkkkkkkkkkk",
"kkkkkkkkkkkkkkkkkkkkkkkko;tj$oooooo#tjtoo**j*8okkkkkkkkkkkkkkkkk",
"kkkkkkkkkkkkkkkkkkkkkkkko#,;ookkkk.#;;oXo9a*9.kkkkkkkkkkkkkkkkkk",
"kkkkkkkkkkkkkkkkkkkkkkkko8ja;okkkko;aj9okooXokkkkkkkkkkkkkkkkkkk",
"kkkkkkkkkkkkkkkkkkkkkkkko;jt#.kkkkotaXtokkkkkkkkkkkkkkkkkkkkkkkk",
"kkkkkkkkkkkkkkkkkkkkkkkko;o;okkkkoo;9=7#okkkkkkkkkkkkkkkkkkkkkkk",
"kkkkkkkkkkkkkkkkkkkkkkkkotoiXkkkko;a*s;a#okkkkkkkkkkkkkkkkkkkkkk",
"kkkkkkkkkkkkkkkkkkkkkkkootoatokkko;-t;t;7okkkkkkkkkkkkkkkkkkkkkk",
"kkkkkkkkkkkkkkkkkkkkkko#;9*9-ookkko*j*j=aokkkkkkkkkkkkkkkkkkkkkk",
"kkkkkkkkkkkkkkkkkkkkkko9a;a*7;okkkkoOooookkkkkkkkkkkkkkkkkkkkkkk",
"kkkkkkkkkkkkkkkkkkkkkkoa;j;j;;okkkkkkkkkkkkkkkkkkkkkkkkkkkkkkkkk",
"kkkkkkkkkkkkkkkkkkkkkkko#*&=@Xokkkkkkkkkkkkkkkkkkkkkkkkkkkkkkkkk",
"kkkkkkkkkkkkkkkkkkkkkkkkoooookkkkkkkkkkkkkkkkkkkkkkkkkkkkkkkkkkk",
"kkkkkkkkkkkkkkkkkkkkkkkkkkkkkkkkkkkkkkkkkkkkkkkkkkkkkkkkkkkkkkkk"
};
