/* XPM */
static char *result[] = {
/* columns rows colors chars-per-pixel */
"64 64 81 1 ",
"  c #140D15",
". c #150D15",
"X c #1A111B",
"o c #1B121C",
"O c #1D121E",
"+ c #1C131E",
"@ c #1D131E",
"# c #1D121F",
"$ c #1C131F",
"% c #1D131F",
"& c #27232E",
"* c #2E2532",
"= c #2E2433",
"- c #2E2533",
"; c #2C2734",
": c #2F2B38",
"> c #302C39",
", c #35303E",
"< c #363241",
"1 c #373241",
"2 c #3C3748",
"3 c #3D3748",
"4 c #4A4552",
"5 c #4D4A5C",
"6 c #4C4A5D",
"7 c #4D4A5D",
"8 c #4D4B5D",
"9 c #544F5D",
"0 c #595463",
"q c #5B5464",
"w c #5B5564",
"e c #5E5868",
"r c #635D6C",
"t c #645D6E",
"y c #736362",
"u c #7F7567",
"i c #686073",
"p c #6D6678",
"a c #726A7E",
"s c #726B7E",
"d c #736B7E",
"f c #726B7F",
"g c #8E8373",
"h c #928676",
"j c #998C7C",
"k c #998D7C",
"l c #9A8584",
"z c #A29684",
"x c #AA9D8A",
"c c #A79190",
"v c #A99291",
"b c #B19898",
"n c #B09998",
"m c #B19998",
"M c #B19999",
"N c #A6A690",
"B c #AAAB94",
"V c #BAAB96",
"C c #BAAC97",
"Z c #BBAD98",
"A c #B7B89F",
"S c #BEBFA5",
"D c #B9B9B9",
"F c #C4B59E",
"G c #C4B49F",
"H c #C4B59F",
"J c #C5B59F",
"K c #C9CAAE",
"L c gray80",
"P c gray87",
"I c #E5E6C6",
"U c #E5E7C6",
"Y c #E4E6C7",
"T c #E5E6C7",
"R c #E5E7C7",
"E c #FFFEFE",
"W c #FFFFFE",
"Q c #FFFEFF",
"! c #FEFFFF",
"~ c white",
"^ c None",
/* pixels */
"^^^^^^^^^^^^^^^^^^^^^^^^^^^^^^^^^^^^^^^^^^^^^^^^^^^^^^^^^^^^^^^^",
"^^^^^^^^^^^^^^^^^^^^^^^^^^^^^^^^^^^^^^^^^^^^^^^^^^^^^^^^^^^^^^^^",
"^^^^^^^^^^^^^^^^^^^^^^^^^^^^^^^^^^^^^^^^^^^^^^^^^^^^^^^^^^^^^^^^",
"^^^^^^^^^^^^^^^^^^^^^^^^^^^^^^^^^^^^^^^^^^^^^^^^^^^^^^^^^^^^^^^^",
"^^^^^^^^^^^^^^^^^^^^^^^^^^^^^^^^^^^^^^^^^^^^^^^^^^^^^^^^^^^^^^^^",
"^^^^^^^^^^^^^^^^^^^^^^^^^^^^^^^^^^^^^^^^^^^^^^^^^^^^^^^^^^^^^^^^",
"^^^^^^^^^^^^^^^^^^^^^^^^^^^^^^^^^^^^^^^^^^^^^^^^^^^^^^^^^^^^^^^^",
"^^^^^^^^^^^^^^^^^^^^^^^^^^^^^^^^^^^^^^^^^^^^^^^^^^^^^^^^^^^^^^^^",
"^^^^^^^^^^^^^^^^^^^^^^^^^^^^^^^^^^^^^^^^^^^^^^^^^^^^^^^^^^^^^^^^",
"^^^^^^^^^^^^^^^^^^^^^^^^^^^^^^^^^^^^^^^^^^^^^^^^^^^^^^^^^^^^^^^^",
"^^^^^^^^^^^^^^^^^^^^^^^^^^^^^^^^^^^^^^^^^^^^^^^^^^^^^^^^^^^^^^^^",
"^^^^^^^^^^^^^^^^^^^^^^^^^^^^^^^^^^^^^^^^^^^^^^^^^^^^^^^^^^^^^^^^",
"^^^^^^^^^^^^^^^^^^^^^^^^^^^^^^^^^^^^^^^^^^^^^^^^^^^^^^^^^^^^^^^^",
"^^^^^^^^^^^^^^^^^^^^^^^^^^^^^^^^^^^^^^^^^^^^^^^^^^^^^^^^^^^^^^^^",
"^^^^^^^^^^^^^^^^^^^^^^^^^^^^^^^^^^^^^^^^^^^^^^^^^^^^^^^^^^^^^^^^",
"^^^^^^^^^^^^^^^^^^^^^^^^^^^@@@@@@@O@O^^^^^^^^^^^^^^^^^^^^^^^^^^^",
"^^^^^^^^^^^^^^^^^^^^^^^^^+@nHHHHHHHHm@%^^^^^^^^^^^^^^^^^^^^^^^^^",
"^^^^^^^^^^^^^^^^^^^^^^^^@mHTTYTTTTTTTHm@^^^^^^^^^^^^^^^^^^^^^^^^",
"^^^^^^^^^^^^^^^^^^^^^^^@bHTYT~~~~~~RTTHm@^^^^^^^^^^^^^^^^^^^^^^^",
"^^^^^^^^^^^^^^^^^^^^^^^+HTTT~~~~~~!~YTTH%^^^^^^^^^^^^^^^^^^^^^^^",
"^^^^^^^^^^^^^^^^^^^^^^@mHYR!~~~~~~~~~TYHn@^^^^^^^^^^^^^^^^^^^^^^",
"^^^^^^^^^^^^^^^^^^^^^^@mHTT~~~~~~~~~~TYGM@^^^^^^^^^^^^^^^^^^^^^^",
"^^^^^^^^^^^^^^^^^^^^^^@mHTT~!~~Q~!~~~TTHm@^^^^^^^^^^^^^^^^^^^^^^",
"^^^^^^^^^^^^^^^^^^^^^^%mHTT~~~~~~~!~!TYHm@^^^^^^^^^^^^^^^^^^^^^^",
"^^^^^^^^^^^^^^^^^^^^^^%MHTT~~~~~~~~~~TTHm@^^^^^^^^^^^^^^^^^^^^^^",
"^^^^^^^^^^^^^^^^^^^^^^@mHTTT~~~~~~~~TTTHm@^^^^^^^^^^^^^^^^^^^^^^",
"^^^^^^^^^^^^^^^^^^^^^^@sFHTTT~~TT~~TTTHGs@^^^^^^^^^^^^^^^^^^^^^^",
"^^^^^^^^^^^^^^^^^^^^^^%smHHTTTTTTTURTHHms@^^^^^^^^^^^^^^^^^^^^^^",
"^^^^^^^^^^^^^^^^^^^^^^@sfmFHTTTTTTYTHHmss@^^^^^^^^^^^^^^^^^^^^^^",
"^^^^^^^^^^^^^^^^^^^^^^^@7smHHHTHHTHHFms7@^^^^^^^^^^^^^^^^^^^^^^^",
"^^^^^^^^^^^^^^^^^^^^^^^@7ssnmHHHHHHnmss7@^^^^^^^^^^^^^^^^^^^^^^^",
"^^^^^^^^^^^^^^^^^^^^^^^^@77sassssssss77@^^^^^^^^^^^^^^^^^^^^^^^^",
"^^^^^^^^^^^^^^^^^^^^^@+@@@@6777777777@@@@@@^^^^^^^^^^^^^^^^^^^^^",
"^^^^^^^^^^^^^^^^^^^^+HTHJms@@@7Ts7@@@smHHTH@^^^^^^^^^^^^^^^^^^^^",
"^^^^^^^^^^^^^^^^^^^@H@@smmss77mTsm77ssmms@@H@^^^^^^^^^^^^^^^^^^^",
"^^^^^^^^^^^^^^^^^^^@HTY%@777assm7sss777@@TTH@^^^^^^^^^^^^^^^^^^^",
"^^^^^^^^^^^^^^^^^^@T75~JssHT@7sIHs7%THssG~77T@^^^^^^^^^^^^^^^^^^",
"^^^^^^^^^^^^^^^^^^@~TTaHTW~~7HTm7TH7W~~IHsTT~@^^^^^^^^^^^^^^^^^^",
"^^^^^^^^^^^^^^^^^^@7~HsHHHTT77s~Hs77YTHFHsH~7@^^^^^^^^^^^^^^^^^^",
"^^^^^^^^^^^^^^^^^^^-H-7smmHT7HTm7TH7THmms7-H=^^^^^^^^^^^^^^^^^^^",
"^^^^^^^^^^^^^^^^^^@F~H-@7mHm77sEHs77mHm7@-H~H@^^^^^^^^^^^^^^^^^^",
"^^^^^^^^^^^^^^^^^^ovpZ@@@6ss-HTm7TH=ss7@@@sIs@^^^^^^^^^^^^^^^^^^",
"^^^^^^^^^^^^^^^^^^X<i1@^^@@ms7s~ms7smO@^^@Ts~@^^^^^^^^^^^^^^^^^^",
"^^^^^^^^^^^^^^^^^@lPxr@^@ma-MHTH7THm-sm@^+Hsm@^^^^^^^^^^^^^^^^^^",
"^^^^^^^^^^^^^^^^^@zSee3@s~Ha+6sTbs7@sHQs@@Hdm@^^^^^^^^^^^^^^^^^^",
"^^^^^^^^^^^^^^^^^O0k:j@@6H~W*-mH7m--W~H7@@3s3@@^^^^^^^^^^^^^^^^^",
"^^^^^^^^^^^^^^^^^^@9Bh@@@HH~~7sTmd7~~FH@@$sH~m@^^^^^^^^^^^^^^^^^",
"^^^^^^^^^^^^^^^^^^^   @@m+%HmmY~TTmmH@@m@3ssTH@^^^^^^^^^^^^^^^^^",
"^^^^^^^^^^^^^^^^^^^^^^^@HmH@sbsHHsmsoCcV+@F3Hs@^^^^^^^^^^^^^^^^^",
"^^^^^^^^^^^^^^^^^^^^^^^@sTm2@7@77@7@,lKt@@HIs@^^^^^^^^^^^^^^^^^^",
"^^^^^^^^^^^^^^^^^^^^^^^#sIWs3@@@@@@>wLAq@^@@O^^^^^^^^^^^^^^^^^^^",
"^^^^^^^^^^^^^^^^^^^^^^^^@~HT3@^^^^@;NgD.^^^^^^^^^^^^^^^^^^^^^^^^",
"^^^^^^^^^^^^^^^^^^^^^^^^O~HT3@^^^^@&y4u%@^^^^^^^^^^^^^^^^^^^^^^^",
"^^^^^^^^^^^^^^^^^^^^^^^^@Hsm3@^^^^@m7T@7m@^^^^^^^^^^^^^^^^^^^^^^",
"^^^^^^^^^^^^^^^^^^^^^^^^@3Ts@@^^^^@m=m8mT%^^^^^^^^^^^^^^^^^^^^^^",
"^^^^^^^^^^^^^^^^^^^^^^^@O@~mH@^^^^@sJs-Ym@^^^^^^^^^^^^^^^^^^^^^^",
"^^^^^^^^^^^^^^^^^^^^^^@m7OT7m@^^^^%sTTsG3@^^^^^^^^^^^^^^^^^^^^^^",
"^^^^^^^^^^^^^^^^^^^^^^@Tm7m-m@^^^^@smT3m@^^^^^^^^^^^^^^^^^^^^^^^",
"^^^^^^^^^^^^^^^^^^^^^^OmT-sHs@^^^^^@@O@@^^^^^^^^^^^^^^^^^^^^^^^^",
"^^^^^^^^^^^^^^^^^^^^^^%3HsTTs@^^^^^^^^^^^^^^^^^^^^^^^^^^^^^^^^^^",
"^^^^^^^^^^^^^^^^^^^^^^^@m3Tms@^^^^^^^^^^^^^^^^^^^^^^^^^^^^^^^^^^",
"^^^^^^^^^^^^^^^^^^^^^^^^@@@@@^^^^^^^^^^^^^^^^^^^^^^^^^^^^^^^^^^^",
"^^^^^^^^^^^^^^^^^^^^^^^^^^^^^^^^^^^^^^^^^^^^^^^^^^^^^^^^^^^^^^^^",
"^^^^^^^^^^^^^^^^^^^^^^^^^^^^^^^^^^^^^^^^^^^^^^^^^^^^^^^^^^^^^^^^"
};
