/* XPM */
static char *result[] = {
/* columns rows colors chars-per-pixel */
"64 64 41 1 ",
"  c black",
". c #1D121E",
"X c #1C131E",
"o c #1D131E",
"O c #1D131F",
"+ c #2E2533",
"@ c #3D3648",
"# c #3D3748",
"$ c #4B444C",
"% c #4C4A5D",
"& c #4D4A5D",
"* c #4D4B5D",
"= c #6A6878",
"- c #6B6878",
"; c #6B6978",
": c #726A7E",
"> c #726B7E",
", c #736B7E",
"< c #726B7F",
"1 c #B19898",
"2 c #B09998",
"3 c #B19998",
"4 c #B19999",
"5 c #ADA9B4",
"6 c #C4B59E",
"7 c #C5B59E",
"8 c #C4B49F",
"9 c #C4B59F",
"0 c #C5B59F",
"q c #E5E6C6",
"w c #E5E7C6",
"e c #E4E6C7",
"r c #E5E6C7",
"t c #E4E7C7",
"y c #E5E7C7",
"u c #FFFFFE",
"i c #FEFEFF",
"p c #FFFEFF",
"a c #FEFFFF",
"s c white",
"d c None",
/* pixels */
"dddddddddddddddddddddddddddddddddddddddddddddddddddddddddddddddd",
"dddddddddddddddddddddddddddddddddddddddddddddddddddddddddddddddd",
"dddddddddddddddddddddddddddddddddddddddddddddddddddddddddddddddd",
"dddddddddddddddddddddddddddddddddddddddddddddddddddddddddddddddd",
"dddddddddddddddddddddddddddddddddddddddddddddddddddddddddddddddd",
"dddddddddddddddddddddddddddddddddddddddddddddddddddddddddddddddd",
"dddddddddddddddddddddddddddddddddddddddddddddddddddddddddddddddd",
"dddddddddddddddddddddddddddddddddddddddddddddddddddddddddddddddd",
"dddddddddddddddddddddddddddddddddddddddddddddddddddddddddddddddd",
"dddddddddddddddddddddddddddddddddddddddddddddddddddddddddddddddd",
"dddddddddddddddddddddddddddddddddddddddddddddddddddddddddddddddd",
"dddddddddddddddddddddddddddddddddddddddddddddddddddddddddddddddd",
"dddddddddddddddddddddddddddddddddddddddddddddddddddddddddddddddd",
"dddddddddddddddddddddddddddddddddddddddddddddddddddddddddddddddd",
"dddddddddddddddddddddddddddddddddddddddddddddddddddddddddddddddd",
"dddddddddddddddddddddddddddddddddddddddddddddddddddddddddddddddd",
"dddddddddddddddddddddddddddooooooOoodddddddddddddddddddddddddddd",
"dddddddddddddddddddddddddoo339690933oodddddddddddddddddddddddddd",
"ddddddddddddddddddddddddo399rrrrrrr903Xddddddddddddddddddddddddd",
"dddddddddddddddddddddddo36ryrsssssrrr93odddddddddddddddddddddddd",
"ddddddddddddddddddddddd.6rrrsssssssstr9odddddddddddddddddddddddd",
"ddddddddddddddddddddddo38rrrsssussiasr93oddddddddddddddddddddddd",
"ddddddddddddddddddddddo19rrrsssssssssrr9oddddddddddddddddddddddd",
"ddddddddddddddddddddddo39rerrssssasusrr9oddddddddddddddddddddddd",
"ddddddddddddddddddddddo399rrrrsssussrrr9oddddddddddddddddddddddd",
"ddddddddddddddddddddddo399ryrrrrrrrrrrr3oddddddddddddddddddddddd",
"dddddddddddddddddddddd.>999rrrr9rrrrrrr3oddddddddddddddddddddddd",
"ddddddddddddddddddddddO>2999rr099rrrrrr3oddddddddddddddddddddddd",
"ddddddddddddddddddddddo&33899993>99rrr9&Oddddddddddddddddddddddd",
"dddddddddddddddddddddddo>339893>>ssyr9%ooddddddddddddddddddddddd",
"dddddddddddddddddddddddo&>3r>>>os9ooX99odddddddddddddddddddddddd",
"ddddddddddddddddddddddddo&:9q>&oso.&r9podddddddddddddddddddddddd",
"dddddddddddddddddddddddddo&><rrss3&>r9Oodddddddddddddddddddddddd",
"ddddddddddddddddddddddddddoo&9>rsss90o>odddddddddddddddddddddddd",
"ddddddddddddddddddddddddooo3oooo99999roddddddddddddddddddddddddd",
"dddddddddddddddddddddddoor8o>>oo9osorodddddddddddddddddddddddddd",
"ddddddddddddddddddddddo:3>>#oo><&9o&o>oddddddddddddddddddddddddd",
"ddddddddddddddddddddddo6>3939rrssr&r&9oddddddddddddddddddddddddd",
"ddddddddddddddddddddddo3r>>o<&99&&rs6+oddddddddddddddddddddddddd",
"ddddddddddddddddddddddo>s9o#>3&&rs9ss9oddddddddddddddddddddddddd",
"ddddddddddddddddddddddo>r,o>#9es&&r&r+oddddddddddddddddddddddddd",
"ddddddddddddddddddddddo>u>o>3&&usr9>r9oddddddddddddddddddddddddd",
"ddddddddddddddddddddddo6r0o#30y&&&r99+oddddddddddddddddddddddddd",
"ddddddddddddddddddddddo>9>o3&&&ssr6>9>oddddddddddddddddddddddddd",
"ddddddddddddddddddddddo6%03o9es*&%r99ooddddddddddddddddddddddddd",
"ddddddddddddddddddddddo37&3XoooOrr9&.ooddddddddddddddddddddddddd",
"dddddddddddddddddddddddo3r&3orryo>&o&&oddddddddddddddddddddddddd",
"ddddddddddddddddddddddd o3&19su&ro>>&>oddddddddddddddddddddddddd",
"dddddddddddddddddddddddddo3&6rqsoo9&#ooddddddddddddddddddddddddd",
"dddddddddddddddddddddddddooo99&uroo@3-oddddddddddddddddddddddddd",
"dddddddddddddddddddddddddo-;oo9&Oo-rs1oddddddddddddddddddddddddd",
"ddddddddddddddddddddddddoo-r93ooo-40r&&odddddddddddddddddddddddd",
"ddddddddddddddddddddddddo-es3-oddO-3&sqodddddddddddddddddddddddd",
"dddddddddddddddddddddddo;9&&$oddddo=&9&odddddddddddddddddddddddd",
"ddddddddddddddddddddddo3s&s5oddddddo9&r3oddddddddddddddddddddddd",
"dddddddddddddddddddddo3sr%3odddddddo3s&r&oOodddddddddddddddddddd",
"ddddddddddddddddddddo:93&rodddddddddo6&&39&roddddddddddddddddddd",
"ddddddddddddddddddddo9>&roddddddddddo&93r&s>oddddddddddddddddddd",
"ddddddddddddddddddddo3r9>3oo.ddddddd.es3rs>odddddddddddddddddddd",
"dddddddddddddddddddddO93,r>r3oddddddo39&&ooddddddddddddddddddddd",
"ddddddddddddddddddddddo&w&s&sodddddddo.ooddddddddddddddddddddddd",
"ddddddddddddddddddddddd.oooooddddddddddddddddddddddddddddddddddd",
"dddddddddddddddddddddddddddddddddddddddddddddddddddddddddddddddd",
"dddddddddddddddddddddddddddddddddddddddddddddddddddddddddddddddd"
};
