/* XPM */
static char *result[] = {
/* columns rows colors chars-per-pixel */
"64 64 53 1 ",
"  c #150D15",
". c #150E16",
"X c #181119",
"o c #19101A",
"O c #1C121D",
"+ c #1C121E",
"@ c #1D121E",
"# c #1C131E",
"$ c #1D131E",
"% c #1C131F",
"& c #1D131F",
"* c #2E2432",
"= c #2E2433",
"- c #2E2533",
"; c #2F2533",
": c #3D3648",
"> c #3C3748",
", c #3D3748",
"< c #3D3749",
"1 c #4D4A5C",
"2 c #4C4A5D",
"3 c #4D4A5D",
"4 c #4D4B5D",
"5 c #726A7E",
"6 c #726B7E",
"7 c #736B7E",
"8 c #726A7F",
"9 c #726B7F",
"0 c #8E8373",
"q c #928676",
"w c #988383",
"e c #9B8584",
"r c #A79A87",
"t c #AB9E8B",
"y c #B19898",
"u c #B09998",
"i c #B19998",
"p c #B19999",
"a c #A7A690",
"s c #ABAC95",
"d c #C4B49F",
"f c #C4B59F",
"g c #C5B59F",
"h c #E1E2C2",
"j c #E5E6C6",
"k c #E4E6C7",
"l c #E5E6C7",
"z c #E5E7C7",
"x c #FFFFFE",
"c c #FFFEFF",
"v c #FEFFFF",
"b c white",
"n c None",
/* pixels */
"nnnnnnnnnnnnnnnnnnnnnnnnnnnnnnnnnnnnnnnnnnnnnnnnnnnnnnnnnnnnnnnn",
"nnnnnnnnnnnnnnnnnnnnnnnnnnnnnnnnnnnnnnnnnnnnnnnnnnnnnnnnnnnnnnnn",
"nnnnnnnnnnnnnnnnnnnnnnnnnnnnnnnnnnnnnnnnnnnnnnnnnnnnnnnnnnnnnnnn",
"nnnnnnnnnnnnnnnnnnnnnnnnnnnnnnnnnnnnnnnnnnnnnnnnnnnnnnnnnnnnnnnn",
"nnnnnnnnnnnnnnnnnnnnnnnnnnnnnnnnnnnnnnnnnnnnnnnnnnnnnnnnnnnnnnnn",
"nnnnnnnnnnnnnnnnnnnnnnnnnnnnnnnnnnnnnnnnnnnnnnnnnnnnnnnnnnnnnnnn",
"nnnnnnnnnnnnnnnnnnnnnnnnnnnnnnnnnnnnnnnnnnnnnnnnnnnnnnnnnnnnnnnn",
"nnnnnnnnnnnnnnnnnnnnnnnnnnnnnnnnnnnnnnnnnnnnnnnnnnnnnnnnnnnnnnnn",
"nnnnnnnnnnnnnnnnnnnnnnnnnnnnnnnnnnnnnnnnnnnnnnnnnnnnnnnnnnnnnnnn",
"nnnnnnnnnnnnnnnnnnnnnnnnnnnnnnnnnnnnnnnnnnnnnnnnnnnnnnnnnnnnnnnn",
"nnnnnnnnnnnnnnnnnnnnnnnnnnnnnnnnnnnnnnnnnnnnnnnnnnnnnnnnnnnnnnnn",
"nnnnnnnnnnnnnnnnnnnnnnnnnnnnnnnnnnnnnnnnnnnnnnnnnnnnnnnnnnnnnnnn",
"nnnnnnnnnnnnnnnnnnnnnnnnnnnnnnnnnnnnnnnnnnnnnnnnnnnnnnnnnnnnnnnn",
"nnnnnnnnnnnnnnnnnnnnnnnnnnnnnnnnnnnnnnnnnnnnnnnnnnnnnnnnnnnnnnnn",
"nnnnnnnnnnnnnnnnnnnnnnnnnnnnnnnnnnnnnnnnnnnnnnnnnnnnnnnnnnnnnnnn",
"nnnnnnnnnnnnnnnnnnnnnnnnnnn$$$$$$$$$&nnnnnnnnnnnnnnnnnnnnnnnnnnn",
"nnnnnnnnnnnnnnnnnnnnnnnnn$$iiffffffii$$nnnnnnnnnnnnnnnnnnnnnnnnn",
"nnnnnnnnnnnnnnnnnnnnnnnn$ifflllllllldfi$nnnnnnnnnnnnnnnnnnnnnnnn",
"nnnnnnnnnnnnnnnnnnnnnnn$ifllllkllllllzgi$nnnnnnnnnnnnnnnnnnnnnnn",
"nnnnnnnnnnnnnnnnnnnnnnn$illllbbcvbbllllf$nnnnnnnnnnnnnnnnnnnnnnn",
"nnnnnnnnnnnnnnnnnnnnnn$iflllbbbccbcxlllfi$nnnnnnnnnnnnnnnnnnnnnn",
"nnnnnnnnnnnnnnnnnnnnnn$ifllxbbbcbvbbbllfi$nnnnnnnnnnnnnnnnnnnnnn",
"nnnnnnnnnnnnnnnnnnnnnn$iflkbbbbbbbbbbjlfi$nnnnnnnnnnnnnnnnnnnnnn",
"nnnnnnnnnnnnnnnnnnnnnn$ifllbbbbbbbbbbllfi$nnnnnnnnnnnnnnnnnnnnnn",
"nnnnnnnnnnnnnnnnnnnnnn$iffllbbbbbbbblkffi$nnnnnnnnnnnnnnnnnnnnnn",
"nnnnnnnnnnnnnnnnnnnnnn$ifilklbbbbbblllifi$nnnnnnnnnnnnnnnnnnnnnn",
"nnnnnnnnnnnnnnnnnnnnnn$6giilbbllzlbvliif6$nnnnnnnnnnnnnnnnnnnnnn",
"nnnnnnnnnnnnnnnnnnnnnn$3ii3bbbbllbbbb3ii3$nnnnnnnnnnnnnnnnnnnnnn",
"nnnnnnnnnnnnnnnnnnnnnnn$i,bbllbbbbllbb>i$nnnnnnnnnnnnnnnnnnnnnnn",
"nnnnnnnnnnnnnnnnnnnnnnn$3,b$$6llll6$$b:3$nnnnnnnnnnnnnnnnnnnnnnn",
"nnnnnnnnnnnnnnnnnnnnnnnn$il$133ll343$li$nnnnnnnnnnnnnnnnnnnnnnnn",
"nnnnnnnnnnnnnnnnnnnnnnnnn&ii63f$$f37ii$nnnnnnnnnnnnnnnnnnnnnnnnn",
"nnnnnnnnnnnnnnnnnnnnn$$$$$$6ilb33bji6$$$$&$nnnnnnnnnnnnnnnnnnnnn",
"nnnnnnnnnnnnnnnnnnnn$bkil6$6illbllli6$6lilv$nnnnnnnnnnnnnnnnnnnn",
"nnnnnnnnnnnnnnnnnnn$iy66i6-333b3b2l33-6i66iy$nnnnnnnnnnnnnnnnnnn",
"nnnnnnnnnnnnnnnnnnn$1bb=--6$$$$$$$$$$6---vb3$nnnnnnnnnnnnnnnnnnn",
"nnnnnnnnnnnnnnnnnnn$;3ibclbbii6666iibblbbu3;$nnnnnnnnnnnnnnnnnnn",
"nnnnnnnnnnnnnnnnnnn$l$$$*-33lj6bl6ll33--$$OhOnnnnnnnnnnnnnnnnnnn",
"nnnnnnnnnnnnnnnnnnnote$$63li63flgf36il36$$wrXnnnnnnnnnnnnnnnnnnn",
"nnnnnnnnnnnnnnnnnn&sq.n$6p3bbz3bl3kbb3i6$n 0a$nnnnnnnnnnnnnnnnnn",
"nnnnnnnnnnnnnnnnnn$3$@n$32l362glff363l33$n$$3$nnnnnnnnnnnnnnnnnn",
"nnnnnnnnnnnnnnnnnn$fi$n&-i3bcl3bl3lbb3i;$n$if$nnnnnnnnnnnnnnnnnn",
"nnnnnnnnnnnnnnnnnn$bi+n$$-p363i33i363y;$$n$ib$nnnnnnnnnnnnnnnnnn",
"nnnnnnnnnnnnnnnnnn$vi$nn$6illi3$$1illi6$nn$ib$nnnnnnnnnnnnnnnnnn",
"nnnnnnnnnnnnnnnnnn$b$$n#4-3363$i6&3633-3$n$$b#nnnnnnnnnnnnnnnnnn",
"nnnnnnnnnnnnnnnnnn$333$$fi;ii6$63$6ii-if$$333$nnnnnnnnnnnnnnnnnn",
"nnnnnnnnnnnnnnnnn$3lbbl$li--$$$i6$$$;-il$lbbl3$nnnnnnnnnnnnnnnnn",
"nnnnnnnnnnnnnnnnn$lvb4l$$li,3&@$&@$3<ik$&l3bbl$nnnnnnnnnnnnnnnnn",
"nnnnnnnnnnnnnnnnn#y3b33$6---fif32fig---6$33b2i$nnnnnnnnnnnnnnnnn",
"nnnnnnnnnnnnnnnnnn$i3ji$lbf$$-,76,-#$fbj$il3i$nnnnnnnnnnnnnnnnnn",
"nnnnnnnnnnnnnnnnnnn$$#$$bff;$$$$$@$$-ffb$$$$$nnnnnnnnnnnnnnnnnnn",
"nnnnnnnnnnnnnnnnnnnnnn$$569$nnnnnnnn$667$$nnnnnnnnnnnnnnnnnnnnnn",
"nnnnnnnnnnnnnnnnnnnnnn$ibz6$nnnnnnnn$8lbi&nnnnnnnnnnnnnnnnnnnnnn",
"nnnnnnnnnnnnnnnnnnnnnn$6bf-$nnnnnnnn$-fb6@nnnnnnnnnnnnnnnnnnnnnn",
"nnnnnnnnnnnnnnnnnnnnnn#f6&$nnnnnnnnnn$$6f$nnnnnnnnnnnnnnnnnnnnnn",
"nnnnnnnnnnnnnnnnnnnnnn$l$z$nnnnnnnnnn$l$l$nnnnnnnnnnnnnnnnnnnnnn",
"nnnnnnnnnnnnnnnnnnnnnn$f@lf$nnnnnnnn$fl#f$nnnnnnnnnnnnnnnnnnnnnn",
"nnnnnnnnnnnnnnnnnnnnn$-i3i6$$nnnnnn$$6i3i-$nnnnnnnnnnnnnnnnnnnnn",
"nnnnnnnnnnnnnnnnnnnn$=l3l3l7#nnnnnn$6l3l3k-$nnnnnnnnnnnnnnnnnnnn",
"nnnnnnnnnnnnnnnnnnnn$i6f6f66$nnnnnn$66f6f7y$nnnnnnnnnnnnnnnnnnnn",
"nnnnnnnnnnnnnnnnnnnn$l3b3b3$nnnnnnnn$3b3b3l$nnnnnnnnnnnnnnnnnnnn",
"nnnnnnnnnnnnnnnnnnnnn$$$$$$nnnnnnnnnn%#$$$$nnnnnnnnnnnnnnnnnnnnn",
"nnnnnnnnnnnnnnnnnnnnnnnnnnnnnnnnnnnnnnnnnnnnnnnnnnnnnnnnnnnnnnnn",
"nnnnnnnnnnnnnnnnnnnnnnnnnnnnnnnnnnnnnnnnnnnnnnnnnnnnnnnnnnnnnnnn"
};
