/* XPM */
static char *result[] = {
/* columns rows colors chars-per-pixel */
"64 64 87 1 ",
"  c #140D15",
". c #150D15",
"X c #160E17",
"o c #19101A",
"O c #1B121C",
"+ c #1D121E",
"@ c #1C131E",
"# c #1D131E",
"$ c #1D131F",
"% c #26222D",
"& c #2A2632",
"* c #2E2433",
"= c #2E2533",
"- c #2E2A37",
"; c #322D3B",
": c #312F3B",
"> c #363140",
", c #363141",
"< c #373241",
"1 c #3D3748",
"2 c #3D3749",
"3 c #484350",
"4 c #4D4A5C",
"5 c #4C4A5D",
"6 c #4D4A5D",
"7 c #4C4B5D",
"8 c #514B58",
"9 c #514C5A",
"0 c #575160",
"q c #5C5666",
"w c #5E5868",
"e c #5F5969",
"r c #615B6C",
"t c #706160",
"y c #7C6B6A",
"u c #7D7365",
"i c #666071",
"p c #676172",
"a c #6D6678",
"s c #726A7E",
"d c #726B7E",
"f c #736B7E",
"g c #726B7F",
"h c #736B7F",
"j c #8A7F70",
"k c #8C8172",
"l c #958A79",
"z c #958B79",
"x c #968B7A",
"c c #988483",
"v c #9F8988",
"b c #9F9281",
"n c #A89B88",
"m c #A99291",
"M c #AA9392",
"N c #B19898",
"B c #B09998",
"V c #B19998",
"C c #B19999",
"Z c #A4A58E",
"A c #AFAF98",
"S c #BBAD98",
"D c #BDAE99",
"F c #BDAF9A",
"G c #B9BAA1",
"H c #C4B49E",
"J c #C4B59E",
"K c #C5B59E",
"L c #C4B49F",
"P c #C4B59F",
"I c #C5B59F",
"U c #BFC0A6",
"Y c #CECFB3",
"T c gray77",
"R c #D5D5D5",
"E c gray86",
"W c #E4E6C6",
"Q c #E5E6C6",
"! c #E5E7C6",
"~ c #E4E6C7",
"^ c #E5E6C7",
"/ c #E5E7C7",
"( c #FFFFFE",
") c #FFFEFF",
"_ c #FEFFFF",
"` c white",
"' c None",
/* pixels */
"''''''''''''''''''''''''''''''''''''''''''''''''''''''''''''''''",
"''''''''''''''''''''''''''''''''''''''''''''''''''''''''''''''''",
"''''''''''''''''''''''''''''''''''''''''''''''''''''''''''''''''",
"''''''''''''''''''''''''''''''''''''''''''''''''''''''''''''''''",
"''''''''''''''''''''''''''''''''''''''''''''''''''''''''''''''''",
"''''''''''''''''''''''''''''''''''''''''''''''''''''''''''''''''",
"''''''''''''''''''''''''''''''''''''''''''''''''''''''''''''''''",
"''''''''''''''''''''''''''''''''''''''''''''''''''''''''''''''''",
"''''''''''''''''''''''''''''''''''''''''''''''''''''''''''''''''",
"''''''''''''''''''''''''''''''''''''''''''''''''''''''''''''''''",
"''''''''''''''''''''''''''''''''''''''''''''''''''''''''''''''''",
"''''''''''''''''''''''''''''''''''''''''''''''''''''''''''''''''",
"''''''''''''''''''''''''''''''''''''''''''''''''''''''''''''''''",
"''''''''''''''''''''''''''''''''''''''''''''''''''''''''''''''''",
"''''''''''''''''''''''''''''''''''''''''''''''''''''''''''''''''",
"'''''''''''''''''''''''''''##########'''''''''''''''''''''''''''",
"'''''''''''''''''''''''''##VPPPPPPPPV##'''''''''''''''''''''''''",
"''''''''''''''''''''''''@VP^^^^^^^^^^PV#''''''''''''''''''''''''",
"'''''''''''''''''''''''#VP^~^_```(`^!^PV#'''''''''''''''''''''''",
"'''''''''''''''''''''''#PQ^Q````````^^^P#'''''''''''''''''''''''",
"''''''''''''''''''''''#VP^^````````_`^~PV#''''''''''''''''''''''",
"''''''''''''''''''''''#VP^^`)````````^^PV#''''''''''''''''''''''",
"''''''''''''''''''''''#VI^^``````````^^PV#''''''''''''''''''''''",
"''''''''''''''''''''''#VP^^(`_```````^~PV#''''''''''''''''''''''",
"''''''''''''''''''''''#VP^^```````_``^^PV#''''''''''''''''''''''",
"''''''''''''''''''''''#VP^^Q`````(`)^^QPC+''''''''''''''''''''''",
"''''''''''''''''''''''$fIP^^^``^^``^^^PPd#''''''''''''''''''''''",
"''''''''''''''''''''''#dVPP^^^^^~^^^QPJVd#''''''''''''''''''''''",
"''''''''''''''''''''''#dhVIP^^^^^^^^PIBdd#''''''''''''''''''''''",
"'''''''''''''''''''''''#6dVPPP/PL^PPPVd6#'''''''''''''''''''''''",
"'''''''''''''''''''''''#6ddVVPPPKPPVCdd6#'''''''''''''''''''''''",
"''''''''''''''''''''''''#46dddddddddd65#''''''''''''''''''''''''",
"'''''''''''''''''''''###@#+6666666666###$##'''''''''''''''''''''",
"''''''''''''''''''''#P^PPVd###6^d6###dVPP^P$''''''''''''''''''''",
"'''''''''''''''''''#P##dVVdd66V~dV66ddVVd##P#'''''''''''''''''''",
"'''''''''''''''''''#P^^##676dddV6fdd646##^^P#'''''''''''''''''''",
"''''''''''''''''''#^66`PddP^@6d^Pg6#^PddP)66^#''''''''''''''''''",
"''''''''''''''''''#`^^dP^```6P^V6^P4```^Pd^^`#''''''''''''''''''",
"''''''''''''''''''#6_PdPPP^^64d`Pd66^QPPPdP`6+''''''''''''''''''",
"'''''''''''''''''''=P=6dVVP^6P^V6^P6^PVVd6=P='''''''''''''''''''",
"''''''''''''''''''#P`P=+6VJV66g`Pd66VIV6#=P`P#''''''''''''''''''",
"''''''''''''''''''@maS#$#6dd=P^V6^P=dd6@##d/d#''''''''''''''''''",
"''''''''''''''''''#<p,#''##Vs6d`Vd6dV+#''#Wf`#''''''''''''''''''",
"'''''''''''''''''#cEnr$'#Vf=VPQP5^PV=dV#'#PdN+''''''''''''''''''",
"'''''''''''''''''#bGqq1#d`Ps#6d^Nd6#dP`f##JdV#''''''''''''''''''",
"'''''''''''''''''#0l-z##6P)`==VP6V==``I6##2d1##'''''''''''''''''",
"'''''''''''''''''' 9Zk###PP``6d^Vd6``JP##$dP`V#'''''''''''''''''",
"'''''''''''''''''''#####V#+HVV/`^^VVP#@V#1dd^P#'''''''''''''''''",
"'''''''''''''''''''''''#PVL@dVdPPdVdODMF##J1Pd#'''''''''''''''''",
"'''''''''''''''''''''''+d^V1#6+66#6o>vYi##P~d+''''''''''''''''''",
"'''''''''''''''''''''''#d/`d1##@###;wRUe#'###'''''''''''''''''''",
"''''''''''''''''''''''''#`P^1#''''#-AxTX''''''''''''''''''''''''",
"''''''''''''''''''''''''#`P^1#''''#&y8j.#'''''''''''''''''''''''",
"''''''''''''''''''''''''#PdV1$''''#%t3u:##''''''''''''''''''''''",
"''''''''''''''''''''''''#1^d##''''#V4^#6V#''''''''''''''''''''''",
"'''''''''''''''''''''''#+#`VP#''''$V=V6VQ$''''''''''''''''''''''",
"''''''''''''''''''''''#V6#^6V@''''$dPd=^V#''''''''''''''''''''''",
"''''''''''''''''''''''#^V6V=V#''''#d~~gJ1+''''''''''''''''''''''",
"''''''''''''''''''''''#V^*dPd#''''#dV^1B#'''''''''''''''''''''''",
"''''''''''''''''''''''$1Pd^^d#'''''#####''''''''''''''''''''''''",
"'''''''''''''''''''''''$V1^Vd#''''''''''''''''''''''''''''''''''",
"''''''''''''''''''''''''#####'''''''''''''''''''''''''''''''''''",
"''''''''''''''''''''''''''''''''''''''''''''''''''''''''''''''''",
"''''''''''''''''''''''''''''''''''''''''''''''''''''''''''''''''"
};
