/* XPM */
static char *result[] = {
/* columns rows colors chars-per-pixel */
"64 64 47 1 ",
"  c #1D121E",
". c #1C131E",
"X c #1D131E",
"o c #1D121F",
"O c #1C131F",
"+ c #1D131F",
"@ c #2E2532",
"# c #2E2533",
"$ c #3D3748",
"% c #4D4A5C",
"& c #4C4A5D",
"* c #4D4A5D",
"= c #4D4B5D",
"- c #726A7E",
"; c #726B7E",
": c #736B7E",
"> c #726B7F",
", c #857B6C",
"< c #8D8372",
"1 c #958A79",
"2 c #988483",
"3 c #9B9C87",
"4 c #A58F8E",
"5 c #A69A87",
"6 c #A99C89",
"7 c #B19898",
"8 c #B09998",
"9 c #B19998",
"0 c #B19999",
"q c #A6A690",
"w c #AFAF98",
"e c #B6A894",
"r c #C4B59E",
"t c #C4B49F",
"y c #C4B59F",
"u c #C5B59F",
"i c #C1C2A8",
"p c #E5E6C6",
"a c #E4E6C7",
"s c #E5E6C7",
"d c #E5E7C7",
"f c #FEFFFE",
"g c #FFFFFE",
"h c #FFFEFF",
"j c #FEFFFF",
"k c white",
"l c None",
/* pixels */
"llllllllllllllllllllllllllllllllllllllllllllllllllllllllllllllll",
"llllllllllllllllllllllllllllllllllllllllllllllllllllllllllllllll",
"llllllllllllllllllllllllllllllllllllllllllllllllllllllllllllllll",
"llllllllllllllllllllllllllllllllllllllllllllllllllllllllllllllll",
"llllllllllllllllllllllllllllllllllllllllllllllllllllllllllllllll",
"llllllllllllllllllllllllllllllllllllllllllllllllllllllllllllllll",
"llllllllllllllllllllllllllllllllllllllllllllllllllllllllllllllll",
"llllllllllllllllllllllllllllllllllllllllllllllllllllllllllllllll",
"llllllllllllllllllllllllllllllllllllllllllllllllllllllllllllllll",
"llllllllllllllllllllllllllllllllllllllllllllllllllllllllllllllll",
"llllllllllllllllllllllllllllllllllllllllllllllllllllllllllllllll",
"llllllllllllllllllllllllllllllllllllllllllllllllllllllllllllllll",
"llllllllllllllllllllllllllllllllllllllllllllllllllllllllllllllll",
"llllllllllllllllllllllllllllllllllllllllllllllllllllllllllllllll",
"llllllllllllllllllllllllllllllllllllllllllllllllllllllllllllllll",
"lllllllllllllllllllllllllllXXXXX+XXXXlllllllllllllllllllllllllll",
"lllllllllllllllllllllllll.X99tyyyyy99XXlllllllllllllllllllllllll",
"llllllllllllllllllllllllX9yyssssssssyt9Xllllllllllllllllllllllll",
"lllllllllllllllllllllllX9yssssssssssssy9Xlllllllllllllllllllllll",
"lllllllllllllllllllllllX9asspgkkkkkssssy lllllllllllllllllllllll",
"llllllllllllllllllllllX9yassjjkkkkkjsssy9Xllllllllllllllllllllll",
"llllllllllllllllllllllX9ypskkjkkkkkkkspy9Xllllllllllllllllllllll",
"llllllllllllllllllllllX0ysskfkkkkkkgkssy9Xllllllllllllllllllllll",
"llllllllllllllllllllll 8ydskkkkkjkkkhssy9Xllllllllllllllllllllll",
"llllllllllllllllllllllX9yysskkkkkkkkdsyy9Xllllllllllllllllllllll",
"llllllllllllllllllllllX9y9sddhkkjkksss9r9Xllllllllllllllllllllll",
"llllllllllllllllllllllX;y98skksasskks99r:Xllllllllllllllllllllll",
"llllllllllllllllllllllX*99*kkkksskkkk*99=Xllllllllllllllllllllll",
"lllllllllllllllllllllllX9$kkssgkkksskk$9Xlllllllllllllllllllllll",
"lllllllllllllllllllllllX*$gXX;sass;XXk$*Xlllllllllllllllllllllll",
"llllllllllllllllllllllllX9sX***ss***Xd9Xllllllllllllllllllllllll",
"lllllllllllllllllllllllllO99;*yX+y*;09Xlllllllllllllllllllllllll",
"lllllllllllllllllllll+XXXXX;9sk=*gs9;XX .XXlllllllllllllllllllll",
"llllllllllllllllllllXhs9p;X;9sskdsp9;X;s0sgXllllllllllllllllllll",
"lllllllllllllllllllX99;;9;#***k*k*s**#;7;;99Xlllllllllllllllllll",
"lllllllllllllllllll+*kk###:XXXXXX.XXX;###hk*Xlllllllllllllllllll",
"lllllllllllllllllll.#*9kksgk99;>;;99kksjk9*@Xlllllllllllllllllll",
"lllllllllllllllllllXsX X##**ss;ks;ss%*##XXXsXlllllllllllllllllll",
"lllllllllllllllllllX62.X;*s9;*rpyy*;9s=;XX4eXlllllllllllllllllll",
"llllllllllllllllllXq<XlX;8*hks*ks*skk*9;XlX5iXllllllllllllllllll",
"llllllllllllllllllX*XXlX**s*;*ysyu*;*s**XlX1wXllllllllllllllllll",
"llllllllllllllllllXk9XlX#9*khs*ks*skj*9#Xl+,3Xllllllllllllllllll",
"llllllllllllllllllXk9Xl+X#9*;*9**9*;*9@X+lXX*Xllllllllllllllllll",
"llllllllllllllllllX**%XXX;9ss9*XX*9ss7;ollX8rXllllllllllllllllll",
"lllllllllllllllllX*skksX*#**;&X9>X*;**#*XlX9kXllllllllllllllllll",
"lllllllllllllllllXskh=sXy9#99;X;*X;99#9yXlXXkXllllllllllllllllll",
"lllllllllllllllllX8*k**Xs9##X  9-XXX@#9sXX**=Xllllllllllllllllll",
"llllllllllllllllllX9*s7XXs9$*XXXXXX*$9sXXdkks*Xlllllllllllllllll",
"lllllllllllllllllllX.XXX9y###9y**y9#### Xs*jksXlllllllllllllllll",
"llllllllllllllllllllllllX+ks+#$:;$#XkssXX**k*9Xlllllllllllllllll",
"llllllllllllllllllllllllX;yk#XXXXXX#ykyXX9s*9Xllllllllllllllllll",
"llllllllllllllllllllllllX#;;XXllllX#;;XXlXXXXlllllllllllllllllll",
"llllllllllllllllllllllllX9ks-Xllll ;sj9.llllllllllllllllllllllll",
"llllllllllllllllllllllllX;ky#+llllX#yk; llllllllllllllllllllllll",
"llllllllllllllllllllllll.-X9XllllllX;;y.llllllllllllllllllllllll",
"llllllllllllllllllllllllXyX;XlllllXysXyXllllllllllllllllllllllll",
"llllllllllllllllllllllllXsXsXllllXX;9*9#Xlllllllllllllllllllllll",
"lllllllllllllllllllllllX+yXst+lllX;s;s;s#Xllllllllllllllllllllll",
"llllllllllllllllllllllX#98*9:XXllX;;y;y;9Xllllllllllllllllllllll",
"llllllllllllllllllllllX#s;s;s;XlllX*g*k*sXllllllllllllllllllllll",
"llllllllllllllllllllllXk;y;y;;XllllXXX XXlllllllllllllllllllllll",
"lllllllllllllllllllllllX*k=k=Xllllllllllllllllllllllllllllllllll",
"llllllllllllllllllllllllXX+XXlllllllllllllllllllllllllllllllllll",
"llllllllllllllllllllllllllllllllllllllllllllllllllllllllllllllll"
};
