/* XPM */
static char *result[] = {
/* columns rows colors chars-per-pixel */
"64 64 38 1 ",
"  c #1D121E",
". c #1C131E",
"X c #1D131E",
"o c #1D121F",
"O c #1C131F",
"+ c #1D131F",
"@ c #2E2532",
"# c #2E2533",
"$ c #3D3648",
"% c #3D3748",
"& c #3D3749",
"* c #4D4A5C",
"= c #4C4A5D",
"- c #4D4A5D",
"; c #4D4B5D",
": c #726A7E",
"> c #726B7E",
", c #736B7E",
"< c #726A7F",
"1 c #726B7F",
"2 c #B09998",
"3 c #B19998",
"4 c #B19999",
"5 c #C4B49E",
"6 c #C4B59E",
"7 c #C5B59E",
"8 c #C4B49F",
"9 c #C4B59F",
"0 c #C5B59F",
"q c #E5E6C6",
"w c #E4E6C7",
"e c #E5E6C7",
"r c #E5E7C7",
"t c #FEFFFE",
"y c #FFFFFE",
"u c #FEFFFF",
"i c white",
"p c None",
/* pixels */
"pppppppppppppppppppppppppppppppppppppppppppppppppppppppppppppppp",
"pppppppppppppppppppppppppppppppppppppppppppppppppppppppppppppppp",
"pppppppppppppppppppppppppppppppppppppppppppppppppppppppppppppppp",
"pppppppppppppppppppppppppppppppppppppppppppppppppppppppppppppppp",
"pppppppppppppppppppppppppppppppppppppppppppppppppppppppppppppppp",
"pppppppppppppppppppppppppppppppppppppppppppppppppppppppppppppppp",
"pppppppppppppppppppppppppppppppppppppppppppppppppppppppppppppppp",
"pppppppppppppppppppppppppppppppppppppppppppppppppppppppppppppppp",
"pppppppppppppppppppppppppppppppppppppppppppppppppppppppppppppppp",
"pppppppppppppppppppppppppppppppppppppppppppppppppppppppppppppppp",
"pppppppppppppppppppppppppppppppppppppppppppppppppppppppppppppppp",
"pppppppppppppppppppppppppppppppppppppppppppppppppppppppppppppppp",
"pppppppppppppppppppppppppppppppppppppppppppppppppppppppppppppppp",
"pppppppppppppppppppppppppppppppppppppppppppppppppppppppppppppppp",
"pppppppppppppppppppppppppppppppppppppppppppppppppppppppppppppppp",
"pppppppppppppppppppppppppppXXXXXXXXXpppppppppppppppppppppppppppp",
"pppppppppppppppppppppppppXX339699932X pppppppppppppppppppppppppp",
"ppppppppppppppppppppppppX359eeeeeee973Xppppppppppppppppppppppppp",
"pppppppppppppppppppppppX39reeiiuiieee93Xpppppppppppppppppppppppp",
"pppppppppppppppppppppppX8qeeuiiiiiiiee9Xpppppppppppppppppppppppp",
"ppppppppppppppppppppppX39eeetiiiiiiiie94Xppppppppppppppppppppppp",
"ppppppppppppppppppppppX39ereiiiyiiiiiee9Xppppppppppppppppppppppp",
"pppppppppppppppppppppp 39eeeeiiiiiuiiee9+ppppppppppppppppppppppp",
"ppppppppppppppppppppppX399eeeeiiiiiyeer9Xppppppppppppppppppppppp",
"pppppppppppppppppppppp.399eeeeeeeeeewee3Xppppppppppppppppppppppp",
"pppppppppppppppppppppp.>969eeee9eeeeree3Xppppppppppppppppppppppp",
"ppppppppppppppppppppppX>3999ee999rereee3Xppppppppppppppppppppppp",
"ppppppppppppppppppppppX-33999993<89ere9-Xppppppppppppppppppppppp",
"ppppppppppppppppppppppXX>339983>>iiee9-XXppppppppppppppppppppppp",
"pppppppppppppppppppppppX->3e>>1Xi9XX.96Xpppppppppppppppppppppppp",
"ppppppppppppppppppppppppX->9e1-.iXX=q0uXpppppppppppppppppppppppp",
"pppppppppppppppppppppppppX-1>erii3->e9XXpppppppppppppppppppppppp",
"ppppppppppppppppppppppppppXX-9>eiii99X>Xpppppppppppppppppppppppp",
"ppppppppppppppppppppppppXXX3XX+X96909eXppppppppppppppppppppppppp",
"pppppppppppppppppppppppXXe9o>>XX9XiXwXXppppppppppppppppppppppppp",
"ppppppppppppppppppppppX>3:>%X+1>-9 -X9XXpppppppppppppppppppppppp",
"ppppppppppppppppppppppX9>3939eeiie-e-i9Xpppppppppppppppppppppppp",
"ppppppppppppppppppppppX3e1, >-09--ei9e# pppppppppppppppppppppppp",
"ppppppppppppppppppppppX>i9X%>3--ei9ii-9Xpppppppppppppppppppppppp",
"ppppppppppppppppppppppX9e9X:%9ei--w-ee#Xpppppppppppppppppppppppp",
"pppppppppppppppppppppX>e8X%>3--iie9>r-6Xpppppppppppppppppppppppp",
"pppppppppppppppppppppXei9X>%39e*--e89e#Xpppppppppppppppppppppppp",
"pppppppppppppppppppppX-9>X>4---iie9>9->Xpppppppppppppppppppppppp",
"pppppppppppppppppppppX*--X$%9ei---e99XXXpppppppppppppppppppppppp",
"pppppppppppppppppppppX9-9;+3;--ier8-XXX,Xppppppppppppppppppppppp",
"pppppppppppppppppppppX9i>XoXeeu-->-X--XeXppppppppppppppppppppppp",
"ppppppppppppppppppppppX939i9X9ei>>>>->X3Xppppppppppppppppppppppp",
"pppppppppppppppppppppp.-9i-iX39q-9e3*+X>Xppppppppppppppppppppppp",
"ppppppppppppppppppppppX9-eiX--=X-3X*-.XXpppppppppppppppppppppppp",
"pppppppppppppppppppppppXe-e9Xi93XXX33Xpppppppppppppppppppppppppp",
"ppppppppppppppppppppppppX+XO-iy9-X499Xpppppppppppppppppppppppppp",
"pppppppppppppppppppppppppppX3i9-X-39-Xpppppppppppppppppppppppppp",
"pppppppppppppppppppppppppppX3XX-X9&-9 pppppppppppppppppppppppppp",
"ppppppppppppppppppppppppppX9#9iXX9&2Xppppppppppppppppppppppppppp",
"ppppppppppppppppppppppppppXe#iXp+2-3Xppppppppppppppppppppppppppp",
"ppppppppppppppppppppppppppXi%iXpX93@#Xpppppppppppppppppppppppppp",
"pppppppppppppppppppppppppX>i-eXpX->9e,XXpppppppppppppppppppppppp",
"pppppppppppppppppppppppppX-3>eXX399e>eeeXppppppppppppppppppppppp",
"pppppppppppppppppppppppppX>9933XX33-->4iXppppppppppppppppppppppp",
"pppppppppppppppppppppppppX3e,e>e3+X.XXXXXppppppppppppppppppppppp",
"pppppppppppppppppppppppppX2-i-y;iXpppppppppppppppppppppppppppppp",
"ppppppppppppppppppppppppppXXXXX.Xppppppppppppppppppppppppppppppp",
"pppppppppppppppppppppppppppppppppppppppppppppppppppppppppppppppp",
"pppppppppppppppppppppppppppppppppppppppppppppppppppppppppppppppp"
};
