/* XPM */
static char *result[] = {
/* columns rows colors chars-per-pixel */
"64 64 39 1 ",
"  c #1D121E",
". c #1C131E",
"X c #1D131E",
"o c #1C131F",
"O c #1D131F",
"+ c #2E2533",
"@ c #3C3748",
"# c #3D3748",
"$ c #4C4A5C",
"% c #4D4A5C",
"& c #4C4A5D",
"* c #4D4A5D",
"= c #726A7E",
"- c #726B7E",
"; c #736B7E",
": c #726B7F",
"> c #736B7F",
", c #B09898",
"< c #B19898",
"1 c #B09998",
"2 c #B19998",
"3 c #B19899",
"4 c #B19999",
"5 c #C4B59E",
"6 c #C4B49F",
"7 c #C5B49F",
"8 c #C4B59F",
"9 c #C5B59F",
"0 c #E5E6C6",
"q c #E4E6C7",
"w c #E5E6C7",
"e c #E5E7C7",
"r c #FEFFFE",
"t c #FFFFFE",
"y c #FEFEFF",
"u c #FFFEFF",
"i c #FEFFFF",
"p c white",
"a c None",
/* pixels */
"aaaaaaaaaaaaaaaaaaaaaaaaaaaaaaaaaaaaaaaaaaaaaaaaaaaaaaaaaaaaaaaa",
"aaaaaaaaaaaaaaaaaaaaaaaaaaaaaaaaaaaaaaaaaaaaaaaaaaaaaaaaaaaaaaaa",
"aaaaaaaaaaaaaaaaaaaaaaaaaaaaaaaaaaaaaaaaaaaaaaaaaaaaaaaaaaaaaaaa",
"aaaaaaaaaaaaaaaaaaaaaaaaaaaaaaaaaaaaaaaaaaaaaaaaaaaaaaaaaaaaaaaa",
"aaaaaaaaaaaaaaaaaaaaaaaaaaaaaaaaaaaaaaaaaaaaaaaaaaaaaaaaaaaaaaaa",
"aaaaaaaaaaaaaaaaaaaaaaaaaaaaaaaaaaaaaaaaaaaaaaaaaaaaaaaaaaaaaaaa",
"aaaaaaaaaaaaaaaaaaaaaaaaaaaaaaaaaaaaaaaaaaaaaaaaaaaaaaaaaaaaaaaa",
"aaaaaaaaaaaaaaaaaaaaaaaaaaaaaaaaaaaaaaaaaaaaaaaaaaaaaaaaaaaaaaaa",
"aaaaaaaaaaaaaaaaaaaaaaaaaaaaaaaaaaaaaaaaaaaaaaaaaaaaaaaaaaaaaaaa",
"aaaaaaaaaaaaaaaaaaaaaaaaaaaaaaaaaaaaaaaaaaaaaaaaaaaaaaaaaaaaaaaa",
"aaaaaaaaaaaaaaaaaaaaaaaaaaaaaaaaaaaaaaaaaaaaaaaaaaaaaaaaaaaaaaaa",
"aaaaaaaaaaaaaaaaaaaaaaaaaaaaaaaaaaaaaaaaaaaaaaaaaaaaaaaaaaaaaaaa",
"aaaaaaaaaaaaaaaaaaaaaaaaaaaaaaaaaaaaaaaaaaaaaaaaaaaaaaaaaaaaaaaa",
"aaaaaaaaaaaaaaaaaaaaaaaaaaaaaaaaaaaaaaaaaaaaaaaaaaaaaaaaaaaaaaaa",
"aaaaaaaaaaaaaaaaaaaaaaaaaaaaaaaaaaaaaaaaaaaaaaaaaaaaaaaaaaaaaaaa",
"aaaaaaaaaaaaaaaaaaaaaaaaaaaXXXXXX.XXXaaaaaaaaaaaaaaaaaaaaaaaaaaa",
"aaaaaaaaaaaaaaaaaaaaaaaaaXX2888888852XXaaaaaaaaaaaaaaaaaaaaaaaaa",
"aaaaaaaaaaaaaaaaaaaaaaaaX48wwwwwwwwwq82Xaaaaaaaaaaaaaaaaaaaaaaaa",
"aaaaaaaaaaaaaaaaaaaaaaaX28ww0ppppppwww82Xaaaaaaaaaaaaaaaaaaaaaaa",
"aaaaaaaaaaaaaaaaaaaaaaaX8wwwpptppptpwww9Xaaaaaaaaaaaaaaaaaaaaaaa",
"aaaaaaaaaaaaaaaaaaaaaaX28wwpppppptpptww82Xaaaaaaaaaaaaaaaaaaaaaa",
"aaaaaaaaaaaaaaaaaaaaaaX28wwppppptpppi0w82 aaaaaaaaaaaaaaaaaaaaaa",
"aaaaaaaaaaaaaaaaaaaaaaO28wwppptppppppww52Xaaaaaaaaaaaaaaaaaaaaaa",
"aaaaaaaaaaaaaaaaaaaaaaX28wwppppppupppew82Xaaaaaaaaaaaaaaaaaaaaaa",
"aaaaaaaaaaaaaaaaaaaaaaX28wwppppppppppww82Xaaaaaaaaaaaaaaaaaaaaaa",
"aaaaaaaaaaaaaaaaaaaaaa.28wwwppppppppwww82Xaaaaaaaaaaaaaaaaaaaaaa",
"aaaaaaaaaaaaaaaaaaaaaaX-88wwwtpwwpp00w88-Xaaaaaaaaaaaaaaaaaaaaaa",
"aaaaaaaaaaaaaaaaaaaaaaX-288wwwwwwwwwq882-Xaaaaaaaaaaaaaaaaaaaaaa",
"aaaaaaaaaaaaaaaaaaaaaaX:-288wwwwwwqw882--Xaaaaaaaaaaaaaaaaaaaaaa",
"aaaaaaaaaaaaaaaaaaaaaaaX*-2898w88w8882-*Xaaaaaaaaaaaaaaaaaaaaaaa",
"aaaaaaaaaaaaaaaaaaaaaaaX*--2288888822--*Xaaaaaaaaaaaaaaaaaaaaaaa",
"aaaaaaaaaaaaaaaaaaaaaaaa **--->------**Xaaaaaaaaaaaaaaaaaaaaaaaa",
"aaaaaaaaaaaaaaaaaaaaaXXX XX**********XXXOXXaaaaaaaaaaaaaaaaaaaaa",
"aaaaaaaaaaaaaaaaaaaaX8e884-XXX*w-*O X-28808Xaaaaaaaaaaaaaaaaaaaa",
"aaaaaaaaaaaaaaaaaaaX8XX-22--**2w-4**-=22-oX8Xaaaaaaaaaaaaaaaaaaa",
"aaaaaaaaaaaaaaaaaaaX9wwXX&**---2*-=;***XXww6Xaaaaaaaaaaaaaaaaaaa",
"aaaaaaaaaaaaaaaaaaXw$&p8--8wO*-w8-*X08-:8p**qXaaaaaaaaaaaaaaaaaa",
"aaaaaaaaaaaaaaaaaaXpww-8wipp*8w2*w8*ipp08-wwpXaaaaaaaaaaaaaaaaaa",
"aaaaaaaaaaaaaaaaaaX*p8-888ww**-t8-**ww888:8p*Xaaaaaaaaaaaaaaaaaa",
"aaaaaaaaaaaaaaaaaaa+6+*=226w*8w2*w6*w822-*+8+aaaaaaaaaaaaaaaaaaa",
"aaaaaaaaaaaaaaaaaaX8p8+X*262**-p8-%*382*X+8p5Xaaaaaaaaaaaaaaaaaa",
"aaaaaaaaaaaaaaaaaaX:w-XX *--+8w<*w8+--*XXX-w-Xaaaaaaaaaaaaaaaaaa",
"aaaaaaaaaaaaaaaaaa.p-wXaaXX2:*-p4-*-2XXaaXw-pXaaaaaaaaaaaaaaaaaa",
"aaaaaaaaaaaaaaaaaaX2-8.aX2=+28w8*w81+-2XaX8-2Xaaaaaaaaaaaaaaaaaa",
"aaaaaaaaaaaaaaaaaaX#-#XX-p8-X*-w2-*X-8p-XX#-#Xaaaaaaaaaaaaaaaaaa",
"aaaaaaaaaaaaaaaaaX2p8-XX*8py++25*2++rp8* O-8p2Xaaaaaaaaaaaaaaaaa",
"aaaaaaaaaaaaaaaaaX8w--#XX88pp*-w2-*pp88OX#--w8Xaaaaaaaaaaaaaaaaa",
"aaaaaaaaaaaaaaaaaX-8#8X2wX9822wpww2288Xw2X8#8-.aaaaaaaaaaaaaaaaa",
"aaaaaaaaaaaaaaaaaaX-w8X828X*-2-88-2-*.828 8w-Xaaaaaaaaaaaaaaaaaa",
"aaaaaaaaaaaaaaaaaaaXXXX-w2#O-*X%*X*-X#2w-XXXXaaaaaaaaaaaaaaaaaaa",
"aaaaaaaaaaaaaaaaaaaaaaO-wp-#XXXXXXXX#-pw-Xaaaaaaaaaaaaaaaaaaaaaa",
"aaaaaaaaaaaaaaaaaaaaaaaXp7w#XaaaaaaX@w8pOaaaaaaaaaaaaaaaaaaaaaaa",
"aaaaaaaaaaaaaaaaaaaaaaaX8-2#XaaaaaaX#2-8Xaaaaaaaaaaaaaaaaaaaaaaa",
"aaaaaaaaaaaaaaaaaaaaaaaX#w-Xaaaaaaaa.-w#Xaaaaaaaaaaaaaaaaaaaaaaa",
"aaaaaaaaaaaaaaaaaaaaaXXXp28XaaaaaaaaX82pXXXaaaaaaaaaaaaaaaaaaaaa",
"aaaaaaaaaaaaaaaaaaaaO2*Xw&2Xaaaaaaaa 2%wX*2Xaaaaaaaaaaaaaaaaaaaa",
"aaaaaaaaaaaaaaaaaaaaOw2&1+2XaaaaaaaaX2+2*<wXaaaaaaaaaaaaaaaaaaaa",
"aaaaaaaaaaaaaaaaaaaaX2w+-8-XaaaaaaaaX-8-+w2Xaaaaaaaaaaaaaaaaaaaa",
"aaaaaaaaaaaaaaaaaaaaX#8-ww-XaaaaaaaaX-ww-8#Xaaaaaaaaaaaaaaaaaaaa",
"aaaaaaaaaaaaaaaaaaaaa ,#w2-XaaaaaaaaX-2w#2Xaaaaaaaaaaaaaaaaaaaaa",
"aaaaaaaaaaaaaaaaaaaaaaX.XOXaaaaaaaaaaXXXXXaaaaaaaaaaaaaaaaaaaaaa",
"aaaaaaaaaaaaaaaaaaaaaaaaaaaaaaaaaaaaaaaaaaaaaaaaaaaaaaaaaaaaaaaa",
"aaaaaaaaaaaaaaaaaaaaaaaaaaaaaaaaaaaaaaaaaaaaaaaaaaaaaaaaaaaaaaaa",
"aaaaaaaaaaaaaaaaaaaaaaaaaaaaaaaaaaaaaaaaaaaaaaaaaaaaaaaaaaaaaaaa"
};
