/* XPM */
static char *result[] = {
/* columns rows colors chars-per-pixel */
"64 64 38 1 ",
"  c black",
". c #1D121E",
"X c #1C131E",
"o c #1D131E",
"O c #1D131F",
"+ c #2E2533",
"@ c #3D3748",
"# c #4B444C",
"$ c #4C4A5D",
"% c #4D4A5D",
"& c #4C4B5D",
"* c #4D4B5D",
"= c #6A6878",
"- c #6B6878",
"; c #726A7E",
": c #726B7E",
"> c #736B7E",
", c #726B7F",
"< c #B19898",
"1 c #B09998",
"2 c #B19998",
"3 c #B09999",
"4 c #B19999",
"5 c #ADA9B4",
"6 c #C4B49E",
"7 c #C4B59E",
"8 c #C4B49F",
"9 c #C4B59F",
"0 c #C5B59F",
"q c #E5E6C6",
"w c #E4E6C7",
"e c #E5E6C7",
"r c #E5E7C7",
"t c #FFFFFE",
"y c #FFFEFF",
"u c #FEFFFF",
"i c white",
"p c None",
/* pixels */
"pppppppppppppppppppppppppppppppppppppppppppppppppppppppppppppppp",
"pppppppppppppppppppppppppppppppppppppppppppppppppppppppppppppppp",
"pppppppppppppppppppppppppppppppppppppppppppppppppppppppppppppppp",
"pppppppppppppppppppppppppppppppppppppppppppppppppppppppppppppppp",
"pppppppppppppppppppppppppppppppppppppppppppppppppppppppppppppppp",
"pppppppppppppppppppppppppppppppppppppppppppppppppppppppppppppppp",
"pppppppppppppppppppppppppppppppppppppppppppppppppppppppppppppppp",
"pppppppppppppppppppppppppppppppppppppppppppppppppppppppppppppppp",
"pppppppppppppppppppppppppppppppppppppppppppppppppppppppppppppppp",
"pppppppppppppppppppppppppppppppppppppppppppppppppppppppppppppppp",
"pppppppppppppppppppppppppppppppppppppppppppppppppppppppppppppppp",
"pppppppppppppppppppppppppppppppppppppppppppppppppppppppppppppppp",
"pppppppppppppppppppppppppppppppppppppppppppppppppppppppppppppppp",
"pppppppppppppppppppppppppppppppppppppppppppppppppppppppppppppppp",
"pppppppppppppppppppppppppppppppppppppppppppppppppppppppppppppppp",
"pppppppppppppppppppppppppppppppppppppppppppppppppppppppppppppppp",
"pppppppppppppppppppppppppppp.ooooooooppppppppppppppppppppppppppp",
"ppppppppppppppppppppppppppoO229999922ooppppppppppppppppppppppppp",
"pppppppppppppppppppppppppo299eeeeeee992opppppppppppppppppppppppp",
"ppppppppppppppppppppppppo27eeeiiiiieee92oppppppppppppppppppppppp",
"ppppppppppppppppppppppppo9eeiiiiiuiieee9oppppppppppppppppppppppp",
"pppppppppppppppppppppppX29eitiiiyiiieee91opppppppppppppppppppppp",
"pppppppppppppppppppppppo9eeiiiiiiiiieee92opppppppppppppppppppppp",
"pppppppppppppppppppppppo7eeiiiiyiiieeee72opppppppppppppppppppppp",
"pppppppppppppppppppppppo9reeiiyuiieeee992opppppppppppppppppppppp",
"pppppppppppppppppppppppX2eeeeeeeeeeeee994opppppppppppppppppppppp",
"pppppppppppppppppppppppo2eereeee9eeee999:opppppppppppppppppppppp",
"pppppppppppppppppppppppo2eeeeee999ee9991:opppppppppppppppppppppp",
"pppppppppppppppppppppppo%9eeq99:49999922%.pppppppppppppppppppppp",
"pppppppppppppppppppppppo.%9eeii:,299922:oppppppppppppppppppppppp",
"ppppppppppppppppppppppppo99ooo8io:;:e2:%Oppppppppppppppppppppppp",
"ppppppppppppppppppppppppoi9e%..io%:e9:%opppppppppppppppppppppppp",
"ppppppppppppppppppppppppoo9q:%2iiee::%oppppppppppppppppppppppppp",
"ppppppppppppppppppppppppo:o99yiiw:9%.opppppppppppppppppppppppppp",
"pppppppppppppppppppppppppoe99998XooO3ooopppppppppppppppppppppppp",
"ppppppppppppppppppppppppppoeoio8oo::o9rooppppppppppppppppppppppp",
"pppppppppppppppppppppppppo:o%o9$::oo@::2:opppppppppppppppppppppp",
"pppppppppppppppppppppppppo6%e%eiiqe9292:9opppppppppppppppppppppp",
"pppppppppppppppppppppppppo+9iw%%80%:o,:e2opppppppppppppppppppppp",
"pppppppppppppppppppppppppo9ti9ie*%2:@o9t,opppppppppppppppppppppp",
"pppppppppppppppppppppppppO+e%e%%iq7@:o:e:Xpppppppppppppppppppppp",
"pppppppppppppppppppppppppo9e:9eii%%2:o:i:opppppppppppppppppppppp",
"pppppppppppppppppppppppppo+09e&%%e92@o9e9opppppppppppppppppppppp",
"pppppppppppppppppppppppppo:9:9qii%*%4o:9:opppppppppppppppppppppp",
"pppppppppppppppppppppppppoo99e%%%ie9o29%9Xpppppppppppppppppppppp",
"pppppppppppppppppppppppppo.o%9erooooo2%92opppppppppppppppppppppp",
"pppppppppppppppppppppppppo%%o%:oeweX2%e2oppppppppppppppppppppppp",
"pppppppppppppppppppppppppo:%::oe%ii92$2o ppppppppppppppppppppppp",
"pppppppppppppppppppppppppoo@%9ooiee9%2oppppppppppppppppppppppppp",
"pppppppppppppppppppppppppo-2@ooei%99oooppppppppppppppppppppppppp",
"pppppppppppppppppppppppppo2ie-oX%9Xo--oppppppppppppppppppppppppp",
"ppppppppppppppppppppppppX%%e92-oOo29e=oopppppppppppppppppppppppp",
"ppppppppppppppppppppppppoei%4-oppo-2ie-opppppppppppppppppppppppp",
"ppppppppppppppppppppppppo%9%-oppppo#%%9-oppppppppppppppppppppppp",
"pppppppppppppppppppppppo2e*9oppppppo5i%i2opppppppppppppppppppppp",
"ppppppppppppppppppppooo%w%i2opppppppo2%ei2oppppppppppppppppppppp",
"pppppppppppppppppppoe%9<%%9opppppppppoe%29;opppppppppppppppppppp",
"pppppppppppppppppppo:i%e49%Xppppppppppow$>9opppppppppppppppppppp",
"ppppppppppppppppppppo:ie2ieopppppppooO2:9e2opppppppppppppppppppp",
"pppppppppppppppppppppoO%%92oppppppX2e:e:29oppppppppppppppppppppp",
"pppppppppppppppppppppppoooopppppppoi*i%e%opppppppppppppppppppppp",
"pppppppppppppppppppppppppppppppppppooooooppppppppppppppppppppppp",
"pppppppppppppppppppppppppppppppppppppppppppppppppppppppppppppppp",
"pppppppppppppppppppppppppppppppppppppppppppppppppppppppppppppppp"
};
