/* XPM */
static char *result[] = {
/* columns rows colors chars-per-pixel */
"64 64 67 1 ",
"  c #170F18",
". c #181019",
"X c #19101A",
"o c #1B131C",
"O c #1D121E",
"+ c #1C131E",
"@ c #1D131E",
"# c #1C131F",
"$ c #1D131F",
"% c #29212E",
"& c #2C2330",
"* c #2E2532",
"= c #2E2433",
"- c #2E2533",
"; c #2C2835",
": c #312C39",
"> c #3C3748",
", c #3D3748",
"< c #4B4653",
"1 c #494658",
"2 c #4C4A5D",
"3 c #4D4A5D",
"4 c #504A58",
"5 c #504B58",
"6 c #514B58",
"7 c #5B5665",
"8 c #615B6B",
"9 c #726A7E",
"0 c #736A7E",
"q c #726B7E",
"w c #736B7E",
"e c #726B7F",
"r c #827070",
"t c #8F7C7B",
"y c #938876",
"u c #978281",
"i c #9C8786",
"p c #9F9281",
"a c #979883",
"s c #A79A87",
"d c #B09998",
"f c #B19998",
"g c #B19899",
"h c #B19999",
"j c #ADA08C",
"k c #A8A992",
"l c #ACAD95",
"z c #ADAD95",
"x c #B1A390",
"c c #BBAD98",
"v c #A9A9A9",
"b c #C4B59E",
"n c #C5B59E",
"m c #C4B49F",
"M c #C4B59F",
"N c #C5B59F",
"B c #E5E6C6",
"V c #E4E6C7",
"C c #E5E6C7",
"Z c #E5E7C7",
"A c #E7E7E7",
"S c #FFFFFE",
"D c #FEFEFF",
"F c #FFFEFF",
"G c #FEFFFF",
"H c white",
"J c None",
/* pixels */
"JJJJJJJJJJJJJJJJJJJJJJJJJJJJJJJJJJJJJJJJJJJJJJJJJJJJJJJJJJJJJJJJ",
"JJJJJJJJJJJJJJJJJJJJJJJJJJJJJJJJJJJJJJJJJJJJJJJJJJJJJJJJJJJJJJJJ",
"JJJJJJJJJJJJJJJJJJJJJJJJJJJJJJJJJJJJJJJJJJJJJJJJJJJJJJJJJJJJJJJJ",
"JJJJJJJJJJJJJJJJJJJJJJJJJJJJJJJJJJJJJJJJJJJJJJJJJJJJJJJJJJJJJJJJ",
"JJJJJJJJJJJJJJJJJJJJJJJJJJJJJJJJJJJJJJJJJJJJJJJJJJJJJJJJJJJJJJJJ",
"JJJJJJJJJJJJJJJJJJJJJJJJJJJJJJJJJJJJJJJJJJJJJJJJJJJJJJJJJJJJJJJJ",
"JJJJJJJJJJJJJJJJJJJJJJJJJJJJJJJJJJJJJJJJJJJJJJJJJJJJJJJJJJJJJJJJ",
"JJJJJJJJJJJJJJJJJJJJJJJJJJJJJJJJJJJJJJJJJJJJJJJJJJJJJJJJJJJJJJJJ",
"JJJJJJJJJJJJJJJJJJJJJJJJJJJJJJJJJJJJJJJJJJJJJJJJJJJJJJJJJJJJJJJJ",
"JJJJJJJJJJJJJJJJJJJJJJJJJJJJJJJJJJJJJJJJJJJJJJJJJJJJJJJJJJJJJJJJ",
"JJJJJJJJJJJJJJJJJJJJJJJJJJJJJJJJJJJJJJJJJJJJJJJJJJJJJJJJJJJJJJJJ",
"JJJJJJJJJJJJJJJJJJJJJJJJJJJJJJJJJJJJJJJJJJJJJJJJJJJJJJJJJJJJJJJJ",
"JJJJJJJJJJJJJJJJJJJJJJJJJJJJJJJJJJJJJJJJJJJJJJJJJJJJJJJJJJJJJJJJ",
"JJJJJJJJJJJJJJJJJJJJJJJJJJJJJJJJJJJJJJJJJJJJJJJJJJJJJJJJJJJJJJJJ",
"JJJJJJJJJJJJJJJJJJJJJJJJJJJJJJJJJJJJJJJJJJJJJJJJJJJJJJJJJJJJJJJJ",
"JJJJJJJJJJJJJJJJJJJJJJJJJJJJJJJJJJJJJJJJJJJJJJJJJJJJJJJJJJJJJJJJ",
"JJJJJJJJJJJJJJJJJJJJJJJJJJJ@@O@$@+@@@JJJJJJJJJJJJJJJJJJJJJJJJJJJ",
"JJJJJJJJJJJJJJJJJJJJJJJJJ@+fMMMMMMMMh@@JJJJJJJJJJJJJJJJJJJJJJJJJ",
"JJJJJJJJJJJJJJJJJJJJJJJJ$fMCCCCVCCBCCMf$JJJJJJJJJJJJJJJJJJJJJJJJ",
"JJJJJJJJJJJJJJJJJJJJJJJ@fMCCCHSHFHHCCCMf@JJJJJJJJJJJJJJJJJJJJJJJ",
"JJJJJJJJJJJJJJJJJJJJJJJ@NCCCHHHHHFHHCVCN@JJJJJJJJJJJJJJJJJJJJJJJ",
"JJJJJJJJJJJJJJJJJJJJJJ@fMCBHHGHFHHHHHCCMf$JJJJJJJJJJJJJJJJJJJJJJ",
"JJJJJJJJJJJJJJJJJJJJJJ@fMBCHHHHHSHHHHCCMf$JJJJJJJJJJJJJJJJJJJJJJ",
"JJJJJJJJJJJJJJJJJJJJJJ@fMCCDHHHHHHHHHCCMf@JJJJJJJJJJJJJJJJJJJJJJ",
"JJJJJJJJJJJJJJJJJJJJJJ@fMCCSHHFHHFHHHCCMf@JJJJJJJJJJJJJJJJJJJJJJ",
"JJJJJJJJJJJJJJJJJJJJJJOfMCCFHHGHHHSHHCCMf@JJJJJJJJJJJJJJJJJJJJJJ",
"JJJJJJJJJJJJJJJJJJJJJJ@fMCCCHHSSHHHHCVCMf@JJJJJJJJJJJJJJJJJJJJJJ",
"JJJJJJJJJJJJJJJJJJJJJJ@9bMVCCHGCCHHCCCMM9@JJJJJJJJJJJJJJJJJJJJJJ",
"JJJJJJJJJJJJJJJJJJJJJJ@qfMMCCVCCCCCCCMMfq@JJJJJJJJJJJJJJJJJJJJJJ",
"JJJJJJJJJJJJJJJJJJJJJJ@qqfMMCCCCCCCCMMfqq@JJJJJJJJJJJJJJJJJJJJJJ",
"JJJJJJJJJJJJJJJJJJJJJJJ@2qfbMMCnmCMMMdq3@JJJJJJJJJJJJJJJJJJJJJJJ",
"JJJJJJJJJJJJJJJJJJJJJJJ@3q9gfMMMMMMffqq3@JJJJJJJJJJJJJJJJJJJJJJJ",
"JJJJJJJJJJJJJJJJJJJJJJJJ#23qqqqqqqqqe33@JJJJJJJJJJJJJJJJJJJJJJJJ",
"JJJJJJJJJJJJJJJJJJJJJ@@@@@@3333333333@@$@@@JJJJJJJJJJJJJJJJJJJJJ",
"JJJJJJJJJJJJJJJJJJJJ@mCMMfq@@@3Cw3@@@qdMMBM@JJJJJJJJJJJJJJJJJJJJ",
"JJJJJJJJJJJJJJJJJJJOM@+qffqq33fCqf33qqffq@@M+JJJJJJJJJJJJJJJJJJJ",
"JJJJJJJJJJJJJJJJJJJ@MCC@@333qwqf3qqq333@@CCM@JJJJJJJJJJJJJJJJJJJ",
"JJJJJJJJJJJJJJJJJJ@C33FNqqMZ@3qCMq3@CMqqMH33C@JJJJJJJJJJJJJJJJJJ",
"JJJJJJJJJJJJJJJJJJ@CCC9MCHHH3MCf3CM3HHHCMqCCH@JJJJJJJJJJJJJJJJJJ",
"JJJJJJJJJJJJJJJJJJ@3HbqMMMCC23qSNq33CCMMMqMH3@JJJJJJJJJJJJJJJJJJ",
"JJJJJJJJJJJJJJJJJJJ-M-3qffMC3MCf3VM3CMffq1&c&JJJJJJJJJJJJJJJJJJJ",
"JJJJJJJJJJJJJJJJJJ@mHM-@3fmf33qHMq32fMf3@%xAx@JJJJJJJJJJJJJJJJJJ",
"JJJJJJJJJJJJJJJJJJ@qCq@@@3qe-MCf3CM-qq3+@.s8u@JJJJJJJJJJJJJJJJJJ",
"JJJJJJJJJJJJJJJJJJ@F9C@JJO$fq3qHfq3qf@@JJ :7:#JJJJJJJJJJJJJJJJJJ",
"JJJJJJJJJJJJJJJJJJ@fwM@J@fq-fMCM3CMf-qd@Jylzf@JJJJJJJJJJJJJJJJJJ",
"JJJJJJJJJJJJJJJJJJOfeM@@qHNq$3qCfq3@wMHq@456@JJJJJJJJJJJJJJJJJJJ",
"JJJJJJJJJJJJJJJJJ@@,q,@@3MHH-*fM3h--HHM2@@@@JJJJJJJJJJJJJJJJJJJJ",
"JJJJJJJJJJJJJJJJJ@fHMq@@ocMGH3qCfq3HHMM@@JJJJJJJJJJJJJJJJJJJJJJJ",
"JJJJJJJJJJJJJJJJJ@MCqq,@iXXjffCSCVffM@@f@JJJJJJJJJJJJJJJJJJJJJJJ",
"JJJJJJJJJJJJJJJJJ@qm,MO@ptp qfqMMefq@MfM@JJJJJJJJJJJJJJJJJJJJJJJ",
"JJJJJJJJJJJJJJJJJJ@qCM@@qkr;@3@33@3@>fC0@JJJJJJJJJJJJJJJJJJJJJJJ",
"JJJJJJJJJJJJJJJJJJJ@@@J@eav<,@@@@@@,qHVq@JJJJJJJJJJJJJJJJJJJJJJJ",
"JJJJJJJJJJJJJJJJJJJJJJJ@@Mqf,@JJJJ@,CMH@JJJJJJJJJJJJJJJJJJJJJJJJ",
"JJJJJJJJJJJJJJJJJJJJJJ@f3@C3f@JJJJ@,CMH@JJJJJJJJJJJJJJJJJJJJJJJJ",
"JJJJJJJJJJJJJJJJJJJJJJ@Cd3f-f@JJJJ@,fqM@JJJJJJJJJJJJJJJJJJJJJJJJ",
"JJJJJJJJJJJJJJJJJJJJJJ@fC-qMw@JJJJ@@qC,#JJJJJJJJJJJJJJJJJJJJJJJJ",
"JJJJJJJJJJJJJJJJJJJJJJ@,MqCBq@JJJJ@MfH@@@JJJJJJJJJJJJJJJJJJJJJJJ",
"JJJJJJJJJJJJJJJJJJJJJJJ@f,Cfq@JJJJ$f3Z@3f@JJJJJJJJJJJJJJJJJJJJJJ",
"JJJJJJJJJJJJJJJJJJJJJJJJ@@@@@JJJJJ@f-f3fC@JJJJJJJJJJJJJJJJJJJJJJ",
"JJJJJJJJJJJJJJJJJJJJJJJJJJJJJJJJJJ@qMq=Cd@JJJJJJJJJJJJJJJJJJJJJJ",
"JJJJJJJJJJJJJJJJJJJJJJJJJJJJJJJJJJ@qCCqM,@JJJJJJJJJJJJJJJJJJJJJJ",
"JJJJJJJJJJJJJJJJJJJJJJJJJJJJJJJJJJ@qfC,f$JJJJJJJJJJJJJJJJJJJJJJJ",
"JJJJJJJJJJJJJJJJJJJJJJJJJJJJJJJJJJJ@@@@@JJJJJJJJJJJJJJJJJJJJJJJJ",
"JJJJJJJJJJJJJJJJJJJJJJJJJJJJJJJJJJJJJJJJJJJJJJJJJJJJJJJJJJJJJJJJ"
};
