/* XPM */
static char *result[] = {
/* columns rows colors chars-per-pixel */
"64 64 55 1 ",
"  c #1A111B",
". c #1B111C",
"X c #1C121D",
"o c #1C121E",
"O c #1D121E",
"+ c #1C131E",
"@ c #1D131E",
"# c #1D121F",
"$ c #1D131F",
"% c #2E2532",
"& c #2E2433",
"* c #2E2533",
"= c #2F2533",
"- c #3D3748",
"; c #3D3749",
": c #4D4A5C",
"> c #4C4A5D",
", c #4D4A5D",
"< c #4C4B5D",
"1 c #4D4B5D",
"2 c #726A7E",
"3 c #726B7E",
"4 c #736B7E",
"5 c #726B7F",
"6 c #83796A",
"7 c #867473",
"8 c #928777",
"9 c #958A79",
"0 c #999A85",
"q c #A18B8A",
"w c #A29684",
"e c #B09898",
"r c #B19898",
"t c #B09998",
"y c #B19998",
"u c #B19999",
"i c #ABAC95",
"p c #B2A490",
"a c #BDBEA4",
"s c #C4B49E",
"d c #C4B59E",
"f c #C4B49F",
"g c #C4B59F",
"h c #C5B59F",
"j c #D8D9BC",
"k c #E3E4C5",
"l c #E5E6C6",
"z c #E4E6C7",
"x c #E5E6C7",
"c c #E5E7C7",
"v c #FFFFFE",
"b c #FFFEFF",
"n c #FEFFFF",
"m c white",
"M c None",
/* pixels */
"MMMMMMMMMMMMMMMMMMMMMMMMMMMMMMMMMMMMMMMMMMMMMMMMMMMMMMMMMMMMMMMM",
"MMMMMMMMMMMMMMMMMMMMMMMMMMMMMMMMMMMMMMMMMMMMMMMMMMMMMMMMMMMMMMMM",
"MMMMMMMMMMMMMMMMMMMMMMMMMMMMMMMMMMMMMMMMMMMMMMMMMMMMMMMMMMMMMMMM",
"MMMMMMMMMMMMMMMMMMMMMMMMMMMMMMMMMMMMMMMMMMMMMMMMMMMMMMMMMMMMMMMM",
"MMMMMMMMMMMMMMMMMMMMMMMMMMMMMMMMMMMMMMMMMMMMMMMMMMMMMMMMMMMMMMMM",
"MMMMMMMMMMMMMMMMMMMMMMMMMMMMMMMMMMMMMMMMMMMMMMMMMMMMMMMMMMMMMMMM",
"MMMMMMMMMMMMMMMMMMMMMMMMMMMMMMMMMMMMMMMMMMMMMMMMMMMMMMMMMMMMMMMM",
"MMMMMMMMMMMMMMMMMMMMMMMMMMMMMMMMMMMMMMMMMMMMMMMMMMMMMMMMMMMMMMMM",
"MMMMMMMMMMMMMMMMMMMMMMMMMMMMMMMMMMMMMMMMMMMMMMMMMMMMMMMMMMMMMMMM",
"MMMMMMMMMMMMMMMMMMMMMMMMMMMMMMMMMMMMMMMMMMMMMMMMMMMMMMMMMMMMMMMM",
"MMMMMMMMMMMMMMMMMMMMMMMMMMMMMMMMMMMMMMMMMMMMMMMMMMMMMMMMMMMMMMMM",
"MMMMMMMMMMMMMMMMMMMMMMMMMMMMMMMMMMMMMMMMMMMMMMMMMMMMMMMMMMMMMMMM",
"MMMMMMMMMMMMMMMMMMMMMMMMMMMMMMMMMMMMMMMMMMMMMMMMMMMMMMMMMMMMMMMM",
"MMMMMMMMMMMMMMMMMMMMMMMMMMMMMMMMMMMMMMMMMMMMMMMMMMMMMMMMMMMMMMMM",
"MMMMMMMMMMMMMMMMMMMMMMMMMMMMMMMMMMMMMMMMMMMMMMMMMMMMMMMMMMMMMMMM",
"MMMMMMMMMMMMMMMMMMMMMMMMMMMMMMMMMMMMMMMMMMMMMMMMMMMMMMMMMMMMMMMM",
"MMMMMMMMMMMMMMMMMMMMMMMMMMM@@@@@@@@@@MMMMMMMMMMMMMMMMMMMMMMMMMMM",
"MMMMMMMMMMMMMMMMMMMMMMMMM@@yyggggfgyy@@MMMMMMMMMMMMMMMMMMMMMMMMM",
"MMMMMMMMMMMMMMMMMMMMMMMM@ydfxxzxxzxxhgy@MMMMMMMMMMMMMMMMMMMMMMMM",
"MMMMMMMMMMMMMMMMMMMMMMM@ygxzxxxcxxxxxxgy@MMMMMMMMMMMMMMMMMMMMMMM",
"MMMMMMMMMMMMMMMMMMMMMMM@txxxxvmmmmbxxxxd@MMMMMMMMMMMMMMMMMMMMMMM",
"MMMMMMMMMMMMMMMMMMMMMM+ygxxxmmmmmmmmcxxgy@MMMMMMMMMMMMMMMMMMMMMM",
"MMMMMMMMMMMMMMMMMMMMMM@ygxxmmmbmmmmmmxxgy@MMMMMMMMMMMMMMMMMMMMMM",
"MMMMMMMMMMMMMMMMMMMMMM@rgxxmmmmmnmmmmlxgy@MMMMMMMMMMMMMMMMMMMMMM",
"MMMMMMMMMMMMMMMMMMMMMM@ugxxmmmmmmmmmmzxgy+MMMMMMMMMMMMMMMMMMMMMM",
"MMMMMMMMMMMMMMMMMMMMMM@yggxxmmmmmmmmxxhgy@MMMMMMMMMMMMMMMMMMMMMM",
"MMMMMMMMMMMMMMMMMMMMMM@ygyxxxmmmmmmxxxygy@MMMMMMMMMMMMMMMMMMMMMM",
"MMMMMMMMMMMMMMMMMMMMMM@4gyuxmvxxxlmmzyyd3@MMMMMMMMMMMMMMMMMMMMMM",
"MMMMMMMMMMMMMMMMMMMMMM+,yy,mmmmxxmbmm,yy,@MMMMMMMMMMMMMMMMMMMMMM",
"MMMMMMMMMMMMMMMMMMMMMMM@y;mmxcmmmmxxmn-t@MMMMMMMMMMMMMMMMMMMMMMM",
"MMMMMMMMMMMMMMMMMMMMMMM@,-m@$3xxxx3O@b;,@MMMMMMMMMMMMMMMMMMMMMMM",
"MMMMMMMMMMMMMMMMMMMMMMMM@yx@,,<xx,,,@xy+MMMMMMMMMMMMMMMMMMMMMMMM",
"MMMMMMMMMMMMMMMMMMMMMMMMM@yy3,g@@g,3yy@MMMMMMMMMMMMMMMMMMMMMMMMM",
"MMMMMMMMMMMMMMMMMMMMM@@+@@@3yxb,,mxy3@@@@@@MMMMMMMMMMMMMMMMMMMMM",
"MMMMMMMMMMMMMMMMMMMM@vxyx3@3yxxmxxxy3+3xtxm@MMMMMMMMMMMMMMMMMMMM",
"MMMMMMMMMMMMMMMMMMMoty43y3*,,,m,n,x,:%3y33yrOMMMMMMMMMMMMMMMMMMM",
"MMMMMMMMMMMMMMMMMMM@:mm**%3@@@@@@+@@@3***mm,@MMMMMMMMMMMMMMMMMMM",
"MMMMMMMMMMMMMMMMMMM+*,ymmxmmyy5333yybbxvmy,*@MMMMMMMMMMMMMMMMMMM",
"MMMMMMMMMMMMMMMMMMMXkX@@**,>xx3mx3xx,,*%@@.j@MMMMMMMMMMMMMMMMMMM",
"MMMMMMMMMMMMMMMMMMM pq@@3,xy31gxgg,3yx,3+@79@MMMMMMMMMMMMMMMMMMM",
"MMMMMMMMMMMMMMMMMM@aw@M@3y,mmx,mx,xmm,y3@M@+x@MMMMMMMMMMMMMMMMMM",
"MMMMMMMMMMMMMMMMMM$i8@M$,,x,3:gxgg,3,x,>@M@gm+MMMMMMMMMMMMMMMMMM",
"MMMMMMMMMMMMMMMMMM@06@M@*y,nmx,mx,cmm,y*@M@@d@MMMMMMMMMMMMMMMMMM",
"MMMMMMMMMMMMMMMMMM@,@@M@@*y:3,r,,y,3,y*@@@,y1@MMMMMMMMMMMMMMMMMM",
"MMMMMMMMMMMMMMMMMMOgy@MM@3ylxy>@@,yxxy3@@xbmx>@MMMMMMMMMMMMMMMMM",
"MMMMMMMMMMMMMMMMMM@my@M@1*,,3>@y3@,4,,*,@x,mmxOMMMMMMMMMMMMMMMMM",
"MMMMMMMMMMMMMMMMMM#my@M@hy*yy3@31@3ey&yg@,,m:y+MMMMMMMMMMMMMMMMM",
"MMMMMMMMMMMMMMMMMM@m@@M@ly**@@@y3@O@*=yx@yx,y@MMMMMMMMMMMMMMMMMM",
"MMMMMMMMMMMMMMMMMM@@,,,@@xy-,@@@@@@,-yl@@@@O@MMMMMMMMMMMMMMMMMMM",
"MMMMMMMMMMMMMMMMM@,xbmx@@**=*yg,,gy=**gyMMMMMMMMMMMMMMMMMMMMMMMM",
"MMMMMMMMMMMMMMMMM@xmm,xO@xxm@*-33-*@xb@@MMMMMMMMMMMMMMMMMMMMMMMM",
"MMMMMMMMMMMMMMMMM@y,m,,+@dmg*@@@@O@*ms3@MMMMMMMMMMMMMMMMMMMMMMMM",
"MMMMMMMMMMMMMMMMMM@y,xy@@@23*@MMMM@+33*@MMMMMMMMMMMMMMMMMMMMMMMM",
"MMMMMMMMMMMMMMMMMMM@@@@M@y@x3@MMMM+2xmu@MMMMMMMMMMMMMMMMMMMMMMMM",
"MMMMMMMMMMMMMMMMMMMMMMMM@g@xg@MMMM@&gm3@MMMMMMMMMMMMMMMMMMMMMMMM",
"MMMMMMMMMMMMMMMMMMMMMMM@*y,y3@@MMMM@3@3OMMMMMMMMMMMMMMMMMMMMMMMM",
"MMMMMMMMMMMMMMMMMMMMMM@*c3x,x3@MMMM@l@g@MMMMMMMMMMMMMMMMMMMMMMMM",
"MMMMMMMMMMMMMMMMMMMMMM@y3s3g33@MMMOgx@g@@MMMMMMMMMMMMMMMMMMMMMMM",
"MMMMMMMMMMMMMMMMMMMMMMOx,m,v,@MMM@@2y,y3*@MMMMMMMMMMMMMMMMMMMMMM",
"MMMMMMMMMMMMMMMMMMMMMMM@@@@@@MMMM@3x,x3xy+MMMMMMMMMMMMMMMMMMMMMM",
"MMMMMMMMMMMMMMMMMMMMMMMMMMMMMMMMM@33m3m3x@MMMMMMMMMMMMMMMMMMMMMM",
"MMMMMMMMMMMMMMMMMMMMMMMMMMMMMMMMM@@*,,,*+MMMMMMMMMMMMMMMMMMMMMMM",
"MMMMMMMMMMMMMMMMMMMMMMMMMMMMMMMMMMM@@@@@MMMMMMMMMMMMMMMMMMMMMMMM",
"MMMMMMMMMMMMMMMMMMMMMMMMMMMMMMMMMMMMMMMMMMMMMMMMMMMMMMMMMMMMMMMM"
};
