/* XPM */
static char *_a5603e848144bf48630c07b627f2d163cN49V1Ci3kTG33k[] = {
/* columns rows colors chars-per-pixel */
"64 64 151 2 ",
"   c None",
".  c #270609",
"X  c #280708",
"o  c #290909",
"O  c #240808",
"+  c #300F0B",
"@  c #3E1C0C",
"#  c #3A1A17",
"$  c #3B1B19",
"%  c #371413",
"&  c #32241E",
"*  c #121724",
"=  c #121824",
"-  c #191F33",
";  c #321A25",
":  c #3E1D21",
">  c #1D2539",
",  c #312420",
"<  c #212538",
"1  c #2C273B",
"2  c #441F0E",
"3  c #4D1513",
"4  c #461D12",
"5  c #76181A",
"6  c #74171A",
"7  c #5D3C07",
"8  c #43231F",
"9  c #462215",
"0  c #5C2D13",
"q  c #6A3616",
"w  c #441C26",
"e  c #452522",
"r  c #4B2722",
"t  c #472823",
"y  c #4C2C24",
"u  c #512623",
"i  c #5D2A27",
"p  c #502D28",
"a  c #592E27",
"s  c #4E3629",
"d  c #503024",
"f  c #5B322C",
"g  c #563B2B",
"h  c #772928",
"j  c #61312D",
"k  c #78302E",
"l  c #6E3A35",
"z  c #713D37",
"x  c #743E39",
"c  c #614005",
"v  c #69490D",
"b  c #765608",
"n  c #735304",
"m  c #785816",
"M  c #725218",
"N  c #745414",
"B  c #5E443E",
"V  c #6A4123",
"C  c #764A2C",
"Z  c #7E4C28",
"A  c #77592B",
"S  c #654537",
"D  c #363C5E",
"F  c #3F3D55",
"G  c #343C61",
"H  c #3F405D",
"J  c #394066",
"K  c #3B4269",
"L  c #5B4441",
"P  c #524247",
"I  c #454D7A",
"U  c #554A73",
"Y  c #6E517D",
"T  c #851C1E",
"R  c #943D1D",
"E  c #90262A",
"W  c #9B2527",
"Q  c #953131",
"!  c #A3292B",
"~  c #BE292B",
"^  c #B22E31",
"/  c #A63334",
"(  c #B3333B",
")  c #C32A2C",
"_  c #CA292D",
"`  c #C2272A",
"'  c #CD2D31",
"]  c #C32F32",
"[  c #D12E31",
"{  c #CE3135",
"}  c #D03135",
"|  c #D4363A",
" . c #D6393D",
".. c #DB3A3E",
"X. c #8E4D19",
"o. c #8B4918",
"O. c #914C1B",
"+. c #905019",
"@. c #A0581A",
"#. c #AB5F1E",
"$. c #9E7F0D",
"%. c #937403",
"&. c #9E5D26",
"*. c #8D5A31",
"=. c #A15B20",
"-. c #917328",
";. c #8C6F32",
":. c #967836",
">. c #9C7F36",
",. c #AD6528",
"<. c #AC6122",
"1. c #B26728",
"2. c #BC682C",
"3. c #BB6E33",
"4. c #BA7235",
"5. c #CB5A2C",
"6. c #CD7A35",
"7. c #C57939",
"8. c #D27D35",
"9. c #97394F",
"0. c #8F415E",
"q. c #97715D",
"w. c #896F68",
"e. c #AB8B02",
"r. c #AC8C0A",
"t. c #B49409",
"y. c #B89808",
"u. c #BA9B3C",
"i. c #B79A3C",
"p. c #C2A303",
"a. c #DC8539",
"s. c #C1A43F",
"d. c #AE8064",
"f. c #A68678",
"g. c #CCB041",
"h. c #D5B943",
"j. c #DE9A60",
"k. c #E29E64",
"l. c #DDC145",
"z. c #E6CB47",
"x. c #E9CF47",
"c. c #E9CE48",
"v. c #E5C446",
"b. c #FFE74D",
"n. c #FFEB4E",
"m. c #4C5488",
"M. c #4C5A92",
"N. c #535D95",
"B. c #888EB1",
"V. c #8991B3",
"C. c #B1B7DA",
/* pixels */
"                                                                                                                                ",
"                                                                                                                                ",
"                                                                                                                                ",
"                                                                                                                                ",
"                                                                                                                                ",
"                                                                                                                                ",
"                                                                                                                                ",
"                                                                                                                                ",
"                                                                                                                                ",
"                                                          k.                                                                    ",
"                                                          k.                                                                    ",
"                                                      <.1.j.                                                                    ",
"                                                    C.d.#.&.f.C.                                                                ",
"                                                    B.q.@.o.w.V.                                                                ",
"                                                D D D S X.X.B G                                                                 ",
"                                              = g C C s , & F m.                                                                ",
"                                              * V =.O.s - - J N.                                                                ",
"                                              * *.8.X.L G D I N.                                                                ",
"                                                4.6.+.L G D I N.                                                                ",
"                                                a.6.Z P G K U Y                                                                 ",
"                                                a.7.H D J M.0._                                                                 ",
"                                                g s < > 1 9.( _                                                                 ",
"                                                ; ; ; ; w ` _ '                                                                 ",
"                                                ) ) ) ) ) _ }  . . .                                                            ",
"                                              _ _ _ } { { { { {  . .                                                            ",
"                                              _ _ [ ..Q i i W _  .|                                                             ",
"                                              _ ^ / / k p e h ! | } _                                                           ",
"                                              } h e e j z r e u ] } }                                                           ",
"                                              3 E ( l z x l f u ~ }  .                                                          ",
"                                              O R 5.j f j x f u ~ }  .                                                          ",
"                                              . %.p.+ X + z f u ~ }  .'                                                         ",
"                                              e.n 7 e.c . % 9 0 ~ }  ._ _                                                       ",
"                                              t.b 7 t.v o . @ 0 ~ }  ._ _                                                       ",
"                                              e $.p.y e 8 X @ 0 ~ }  ._ _                                                       ",
"                                              g.-.N r.M e X @ 0 ~ }  ._ _                                                       ",
"                                              l.:.A y.m e X 2 q ` }  ._ _                                                       ",
"                                              e u.x.d r e X 0 O.) }  .} '                                                       ",
"                                              s.>.A y e e . 0 O.) }  . .} _                                                     ",
"                                              n.;.: e e e 4 q O.) }  . .} _                                                     ",
"                                              b.;.: e e d 6.,.o.` }  . .} _                                                     ",
"                                              b.h.i.u.u.u.a.6.2.) {  . .} _                                                     ",
"                                              z.c.c.c.x.v.7.7.3.3 T '  .} _                                                     ",
"                                              y y y y y y y y r O 6 _  .} _                                                     ",
"                                              e e e e e e e e e X 5 _  .} _                                                     ",
"                                              e e e 8 e e e e r W ~ |  .} _                                                     ",
"                                                X X X # e e e u ) }  . .} _                                                     ",
"                                                X X X # e e e u ~ }  .                                                          ",
"                                                X X X # t e e u ~ }  .                                                          ",
"                                                X X X # t t e   ) ' |                                                           ",
"                                                X X X # t e         _                                                           ",
"                                                X X X # t e                                                                     ",
"                                                X X X # r e                                                                     ",
"                                                X X X % $ e                                                                     ",
"                                                X X X X o e                                                                     ",
"                                                X X X X o e                                                                     ",
"                                                X X X X o e                                                                     ",
"                                                X X X X o e                                                                     ",
"                                                    X X X                                                                       ",
"                                                    X X X                                                                       ",
"                                                    X X X                                                                       ",
"                                                    X X X                                                                       ",
"                                                    X X X                                                                       ",
"                                                                                                                                ",
"                                                                                                                                "
};
