/* XPM */
static char *result[] = {
/* columns rows colors chars-per-pixel */
"64 64 198 2 ",
"   c #060201",
".  c #0C0D12",
"X  c #260608",
"o  c #280709",
"O  c #27080A",
"+  c #2A090A",
"@  c #250407",
"#  c #320C0D",
"$  c #3C0C0D",
"%  c #30070A",
"&  c #33140B",
"*  c #3B1B08",
"=  c #3B170B",
"-  c #25161D",
";  c #351414",
":  c #3B1716",
">  c #3C1916",
",  c #3D1D1B",
"<  c #392615",
"1  c #141623",
"2  c #161926",
"3  c #1A1A25",
"4  c #1A1D2C",
"5  c #1B1F30",
"6  c #3E1E20",
"7  c #1D2133",
"8  c #21202A",
"9  c #21253B",
"0  c #430D0F",
"q  c #450E10",
"w  c #4C0F11",
"e  c #441213",
"r  c #4B1415",
"t  c #441C1A",
"y  c #4A1C18",
"u  c #541113",
"i  c #5D1316",
"p  c #561F18",
"a  c #621417",
"s  c #6F1619",
"d  c #66191A",
"f  c #74171A",
"g  c #7D191C",
"h  c #711C1E",
"j  c #4D220F",
"k  c #4E2211",
"l  c #42221D",
"z  c #452519",
"x  c #5B311B",
"c  c #663913",
"v  c #6C3D15",
"b  c #633C1D",
"n  c #7A381A",
"m  c #6A241E",
"M  c #452522",
"N  c #4D2D23",
"B  c #432D21",
"V  c #532B24",
"C  c #5F2A27",
"Z  c #582928",
"A  c #523223",
"S  c #5C3D28",
"D  c #483A3F",
"F  c #602A27",
"G  c #662528",
"H  c #7F2123",
"J  c #653B20",
"K  c #6D3A35",
"L  c #653732",
"P  c #743F39",
"I  c #723D37",
"U  c #7B3A21",
"Y  c #704F05",
"T  c #71510C",
"R  c #654418",
"E  c #784217",
"W  c #76451B",
"Q  c #7B5B14",
"!  c #5F4028",
"~  c #6A4926",
"^  c #75403A",
"/  c #7C523B",
"(  c #282D46",
")  c #353C5D",
"_  c #353D61",
"`  c #394164",
"'  c #3B4268",
"]  c #5E505D",
"[  c #735144",
"{  c #7F5F5C",
"}  c #454C77",
"|  c #821B1E",
" . c #973E1F",
".. c #8A3C1F",
"X. c #8F1E22",
"o. c #971F23",
"O. c #9D2025",
"+. c #843329",
"@. c #903433",
"#. c #862124",
"$. c #A12125",
"%. c #AC2427",
"&. c #A92B27",
"*. c #AE242A",
"=. c #A52C2E",
"-. c #B1242A",
";. c #BC262C",
":. c #B52D2D",
">. c #BF282D",
",. c #B3362E",
"<. c #B52F32",
"1. c #BC3537",
"2. c #C0272C",
"3. c #C4282C",
"4. c #CB2A2E",
"5. c #CC2D31",
"6. c #C62E33",
"7. c #C83438",
"8. c #D03135",
"9. c #D5363A",
"0. c #D7393D",
"q. c #DB3A3E",
"w. c #8C4C1B",
"e. c #824919",
"r. c #8D511D",
"t. c #92541D",
"y. c #AF571B",
"u. c #866605",
"i. c #927405",
"p. c #97770F",
"a. c #9D7D0D",
"s. c #997802",
"d. c #8C6C13",
"f. c #826214",
"g. c #906F11",
"h. c #9B7B15",
"j. c #B5621B",
"k. c #A37407",
"l. c #994120",
"z. c #895129",
"x. c #99542B",
"c. c #80543F",
"v. c #854822",
"b. c #A65925",
"n. c #BD4530",
"m. c #AE5231",
"M. c #816127",
"N. c #8F7132",
"B. c #9B7D35",
"V. c #967934",
"C. c #9D6429",
"Z. c #AD6221",
"A. c #A5612C",
"S. c #B06525",
"D. c #C17635",
"F. c #D07B37",
"G. c #EB7237",
"H. c #E36634",
"J. c #845841",
"K. c #B47442",
"L. c #D27658",
"P. c #BB9B05",
"I. c #B39307",
"U. c #9F812E",
"Y. c #9E8136",
"T. c #A28436",
"R. c #A78A38",
"E. c #AE913A",
"W. c #B2953A",
"Q. c #AC852D",
"!. c #C09409",
"~. c #C9A903",
"^. c #D1B104",
"/. c #D5B60C",
"(. c #D08E36",
"). c #E29F3F",
"_. c #DFC009",
"`. c #BC814D",
"'. c #CB8447",
"]. c #D8955A",
"[. c #D5B941",
"{. c #DC9D6C",
"}. c #D89863",
"|. c #C38B61",
" X c #E4A167",
".X c #E5A672",
"XX c #FADE4A",
"oX c #F3D748",
"OX c #E9CE47",
"+X c #FDE24B",
"@X c #FFE94D",
"#X c #4C5588",
"$X c #565A8B",
"%X c #58639C",
"&X c #676F9A",
"*X c #838AB3",
"=X c #AAAFCE",
"-X c None",
/* pixels */
"-X-X-X-X-X-X-X-X-X-X-X-X-X-X-X-X-X-X-X-X-X-X-X-X-X-X X-X-X-X-X-X-X-X-X X X-X-X-X-X-X-X-X-X-X-X-X-X-X-X-X-X-X-X-X-X-X-X-X-X-X-X-X",
"-X-X-X-X-X-X-X-X-X-X-X-X-X-X-X-X-X-X-X-X-X-X-X-X-X].'.-X-X-X-X-X-X-X-X'.'.-X-X-X-X-X-X-X-X-X-X-X-X-X-X-X-X-X-X-X-X-X-X-X-X-X-X-X",
"-X-X-X-X-X-X-X-X-X-X-X-X-X-X-X-X-X-X-X-X-X-X-X-X}.].Z.-X-X-X-X-X-X-X-Xb.D.{.-X-X-X-X-X-X-X-X-X-X-X-X-X-X-X-X-X-X-X-X-X-X-X-X-X-X",
"-X-X-X-X-X-X-X-X-X-X-X-X-X-X-X-X-X-X-X-X-X-X-X-XW W Z.S.A.$X*X=X%X{ j.Z.x.W -X-X-X-X-X-X-X-X-X-X-X-X-X-X-X-X-X-X-X-X-X-X-X-X-X-X",
"-X-X-X-X-X-X-X-X-X-X-X-X-X-X-X-X-X-X-X-X-X-X-X-X-Xv t.z.[ } &X*X#X] / r.e.c -X-X-X-X-X-X-X-X-X-X-X-X-X-X-X-X-X-X-X-X-X-X-X-X-X-X",
"-X-X-X-X-X-X-X-X-X-X-X-X-X-X-X-X-X-X-X-X-X-X-X-X-X-Xc D _ ) } #X_ ) ) b c -X-X-X-X-X-X-X-X-X-X-X-X-X-X-X-X-X-X-X-X-X-X-X-X-X-X-X",
"-X-X-X-X-X-X-X-X-X-X-X-X-X-X-X-X-X-X-X-X-X-X-X-X-X-X-X8 5 _ ' ' ` ( 4 -X-X-X-X-X-X-X-X-X-X-X-X-X-X-X-X-X-X-X-X-X-X-X-X-X-X-X-X-X",
"-X-X-X-X-X-X-X-X-X-X-X-X-X-X-X-X-X-X-X-X-X-X-X-X-X-X-X2 2 7 ( ( 9 5 2 -X-X-X-X-X-X-X-X-X-X-X-X-X-X-X-X-X-X-X-X-X-X-X-X-X-X-X-X-X",
"-X-X-X-X-X-X-X-X-X-X-X-X-X-X-X-X-X-X-X-X-X-X-X-X-X-X-X4 1   . 1   . 2 -X-X-X-X-X-X-X-X-X-X-X-X-X-X-X-X-X-X-X-X-X-X-X-X-X-X-X-X-X",
"-X-X-X-X-X-X-X-X-X-X-X-X-X-X-X-X-X-X-X-X-X-X-X-X-X-Xq.G 2 W < 3 R z 4 1.-X-X-X-X-X-X-X-X-X-X-X-X-X-X-X-X-X-X-X-X-X-X-X-X-X-X-X-X",
"-X-X-X-X-X-X-X-X-X-X-X-X-X-X-X-X-X-X-X-X-X-X-X-X-X-X8.h - x.~ z b.J - 1.9.-X-X-X-X-X-X-X-X-X-X-X-X-X-X-X-X-X-X-X-X-X-X-X-X-X-X-X",
"-X-X-X-X-X-X-X-X-X-X-X-X-X-X-X-X-X-X-X-X-X-X-X-X0.0.4.s = (.S.t.F.e.% ;.8.0.-X-X-X-X-X-X-X-X-X-X-X-X-X-X-X-X-X-X-X-X-X-X-X-X-X-X",
"-X-X-X-X-X-X-X-X-X-X-X-X-X-X-X-X-X-X-X-X-X-X-X0.8.4.-.:.=.k z.D.< m <.;.>.5.0.-X-X-X-X-X-X-X-X-X-X-X-X-X-X-X-X-X-X-X-X-X-X-X-X-X",
"-X-X-X-X-X-X-X-X-X-X-X-X-X-X-X-X-X-X-X-X-X-X-X9.6.;.-.6.8.a U x.e #.9.-.;.2.8.9.-X-X-X-X-X-X-X-X-X-X-X-X-X-X-X-X-X-X-X-X-X-X-X-X",
"-X-X-X-X-X-X-X-X-X-X-X-X-X-X-X-X-X-X-X-X-X0.9.4.;.-.-.;.4.q.d   7.8.3.:.*.*.3.5.0.-X-X-X-X-X-X-X-X-X-X-X-X-X-X-X-X-X-X-X-X-X-X-X",
"-X-X-X-X-X-X-X-X-X-X-X-X-X-X-X-X-X-X-X-X0.8.5.-.-.-.3.4.4.8.:.=.4.4.4.3.;.*.;.;.5.9.-X-X-X-X-X-X-X-X-X-X-X-X-X-X-X-X-X-X-X-X-X-X",
"-X-X-X-X-X-X-X-X-X-X-X-X-X-X-X-X-X-X-X-X9.3.;.-.;.*.O.$.$.3.5.9.4.-.o.$.%.-.%.;.3.8.9.-X-X-X-X-X-X-X-X-X-X-X-X-X-X-X-X-X-X-X-X-X",
"-X-X-X-X-X-X-X-X-X-X-X-X-X-X-X-X-X-X0.9.4.;.*.*.2.-.# O $ 2.4.4.4.| o X f 4.;.%.-.3.5.0.-X-X-X-X-X-X-X-X-X-X-X-X-X-X-X-X-X-X-X-X",
"-X-X-X-X-X-X-X-X-X-X-X-X-X-X-X-X-X-X5.5.;.-.-.3.X.w + o $ 2.| a 3.| X o $ i -.2.-.:.>.5.-X-X-X-X-X-X-X-X-X-X-X-X-X-X-X-X-X-X-X-X",
"-X-X-X-X-X-X-X-X-X-X-X-X-X-X-X-X-X-X3.2.*.-.;.%.u O o o $ 3.g % 2.g o o o o o.%.-.*.;.3.-X-X-X-X-X-X-X-X-X-X-X-X-X-X-X-X-X-X-X-X",
"-X-X-X-X-X-X-X-X-X-X-X-X-X-X-X-X-X-X*.%.*.2.%.# O @ o @ $ 3.f % 2.g @ @ X X X a 4.;.*.*.-X-X-X-X-X-X-X-X-X-X-X-X-X-X-X-X-X-X-X-X",
"-X-X-X-X-X-X-X-X-X-X-X-X-X-X-X-X-X-X*.;.>.| u o T i., T k.4.H t 2.y.i.y R s.* $ a -.;.*.-X-X-X-X-X-X-X-X-X-X-X-X-X-X-X-X-X-X-X-X",
"-X-X-X-X-X-X-X-X-X-X-X-X-X-X-X-X-X-X-.-.3.d & @ u.I.R p.P.:.+.~ &.j.P.R d.P.* o = %.2.-.-X-X-X-X-X-X-X-X-X-X-X-X-X-X-X-X-X-X-X-X",
"-X-X-X-X-X-X-X-X-X-X-X-X-X-X-X-X-X-X-.-.-. .E o : b ^.f.M 6 g.~.V M A ~.h.M + k w.&.-.*.-X-X-X-X-X-X-X-X-X-X-X-X-X-X-X-X-X-X-X-X",
"-X-X-X-X-X-X-X-X-X-X-X-X-X-X-X-X-X-X-.*.-.l.E o T a.Q g.a.I.f.Q a.a.p.Q d.p.* j w.&.-.-.-X-X-X-X-X-X-X-X-X-X-X-X-X-X-X-X-X-X-X-X",
"-X-X-X-X-X-X-X-X-X-X-X-X-X-X-X-X-X-X-.-.-.l.E o u.I.l h._.~.d.S P.^./.x Q P.* j w.&.-.*.-X-X-X-X-X-X-X-X-X-X-X-X-X-X-X-X-X-X-X-X",
"-X-X-X-X-X-X-X-X-X-X-X-X-X-X-X-X-X-X*.-.%.l.E + + & M W.oXN T.oXA T.XXS > & X j w.&.*.-.-X-X-X-X-X-X-X-X-X-X-X-X-X-X-X-X-X-X-X-X",
"-X-X-X-X-X-X-X-X-X-X-X-X-X-X-X-X-X-X-.*.-.l.E + o o ; ~ B.E.Y.V.E.T.N.z + + X j r.&.-.*.-X-X-X-X-X-X-X-X-X-X-X-X-X-X-X-X-X-X-X-X",
"-X-X-X-X-X-X-X-X-X-X-X-X-X-X-X-X-X-X*.-.*.l.E + + o O l ~ +XR.~ +XW.N + + + X j r.&.%.-.-X-X-X-X-X-X-X-X-X-X-X-X-X-X-X-X-X-X-X-X",
"-X-X-X-X-X-X-X-X-X-X-X-X-X-X-X-X-X-X-.-.-. .E + o + X U.@X@XXXoX@X+XOXt X X X j w.&.*.*.-X-X-X-X-X-X-X-X-X-X-X-X-X-X-X-X-X-X-X-X",
"-X-X-X-X-X-X-X-X-X-X-X-X-X-X-X-X-X-X-.*.*.D.Q.+ + o O ~ T.B.[.XXR.Y.V.& k ..# R (.,.-.-.-X-X-X-X-X-X-X-X-X-X-X-X-X-X-X-X-X-X-X-X",
"-X-X-X-X-X-X-X-X-X-X-X-X-X-X-X-X-X-X*.-.*.).[.e & + o ; 6 6 B.OXA 6 , o n G.y M.XXn.*.-.-X-X-X-X-X-X-X-X-X-X-X-X-X-X-X-X-X-X-X-X",
"-X-X-X-X-X-X-X-X-X-X-X-X-X-X-X-X-X-X-.*.:.l.C.{./ , + + & M A A N : + O n G.{.K.z.&.-.*.-X-X-X-X-X-X-X-X-X-X-X-X-X-X-X-X-X-X-X-X",
"-X-X-X-X-X-X-X-X-X-X-X-X-X-X-X-X-X-X-.-.-.m.`..XJ.6 + o + ; 6 M , + o O p x.{.}.K.,.-.-.-X-X-X-X-X-X-X-X-X-X-X-X-X-X-X-X-X-X-X-X",
"-X-X-X-X-X-X-X-X-X-X-X-X-X-X-X-X-X-X-.*.*.L..X{.J.6 + + + O > M o o + o ; B |..X{.1.*.-.-X-X-X-X-X-X-X-X-X-X-X-X-X-X-X-X-X-X-X-X",
"-X-X-X-X-X-X-X-X-X-X-X-X-X-X-X-X-X-X-X-X-.<.=.p z M M l 6 + + + o ; M M M M e t p $.-.*.-X-X-X-X-X-X-X-X-X-X-X-X-X-X-X-X-X-X-X-X",
"-X-X-X-X-X-X-X-X-X-X-X-X-X-X-X-X-X-X-X-X-.-.o.q t M M M M o o o o ; M M M M + e g O.-.-.-X-X-X-X-X-X-X-X-X-X-X-X-X-X-X-X-X-X-X-X",
"-X-X-X-X-X-X-X-X-X-X-X-X-X-X-X-X-X-X-X-X-X-.O.w t M M M M + o + o : M M M M + i -.-X-X-X-X-X-X-X-X-X-X-X-X-X-X-X-X-X-X-X-X-X-X-X",
"-X-X-X-X-X-X-X-X-X-X-X-X-X-X-X-X-X-X-X-X-X-.o.w e r M , + o ; , + + & M t e o i -.-X-X-X-X-X-X-X-X-X-X-X-X-X-X-X-X-X-X-X-X-X-X-X",
"-X-X-X-X-X-X-X-X-X-X-X-X-X-X-X-X-X-X-X-X-X;.O.e q e M ; O O : M + + + l t e o i -.-X-X-X-X-X-X-X-X-X-X-X-X-X-X-X-X-X-X-X-X-X-X-X",
"-X-X-X-X-X-X-X-X-X-X-X-X-X-X-X-X-X-X-X-X-X-.O.q q e M ; O O : M + + + M t 0 o i -.-X-X-X-X-X-X-X-X-X-X-X-X-X-X-X-X-X-X-X-X-X-X-X",
"-X-X-X-X-X-X-X-X-X-X-X-X-X-X-X-X-X-X-X-X-X-.O.w q e M M , + # e + ; M M t q o i -.-X-X-X-X-X-X-X-X-X-X-X-X-X-X-X-X-X-X-X-X-X-X-X",
"-X-X-X-X-X-X-X-X-X-X-X-X-X-X-X-X-X-X-X-X-X-.O.q q e M M M # $ q # , M M t q o i -.-X-X-X-X-X-X-X-X-X-X-X-X-X-X-X-X-X-X-X-X-X-X-X",
"-X-X-X-X-X-X-X-X-X-X-X-X-X-X-X-X-X-X-X-X-X-.o.e q e M M M q q q q t M M t q o i -.-X-X-X-X-X-X-X-X-X-X-X-X-X-X-X-X-X-X-X-X-X-X-X",
"-X-X-X-X-X-X-X-X-X-X-X-X-X-X-X-X-X-X-X-X-X-.$.w q e K V l q q e 0 t M K Z q o i -.-X-X-X-X-X-X-X-X-X-X-X-X-X-X-X-X-X-X-X-X-X-X-X",
"-X-X-X-X-X-X-X-X-X-X-X-X-X-X-X-X-X-X-X-X-X-.o.w q r P L N e u a q y Z P F $ o i :.-X-X-X-X-X-X-X-X-X-X-X-X-X-X-X-X-X-X-X-X-X-X-X",
"-X-X-X-X-X-X-X-X-X-X-X-X-X-X-X-X-X-X-X-X-X-.O.w q r P P K q g *.w C P P F q O i -.-X-X-X-X-X-X-X-X-X-X-X-X-X-X-X-X-X-X-X-X-X-X-X",
"-X-X-X-X-X-X-X-X-X-X-X-X-X-X-X-X-X-X-X-X-X-.O.q q e P Z e X.O.-Xo.d : I F q O i ;.-X-X-X-X-X-X-X-X-X-X-X-X-X-X-X-X-X-X-X-X-X-X-X",
"-X-X-X-X-X-X-X-X-X-X-X-X-X-X-X-X-X-X-X-X-X-XO.a a d P Z e *.-X-X;.h : I G 0 o u :.-X-X-X-X-X-X-X-X-X-X-X-X-X-X-X-X-X-X-X-X-X-X-X",
"-X-X-X-X-X-X-X-X-X-X-X-X-X-X-X-X-X-X-X-X-X-X-X-.*.=.P P P -X-X-X-X-XP ^ Z q o @ -X-X-X-X-X-X-X-X-X-X-X-X-X-X-X-X-X-X-X-X-X-X-X-X",
"-X-X-X-X-X-X-X-X-X-X-X-X-X-X-X-X-X-X-X-X-X-X-X*.-.-XP Z : -X-X-X-X-Xt K +.X.m.y.-X-X-X-X-X-X-X-X-X-X-X-X-X-X-X-X-X-X-X-X-X-X-X-X",
"-X-X-X-X-X-X-X-X-X-X-X-X-X-X-X-X-X-X-X-X-X-X-X-.-X-XP t X -X-X-X-X-X+ L @.;.H.-X-X-X-X-X-X-X-X-X-X-X-X-X-X-X-X-X-X-X-X-X-X-X-X-X",
"-X-X-X-X-X-X-X-X-X-X-X-X-X-X-X-X-X-X-X-X-X-X-X-X-X-X-Xo o -X-X-X-X-X+ -X-X-X-X-X-X-X-X-X-X-X-X-X-X-X-X-X-X-X-X-X-X-X-X-X-X-X-X-X",
"-X-X-X-X-X-X-X-X-X-X-X-X-X-X-X-X-X-X-X-X-X-X-X-X-X-X-XO o -X-X-X-X-Xo -X-X-X-X-X-X-X-X-X-X-X-X-X-X-X-X-X-X-X-X-X-X-X-X-X-X-X-X-X",
"-X-X-X-X-X-X-X-X-X-X-X-X-X-X-X-X-X-X-X-X-X-X-X-X-X-X-X; ; -X-X-X-X-X; -X-X-X-X-X-X-X-X-X-X-X-X-X-X-X-X-X-X-X-X-X-X-X-X-X-X-X-X-X",
"-X-X-X-X-X-X-X-X-X-X-X-X-X-X-X-X-X-X-X-X-X-X-X-X-X-X-XP P -X-X-X-X-XP -X-X-X-X-X-X-X-X-X-X-X-X-X-X-X-X-X-X-X-X-X-X-X-X-X-X-X-X-X",
"-X-X-X-X-X-X-X-X-X-X-X-X-X-X-X-X-X-X-X-X-X-X-X-X-X-X-XP P -X-X-X-X-XP -X-X-X-X-X-X-X-X-X-X-X-X-X-X-X-X-X-X-X-X-X-X-X-X-X-X-X-X-X",
"-X-X-X-X-X-X-X-X-X-X-X-X-X-X-X-X-X-X-X-X-X-X-X-X-X-X-XP P -X-X-X-X-XP -X-X-X-X-X-X-X-X-X-X-X-X-X-X-X-X-X-X-X-X-X-X-X-X-X-X-X-X-X",
"-X-X-X-X-X-X-X-X-X-X-X-X-X-X-X-X-X-X-X-X-X-X-X-X-X-X-XP P -X-X-X-X-XP -X-X-X-X-X-X-X-X-X-X-X-X-X-X-X-X-X-X-X-X-X-X-X-X-X-X-X-X-X",
"-X-X-X-X-X-X-X-X-X-X-X-X-X-X-X-X-X-X-X-X-X-X-X-X-X-X-XP ^ -X-X-X-X-XP -X-X-X-X-X-X-X-X-X-X-X-X-X-X-X-X-X-X-X-X-X-X-X-X-X-X-X-X-X",
"-X-X-X-X-X-X-X-X-X-X-X-X-X-X-X-X-X-X-X-X-X-X-X-X-X-X-XP P -X-X-X-X-XP -X-X-X-X-X-X-X-X-X-X-X-X-X-X-X-X-X-X-X-X-X-X-X-X-X-X-X-X-X",
"-X-X-X-X-X-X-X-X-X-X-X-X-X-X-X-X-X-X-X-X-X-X-X-X-X-X-X^ P -X-X-X-X-X^ -X-X-X-X-X-X-X-X-X-X-X-X-X-X-X-X-X-X-X-X-X-X-X-X-X-X-X-X-X",
"-X-X-X-X-X-X-X-X-X-X-X-X-X-X-X-X-X-X-X-X-X-X-X-X-X-X-X-X-X-X-X-X-X-X-X-X-X-X-X-X-X-X-X-X-X-X-X-X-X-X-X-X-X-X-X-X-X-X-X-X-X-X-X-X",
"-X-X-X-X-X-X-X-X-X-X-X-X-X-X-X-X-X-X-X-X-X-X-X-X-X-X-X-X-X-X-X-X-X-X-X-X-X-X-X-X-X-X-X-X-X-X-X-X-X-X-X-X-X-X-X-X-X-X-X-X-X-X-X-X"
};
