/* XPM */
static char *result[] = {
/* columns rows colors chars-per-pixel */
"64 64 186 2 ",
"   c #240407",
".  c #270708",
"X  c #290708",
"o  c #2A090A",
"O  c #320B0C",
"+  c #370B0C",
"@  c #34130C",
"#  c #3E150E",
"$  c #2B0E14",
"%  c #251213",
"&  c #351513",
"*  c #3A1816",
"=  c #3D1C1B",
"-  c #3D1615",
";  c #3C200F",
":  c #141826",
">  c #151925",
",  c #201A27",
"<  c #3D1C20",
"1  c #1E2438",
"2  c #342722",
"3  c #22273C",
"4  c #420D0F",
"5  c #440E10",
"6  c #461112",
"7  c #4B1312",
"8  c #421C1A",
"9  c #4B1C1C",
"0  c #4D1812",
"q  c #551414",
"w  c #591A1B",
"e  c #6C1618",
"r  c #651519",
"t  c #78191B",
"y  c #43231D",
"u  c #462117",
"i  c #562416",
"p  c #5E381E",
"a  c #672919",
"s  c #712C1B",
"d  c #7D2A1B",
"f  c #663912",
"g  c #653214",
"h  c #703F15",
"j  c #6A370E",
"k  c #4D1E22",
"l  c #452521",
"z  c #4A2723",
"x  c #532724",
"c  c #552926",
"v  c #5C2C26",
"b  c #5B2120",
"n  c #523324",
"m  c #5A3828",
"M  c #5F2B39",
"N  c #66222B",
"B  c #7A2727",
"V  c #7F2827",
"C  c #623828",
"Z  c #7E3C20",
"A  c #6D3A35",
"S  c #6A3732",
"D  c #793935",
"F  c #743F39",
"G  c #7E4319",
"H  c #774318",
"J  c #5D4423",
"K  c #76403A",
"L  c #674730",
"P  c #2B314C",
"I  c #2E3451",
"U  c #363D5E",
"Y  c #303654",
"T  c #373F64",
"R  c #463B44",
"E  c #3D446B",
"W  c #384063",
"Q  c #3F4773",
"!  c #564852",
"~  c #5F5D7B",
"^  c #454D7A",
"/  c #831A1E",
"(  c #971E22",
")  c #862C2A",
"_  c #932626",
"`  c #85332A",
"'  c #8E2F30",
"]  c #9B3836",
"[  c #A62A2C",
"{  c #AC272A",
"}  c #B42528",
"|  c #BB2C2C",
" . c #B7292C",
".. c #A43D24",
"X. c #BB3329",
"o. c #A53D36",
"O. c #B73F33",
"+. c #CB2A2E",
"@. c #C4282C",
"#. c #CD342F",
"$. c #D03D27",
"%. c #CD2D32",
"&. c #CA2730",
"*. c #CF3034",
"=. c #C1343A",
"-. c #CF383C",
";. c #D23236",
":. c #D5363B",
">. c #D9373B",
",. c #D6393D",
"<. c #DA3A3E",
"1. c #D13831",
"2. c #824C13",
"3. c #8A4D1A",
"4. c #834B1E",
"5. c #8E521C",
"6. c #95561B",
"7. c #AC5F1E",
"8. c #947412",
"9. c #AA7810",
"0. c #884822",
"q. c #985621",
"w. c #A95F20",
"e. c #BE592B",
"r. c #A94E26",
"t. c #9A7C2D",
"y. c #9D7F34",
"u. c #AC6121",
"i. c #AC6528",
"p. c #BA6D2E",
"a. c #BA6B32",
"s. c #B97031",
"d. c #AC6A35",
"f. c #CD641A",
"g. c #D1781B",
"h. c #D0482A",
"j. c #CE4C3D",
"k. c #D44537",
"l. c #D55839",
"z. c #CE583A",
"x. c #CC6232",
"c. c #D46431",
"v. c #CB7837",
"b. c #D17D36",
"n. c #D97B39",
"m. c #D76229",
"M. c #E26D34",
"N. c #E97035",
"B. c #BB7D47",
"V. c #B3870C",
"C. c #B79204",
"Z. c #9F8236",
"A. c #A38537",
"S. c #A68938",
"D. c #AF913A",
"F. c #B39139",
"G. c #D29E08",
"H. c #C2A205",
"J. c #D3B102",
"K. c #D8B305",
"L. c #D58137",
"P. c #DB843A",
"I. c #D98536",
"U. c #BE824E",
"Y. c #AC8B7C",
"T. c #DE995E",
"R. c #C78D44",
"E. c #D6B943",
"W. c #E19E64",
"Q. c #E7A369",
"!. c #EBCF47",
"~. c #E3C746",
"^. c #EFD448",
"/. c #F6DB4A",
"(. c #FBDF4B",
"). c #FDE24B",
"_. c #464E80",
"`. c #50588A",
"'. c #515A90",
"]. c #676D9D",
"[. c #7178A6",
"{. c #8D94BB",
"}. c #9197BD",
"|. c #ABAECA",
" X c #ACB2D2",
".X c None",
/* pixels */
".X.X.X.X.X.X.X.X.X.X.X.X.X.X.X.X.X.X.X.X.X.X.X.X.X.X.X.X.X.X.X.X.X.X.X.X.X.X.X.X.X.X.X.X.X.X.X.X.X.X.X.X.X.X.X.X.X.X.X.X.X.X.X.X",
".X.X.X.X.X.X.X.X.X.X.X.X.X.X.X.X.X.X.X.X.X.X.X.X.X.X.X.X.X.X.X.X.X.X.X.X.X.X.X.X.X.X.X.X.X.X.X.X.X.X.X.X.X.X.X.X.X.X.X.X.X.X.X.X",
".X.X.X.X.X.X.X.X.X.X.X.X.X.X.X.X.X.X.X.X.X.X.X.X.X.X.X.X.X.X.X.X.X.X.X.X.X.X.X.X.X.X.X.X.X.X.X.X.X.X.X.X.X.X.X.X.X.X.X.X.X.X.X.X",
".X.X.X.X.X.X.X.X.X.X.X.X.X.X.X.X.X.X.X.X.X.X.X.X.X.X.X.X.X.X.X.X.X.X.X.X.X.X.X.X.X.X.X.X.X.X.X.X.X.X.X.X.X.X.X.X.X.X.X.X.X.X.X.X",
".X.X.X.X.X.X.X.X.X.X.X.X.X.X.X.X.X.X.X.X.X.X.X.X.X.X.X.X.X.X.X.X.X.X.X.X.X.X.X.X.X.X.X.X.X.X.X.X.X.X.X.X.X.X.X.X.X.X.X.X.X.X.X.X",
".X.X.X.X.X.X.X.X.X.X.X.X.X.X.X.X.X.X.X.X.X.X.X.X.X.X.X.X.X.X.X.X.X.X.X.X.X.X.X.X.X.X.X.X.X.X.X.X.X.X.X.X.X.X.X.X.X.X.X.X.X.X.X.X",
".X.X.X.X.X.X.X.X.X.X.X.X.X.X.X.X.X.X.X.X.X.X.X.X.X.X.X.X.X.X.X.X.X.X.X.X.X.X.X.X.X.X.X.X.X.X.X.X.X.X.X.X.X.X.X.X.X.X.X.X.X.X.X.X",
".X.X.X.X.X.X.X.X.X.X.X.X.X.X.X.X.X.X.X.X.X.X.X.X.X.X.X.X.X.X.X.X.X.X.X.X.X.X.X.X.X.X.X.X.X.X.X.X.X.X.X.X.X.X.X.X.X.X.X.X.X.X.X.X",
".X.X.X.X.X.X.X.X.X.X.X.X.X.X.X.X.X.X.X.X.X.X.X.X.X.X.X.X.X.X.X.X.X.X.X.X.X.X.X.X.X.X.X.X.X.X.X.X.X.X.X.X.X.X.X.X.X.X.X.X.X.X.X.X",
".X.X.X.X.X.X.X.X.X.X.X.X.X.X.X.X.X.X.X.X.X.X.X.X.X.X.X.X.X.X.X.X.X.X.X.X.X.X.X.X.X.X.X.X.X.X.X.X.X.X.X.X.X.X.X.X.X.X.X.X.X.X.X.X",
".X.X.X.X.X.X.X.X.X.X.X.X.X.X.X.X.X.X.X.X.X.X.X.X.X.X.X.X.X.X.X.X.X.X.X.X.X.X.X.X.X.X.X.X.X.X.X.X.X.X.X.X.X.X.X.X.X.X.X.X.X.X.X.X",
".X.X.X.X.X.X.X.X.X.X.X.X.X.X.X.X.X.X.X.X.X.X.X.X.X.XW..X.X.X.X.X.X.X.XW.W..X.X.X.X.X.X.X.X.X.X.X.X.X.X.X.X.X.X.X.X.X.X.X.X.X.X.X",
".X.X.X.X.X.X.X.X.X.X.X.X.X.X.X.X.X.X.X.X.X.X.X.X.XT.s..X.X.X.X.X.X.X.Xp.R.Q..X.X.X.X.X.X.X.X.X.X.X.X.X.X.X.X.X.X.X.X.X.X.X.X.X.X",
".X.X.X.X.X.X.X.X.X.X.X.X.X.X.X.X.X.X.X.X.X.X.X.XU.B.u.u..X.X.X.X.X.X.X7.d.R..X.X.X.X.X.X.X.X.X.X.X.X.X.X.X.X.X.X.X.X.X.X.X.X.X.X",
".X.X.X.X.X.X.X.X.X.X.X.X.X.X.X.X.X.X.X.X.X.X.X.Xf h w.u.d.|. X X XY.7.u.3.f .X.X.X.X.X.X.X.X.X.X.X.X.X.X.X.X.X.X.X.X.X.X.X.X.X.X",
".X.X.X.X.X.X.X.X.X.X.X.X.X.X.X.X.X.X.X.X.X.X.X.X.X.XH L ! ].{. X[.`.! G h .X.X.X.X.X.X.X.X.X.X.X.X.X.X.X.X.X.X.X.X.X.X.X.X.X.X.X",
".X.X.X.X.X.X.X.X.X.X.X.X.X.X.X.X.X.X.X.X.X.X.X.X.X.Xf R T ^ [.}.`.^ U p .X.X.X.X.X.X.X.X.X.X.X.X.X.X.X.X.X.X.X.X.X.X.X.X.X.X.X.X",
".X.X.X.X.X.X.X.X.X.X.X.X.X.X.X.X.X.X.X.X.X.X.X.X.X.X.XT U T ^ '.U U U .X.X.X.X.X.X.X.X.X.X.X.X.X.X.X.X.X.X.X.X.X.X.X.X.X.X.X.X.X",
".X.X.X.X.X.X.X.X.X.X.X.X.X.X.X.X.X.X.X.X.X.X,.,.,.<.<.M 1 U E E T P 1 .X.X.X.X.X.X.X.X.X.X.X.X.X.X.X.X.X.X.X.X.X.X.X.X.X.X.X.X.X",
".X.X.X.X.X.X.X.X.X.X.X.X.X.X.X.X.X.X.X.X.X:.:.:.,.<.<.N : I I I I 3 > .X.X.X.X.X.X.X.X.X.X.X.X.X.X.X.X.X.X.X.X.X.X.X.X.X.X.X.X.X",
".X.X.X.X.X.X.X.X.X.X.X.X.X.X.X.X.X.X.X.X,.%.+.+.;.:.+.N : : > > > : > =.<..X.X.X.X.X.X.X.X.X.X.X.X.X.X.X.X.X.X.X.X.X.X.X.X.X.X.X",
".X.X.X.X.X.X.X.X.X.X.X.X.X.X.X.X.X.X.X.X%.%.+.;.;.%.+.e % f 2 > p u $ | ;.<..X.X.X.X.X.X.X.X.X.X.X.X.X.X.X.X.X.X.X.X.X.X.X.X.X.X",
".X.X.X.X.X.X.X.X.X.X.X.X.X.X.X.X.X.X.X.XX.@.%.:.*.+.+.e @ q.m 2 6.g O  .%.,..X.X.X.X.X.X.X.X.X.X.X.X.X.X.X.X.X.X.X.X.X.X.X.X.X.X",
".X.X.X.X.X.X.X.X.X.X.X.X.X.X.X.X.X.X.X.X3.X.+.@.;.,.+.e @ v.i.3.n.0.X  .+.+.:.,..X.X.X.X.X.X.X.X.X.X.X.X.X.X.X.X.X.X.X.X.X.X.X.X",
".X.X.X.X.X.X.X.X.X.X.X.X.X.X.X.X.X.X.X.X3./ / #.+.#.;.{ ( j.x.p.l.O._ @.%.;.,.,.,..X.X.X.X.X.X.X.X.X.X.X.X.X.X.X.X.X.X.X.X.X.X.X",
".X.X.X.X.X.X.X.X.X.X.X.X.X.X.X.X.X.X.X.X3.i q } @.#.k.#.%.>.z.v.,.,.:.%.;.,.<.,.:..X.X.X.X.X.X.X.X.X.X.X.X.X.X.X.X.X.X.X.X.X.X.X",
".X.X.X.X.X.X.X.X.X.X.X.X.X.X.X.X.X.X.X.X3.w 4 5 ( $.J.f.&.<.' z -.:.+.>.,.<.<.;.+.+.+..X.X.X.X.X.X.X.X.X.X.X.X.X.X.X.X.X.X.X.X.X",
".X.X.X.X.X.X.X.X.X.X.X.X.X.X.X.X.X.X.X.XV.j 5 4 B o.f.h.*.) 5.8.` [ +.g.c.,.o.] ] .....X.X.X.X.X.X.X.X.X.X.X.X.X.X.X.X.X.X.X.X.X",
".X.X.X.X.X.X.X.X.X.X.X.X.X.X.X.X.X.X.X.XK.2.q 4 v D | ,.j.m 8.H.J ` @.G.g.| D A D 4.3..X.X.X.X.X.X.X.X.X.X.X.X.X.X.X.X.X.X.X.X.X",
".X.X.X.X.X.X.X.X.X.X.X.X.X.X.X.X.X.X.X.XI.L.a.5 4 0 F R.).).Z.n ^.S.y -._ O 6 6 7 h 3..X.X.X.X.X.X.X.X.X.X.X.X.X.X.X.X.X.X.X.X.X",
".X.X.X.X.X.X.X.X.X.X.X.X.X.X.X.X.X.X.X.XI.P.v.5 5 6 9 F.).S.A.S.A.A.A.) w O 6 5 5 4.5..X.X.X.X.X.X.X.X.X.X.X.X.X.X.X.X.X.X.X.X.X",
".X.X.X.X.X.X.X.X.X.X.X.X.X.X.X.X.X.X.X.XP.n.a.4 5 4   t.~.n D.(.m S.).* O 5 5 5 5 3.6..X.X.X.X.X.X.X.X.X.X.X.X.X.X.X.X.X.X.X.X.X",
".X.X.X.X.X.X.X.X.X.X.X.X.X.X.X.X.X.X.X.X.X#. .5 4 + o y L !.).)./.).).; O 6 4 4 6 C.J..X.X.X.X.X.X.X.X.X.X.X.X.X.X.X.X.X.X.X.X.X",
".X.X.X.X.X.X.X.X.X.X.X.X.X.X.X.X.X.X.X.X.X+.} 5 e t o * n Z.E.).D.S.A.@ O 4 4 a 0.9.V..X.X.X.X.X.X.X.X.X.X.X.X.X.X.X.X.X.X.X.X.X",
".X.X.X.X.X.X.X.X.X.X.X.X.X.X.X.X.X.X.X.X.X+.} 5 _ } O * y = Z.!.n < < o + q + ` P.q.3..X.X.X.X.X.X.X.X.X.X.X.X.X.X.X.X.X.X.X.X.X",
".X.X.X.X.X.X.X.X.X.X.X.X.X.X.X.X.X.X.X.X.X+.} 5 9 x y & $ l n m z * o   s m.w h P.b.b..X.X.X.X.X.X.X.X.X.X.X.X.X.X.X.X.X.X.X.X.X",
".X.X.X.X.X.X.X.X.X.X.X.X.X.X.X.X.X.X.X.X.X.X ./ i l z & o & y l * @ o s r.M.0 s l.n..X.X.X.X.X.X.X.X.X.X.X.X.X.X.X.X.X.X.X.X.X.X",
".X.X.X.X.X.X.X.X.X.X.X.X.X.X.X.X.X.X.X.X.X.X.X+.) l z & o o & l o o @ x.M.c.# r @..X.X.X.X.X.X.X.X.X.X.X.X.X.X.X.X.X.X.X.X.X.X.X",
".X.X.X.X.X.X.X.X.X.X.X.X.X.X.X.X.X.X.X.X.X.X.X.X .[ z l < o o o o & l v i # o O 4 .X.X.X.X.X.X.X.X.X.X.X.X.X.X.X.X.X.X.X.X.X.X.X",
".X.X.X.X.X.X.X.X.X.X.X.X.X.X.X.X.X.X.X.X.X.X.X.X.X} l l y o $ & o & l l 9 r O o X o .X.X.X.X.X.X.X.X.X.X.X.X.X.X.X.X.X.X.X.X.X.X",
".X.X.X.X.X.X.X.X.X.X.X.X.X.X.X.X.X.X.X.X.X.X.X.X.X.Xl l l o * l o & z l V +.+ o o X o .X.X.X.X.X.X.X.X.X.X.X.X.X.X.X.X.X.X.X.X.X",
".X.X.X.X.X.X.X.X.X.X.X.X.X.X.X.X.X.X.X.X.X.X.X.X.X.Xl * o o & l o o $ l c .X.X.X.Xo X o .X.X.X.X.X.X.X.X.X.X.X.X.X.X.X.X.X.X.X.X",
".X.X.X.X.X.X.X.X.X.X.X.X.X.X.X.X.X.X.X.X.X.X.X.X.X.Xv 8 X X * l o o o y l .X.X.X.Xo o X .X.X.X.X.X.X.X.X.X.X.X.X.X.X.X.X.X.X.X.X",
".X.X.X.X.X.X.X.X.X.X.X.X.X.X.X.X.X.X.X.X.X.X.X.X.X.XK y . X * l o o o l z .X.X.X.X.X.Xo e.N..X.X.X.X.X.X.X.X.X.X.X.X.X.X.X.X.X.X",
".X.X.X.X.X.X.X.X.X.X.X.X.X.X.X.X.X.X.X.X.X.X.X.X.X.XK 9   .X.X.X.Xo o C A .X.X.X.X.X.X.X.X.X.X.X.X.X.X.X.X.X.X.X.X.X.X.X.X.X.X.X",
".X.X.X.X.X.X.X.X.X.X.X.X.X.X.X.X.X.X.X.X.X.X.X.X.X.XK c = .X.X.X.X.X8 A K .X.X.X.X.X.X.X.X.X.X.X.X.X.X.X.X.X.X.X.X.X.X.X.X.X.X.X",
".X.X.X.X.X.X.X.X.X.X.X.X.X.X.X.X.X.X.X.X.X.X.X.X.X.XF F F .X.X.X.X.XK K F .X.X.X.X.X.X.X.X.X.X.X.X.X.X.X.X.X.X.X.X.X.X.X.X.X.X.X",
".X.X.X.X.X.X.X.X.X.X.X.X.X.X.X.X.X.X.X.X.X.X.X.X.X.XK x - .X.X.X.X.X= A F .X.X.X.X.X.X.X.X.X.X.X.X.X.X.X.X.X.X.X.X.X.X.X.X.X.X.X",
".X.X.X.X.X.X.X.X.X.X.X.X.X.X.X.X.X.X.X.X.X.X.X.X.X.XK 8   .X.X.X.X.X8 A K .X.X.X.X.X.X.X.X.X.X.X.X.X.X.X.X.X.X.X.X.X.X.X.X.X.X.X",
".X.X.X.X.X.X.X.X.X.X.X.X.X.X.X.X.X.X.X.X.X.X.X.X.X.X.Xo o .X.X.X.X.XF F F .X.X.X.X.X.X.X.X.X.X.X.X.X.X.X.X.X.X.X.X.X.X.X.X.X.X.X",
".X.X.X.X.X.X.X.X.X.X.X.X.X.X.X.X.X.X.X.X.X.X.X.X.X.X.Xo o .X.X.X.X.X8 A K .X.X.X.X.X.X.X.X.X.X.X.X.X.X.X.X.X.X.X.X.X.X.X.X.X.X.X",
".X.X.X.X.X.X.X.X.X.X.X.X.X.X.X.X.X.X.X.X.X.X.X.X.X.X.XX o .X.X.X.X.Xo S .X.X.X.X.X.X.X.X.X.X.X.X.X.X.X.X.X.X.X.X.X.X.X.X.X.X.X.X",
".X.X.X.X.X.X.X.X.X.X.X.X.X.X.X.X.X.X.X.X.X.X.X.X.X.X.Xo X .X.X.X.X.Xo .X.X.X.X.X.X.X.X.X.X.X.X.X.X.X.X.X.X.X.X.X.X.X.X.X.X.X.X.X",
".X.X.X.X.X.X.X.X.X.X.X.X.X.X.X.X.X.X.X.X.X.X.X.X.X.X.Xo o .X.X.X.X.XX .X.X.X.X.X.X.X.X.X.X.X.X.X.X.X.X.X.X.X.X.X.X.X.X.X.X.X.X.X",
".X.X.X.X.X.X.X.X.X.X.X.X.X.X.X.X.X.X.X.X.X.X.X.X.X.X.X.XX .X.X.X.X.X& .X.X.X.X.X.X.X.X.X.X.X.X.X.X.X.X.X.X.X.X.X.X.X.X.X.X.X.X.X",
".X.X.X.X.X.X.X.X.X.X.X.X.X.X.X.X.X.X.X.X.X.X.X.X.X.X.X.X.X.X.X.X.X.XF .X.X.X.X.X.X.X.X.X.X.X.X.X.X.X.X.X.X.X.X.X.X.X.X.X.X.X.X.X",
".X.X.X.X.X.X.X.X.X.X.X.X.X.X.X.X.X.X.X.X.X.X.X.X.X.X.X.X.X.X.X.X.X.XF .X.X.X.X.X.X.X.X.X.X.X.X.X.X.X.X.X.X.X.X.X.X.X.X.X.X.X.X.X",
".X.X.X.X.X.X.X.X.X.X.X.X.X.X.X.X.X.X.X.X.X.X.X.X.X.X.X.X.X.X.X.X.X.XF .X.X.X.X.X.X.X.X.X.X.X.X.X.X.X.X.X.X.X.X.X.X.X.X.X.X.X.X.X",
".X.X.X.X.X.X.X.X.X.X.X.X.X.X.X.X.X.X.X.X.X.X.X.X.X.X.X.X.X.X.X.X.X.XF .X.X.X.X.X.X.X.X.X.X.X.X.X.X.X.X.X.X.X.X.X.X.X.X.X.X.X.X.X",
".X.X.X.X.X.X.X.X.X.X.X.X.X.X.X.X.X.X.X.X.X.X.X.X.X.X.X.X.X.X.X.X.X.XF .X.X.X.X.X.X.X.X.X.X.X.X.X.X.X.X.X.X.X.X.X.X.X.X.X.X.X.X.X",
".X.X.X.X.X.X.X.X.X.X.X.X.X.X.X.X.X.X.X.X.X.X.X.X.X.X.X.X.X.X.X.X.X.XK .X.X.X.X.X.X.X.X.X.X.X.X.X.X.X.X.X.X.X.X.X.X.X.X.X.X.X.X.X",
".X.X.X.X.X.X.X.X.X.X.X.X.X.X.X.X.X.X.X.X.X.X.X.X.X.X.X.X.X.X.X.X.X.XF .X.X.X.X.X.X.X.X.X.X.X.X.X.X.X.X.X.X.X.X.X.X.X.X.X.X.X.X.X",
".X.X.X.X.X.X.X.X.X.X.X.X.X.X.X.X.X.X.X.X.X.X.X.X.X.X.X.X.X.X.X.X.X.X.X.X.X.X.X.X.X.X.X.X.X.X.X.X.X.X.X.X.X.X.X.X.X.X.X.X.X.X.X.X",
".X.X.X.X.X.X.X.X.X.X.X.X.X.X.X.X.X.X.X.X.X.X.X.X.X.X.X.X.X.X.X.X.X.X.X.X.X.X.X.X.X.X.X.X.X.X.X.X.X.X.X.X.X.X.X.X.X.X.X.X.X.X.X.X"
};
