/* XPM */
static char *d38feec14f6c4d10c7f772a4704386b7b9DmWpTyHF2JKiLv[] = {
/* columns rows colors chars-per-pixel */
"64 64 152 2 ",
"   c None",
".  c #260609",
"X  c #280709",
"o  c #270909",
"O  c #290909",
"+  c #2D0C07",
"@  c #300A0B",
"#  c #33130A",
"$  c #3E1C0C",
"%  c #3B1B07",
"&  c #341313",
"*  c #391917",
"=  c #3B1B1A",
"-  c #0E1623",
";  c #121723",
":  c #131925",
">  c #251A27",
",  c #411E0F",
"<  c #461D11",
"1  c #75181A",
"2  c #73171A",
"3  c #48230C",
"4  c #42221F",
"5  c #5D2E13",
"6  c #5D3B1B",
"7  c #5E3D13",
"8  c #6C3F1B",
"9  c #693615",
"0  c #743B17",
"q  c #452522",
"w  c #4D2623",
"e  c #472A22",
"r  c #4B2A25",
"t  c #512622",
"y  c #523323",
"u  c #5B322D",
"i  c #5C3324",
"p  c #5D3F30",
"a  c #553E36",
"s  c #632724",
"d  c #7F2C2C",
"f  c #613726",
"g  c #613826",
"h  c #70322F",
"j  c #623630",
"k  c #6A3833",
"l  c #743E39",
"z  c #6D4D05",
"x  c #7D5D06",
"c  c #6A491A",
"v  c #7F5E15",
"b  c #664729",
"n  c #67482A",
"m  c #7E502B",
"M  c #76403A",
"N  c #2B314D",
"B  c #2F3654",
"V  c #363B5D",
"C  c #343855",
"Z  c #353D61",
"A  c #383F64",
"S  c #473D4A",
"D  c #433F55",
"F  c #394166",
"G  c #3A426C",
"H  c #4C404E",
"J  c #5B4543",
"K  c #534145",
"L  c #6F544D",
"P  c #795646",
"I  c #404771",
"U  c #454D7A",
"Y  c #525A7E",
"T  c #764568",
"R  c #8B211F",
"E  c #852C2C",
"W  c #8C2C2B",
"Q  c #83242B",
"!  c #95242B",
"~  c #9D2224",
"^  c #8C2D34",
"/  c #952D34",
"(  c #AC272A",
")  c #BE292B",
"_  c #BD272B",
"`  c #A23031",
"'  c #C42A2B",
"]  c #CA292D",
"[  c #D12A2D",
"{  c #CB2F33",
"}  c #C52F33",
"|  c #D22E31",
" . c #CF3135",
".. c #C5363A",
"X. c #D13135",
"o. c #D5363B",
"O. c #D6393D",
"+. c #D9393E",
"@. c #8E4E1A",
"#. c #8B4B15",
"$. c #924C1B",
"%. c #944E15",
"&. c #965219",
"*. c #A85C1B",
"=. c #836209",
"-. c #9F7F0F",
";. c #907203",
":. c #927211",
">. c #997A11",
",. c #A55A25",
"<. c #8D6F2E",
"1. c #95772F",
"2. c #896B31",
"3. c #9A6132",
"4. c #8E7033",
"5. c #947333",
"6. c #BE6F2D",
"7. c #B26728",
"8. c #BE702F",
"9. c #A36739",
"0. c #B77134",
"q. c #C7701E",
"w. c #C87735",
"e. c #CB7B38",
"r. c #D27F38",
"t. c #D27E35",
"y. c #9E3F56",
"u. c #A2394E",
"i. c #AB6F41",
"p. c #B59800",
"a. c #A08236",
"s. c #B99D3C",
"d. c #B1943A",
"f. c #C3A305",
"g. c #CBAB00",
"h. c #D68139",
"j. c #DA8439",
"k. c #9C817A",
"l. c #AD836D",
"z. c #C6844A",
"x. c #C2916E",
"c. c #E19F64",
"v. c #E7CC47",
"b. c #F2D849",
"n. c #F9D84A",
"m. c #FDE24C",
"M. c #FFE94D",
"N. c #445081",
"B. c #505980",
"V. c #545C94",
"C. c #625280",
"Z. c #ADB3D6",
/* pixels */
"                                                                                                                                ",
"                                                                                                                                ",
"                                                                                                                                ",
"                                                                                                                                ",
"                                                                                                                                ",
"                                                                                                                                ",
"                                                                                                                                ",
"                                                                                                                                ",
"                                                                                                                                ",
"                                                                                                                                ",
"                                                                                                                                ",
"                                                                    c.                                                          ",
"                                                                    c.7.                                                        ",
"                                                                  x.z.7.i.                                                      ",
"                                                                Z.k.#.*.l.Z.                                                    ",
"                                                                Y L @.&.P B.F                                                   ",
"                                                                G K 8 8 p S H S                                                 ",
"                                                                V.V ; ; e @.@.6 :                                               ",
"                                                                V.I N N a @.6.m ;                                               ",
"                                                                V.U V Z J @.t.3.-                                               ",
"                                                                V.U V Z J $.t.j.                                                ",
"                                                                u.T N.A D J e.j.                                                ",
"                                                                [ y.C.V B C 9.0.                                                ",
"                                                            +.O.O. ._ > : : : :                                                 ",
"                                                            O.O. .X. ./ ^ ^ Q ! ]                                               ",
"                                                            o.O.] } ....o.+.| ] ]                                               ",
"                                                          ] X.O.[ W e q W +.+.X.]                                               ",
"                                                          X.X.{ E s q u h E E ` X.                                              ",
"                                                          +.X._ w e r l j e w d ..                                              ",
"                                                          +.X.) t u l M M l ..! @                                               ",
"                                                        ] O.X.) t u l t w t q.%..                                               ",
"                                                      ] ] O.X.) t u k + + % p.;.#                                               ",
"                                                      ] ] O.X.) 5 , + . z g.3 z g.                                              ",
"                                                      ] ] O.X.) 5 $ O & 7 :.x =.:.                                              ",
"                                                      ] ] O.X.) 5 $ O q e y f.-.r                                               ",
"                                                      ' ] O.X.) 5 $ O q v f.6 <.b.                                              ",
"                                                      { X.O.X.' 0 3 O q c >.1.a.d.                                              ",
"                                                    ] X.+.O.X.' $.5 . 4 q r v.s.q                                               ",
"                                                    ] X.O.+.X.' $.9 < 4 q q y 5.v.                                              ",
"                                                    ] X.O.o.( R ,.8.r.5.4.4.2.s.M.                                              ",
"                                                    ] X.o.] 2 # w.h.j.n.m.m.m.m.m.                                              ",
"                                                    ] X.O.] 1 O i f g b n n n n n                                               ",
"                                                    ] X.O.] 1 o q q q q q q q q q                                               ",
"                                                    ] X.O.] 1 O q q q q q q q q q                                               ",
"                                                    ] X.O.o.) ~ w q q q = + + &                                                 ",
"                                                    ] X.O.O.X.' t q q e * X O .                                                 ",
"                                                          O.X.) t q q e * O O o                                                 ",
"                                                          +.X.'   q q q * O O O                                                 ",
"                                                          o. .]     q q * O O O                                                 ",
"                                                          ]         q q * O O O                                                 ",
"                                                                    q q * X O o                                                 ",
"                                                                    q 4 & O O o                                                 ",
"                                                                    q + O O O o                                                 ",
"                                                                    q + O O O O                                                 ",
"                                                                    q + O O O O                                                 ",
"                                                                    q O O O O O                                                 ",
"                                                                      O O O                                                     ",
"                                                                      o O O                                                     ",
"                                                                      O O O                                                     ",
"                                                                      O O O                                                     ",
"                                                                      O O O                                                     ",
"                                                                      O O O                                                     ",
"                                                                                                                                ",
"                                                                                                                                "
};
