/* XPM */
static char *result[] = {
/* columns rows colors chars-per-pixel */
"64 64 199 2 ",
"   c #250708",
".  c #260708",
"X  c #270708",
"o  c #270808",
"O  c #270809",
"+  c #290809",
"@  c #2A0809",
"#  c #2B090A",
"$  c #2C090A",
"%  c #2D0A0A",
"&  c #380B0C",
"*  c #390B0D",
"=  c #3A0B0D",
"-  c #3C0C0D",
";  c #430D0F",
":  c #440E0F",
">  c #450E0F",
",  c #460E0F",
"<  c #41110E",
"1  c #42160F",
"2  c #4F1012",
"3  c #571913",
"4  c #601315",
"5  c #623612",
"6  c #673A13",
"7  c #6C3913",
"8  c #613B1C",
"9  c #432622",
"0  c #442622",
"q  c #532623",
"w  c #582623",
"e  c #4B3C3E",
"r  c #652725",
"t  c #383C59",
"y  c #3A3C5B",
"u  c #3D3C5D",
"i  c #303E62",
"p  c #343E60",
"a  c #5D3751",
"s  c #513C5B",
"d  c #673646",
"f  c #7A3448",
"g  c #344167",
"h  c #384167",
"j  c #51476F",
"k  c #444D7A",
"l  c #454D7A",
"z  c #88321C",
"x  c #813919",
"c  c #911E21",
"v  c #961F22",
"b  c #9E302C",
"n  c #95303E",
"m  c #96303E",
"M  c #9A303E",
"N  c #AC2E25",
"B  c #B02E25",
"V  c #BB262A",
"C  c #BC262A",
"Z  c #BD272B",
"A  c #BF272B",
"S  c #BB2B29",
"D  c #B62B33",
"F  c #B3323B",
"G  c #C0272B",
"H  c #C3262B",
"J  c #C8272D",
"K  c #C9252E",
"L  c #C1292C",
"P  c #C3282C",
"I  c #C5282C",
"U  c #C42B2F",
"Y  c #C62A2E",
"T  c #C8282C",
"R  c #C9282D",
"E  c #C9292D",
"W  c #CA292D",
"Q  c #C9292E",
"!  c #CA292E",
"~  c #C92A2E",
"^  c #CA2A2E",
"/  c #CA2B2E",
"(  c #CA2B2F",
")  c #CB2B2F",
"_  c #CD282C",
"`  c #CC292D",
"'  c #CF2B2E",
"]  c #CF2B2F",
"[  c #C92D2D",
"{  c #CA2C2E",
"}  c #CF2C2F",
"|  c #CB332E",
" . c #CE362E",
".. c #C12D35",
"X. c #CB2C30",
"o. c #CC2C30",
"O. c #CC2D30",
"+. c #CC2D31",
"@. c #CD2D31",
"#. c #CE2C30",
"$. c #CC2E31",
"%. c #CD2E32",
"&. c #CE2E32",
"*. c #CE2F33",
"=. c #CF2F33",
"-. c #D12C31",
";. c #D12F33",
":. c #D42F33",
">. c #D02F36",
",. c #CD3431",
"<. c #CD3135",
"1. c #CF3034",
"2. c #CE3135",
"3. c #CE3436",
"4. c #CC3339",
"5. c #D03135",
"6. c #D13135",
"7. c #D03236",
"8. c #D13236",
"9. c #D13337",
"0. c #D23337",
"q. c #D43337",
"w. c #D33338",
"e. c #D23438",
"r. c #D33438",
"t. c #D33539",
"y. c #D43539",
"u. c #D4363A",
"i. c #D5363A",
"p. c #D5373B",
"a. c #D6383C",
"s. c #D7383C",
"d. c #D7393D",
"f. c #D83A3E",
"g. c #874C19",
"h. c #99561D",
"j. c #AA5F1E",
"k. c #AF601B",
"l. c #AE611F",
"z. c #8A5627",
"x. c #855329",
"c. c #835528",
"v. c #8F562C",
"b. c #9A5820",
"n. c #9C5C24",
"m. c #935728",
"M. c #BE592B",
"N. c #AF6221",
"B. c #AC6122",
"V. c #AE6323",
"C. c #AF6B33",
"Z. c #CE5D1F",
"A. c #CF7315",
"S. c #CF472A",
"D. c #CF452F",
"F. c #D2462F",
"G. c #D76931",
"H. c #D56B36",
"J. c #D56C36",
"K. c #C37B3E",
"L. c #D77938",
"P. c #D87F39",
"I. c #E97035",
"U. c #8A3345",
"Y. c #8F5F41",
"T. c #927B7C",
"R. c #D5B503",
"E. c #D88037",
"W. c #D98634",
"Q. c #D98239",
"!. c #D98339",
"~. c #AF8C7D",
"^. c #D28D51",
"/. c #D59055",
"(. c #DA965B",
"). c #E2A066",
"_. c #E3A066",
"`. c #E4A167",
"'. c #4A5386",
"]. c #4D5384",
"[. c #4B5486",
"{. c #4B5588",
"}. c #4E578D",
"|. c #50598F",
" X c #565E96",
".X c #5B6399",
"XX c #61699D",
"oX c #6C74A4",
"OX c #8289B3",
"+X c #9497B7",
"@X c #979FC6",
"#X c #AEAEC7",
"$X c #A1A7C9",
"%X c #A7ADCD",
"&X c #ABB0CF",
"*X c #ACB1D0",
"=X c #ADB2D1",
"-X c #AEB5D6",
";X c None",
/* pixels */
";X;X;X;X;X;X;X;X;X;X;X;X;X;X;X;X;X;X;X;X;X;X;X;X;X;X;X;X;X;X;X;X;X;X;X;X;X;X;X;X;X;X;X;X;X;X;X;X;X;X;X;X;X;X;X;X;X;X;X;X;X;X;X;X",
";X;X;X;X;X;X;X;X;X;X;X;X;X;X;X;X;X;X;X;X;X;X;X;X;X;X;X;X;X;X;X;X;X;X;X;X;X;X;X;X;X;X;X;X;X;X;X;X;X;X;X;X;X;X;X;X;X;X;X;X;X;X;X;X",
";X;X;X;X;X;X;X;X;X;X;X;X;X;X;X;X;X;X;X;X;X;X;X;X;X;X;X;X;X;X;X;X;X;X;X;X;X;X;X;X;X;X;X;X;X;X;X;X;X;X;X;X;X;X;X;X;X;X;X;X;X;X;X;X",
";X;X;X;X;X;X;X;X;X;X;X;X;X;X;X;X;X;X;X;X;X;X;X;X;X;X;X;X;X;X;X;X;X;X;X;X;X;X;X;X;X;X;X;X;X;X;X;X;X;X;X;X;X;X;X;X;X;X;X;X;X;X;X;X",
";X;X;X;X;X;X;X;X;X;X;X;X;X;X;X;X;X;X;X;X;X;X;X;X;X;X;X;X;X;X;X;X;X;X;X;X;X;X;X;X;X;X;X;X;X;X;X;X;X;X;X;X;X;X;X;X;X;X;X;X;X;X;X;X",
";X;X;X;X;X;X;X;X;X;X;X;X;X;X;X;X;X;X;X;X;X;X;X;X;X;X;X;X;X;X;X;X;X;X;X;X;X;X;X;X;X;X;X;X;X;X;X;X;X;X;X;X;X;X;X;X;X;X;X;X;X;X;X;X",
";X;X;X;X;X;X;X;X;X;X;X;X;X;X;X;X;X;X;X;X;X;X;X;X;X;X;X;X;X;X;X;X;X;X;X;X;X;X;X;X;X;X;X;X;X;X;X;X;X;X;X;X;X;X;X;X;X;X;X;X;X;X;X;X",
";X;X;X;X;X;X;X;X;X;X;X;X;X;X;X;X;X;X;X;X;X;X;X;X;X;X;X;X;X;X;X;X;X;X;X;X;X;X;X;X;X;X;X;X;X;X;X;X;X;X;X;X;X;X;X;X;X;X;X;X;X;X;X;X",
";X;X;X;X;X;X;X;X;X;X;X;X;X;X;X;X;X;X;X;X;X;X;X;X;X;X;X;X;X;X;X;X;X;X;X;X;X;X;X;X;X;X;X;X;X;X;X;X;X;X;X;X;X;X;X;X;X;X;X;X;X;X;X;X",
";X;X;X;X;X;X;X;X;X;X;X;X;X;X;X;X;X;X;X;X;X;X;X;X;X;X;X;X;X;X;X;X;X;X;X;X;X;X;X;X;X;X;X;X;X;X;X;X;X;X;X;X;X;X;X;X;X;X;X;X;X;X;X;X",
";X;X;X;X;X;X;X;X;X;X;X;X;X;X;X;X;X;X;X;X;X;X;X;X;X;X;X;X;X;X;X;X;X;X;X;X;X;X;X;X;X;X;X;X;X;X;X;X;X;X;X;X;X;X;X;X;X;X;X;X;X;X;X;X",
";X;X;X;X;X;X;X;X;X;X;X;X;X;X;X;X;X;X;X;X;X;X;X;X;X;X;X;X;X;X;X;X;X;X;X;X;X;X;X;X;X;X;X;X;X;X;X;X;X;X;X;X;X;X;X;X;X;X;X;X;X;X;X;X",
";X;X;X;X;X;X;X;X;X;X;X;X;X;X;X;X;X;X;X;X;X;X;X;X;X;X`.;X;X;X;X;X;X;X;X`.;X;X;X;X;X;X;X;X;X;X;X;X;X;X;X;X;X;X;X;X;X;X;X;X;X;X;X;X",
";X;X;X;X;X;X;X;X;X;X;X;X;X;X;X;X;X;X;X;X;X;X;X;X;X;X^.;X;X;X;X;X;X;X;X^./.;X;X;X;X;X;X;X;X;X;X;X;X;X;X;X;X;X;X;X;X;X;X;X;X;X;X;X",
";X;X;X;X;X;X;X;X;X;X;X;X;X;X;X;X;X;X;X;X;X;X;X;X).(.V.;X;X;X;X;X;X;X;Xj.K._.;X;X;X;X;X;X;X;X;X;X;X;X;X;X;X;X;X;X;X;X;X;X;X;X;X;X",
";X;X;X;X;X;X;X;X;X;X;X;X;X;X;X;X;X;X;X;X;X;X;X;Xc.z.B.l.C.#X=X*X-X~.k.N.n.x.;X;X;X;X;X;X;X;X;X;X;X;X;X;X;X;X;X;X;X;X;X;X;X;X;X;X",
";X;X;X;X;X;X;X;X;X;X;X;X;X;X;X;X;X;X;X;X;X;X;X;Xz x h.m.Y.+X$X&X@XT.v.b.g.5 ;X;X;X;X;X;X;X;X;X;X;X;X;X;X;X;X;X;X;X;X;X;X;X;X;X;X",
";X;X;X;X;X;X;X;X;X;X;X;X;X;X;X;X;X;X;X;X;XE E E W S 7 e h }.OX%X.Xl t 8 6 ;X;X;X;X;X;X;X;X;X;X;X;X;X;X;X;X;X;X;X;X;X;X;X;X;X;X;X",
";X;X;X;X;X;X;X;X;X;X;X;X;X;X;X;X;X;X;X;XT 5.9.E 1.3.B d g |.XXoX Xk y b N ;X;X;X;X;X;X;X;X;X;X;X;X;X;X;X;X;X;X;X;X;X;X;X;X;X;X;X",
";X;X;X;X;X;X;X;X;X;X;X;X;X;X;X;X;X;X;X;Xo.9.r.+.8.y.-.U.s ].[.'.{.j a ..#.;X;X;X;X;X;X;X;X;X;X;X;X;X;X;X;X;X;X;X;X;X;X;X;X;X;X;X",
";X;X;X;X;X;X;X;X;X;X;X;X;X;X;X;X;X;XE o.d.&.) d.*.) d.1.D u p p i f ` a.8.T ;X;X;X;X;X;X;X;X;X;X;X;X;X;X;X;X;X;X;X;X;X;X;X;X;X;X",
";X;X;X;X;X;X;X;X;X;X;X;X;X;X;X;X;X;XE ^ &.8.0.&.7.0.&.6.4.M m m n F q.*.5.e.) ;X;X;X;X;X;X;X;X;X;X;X;X;X;X;X;X;X;X;X;X;X;X;X;X;X",
";X;X;X;X;X;X;X;X;X;X;X;X;X;X;X;X;X;XE ~ ) 0.t.) r.a.X.8.u.} ] ' _ ;.u.o.1.i.@.) ;X;X;X;X;X;X;X;X;X;X;X;X;X;X;X;X;X;X;X;X;X;X;X;X",
";X;X;X;X;X;X;X;X;X;X;X;X;X;X;X;X;X;XE o.d.&.) a.d.d.d.1.^ a.d.p.^ E ^ a.8.E p.0.T ;X;X;X;X;X;X;X;X;X;X;X;X;X;X;X;X;X;X;X;X;X;X;X",
";X;X;X;X;X;X;X;X;X;X;X;X;X;X;X;X;X;XE ^ *.5.r.d.d.d.d.y.0.d.d.s.e.%.E &.5.0.1.5.0.) ;X;X;X;X;X;X;X;X;X;X;X;X;X;X;X;X;X;X;X;X;X;X",
";X;X;X;X;X;X;X;X;X;X;X;X;X;X;X;X;X;XE E ( r.f.d.d.d.d.d.d.d.d.d.f.9.) ( 1.p.o.1.p.@.) ;X;X;X;X;X;X;X;X;X;X;X;X;X;X;X;X;X;X;X;X;X",
";X;X;X;X;X;X;X;X;X;X;X;X;X;X;X;X;X;XE o.a.d.d.d.d.d.d.d.d.d.d.d.d.d.a.d.8.~ p.0.E u.0.E ;X;X;X;X;X;X;X;X;X;X;X;X;X;X;X;X;X;X;X;X",
";X;X;X;X;X;X;X;X;X;X;X;X;X;X;X;X;X;XR o.d.d.d.d.d.d.d.d.d.d.d.d.d.d.d.d.u.8.1.5.8.a.e.E ;X;X;X;X;X;X;X;X;X;X;X;X;X;X;X;X;X;X;X;X",
";X;X;X;X;X;X;X;X;X;X;X;X;X;X;X;X;X;X| ,.p.p.a.d.d.d.d.d.d.d.d.d.d.d.d.d.d.d.o.=.a.d.e.E ;X;X;X;X;X;X;X;X;X;X;X;X;X;X;X;X;X;X;X;X",
";X;X;X;X;X;X;X;X;X;X;X;X;X;X;X;X;X;XP.H./ ^ +.d.d.d.d.d.d.d.d.d.d.d.d.d.d.d.d.8.^ p.w.K ;X;X;X;X;X;X;X;X;X;X;X;X;X;X;X;X;X;X;X;X",
";X;X;X;X;X;X;X;X;X;X;X;X;X;X;X;X;X;X;X;X;X;X) 1.u.d.d.d.d.d.d.d.d.d.d.d.d.d.d.u.5.>.S.A.;X;X;X;X;X;X;X;X;X;X;X;X;X;X;X;X;X;X;X;X",
";X;X;X;X;X;X;X;X;X;X;X;X;X;X;X;X;X;X;X;X;X;X;XT 8.a.d.d.d.d.d.d.d.d.d.d.d.d.d.d.a.$.Z.R.;X;X;X;X;X;X;X;X;X;X;X;X;X;X;X;X;X;X;X;X",
";X;X;X;X;X;X;X;X;X;X;X;X;X;X;X;X;X;X;X;X;X;X;X;X^ o.a.d.d.d.d.d.d.d.d.d.d.d.f.0.{ J.E.W.;X;X;X;X;X;X;X;X;X;X;X;X;X;X;X;X;X;X;X;X",
";X;X;X;X;X;X;X;X;X;X;X;X;X;X;X;X;X;X;X;X;X;X;X;XE ) a.d.d.d.d.d.d.d.d.d.u.5.5.*.[ L.!.Q.;X;X;X;X;X;X;X;X;X;X;X;X;X;X;X;X;X;X;X;X",
";X;X;X;X;X;X;X;X;X;X;X;X;X;X;X;X;X;X;X;X;X;X;X;XL U p.d.d.d.d.d.d.d.d.d.5.T E E ;X!.Q.Q.;X;X;X;X;X;X;X;X;X;X;X;X;X;X;X;X;X;X;X;X",
";X;X;X;X;X;X;X;X;X;X;X;X;X;X;X;X;X;X;X;X;X;X;X;Xq r Y 0.d.d.d.d.d.d.d.O.Q J ;X;X;X;X;X;X;X;X;X;X;X;X;X;X;X;X;X;X;X;X;X;X;X;X;X;X",
";X;X;X;X;X;X;X;X;X;X;X;X;X;X;X;X;X;X;X;X;X;X;X;X9 w P 8.d.d.d.d.d.u.5.!  .F.3 ;X;X;X;X;X;X;X;X;X;X;X;X;X;X;X;X;X;X;X;X;X;X;X;X;X",
";X;X;X;X;X;X;X;X;X;X;X;X;X;X;X;X;X;X;X;X;X;X;X;X0 w Z 2.d.d.d.d.d.5.T H D.G.1 X ;X;X;X;X;X;X;X;X;X;X;X;X;X;X;X;X;X;X;X;X;X;X;X;X",
";X;X;X;X;X;X;X;X;X;X;X;X;X;X;X;X;X;X;X;X;X;X;X;X;X;X- c :.d.d.d.f.8.G 2 < 1 % + + ;X;X;X;X;X;X;X;X;X;X;X;X;X;X;X;X;X;X;X;X;X;X;X",
";X;X;X;X;X;X;X;X;X;X;X;X;X;X;X;X;X;X;X;X;X;X;X;X;X;X  4 v <.0.0.0.&.A * . . + + + + ;X;X;X;X;X;X;X;X;X;X;X;X;X;X;X;X;X;X;X;X;X;X",
";X;X;X;X;X;X;X;X;X;X;X;X;X;X;X;X;X;X;X;X;X;X;X;X;X;X+ . & V I I I I C = O ;X;X;X+ + + ;X;X;X;X;X;X;X;X;X;X;X;X;X;X;X;X;X;X;X;X;X",
";X;X;X;X;X;X;X;X;X;X;X;X;X;X;X;X;X;X;X;X;X;X;X;X;X;X+ + $ ; > , , , : $ + ;X;X;X;X+ + + ;X;X;X;X;X;X;X;X;X;X;X;X;X;X;X;X;X;X;X;X",
";X;X;X;X;X;X;X;X;X;X;X;X;X;X;X;X;X;X;X;X;X;X;X;X;X;X+ + + . o O O O O + + ;X;X;X;X+ + @ ;X;X;X;X;X;X;X;X;X;X;X;X;X;X;X;X;X;X;X;X",
";X;X;X;X;X;X;X;X;X;X;X;X;X;X;X;X;X;X;X;X;X;X;X;X;X;X+ + + ;X+ + + + + + + ;X;X;X;X;X;X# M.I.;X;X;X;X;X;X;X;X;X;X;X;X;X;X;X;X;X;X",
";X;X;X;X;X;X;X;X;X;X;X;X;X;X;X;X;X;X;X;X;X;X;X;X;X;X+ + + ;X;X;X;X+ + + + ;X;X;X;X;X;X;X;X;X;X;X;X;X;X;X;X;X;X;X;X;X;X;X;X;X;X;X",
";X;X;X;X;X;X;X;X;X;X;X;X;X;X;X;X;X;X;X;X;X;X;X;X;X;X+ + + ;X;X;X;X;X+ + + ;X;X;X;X;X;X;X;X;X;X;X;X;X;X;X;X;X;X;X;X;X;X;X;X;X;X;X",
";X;X;X;X;X;X;X;X;X;X;X;X;X;X;X;X;X;X;X;X;X;X;X;X;X;X+ + + ;X;X;X;X;X+ + + ;X;X;X;X;X;X;X;X;X;X;X;X;X;X;X;X;X;X;X;X;X;X;X;X;X;X;X",
";X;X;X;X;X;X;X;X;X;X;X;X;X;X;X;X;X;X;X;X;X;X;X;X;X;X;X+ + ;X;X;X;X;X+ + + ;X;X;X;X;X;X;X;X;X;X;X;X;X;X;X;X;X;X;X;X;X;X;X;X;X;X;X",
";X;X;X;X;X;X;X;X;X;X;X;X;X;X;X;X;X;X;X;X;X;X;X;X;X;X;X+ + ;X;X;X;X;X+ + + ;X;X;X;X;X;X;X;X;X;X;X;X;X;X;X;X;X;X;X;X;X;X;X;X;X;X;X",
";X;X;X;X;X;X;X;X;X;X;X;X;X;X;X;X;X;X;X;X;X;X;X;X;X;X;X+ + ;X;X;X;X;X+ + + ;X;X;X;X;X;X;X;X;X;X;X;X;X;X;X;X;X;X;X;X;X;X;X;X;X;X;X",
";X;X;X;X;X;X;X;X;X;X;X;X;X;X;X;X;X;X;X;X;X;X;X;X;X;X;X;X;X;X;X;X;X;X+ + + ;X;X;X;X;X;X;X;X;X;X;X;X;X;X;X;X;X;X;X;X;X;X;X;X;X;X;X",
";X;X;X;X;X;X;X;X;X;X;X;X;X;X;X;X;X;X;X;X;X;X;X;X;X;X;X;X;X;X;X;X;X;X+ + ;X;X;X;X;X;X;X;X;X;X;X;X;X;X;X;X;X;X;X;X;X;X;X;X;X;X;X;X",
";X;X;X;X;X;X;X;X;X;X;X;X;X;X;X;X;X;X;X;X;X;X;X;X;X;X;X;X;X;X;X;X;X;X+ ;X;X;X;X;X;X;X;X;X;X;X;X;X;X;X;X;X;X;X;X;X;X;X;X;X;X;X;X;X",
";X;X;X;X;X;X;X;X;X;X;X;X;X;X;X;X;X;X;X;X;X;X;X;X;X;X;X;X;X;X;X;X;X;X+ ;X;X;X;X;X;X;X;X;X;X;X;X;X;X;X;X;X;X;X;X;X;X;X;X;X;X;X;X;X",
";X;X;X;X;X;X;X;X;X;X;X;X;X;X;X;X;X;X;X;X;X;X;X;X;X;X;X;X;X;X;X;X;X;X+ ;X;X;X;X;X;X;X;X;X;X;X;X;X;X;X;X;X;X;X;X;X;X;X;X;X;X;X;X;X",
";X;X;X;X;X;X;X;X;X;X;X;X;X;X;X;X;X;X;X;X;X;X;X;X;X;X;X;X;X;X;X;X;X;X+ ;X;X;X;X;X;X;X;X;X;X;X;X;X;X;X;X;X;X;X;X;X;X;X;X;X;X;X;X;X",
";X;X;X;X;X;X;X;X;X;X;X;X;X;X;X;X;X;X;X;X;X;X;X;X;X;X;X;X;X;X;X;X;X;X+ ;X;X;X;X;X;X;X;X;X;X;X;X;X;X;X;X;X;X;X;X;X;X;X;X;X;X;X;X;X",
";X;X;X;X;X;X;X;X;X;X;X;X;X;X;X;X;X;X;X;X;X;X;X;X;X;X;X;X;X;X;X;X;X;X+ ;X;X;X;X;X;X;X;X;X;X;X;X;X;X;X;X;X;X;X;X;X;X;X;X;X;X;X;X;X",
";X;X;X;X;X;X;X;X;X;X;X;X;X;X;X;X;X;X;X;X;X;X;X;X;X;X;X;X;X;X;X;X;X;X+ ;X;X;X;X;X;X;X;X;X;X;X;X;X;X;X;X;X;X;X;X;X;X;X;X;X;X;X;X;X",
";X;X;X;X;X;X;X;X;X;X;X;X;X;X;X;X;X;X;X;X;X;X;X;X;X;X;X;X;X;X;X;X;X;X+ ;X;X;X;X;X;X;X;X;X;X;X;X;X;X;X;X;X;X;X;X;X;X;X;X;X;X;X;X;X",
";X;X;X;X;X;X;X;X;X;X;X;X;X;X;X;X;X;X;X;X;X;X;X;X;X;X;X;X;X;X;X;X;X;X+ ;X;X;X;X;X;X;X;X;X;X;X;X;X;X;X;X;X;X;X;X;X;X;X;X;X;X;X;X;X",
";X;X;X;X;X;X;X;X;X;X;X;X;X;X;X;X;X;X;X;X;X;X;X;X;X;X;X;X;X;X;X;X;X;X+ ;X;X;X;X;X;X;X;X;X;X;X;X;X;X;X;X;X;X;X;X;X;X;X;X;X;X;X;X;X",
";X;X;X;X;X;X;X;X;X;X;X;X;X;X;X;X;X;X;X;X;X;X;X;X;X;X;X;X;X;X;X;X;X;X;X;X;X;X;X;X;X;X;X;X;X;X;X;X;X;X;X;X;X;X;X;X;X;X;X;X;X;X;X;X",
";X;X;X;X;X;X;X;X;X;X;X;X;X;X;X;X;X;X;X;X;X;X;X;X;X;X;X;X;X;X;X;X;X;X;X;X;X;X;X;X;X;X;X;X;X;X;X;X;X;X;X;X;X;X;X;X;X;X;X;X;X;X;X;X"
};
