/* XPM */
static char *_56c98b10f5848cfda01bca2c7fb8ff88dPOkjIoT70Acf6L[] = {
/* columns rows colors chars-per-pixel */
"64 64 152 2 ",
"   c None",
".  c #270609",
"X  c #280708",
"o  c #270909",
"O  c #290909",
"+  c #220606",
"@  c #300F0B",
"#  c #3E1C0C",
"$  c #3A1A17",
"%  c #3B1B19",
"&  c #371413",
"*  c #32241E",
"=  c #121724",
"-  c #121824",
";  c #191F33",
":  c #2F1926",
">  c #331A25",
",  c #3E1D21",
"<  c #1D2539",
"1  c #312420",
"2  c #212538",
"3  c #2C273B",
"4  c #441F0E",
"5  c #4D1513",
"6  c #461D12",
"7  c #76181A",
"8  c #74171A",
"9  c #5D3C07",
"0  c #43231F",
"q  c #462215",
"w  c #5C2D13",
"e  c #6A3616",
"r  c #441C26",
"t  c #452522",
"y  c #4A2722",
"u  c #472823",
"i  c #4C2C24",
"p  c #512623",
"a  c #5C2A27",
"s  c #502D28",
"d  c #592E27",
"f  c #4E3629",
"g  c #503025",
"h  c #5B322C",
"j  c #563B2B",
"k  c #772928",
"l  c #61312D",
"z  c #78302E",
"x  c #6E3A35",
"c  c #713D37",
"v  c #743E38",
"b  c #614005",
"n  c #69490D",
"m  c #765608",
"M  c #735304",
"N  c #785816",
"B  c #725218",
"V  c #745414",
"C  c #5E443E",
"Z  c #6A4123",
"A  c #764A2C",
"S  c #7E4C28",
"D  c #77592B",
"F  c #654536",
"G  c #363C5E",
"H  c #3F3D55",
"J  c #343D61",
"K  c #3E405D",
"L  c #394066",
"P  c #3B4269",
"I  c #5B4541",
"U  c #534247",
"Y  c #454D7A",
"T  c #554A73",
"R  c #6F517D",
"E  c #851C1E",
"W  c #943D1D",
"Q  c #972528",
"!  c #943131",
"~  c #A3292B",
"^  c #BE292B",
"/  c #B22E31",
"(  c #A63334",
")  c #B3333B",
"_  c #C42A2C",
"`  c #CA292D",
"'  c #C2272A",
"]  c #CE2E32",
"[  c #C32F32",
"{  c #D12E31",
"}  c #CE3235",
"|  c #D03135",
" . c #D43639",
".. c #D6393D",
"X. c #D93A3E",
"o. c #8E4D19",
"O. c #8B4918",
"+. c #914C1B",
"@. c #905019",
"#. c #A0581A",
"$. c #AB5F1E",
"%. c #9E7F0D",
"&. c #927402",
"*. c #9E5D26",
"=. c #8D5A31",
"-. c #A15B20",
";. c #907328",
":. c #8C6F32",
">. c #967836",
",. c #9C7F36",
"<. c #AD6325",
"1. c #B26728",
"2. c #BC682C",
"3. c #BB6E33",
"4. c #BA7234",
"5. c #CB5A2C",
"6. c #CD7A35",
"7. c #C57939",
"8. c #D27C35",
"9. c #97394F",
"0. c #8F415E",
"q. c #97715D",
"w. c #896F68",
"e. c #AB8B02",
"r. c #AC8C0A",
"t. c #B49309",
"y. c #B89808",
"u. c #BA9B3D",
"i. c #B79A3C",
"p. c #C2A303",
"a. c #DC8439",
"s. c #C1A43F",
"d. c #AE8064",
"f. c #A68678",
"g. c #CCB041",
"h. c #D5B943",
"j. c #DE9A60",
"k. c #E29E64",
"l. c #DDC145",
"z. c #E5CB47",
"x. c #E9CF47",
"c. c #E9CE48",
"v. c #E5C446",
"b. c #FFE74D",
"n. c #FFEB4D",
"m. c #4C5488",
"M. c #4C5A92",
"N. c #535D95",
"B. c #888EB1",
"V. c #8991B3",
"C. c #B0B7D9",
"Z. c #B1B8DB",
/* pixels */
"                                                                                                                                ",
"                                                                                                                                ",
"                                                                                                                                ",
"                                                                                                                                ",
"                                                                                                                                ",
"                                                                                                                                ",
"                                                                                                                                ",
"                                                                                                                                ",
"                                                                                                                                ",
"                                                                    k.                                                          ",
"                                                                    k.                                                          ",
"                                                                    j.1.<.                                                      ",
"                                                                Z.f.*.$.d.C.                                                    ",
"                                                                V.w.O.#.q.B.                                                    ",
"                                                                J C o.o.F G G G                                                 ",
"                                                                m.H * 1 f A A j -                                               ",
"                                                                N.L ; ; f +.-.Z =                                               ",
"                                                                N.Y G J I o.8.=.=                                               ",
"                                                                N.Y G J I @.6.4.                                                ",
"                                                                R T P J U S 6.a.                                                ",
"                                                                ` 0.M.L G K 7.a.                                                ",
"                                                                ` ) 9.3 < 2 f j                                                 ",
"                                                                ] ` ' r > > > :                                                 ",
"                                                            X.....| ` ` ` ` ` '                                                 ",
"                                                            ....} } } } } | ` ` `                                               ",
"                                                            ....` Q a a ! X.{ ` `                                               ",
"                                                          ` |  .~ k t s z ( ( / `                                               ",
"                                                          | | [ p t u c l t t k |                                               ",
"                                                          ..| ^ p h x v v x ) Q 5                                               ",
"                                                          X.| ^ p h v l h l 5.W +                                               ",
"                                                        ` ..| ^ p h c @ O @ p.&..                                               ",
"                                                      ` ` ..| ^ w q & . b e.9 M e.                                              ",
"                                                      ` ` ..| ^ w # . O n t.9 m t.                                              ",
"                                                      ` ` ..| ^ w # O 0 t u p.%.t                                               ",
"                                                      ` ` ..| ^ w # O t B r.V ;.g.                                              ",
"                                                      ` ` ..| _ e 4 O t N y.D >.l.                                              ",
"                                                      ] | ..| _ +.w O t u g x.u.t                                               ",
"                                                    ` | X...| _ +.w . t t u D ,.s.                                              ",
"                                                    ` | ....| _ +.e 6 t t t , :.n.                                              ",
"                                                    ` | ....| _ O.<.6.g t t , :.b.                                              ",
"                                                    ` | ....} _ 2.6.a.u.u.u.i.h.b.                                              ",
"                                                    ` | ..] E 5 3.7.7.v.x.c.c.z.z.                                              ",
"                                                    ` | ..` 8 o u i i i i i i i i                                               ",
"                                                    ` | ..` 7 O t t t t t t t t t                                               ",
"                                                    ` | .. .^ Q y t t t t 0 t t t                                               ",
"                                                    ` | ....| ' p t t t $ O O O                                                 ",
"                                                          ..| ^ p t t t $ O O o                                                 ",
"                                                          ..| ^ p t t u $ X O O                                                 ",
"                                                           .] `   t t u $ O O O                                                 ",
"                                                          `         t u $ O O O                                                 ",
"                                                                    t u $ O O o                                                 ",
"                                                                    t u $ O O O                                                 ",
"                                                                    t % & O O O                                                 ",
"                                                                    t O O O O o                                                 ",
"                                                                    t O O O O O                                                 ",
"                                                                    t O O O O O                                                 ",
"                                                                    t O O O O O                                                 ",
"                                                                      O O O                                                     ",
"                                                                      O O O                                                     ",
"                                                                      O O O                                                     ",
"                                                                      O O O                                                     ",
"                                                                      O O O                                                     ",
"                                                                                                                                ",
"                                                                                                                                "
};
