/* XPM */
static char *result[] = {
/* columns rows colors chars-per-pixel */
"64 64 153 2 ",
"   c #250608",
".  c #280708",
"X  c #2A090A",
"o  c #250507",
"O  c #33110D",
"+  c #39130D",
"@  c #341313",
"#  c #3A1917",
"$  c #3B1B1B",
"%  c #121725",
"&  c #191E31",
"*  c #2D1925",
"=  c #371925",
"-  c #1F263B",
";  c #1C2031",
":  c #2E2528",
">  c #342622",
",  c #392821",
"<  c #3C2E2C",
"1  c #3F363B",
"2  c #42221E",
"3  c #4D2C1D",
"4  c #4B221F",
"5  c #542E11",
"6  c #592C12",
"7  c #5B301F",
"8  c #573212",
"9  c #692619",
"0  c #702D17",
"q  c #6C3C15",
"w  c #653818",
"e  c #723C16",
"r  c #401F21",
"t  c #462622",
"y  c #4B2622",
"u  c #4C2B24",
"i  c #452824",
"p  c #522623",
"a  c #572C28",
"s  c #5A2724",
"d  c #5B322C",
"f  c #593A26",
"g  c #672726",
"h  c #772B2A",
"j  c #6E3C35",
"k  c #643630",
"l  c #66451B",
"z  c #7E4518",
"x  c #77441A",
"c  c #7B5913",
"v  c #64422B",
"b  c #6F472E",
"n  c #7B4A25",
"m  c #71482F",
"M  c #6F5126",
"N  c #6C4630",
"B  c #744039",
"V  c #222840",
"C  c #363D5F",
"Z  c #383D5D",
"A  c #353D60",
"S  c #6B344B",
"D  c #3A4165",
"F  c #454053",
"G  c #705651",
"H  c #41456C",
"J  c #49507F",
"K  c #7A4A70",
"L  c #65527F",
"P  c #8A2D1E",
"I  c #8F2228",
"U  c #952C21",
"Y  c #9F2B2D",
"T  c #953230",
"R  c #AF2E2A",
"E  c #B62A29",
"W  c #BD2A2B",
"Q  c #A33B3B",
"!  c #BD3237",
"~  c #C3292C",
"^  c #C9292D",
"/  c #CC2D31",
"(  c #C12C34",
")  c #D12B31",
"_  c #CD3034",
"`  c #C7373A",
"'  c #D13236",
"]  c #D5363A",
"[  c #D7393D",
"{  c #D8393D",
"}  c #D9363D",
"|  c #854A19",
" . c #894C1B",
".. c #8E5219",
"X. c #93531D",
"o. c #9B581F",
"O. c #9E7E0F",
"+. c #8D6D12",
"@. c #907010",
"#. c #A06C12",
"$. c #89562F",
"%. c #9C5B2C",
"&. c #9B5B25",
"*. c #A55F29",
"=. c #8E702E",
"-. c #8B6D32",
";. c #937534",
":. c #A76023",
">. c #AB6020",
",. c #B4692B",
"<. c #DE4838",
"1. c #C86A24",
"2. c #CE7A36",
"3. c #A53A4F",
"4. c #A36C40",
"5. c #A78506",
"6. c #B88D09",
"7. c #BD9D06",
"8. c #A98712",
"9. c #A08337",
"0. c #AF923A",
"q. c #B5983A",
"w. c #CE9C0A",
"e. c #C38A18",
"r. c #CBA803",
"t. c #D8AD04",
"y. c #D4B500",
"u. c #D88F2B",
"i. c #D78037",
"p. c #D78139",
"a. c #D98239",
"s. c #C2A53E",
"d. c #CEB13F",
"f. c #CD874B",
"g. c #DA955A",
"h. c #D4B842",
"j. c #E29F65",
"k. c #E3A167",
"l. c #E3C746",
"z. c #E6CA46",
"x. c #EFD348",
"c. c #FFE64C",
"v. c #FFE94D",
"b. c #455080",
"n. c #50598F",
"m. c #515A91",
"M. c #615586",
"N. c #8E889A",
"B. c #848BAC",
"V. c #8E91AE",
"C. c #A99EAA",
"Z. c #AEB0CA",
"A. c None",
/* pixels */
"A.A.A.A.A.A.A.A.A.A.A.A.A.A.A.A.A.A.A.A.A.A.A.A.A.A.A.A.A.A.A.A.A.A.A.A.A.A.A.A.A.A.A.A.A.A.A.A.A.A.A.A.A.A.A.A.A.A.A.A.A.A.A.A.",
"A.A.A.A.A.A.A.A.A.A.A.A.A.A.A.A.A.A.A.A.A.A.A.A.A.A.A.A.A.A.A.A.A.A.A.A.A.A.A.A.A.A.A.A.A.A.A.A.A.A.A.A.A.A.A.A.A.A.A.A.A.A.A.A.",
"A.A.A.A.A.A.A.A.A.A.A.A.A.A.A.A.A.A.A.A.A.A.A.A.A.A.A.A.A.A.A.A.A.A.A.A.A.A.A.A.A.A.A.A.A.A.A.A.A.A.A.A.A.A.A.A.A.A.A.A.A.A.A.A.",
"A.A.A.A.A.A.A.A.A.A.A.A.A.A.A.A.A.A.A.A.A.A.A.A.A.A.A.A.A.A.A.A.A.A.A.A.A.A.A.A.A.A.A.A.A.A.A.A.A.A.A.A.A.A.A.A.A.A.A.A.A.A.A.A.",
"A.A.A.A.A.A.A.A.A.A.A.A.A.A.A.A.A.A.A.A.A.A.A.A.A.A.A.A.A.A.A.A.A.A.A.A.A.A.A.A.A.A.A.A.A.A.A.A.A.A.A.A.A.A.A.A.A.A.A.A.A.A.A.A.",
"A.A.A.A.A.A.A.A.A.A.A.A.A.A.A.A.A.A.A.A.A.A.A.A.A.A.A.A.A.A.A.A.A.A.A.A.A.A.A.A.A.A.A.A.A.A.A.A.A.A.A.A.A.A.A.A.A.A.A.A.A.A.A.A.",
"A.A.A.A.A.A.A.A.A.A.A.A.A.A.A.A.A.A.A.A.A.A.A.A.A.A.A.A.A.A.A.A.A.A.A.A.A.A.A.A.A.A.A.A.A.A.A.A.A.A.A.A.A.A.A.A.A.A.A.A.A.A.A.A.",
"A.A.A.A.A.A.A.A.A.A.A.A.A.A.A.A.A.A.A.A.A.A.A.A.A.A.A.A.A.A.A.A.A.A.A.A.A.A.A.A.A.A.A.A.A.A.A.A.A.A.A.A.A.A.A.A.A.A.A.A.A.A.A.A.",
"A.A.A.A.A.A.A.A.A.A.A.A.A.A.A.A.A.A.A.A.A.A.A.A.A.A.A.A.A.A.A.A.A.A.A.A.A.A.A.A.A.A.A.A.A.A.A.A.A.A.A.A.A.A.A.A.A.A.A.A.A.A.A.A.",
"A.A.A.A.A.A.A.A.A.A.A.A.A.A.A.A.A.A.A.A.A.A.A.A.A.A.A.A.A.A.A.A.A.A.A.A.A.A.A.A.A.A.A.A.A.A.A.A.A.A.A.A.A.A.A.A.A.A.A.A.A.A.A.A.",
"A.A.A.A.A.A.A.A.A.A.A.A.A.A.A.A.A.A.A.A.A.A.A.A.A.A.A.A.A.A.A.A.A.A.A.A.A.A.A.A.A.A.A.A.A.A.A.A.A.A.A.A.A.A.A.A.A.A.A.A.A.A.A.A.",
"A.A.A.A.A.A.A.A.A.A.A.A.A.A.A.A.A.A.A.A.A.A.A.A.A.A.A.A.A.A.A.A.A.A.A.A.A.A.A.A.A.A.A.A.A.A.A.A.A.A.A.A.A.A.A.A.A.A.A.A.A.A.A.A.",
"A.A.A.A.A.A.A.A.A.A.A.A.A.A.A.A.A.A.A.A.A.A.A.A.A.A.A.A.A.A.A.A.A.A.A.A.A.A.j.A.A.A.A.A.A.A.A.A.A.A.A.A.A.A.A.A.A.A.A.A.A.A.A.A.",
"A.A.A.A.A.A.A.A.A.A.A.A.A.A.A.A.A.A.A.A.A.A.A.A.A.A.A.A.A.A.A.A.A.A.A.A.A.A.k.g.A.A.A.A.A.A.A.A.A.A.A.A.A.A.A.A.A.A.A.A.A.A.A.A.",
"A.A.A.A.A.A.A.A.A.A.A.A.A.A.A.A.A.A.A.A.A.A.A.A.A.A.A.A.A.A.A.A.A.A.A.A.A.A.k.f.>.A.A.A.A.A.A.A.A.A.A.A.A.A.A.A.A.A.A.A.A.A.A.A.",
"A.A.A.A.A.A.A.A.A.A.A.A.A.A.A.A.A.A.A.A.A.A.A.A.A.A.A.A.A.A.A.A.A.A.A.A.A.Z.4.&.X.C.A.A.A.A.A.A.A.A.A.A.A.A.A.A.A.A.A.A.A.A.A.A.",
"A.A.A.A.A.A.A.A.A.A.A.A.A.A.A.A.A.A.A.A.A.A.A.A.A.A.A.A.A.A.A.A.A.A.A.A.A.V.$. . .N.B.A.A.A.A.A.A.A.A.A.A.A.A.A.A.A.A.A.A.A.A.A.",
"A.A.A.A.A.A.A.A.A.A.A.A.A.A.A.A.A.A.A.A.A.A.A.A.A.A.A.A.A.A.A.A.A.A.A.A.A.D |  . .F C C A.A.A.A.A.A.A.A.A.A.A.A.A.A.A.A.A.A.A.A.",
"A.A.A.A.A.A.A.A.A.A.A.A.A.A.A.A.A.A.A.A.A.A.A.A.A.A.A.A.A.A.A.A.A.A.A.A.A.J < > , v b b : A.A.A.A.A.A.A.A.A.A.A.A.A.A.A.A.A.A.A.",
"A.A.A.A.A.A.A.A.A.A.A.A.A.A.A.A.A.A.A.A.A.A.A.A.A.A.A.A.A.A.A.A.A.A.A.A.A.n.V ; & n X.&.> % A.A.A.A.A.A.A.A.A.A.A.A.A.A.A.A.A.A.",
"A.A.A.A.A.A.A.A.A.A.A.A.A.A.A.A.A.A.A.A.A.A.A.A.A.A.A.A.A.A.A.A.A.A.A.A.A.m.D C Z n *.2.< % A.A.A.A.A.A.A.A.A.A.A.A.A.A.A.A.A.A.",
"A.A.A.A.A.A.A.A.A.A.A.A.A.A.A.A.A.A.A.A.A.A.A.A.A.A.A.A.A.A.A.A.A.A.A.A.A.n.D Z Z n >.a.A.A.A.A.A.A.A.A.A.A.A.A.A.A.A.A.A.A.A.A.",
"A.A.A.A.A.A.A.A.A.A.A.A.A.A.A.A.A.A.A.A.A.A.A.A.A.A.A.A.A.A.A.A.A.A.A.A.K M.D D Z N %.a.A.A.A.A.A.A.A.A.A.A.A.A.A.A.A.A.A.A.A.A.",
"A.A.A.A.A.A.A.A.A.A.A.A.A.A.A.A.A.A.A.A.A.A.A.A.A.A.A.A.A.A.A.A.A.A.A.^ ^ ( M.J C D G a.A.A.A.A.A.A.A.A.A.A.A.A.A.A.A.A.A.A.A.A.",
"A.A.A.A.A.A.A.A.A.A.A.A.A.A.A.A.A.A.A.A.A.A.A.A.A.A.A.A.A.A.A.A.A.A.^ ' _ ^ 3.S - - 1 A.A.A.A.A.A.A.A.A.A.A.A.A.A.A.A.A.A.A.A.A.",
"A.A.A.A.A.A.A.A.A.A.A.A.A.A.A.A.A.A.A.A.A.A.A.A.A.A.A.A.A.A.A.A.A.^ ^ ` ! E ^ I * * = A.A.A.A.A.A.A.A.A.A.A.A.A.A.A.A.A.A.A.A.A.",
"A.A.A.A.A.A.A.A.A.A.A.A.A.A.A.A.A.A.A.A.A.A.A.A.A.A.A.A.A.A.A.A.^ ^ ~ s y p W ^ ~ ~ ~ ^ A.A.A.A.A.A.A.A.A.A.A.A.A.A.A.A.A.A.A.A.",
"A.A.A.A.A.A.A.A.A.A.A.A.A.A.A.A.A.A.A.A.A.A.A.A.A.A.A.A.A.A.A.^ ' / ~ p t t g R ' / ^ ^ A.A.A.A.A.A.A.A.A.A.A.A.A.A.A.A.A.A.A.A.",
"A.A.A.A.A.A.A.A.A.A.A.A.A.A.A.A.A.A.A.A.A.A.A.A.A.A.A.A.A.A.^ / ] _ E p y u i h ` / / / A.A.A.A.A.A.A.A.A.A.A.A.A.A.A.A.A.A.A.A.",
"A.A.A.A.A.A.A.A.A.A.A.A.A.A.A.A.A.A.A.A.A.A.A.A.A.A.A.A.A.^ ' [ ) U 5 4 a B G k u ! } } A.A.A.A.A.A.A.A.A.A.A.A.A.A.A.A.A.A.A.A.",
"A.A.A.A.A.A.A.A.A.A.A.A.A.A.A.A.A.A.A.A.A.A.A.A.A.A.A.A.^ ' ' _ U 0 5 d s 4 4 g T 1.1.Q A.A.A.A.A.A.A.A.A.A.A.A.A.A.A.A.A.A.A.A.",
"A.A.A.A.A.A.A.A.A.A.A.A.A.A.A.A.A.A.A.A.A.A.A.A.A.A.A.^ / [ _ W 6 5 6 j p o o 9 <.w.8.j A.A.A.A.A.A.A.A.A.A.A.A.A.A.A.A.A.A.A.A.",
"A.A.A.A.A.A.A.A.A.A.A.A.A.A.A.A.A.A.A.A.A.A.A.A.A.A.^ ' [ { ' ~ 6 q | + X X $ c t.l 3 5 A.A.A.A.A.A.A.A.A.A.A.A.A.A.A.A.A.A.A.A.",
"A.A.A.A.A.A.A.A.A.A.A.A.A.A.A.A.A.A.A.A.A.A.A.A.A.^ _ ] [ ' R P e w 6 X O # c +.@.+.c 5 A.A.A.A.A.A.A.A.A.A.A.A.A.A.A.A.A.A.A.A.",
"A.A.A.A.A.A.A.A.A.A.A.A.A.A.A.A.A.A.A.A.^ ^ ^ ^ ^ _ [ [ ] ~ P 8 | 6 o X @ u r.O.u 7.5.8 A.A.A.a.a.a.A.A.A.A.A.A.A.A.A.A.A.A.A.A.",
"A.A.A.A.A.A.A.A.A.A.A.A.A.A.A.A.A.^ ^ / [ / ^ ^ ' [ { ' W 9 e z + X X 2 t t 3 -.x.M w |  .#.y.u.a.a.A.A.A.A.A.A.A.A.A.A.A.A.A.A.",
"A.A.A.A.A.A.A.A.A.A.A.A.A.A.A.A./ _ ^ / ' ^ ^ ^ ' [ ' _ E q x z X X X 2 t u -.9.0.v 7  . .#.y.u.a.a.A.A.A.A.A.A.A.A.A.A.A.A.A.A.",
"A.A.A.A.A.A.A.A.A.A.A.A.A.A.A.^ / [ / ^ ^ ^ ^ ^ ' [ ^ A.A.X.A.A.X X X 2 t u z.q.t A.A.A.A.A.A.A.A.A.A.A.A.A.A.A.A.A.A.A.A.A.A.A.",
"A.A.A.A.A.A.A.A.A.A.A.A.A.A.A.^ ^ ^ ^ ^ ^ ^ ^ ^ ^ ^ A.A.A.r.A.A.X X X t t t f ;.z.A.A.A.A.A.A.A.A.A.A.A.A.A.A.A.A.A.A.A.A.A.A.A.",
"A.A.A.A.A.A.A.A.A.A.A.A.A.A.A.^ ^ ^ ^ ^ ^ ^ ^ ^ ^ ^ A.A.A.6.e.A.X X X t t y , =.v.A.A.A.A.A.A.A.A.A.A.A.A.A.A.A.A.A.A.A.A.A.A.A.",
"A.A.A.A.A.A.A.A.A.A.A.A.A.A.A.^ ^ ^ A.A.A.A.A.A.A.A.A.A.A. .,.2.+ X X y u i t ;.c.A.A.A.A.A.A.A.A.A.A.A.A.A.A.A.A.A.A.A.A.A.A.A.",
"A.A.A.A.A.A.A.A.A.A.A.A.A.A.A.A.A.A.A.A.A.A.A.A.A.A.A.A.A.2.2.2.+ X O d.l.l.l.x.c.A.A.A.A.A.A.A.A.A.A.A.A.A.A.A.A.A.A.A.A.A.A.A.",
"A.A.A.A.A.A.A.A.A.A.A.A.A.A.A.A.A.A.A.A.A.A.A.A.A.A.A.A.A.%.*.%.O X O 0.s.s.s.h.c.A.A.A.A.A.A.A.A.A.A.A.A.A.A.A.A.A.A.A.A.A.A.A.",
"A.A.A.A.A.A.A.A.A.A.A.A.A.A.A.A.A.A.A.A.A.A.A.A.A.A.A.A.A.. @ t X X X 2 t t t t A.A.A.A.A.A.A.A.A.A.A.A.A.A.A.A.A.A.A.A.A.A.A.A.",
"A.A.A.A.A.A.A.A.A.A.A.A.A.A.A.A.A.A.A.A.A.A.A.A.A.A.A.A.A.A.@ X . @ 2 t t t @ X A.A.A.A.A.A.A.A.A.A.A.A.A.A.A.A.A.A.A.A.A.A.A.A.",
"A.A.A.A.A.A.A.A.A.A.A.A.A.A.A.A.A.A.A.A.A.A.A.A.A.A.A.A.A.A.X X O # i t 2 $ X . A.A.A.A.A.A.A.A.A.A.A.A.A.A.A.A.A.A.A.A.A.A.A.A.",
"A.A.A.A.A.A.A.A.A.A.A.A.A.A.A.A.A.A.A.A.A.A.A.A.A.A.A.A.A.X X X t t t y # . X X A.A.A.A.A.A.A.A.A.A.A.A.A.A.A.A.A.A.A.A.A.A.A.A.",
"A.A.A.A.A.A.A.A.A.A.A.A.A.A.A.A.A.A.A.A.A.A.A.A.A.A.A.A.X X @ 2 t t t t # . . X X A.A.A.A.A.A.A.A.A.A.A.A.A.A.A.A.A.A.A.A.A.A.A.",
"A.A.A.A.A.A.A.A.A.A.A.A.A.A.A.A.A.A.A.A.A.A.A.A.A.A.A.X X O $ i t t y i # . X . X A.A.A.A.A.A.A.A.A.A.A.A.A.A.A.A.A.A.A.A.A.A.A.",
"A.A.A.A.A.A.A.A.A.A.A.A.A.A.A.A.A.A.A.A.A.A.A.A.A.A.X X X t t t t t t t # . . X X A.A.A.A.A.A.A.A.A.A.A.A.A.A.A.A.A.A.A.A.A.A.A.",
"A.A.A.A.A.A.A.A.A.A.A.A.A.A.A.A.A.A.A.A.A.A.A.A.A.X X . A.t t t t t t A.O . . X X X A.A.A.A.A.A.A.A.A.A.A.A.A.A.A.A.A.A.A.A.A.A.",
"A.A.A.A.A.A.A.A.A.A.A.A.A.A.A.A.A.A.A.A.A.A.A.A.A.X X A.A.t t i t t t A.A.. X . . X X A.A.A.A.A.A.A.A.A.A.A.A.A.A.A.A.A.A.A.A.A.",
"A.A.A.A.A.A.A.A.A.A.A.A.A.A.A.A.A.A.A.A.A.A.A.A.A.A.A.t t t t y t t A.A.A.X X X X X . A.A.A.A.A.A.A.A.A.A.A.A.A.A.A.A.A.A.A.A.A.",
"A.A.A.A.A.A.A.A.A.A.A.A.A.A.A.A.A.A.A.A.A.A.A.A.A.A.A.t t t t t A.A.A.A.A.A.X X . X X A.A.A.A.A.A.A.A.A.A.A.A.A.A.A.A.A.A.A.A.A.",
"A.A.A.A.A.A.A.A.A.A.A.A.A.A.A.A.A.A.A.A.A.A.A.A.A.A.A.t t t t t A.A.A.A.A.A.X X X X X A.A.A.A.A.A.A.A.A.A.A.A.A.A.A.A.A.A.A.A.A.",
"A.A.A.A.A.A.A.A.A.A.A.A.A.A.A.A.A.A.A.A.A.A.A.A.A.A.t t t t A.A.A.A.A.A.A.A.A.A.. X X A.A.A.A.A.A.A.A.A.A.A.A.A.A.A.A.A.A.A.A.A.",
"A.A.A.A.A.A.A.A.A.A.A.A.A.A.A.A.A.A.A.A.A.A.A.A.A.A.t t t A.A.A.A.A.A.A.A.A.A.A.A.X X . A.A.A.A.A.A.A.A.A.A.A.A.A.A.A.A.A.A.A.A.",
"A.A.A.A.A.A.A.A.A.A.A.A.A.A.A.A.A.A.A.A.A.A.A.A.A.A.t i t A.A.A.A.A.A.A.A.A.A.A.A.X X X A.A.A.A.A.A.A.A.A.A.A.A.A.A.A.A.A.A.A.A.",
"A.A.A.A.A.A.A.A.A.A.A.A.A.A.A.A.A.A.A.A.A.A.A.A.t t t A.A.A.A.A.A.A.A.A.A.A.A.A.A.X X X A.A.A.A.A.A.A.A.A.A.A.A.A.A.A.A.A.A.A.A.",
"A.A.A.A.A.A.A.A.A.A.A.A.A.A.A.A.A.A.A.A.A.A.A.A.t y t A.A.A.A.A.A.A.A.A.A.A.A.A.A.A.X X X A.A.A.A.A.A.A.A.A.A.A.A.A.A.A.A.A.A.A.",
"A.A.A.A.A.A.A.A.A.A.A.A.A.A.A.A.A.A.A.A.A.A.A.A.t t t A.A.A.A.A.A.A.A.A.A.A.A.A.A.A.A.X X X A.A.A.A.A.A.A.A.A.A.A.A.A.A.A.A.A.A.",
"A.A.A.A.A.A.A.A.A.A.A.A.A.A.A.A.A.A.A.A.A.A.A.A.t t A.A.A.A.A.A.A.A.A.A.A.A.A.A.A.A.A.A.X X A.A.A.A.A.A.A.A.A.A.A.A.A.A.A.A.A.A.",
"A.A.A.A.A.A.A.A.A.A.A.A.A.A.A.A.A.A.A.A.A.A.A.A.t t A.A.A.A.A.A.A.A.A.A.A.A.A.A.A.A.A.A.X . A.A.A.A.A.A.A.A.A.A.A.A.A.A.A.A.A.A.",
"A.A.A.A.A.A.A.A.A.A.A.A.A.A.A.A.A.A.A.A.A.A.A.A.t i A.A.A.A.A.A.A.A.A.A.A.A.A.A.A.A.A.A.. X A.A.A.A.A.A.A.A.A.A.A.A.A.A.A.A.A.A."
};
