/* XPM */
static char *result[] = {
/* columns rows colors chars-per-pixel */
"64 64 218 2 ",
"   c #250807",
".  c #270807",
"X  c #240909",
"o  c #280808",
"O  c #290808",
"+  c #280908",
"@  c #290908",
"#  c #280809",
"$  c #290809",
"%  c #280909",
"&  c #2A0808",
"*  c #2B0909",
"=  c #2A0A09",
"-  c #2B090A",
";  c #2A0A0A",
":  c #3B0C0D",
">  c #361211",
",  c #3E1716",
"<  c #3E1816",
"1  c #0F1621",
"2  c #101722",
"3  c #141B29",
"4  c #3B1C26",
"5  c #3B1D27",
"6  c #3D1C26",
"7  c #3E1E29",
"8  c #3F202C",
"9  c #3F212C",
"0  c #3F202D",
"q  c #460D0E",
"w  c #4E1010",
"e  c #421B18",
"r  c #421B19",
"t  c #431B19",
"y  c #76181A",
"u  c #7B191B",
"i  c #5E3A1D",
"p  c #653912",
"a  c #653A13",
"s  c #6F3F15",
"d  c #6C3F19",
"f  c #422320",
"g  c #462723",
"h  c #63342F",
"j  c #6A3732",
"k  c #6B3A35",
"l  c #6C3A35",
"z  c #6E3A34",
"x  c #6E3A35",
"c  c #6F3A35",
"v  c #703B35",
"b  c #723D38",
"n  c #743E38",
"m  c #743F38",
"M  c #753F38",
"N  c #743E39",
"B  c #743F39",
"V  c #753F39",
"C  c #6D401A",
"Z  c #77451A",
"A  c #7F4818",
"S  c #7A4D30",
"D  c #764039",
"F  c #704D3C",
"G  c #222940",
"H  c #262B42",
"J  c #282D46",
"K  c #2F3452",
"L  c #303857",
"P  c #31395A",
"I  c #313A5A",
"U  c #353B5B",
"Y  c #323B5C",
"T  c #353B5C",
"R  c #3B3E5C",
"E  c #353E67",
"W  c #383E60",
"Q  c #383E61",
"!  c #383E62",
"~  c #483A41",
"^  c #3C4268",
"/  c #3E456D",
"(  c #70544E",
")  c #414977",
"_  c #444B78",
"`  c #4A527F",
"'  c #776A7B",
"]  c #8E1D1F",
"[  c #911D20",
"{  c #911E20",
"}  c #9B2728",
"|  c #9C2829",
" . c #9D282A",
".. c #AC2326",
"X. c #B3292C",
"o. c #BF282B",
"O. c #C2272B",
"+. c #C4272B",
"@. c #C8272C",
"#. c #C6282C",
"$. c #C7282C",
"%. c #C7292C",
"&. c #C6282D",
"*. c #C8282C",
"=. c #C9282C",
"-. c #C8292C",
";. c #C9292C",
":. c #C8282D",
">. c #C9282D",
",. c #C8292D",
"<. c #C9292D",
"1. c #CA292D",
"2. c #C9292E",
"3. c #C92A2E",
"4. c #CA2A2E",
"5. c #CA2B2E",
"6. c #CB2B2E",
"7. c #CA2A2F",
"8. c #CA2B2F",
"9. c #CB2B2F",
"0. c #CD292D",
"q. c #CD2A2D",
"w. c #CC2A2F",
"e. c #CB2C2F",
"r. c #CB2B30",
"t. c #CE2B30",
"y. c #CF2B30",
"u. c #CB2C30",
"i. c #CC2C30",
"p. c #CC2D30",
"a. c #CC2C31",
"s. c #CC2D31",
"d. c #CD2D31",
"f. c #CF2C30",
"g. c #CD2E32",
"h. c #CE2F33",
"j. c #CE2F34",
"k. c #CF2F34",
"l. c #D12B30",
"z. c #CF3034",
"x. c #CF3134",
"c. c #CF3035",
"v. c #CF3135",
"b. c #D03034",
"n. c #D03035",
"m. c #D03135",
"M. c #D03235",
"N. c #D13235",
"B. c #D03136",
"V. c #D03236",
"C. c #D13236",
"Z. c #D13336",
"A. c #D13237",
"S. c #D23236",
"D. c #D23336",
"F. c #D23337",
"G. c #D33337",
"H. c #D43337",
"J. c #D43438",
"K. c #D43539",
"L. c #D43639",
"P. c #D4353A",
"I. c #D4363A",
"U. c #D5373A",
"Y. c #D5363B",
"T. c #D5373B",
"R. c #D6373B",
"E. c #D5373C",
"W. c #D6373C",
"Q. c #D6383C",
"!. c #D7383C",
"~. c #D6393C",
"^. c #D7393C",
"/. c #D6383D",
"(. c #D7383D",
"). c #D6393D",
"_. c #D7393D",
"`. c #D7393E",
"'. c #D8393D",
"]. c #864D1E",
"[. c #884C19",
"{. c #92531E",
"}. c #AA5D1D",
"|. c #AF611F",
" X c #B0601A",
".X c #A84E26",
"XX c #BE5A2B",
"oX c #AC6021",
"OX c #AD6121",
"+X c #B16321",
"@X c #B06B33",
"#X c #BE7639",
"$X c #C37B3D",
"%X c #C57C3F",
"&X c #E87136",
"*X c #B08C7D",
"=X c #CE874A",
"-X c #CF8D53",
";X c #D6945D",
":X c #D6955D",
">X c #DD985C",
",X c #E4A066",
"<X c #E4A166",
"1X c #E5A167",
"2X c #4A5288",
"3X c #555D93",
"4X c #596196",
"5X c #7C80A9",
"6X c #7B82AE",
"7X c #8289B6",
"8X c #969BC2",
"9X c #AFAEC7",
"0X c #A0A5C8",
"qX c #AAAECE",
"wX c #ADB1D0",
"eX c #AEB1D2",
"rX c #AFB5D7",
"tX c None",
/* pixels */
"tXtXtXtXtXtXtXtXtXtXtXtXtXtXtXtXtXtXtXtXtXtXtXtXtXtXtXtXtXtXtXtXtXtXtXtXtXtXtXtXtXtXtXtXtXtXtXtXtXtXtXtXtXtXtXtXtXtXtXtXtXtXtXtX",
"tXtXtXtXtXtXtXtXtXtXtXtXtXtXtXtXtXtXtXtXtXtXtXtXtXtXtXtXtXtXtXtXtXtXtXtXtXtXtXtXtXtXtXtXtXtXtXtXtXtXtXtXtXtXtXtXtXtXtXtXtXtXtXtX",
"tXtXtXtXtXtXtXtXtXtXtXtXtXtXtXtXtXtXtXtXtXtXtXtXtXtXtXtXtXtXtXtXtXtXtXtXtXtXtXtXtXtXtXtXtXtXtXtXtXtXtXtXtXtXtXtXtXtXtXtXtXtXtXtX",
"tXtXtXtXtXtXtXtXtXtXtXtXtXtXtXtXtXtXtXtXtXtXtXtXtXtXtXtXtXtXtXtXtXtXtXtXtXtXtXtXtXtXtXtXtXtXtXtXtXtXtXtXtXtXtXtXtXtXtXtXtXtXtXtX",
"tXtXtXtXtXtXtXtXtXtXtXtXtXtXtXtXtXtXtXtXtXtXtXtXtXtXtXtXtXtXtXtXtXtXtXtXtXtXtXtXtXtXtXtXtXtXtXtXtXtXtXtXtXtXtXtXtXtXtXtXtXtXtXtX",
"tXtXtXtXtXtXtXtXtXtXtXtXtXtXtXtXtXtXtXtXtXtXtXtXtXtXtXtXtXtXtXtXtXtXtXtXtXtXtXtXtXtXtXtXtXtXtXtXtXtXtXtXtXtXtXtXtXtXtXtXtXtXtXtX",
"tXtXtXtXtXtXtXtXtXtXtXtXtXtXtXtXtXtXtXtXtXtXtXtXtXtXtXtXtXtXtXtXtXtXtXtXtXtXtXtXtXtXtXtXtXtXtXtXtXtXtXtXtXtXtXtXtXtXtXtXtXtXtXtX",
"tXtXtXtXtXtXtXtXtXtXtXtXtXtXtXtXtXtXtXtXtXtXtXtXtXtXtXtXtXtXtXtXtXtXtXtXtXtXtXtXtXtXtXtXtXtXtXtXtXtXtXtXtXtXtXtXtXtXtXtXtXtXtXtX",
"tXtXtXtXtXtXtXtXtXtXtXtXtXtXtXtXtXtXtXtXtXtXtXtXtXtXtXtXtXtXtXtXtXtXtXtXtXtXtXtXtXtXtXtXtXtXtXtXtXtXtXtXtXtXtXtXtXtXtXtXtXtXtXtX",
"tXtXtXtXtXtXtXtXtXtXtXtXtXtXtXtXtXtXtXtXtXtXtXtXtXtXtXtXtXtXtXtXtXtXtXtXtXtXtXtXtXtXtXtXtXtXtXtXtXtXtXtXtXtXtXtXtXtXtXtXtXtXtXtX",
"tXtXtXtXtXtXtXtXtXtXtXtXtXtXtXtXtXtXtXtXtXtXtXtXtXtX,XtXtXtXtXtXtXtXtX<X<XtXtXtXtXtXtXtXtXtXtXtXtXtXtXtXtXtXtXtXtXtXtXtXtXtXtXtX",
"tXtXtXtXtXtXtXtXtXtXtXtXtXtXtXtXtXtXtXtXtXtXtXtXtX>X%XtXtXtXtXtXtXtXtX$X=X1XtXtXtXtXtXtXtXtXtXtXtXtXtXtXtXtXtXtXtXtXtXtXtXtXtXtX",
"tXtXtXtXtXtXtXtXtXtXtXtXtXtXtXtXtXtXtXtXtXtXtXtX;X-XOXtXtXtXtXtXtXtXtX}.#X:XtXtXtXtXtXtXtXtXtXtXtXtXtXtXtXtXtXtXtXtXtXtXtXtXtXtX",
"tXtXtXtXtXtXtXtXtXtXtXtXtXtXtXtXtXtXtXtXtXtXtXtXC Z oX|.@X9XeXwXrX*X X+X{.d tXtXtXtXtXtXtXtXtXtXtXtXtXtXtXtXtXtXtXtXtXtXtXtXtXtX",
"tXtXtXtXtXtXtXtXtXtXtXtXtXtXtXtXtXtXtXtXtXtXtXtXtXs [.S ( 5X8XqX7X' F ].A tXtXtXtXtXtXtXtXtXtXtXtXtXtXtXtXtXtXtXtXtXtXtXtXtXtXtX",
"tXtXtXtXtXtXtXtXtXtXtXtXtXtXtXtXtXtXtXtXtXtXtXtXtXtXp ~ E 2X6X0X3X) U i a tXtXtXtXtXtXtXtXtXtXtXtXtXtXtXtXtXtXtXtXtXtXtXtXtXtXtX",
"tXtXtXtXtXtXtXtXtXtXtXtXtXtXtXtXtXtXtXtXtXtXtXtXtXtXtXR Q Q ` 4X^ ! W tXtXtXtXtXtXtXtXtXtXtXtXtXtXtXtXtXtXtXtXtXtXtXtXtXtXtXtXtX",
"tXtXtXtXtXtXtXtXtXtXtXtXtXtXtXtXtXtXtXtXtXtXtXtXtXtXtXH J T / _ ! K H tXtXtXtXtXtXtXtXtXtXtXtXtXtXtXtXtXtXtXtXtXtXtXtXtXtXtXtXtX",
"tXtXtXtXtXtXtXtXtXtXtXtXtXtXtXtXtXtXtXtXtXtXtXtXtXtXtX2 3 L I P Y G 1 tXtXtXtXtXtXtXtXtXtXtXtXtXtXtXtXtXtXtXtXtXtXtXtXtXtXtXtXtX",
"tXtXtXtXtXtXtXtXtXtXtXtXtXtXtXtXtXtXtXtXtXtXtXtXtXtXtX4 5 8 9 8 0 7 6 tXtXtXtXtXtXtXtXtXtXtXtXtXtXtXtXtXtXtXtXtXtXtXtXtXtXtXtXtX",
"tXtXtXtXtXtXtXtXtXtXtXtXtXtXtXtXtXtXtXtXtXtXtXtXtXtXtX&.&.#.#.#.#.#.%.-.<.tXtXtXtXtXtXtXtXtXtXtXtXtXtXtXtXtXtXtXtXtXtXtXtXtXtXtX",
"tXtXtXtXtXtXtXtXtXtXtXtXtXtXtXtXtXtXtXtXtXtXtXtXtXtX>.*.2.F.g.*.*.g.F.4.*.,.tXtXtXtXtXtXtXtXtXtXtXtXtXtXtXtXtXtXtXtXtXtXtXtXtXtX",
"tXtXtXtXtXtXtXtXtXtXtXtXtXtXtXtXtXtXtXtXtXtXtXtXtXtX:.4.s.I.v.e.e.v.I.d.4.=.tXtXtXtXtXtXtXtXtXtXtXtXtXtXtXtXtXtXtXtXtXtXtXtXtXtX",
"tXtXtXtXtXtXtXtXtXtXtXtXtXtXtXtXtXtXtXtXtXtXtXtX;.>.*.V.T.<.m.^._.m.1.T.C.@.=.;.tXtXtXtXtXtXtXtXtXtXtXtXtXtXtXtXtXtXtXtXtXtXtXtX",
"tXtXtXtXtXtXtXtXtXtXtXtXtXtXtXtXtXtXtXtXtXtXtX>.=.3.Z.x.h.C.I.^.^.I.C.h.c.A.4.;.-.tXtXtXtXtXtXtXtXtXtXtXtXtXtXtXtXtXtXtXtXtXtXtX",
"tXtXtXtXtXtXtXtXtXtXtXtXtXtXtXtXtXtXtXtXtXtXtX>.4.a.U.k.9.Q._./.~._.!.e.z.Y.a.4.,.tXtXtXtXtXtXtXtXtXtXtXtXtXtXtXtXtXtXtXtXtXtXtX",
"tXtXtXtXtXtXtXtXtXtXtXtXtXtXtXtXtXtXtXtXtX=.,.$.C.Y.<.M.).!.).Q././.(.).M.<.Y.C.$.,.>.tXtXtXtXtXtXtXtXtXtXtXtXtXtXtXtXtXtXtXtXtX",
"tXtXtXtXtXtXtXtXtXtXtXtXtXtXtXtXtXtXtXtXtX>.4.B.z.j.m.K._.).(.(.(./._._.I.N.z.z.V.4.;.tXtXtXtXtXtXtXtXtXtXtXtXtXtXtXtXtXtXtXtXtX",
"tXtXtXtXtXtXtXtXtXtXtXtXtXtXtXtXtXtXtXtXtX7.s.E.h.u.)._.!.^.!./.^.^.(.^.)./.i.h.T.p.4.tXtXtXtXtXtXtXtXtXtXtXtXtXtXtXtXtXtXtXtXtX",
"tXtXtXtXtXtXtXtXtXtXtXtXtXtXtXtXtXtXtXtXtXQ.L.<.C.~.~._.!.^.!.!.^.^._.!.).).Q.C.2.I.!.tXtXtXtXtXtXtXtXtXtXtXtXtXtXtXtXtXtXtXtXtX",
"tXtXtXtXtXtXtXtXtXtXtXtXtXtXtXtXtXtXtXtXtXz.z.m.P.).Q.)._.)._.^._._._.)._.^.(.L.n.b.z.tXtXtXtXtXtXtXtXtXtXtXtXtXtXtXtXtXtXtXtXtX",
"tXtXtXtXtXtXtXtXtXtXtXtXtXtXtXtXtXtXtXtXtX@.8._._._.^._.)._.)._._.(.(.)._.(.^.^._.9.*.tXtXtXtXtXtXtXtXtXtXtXtXtXtXtXtXtXtXtXtXtX",
"tXtXtXtXtXtXtXtXtXtXtXtXtXtXtXtXtXtXtXtXtX=.r.Q.(._.^._.^.^.~._._.(.^.(.^.!._.^.~.9.-.tXtXtXtXtXtXtXtXtXtXtXtXtXtXtXtXtXtXtXtXtX",
"tXtXtXtXtXtXtXtXtXtXtXtXtXtXtXtXtXtXtXtXtX*.e.!.(.(.!.)._._.!.!.(.(.^._._._._._.Q.9.,.tXtXtXtXtXtXtXtXtXtXtXtXtXtXtXtXtXtXtXtXtX",
"tXtXtXtXtXtXtXtXtXtXtXtXtXtXtXtXtXtXtXtXtX-.e.R.!.(.(./.(.~.(.(.(._.(.)._.)./.!.W.e.,.tXtXtXtXtXtXtXtXtXtXtXtXtXtXtXtXtXtXtXtXtX",
"tXtXtXtXtXtXtXtXtXtXtXtXtXtXtXtXtXtXtXtXtXtXtX4.F._.).(._.(.(.(.^._.^.^.).)._.F.4.tXtXtXtXtXtXtXtXtXtXtXtXtXtXtXtXtXtXtXtXtXtXtX",
"tXtXtXtXtXtXtXtXtXtXtXtXtXtXtXtXtXtXtXtXtXtXtX*.C._._.!.^._._._._._.^.).^._._.D.*.tXtXtXtXtXtXtXtXtXtXtXtXtXtXtXtXtXtXtXtXtXtXtX",
"tXtXtXtXtXtXtXtXtXtXtXtXtXtXtXtXtXtXtXtXtXtXtX*.C.).(._.).~.!.^._.^./.(.^.(.).S.1.tXtXtXtXtXtXtXtXtXtXtXtXtXtXtXtXtXtXtXtXtXtXtX",
"tXtXtXtXtXtXtXtXtXtXtXtXtXtXtXtXtXtXtXtXtXtXtXtX6.p.~._.^._.~._._.).).^._./.d.o...tXtXtXtXtXtXtXtXtXtXtXtXtXtXtXtXtXtXtXtXtXtXtX",
"tXtXtXtXtXtXtXtXtXtXtXtXtXtXtXtXtXtXtXtXtXtXtXtXtX5.C.I.~.(._._._._.~._.I.C.l.] & tXtXtXtXtXtXtXtXtXtXtXtXtXtXtXtXtXtXtXtXtXtXtX",
"tXtXtXtXtXtXtXtXtXtXtXtXtXtXtXtXtXtXtXtXtXtXtXtXtXtX*.m.!.Q.!.!./._.Q.(.m.+.y w o % tXtXtXtXtXtXtXtXtXtXtXtXtXtXtXtXtXtXtXtXtXtX",
"tXtXtXtXtXtXtXtXtXtXtXtXtXtXtXtXtXtXtXtXtXtXtXtXtXtXtXt.f.y.G.'.`.G.t.f.w.O.:   $ # @ tXtXtXtXtXtXtXtXtXtXtXtXtXtXtXtXtXtXtXtXtX",
"tXtXtXtXtXtXtXtXtXtXtXtXtXtXtXtXtXtXtXtXtXtXtXtXtXtXtX| } { X.H.J.X.[ }  .tXtXtXtX# + O tXtXtXtXtXtXtXtXtXtXtXtXtXtXtXtXtXtXtXtX",
"tXtXtXtXtXtXtXtXtXtXtXtXtXtXtXtXtXtXtXtXtXtXtXtXtXtXtXg f X u 0.q.u X f g tXtXtXtXtX+ = .XtXtXtXtXtXtXtXtXtXtXtXtXtXtXtXtXtXtXtX",
"tXtXtXtXtXtXtXtXtXtXtXtXtXtXtXtXtXtXtXtXtXtXtXtXtXtXtXl h ; q tXtXq ; h k tXtXtXtXtXtX= XX&XtXtXtXtXtXtXtXtXtXtXtXtXtXtXtXtXtXtX",
"tXtXtXtXtXtXtXtXtXtXtXtXtXtXtXtXtXtXtXtXtXtXtXtXtXtXtXD v t tXtXtXtXe v D tXtXtXtXtXtXtXtXtXtXtXtXtXtXtXtXtXtXtXtXtXtXtXtXtXtXtX",
"tXtXtXtXtXtXtXtXtXtXtXtXtXtXtXtXtXtXtXtXtXtXtXtXtXtXtXM V V tXtXtXtXB V M tXtXtXtXtXtXtXtXtXtXtXtXtXtXtXtXtXtXtXtXtXtXtXtXtXtXtX",
"tXtXtXtXtXtXtXtXtXtXtXtXtXtXtXtXtXtXtXtXtXtXtXtXtXtXtXM z < tXtXtXtX< x M tXtXtXtXtXtXtXtXtXtXtXtXtXtXtXtXtXtXtXtXtXtXtXtXtXtXtX",
"tXtXtXtXtXtXtXtXtXtXtXtXtXtXtXtXtXtXtXtXtXtXtXtXtXtXtXV z , tXtXtXtX, x V tXtXtXtXtXtXtXtXtXtXtXtXtXtXtXtXtXtXtXtXtXtXtXtXtXtXtX",
"tXtXtXtXtXtXtXtXtXtXtXtXtXtXtXtXtXtXtXtXtXtXtXtXtXtXtXV B B tXtXtXtXB m B tXtXtXtXtXtXtXtXtXtXtXtXtXtXtXtXtXtXtXtXtXtXtXtXtXtXtX",
"tXtXtXtXtXtXtXtXtXtXtXtXtXtXtXtXtXtXtXtXtXtXtXtXtXtXtXV c r tXtXtXtXr x V tXtXtXtXtXtXtXtXtXtXtXtXtXtXtXtXtXtXtXtXtXtXtXtXtXtXtX",
"tXtXtXtXtXtXtXtXtXtXtXtXtXtXtXtXtXtXtXtXtXtXtXtXtXtXtXtXj - tXtXtXtX* j tXtXtXtXtXtXtXtXtXtXtXtXtXtXtXtXtXtXtXtXtXtXtXtXtXtXtXtX",
"tXtXtXtXtXtXtXtXtXtXtXtXtXtXtXtXtXtXtXtXtXtXtXtXtXtXtXtXtXO tXtXtXtXO tXtXtXtXtXtXtXtXtXtXtXtXtXtXtXtXtXtXtXtXtXtXtXtXtXtXtXtXtX",
"tXtXtXtXtXtXtXtXtXtXtXtXtXtXtXtXtXtXtXtXtXtXtXtXtXtXtXtXtX. tXtXtXtXo tXtXtXtXtXtXtXtXtXtXtXtXtXtXtXtXtXtXtXtXtXtXtXtXtXtXtXtXtX",
"tXtXtXtXtXtXtXtXtXtXtXtXtXtXtXtXtXtXtXtXtXtXtXtXtXtXtXtXtX> tXtXtXtX> tXtXtXtXtXtXtXtXtXtXtXtXtXtXtXtXtXtXtXtXtXtXtXtXtXtXtXtXtX",
"tXtXtXtXtXtXtXtXtXtXtXtXtXtXtXtXtXtXtXtXtXtXtXtXtXtXtXtXtXb tXtXtXtXb tXtXtXtXtXtXtXtXtXtXtXtXtXtXtXtXtXtXtXtXtXtXtXtXtXtXtXtXtX",
"tXtXtXtXtXtXtXtXtXtXtXtXtXtXtXtXtXtXtXtXtXtXtXtXtXtXtXtXtXB tXtXtXtXB tXtXtXtXtXtXtXtXtXtXtXtXtXtXtXtXtXtXtXtXtXtXtXtXtXtXtXtXtX",
"tXtXtXtXtXtXtXtXtXtXtXtXtXtXtXtXtXtXtXtXtXtXtXtXtXtXtXtXtXN tXtXtXtXB tXtXtXtXtXtXtXtXtXtXtXtXtXtXtXtXtXtXtXtXtXtXtXtXtXtXtXtXtX",
"tXtXtXtXtXtXtXtXtXtXtXtXtXtXtXtXtXtXtXtXtXtXtXtXtXtXtXtXtXN tXtXtXtXB tXtXtXtXtXtXtXtXtXtXtXtXtXtXtXtXtXtXtXtXtXtXtXtXtXtXtXtXtX",
"tXtXtXtXtXtXtXtXtXtXtXtXtXtXtXtXtXtXtXtXtXtXtXtXtXtXtXtXtXm tXtXtXtXn tXtXtXtXtXtXtXtXtXtXtXtXtXtXtXtXtXtXtXtXtXtXtXtXtXtXtXtXtX",
"tXtXtXtXtXtXtXtXtXtXtXtXtXtXtXtXtXtXtXtXtXtXtXtXtXtXtXtXtXB tXtXtXtXn tXtXtXtXtXtXtXtXtXtXtXtXtXtXtXtXtXtXtXtXtXtXtXtXtXtXtXtXtX",
"tXtXtXtXtXtXtXtXtXtXtXtXtXtXtXtXtXtXtXtXtXtXtXtXtXtXtXtXtXB tXtXtXtXm tXtXtXtXtXtXtXtXtXtXtXtXtXtXtXtXtXtXtXtXtXtXtXtXtXtXtXtXtX",
"tXtXtXtXtXtXtXtXtXtXtXtXtXtXtXtXtXtXtXtXtXtXtXtXtXtXtXtXtXtXtXtXtXtXtXtXtXtXtXtXtXtXtXtXtXtXtXtXtXtXtXtXtXtXtXtXtXtXtXtXtXtXtXtX",
"tXtXtXtXtXtXtXtXtXtXtXtXtXtXtXtXtXtXtXtXtXtXtXtXtXtXtXtXtXtXtXtXtXtXtXtXtXtXtXtXtXtXtXtXtXtXtXtXtXtXtXtXtXtXtXtXtXtXtXtXtXtXtXtX"
};
