/* XPM */
static char *result[] = {
/* columns rows colors chars-per-pixel */
"64 64 199 2 ",
"   c #1F0005",
".  c #080A12",
"X  c #0D101A",
"o  c #0B0903",
"O  c #250407",
"+  c #250509",
"@  c #280708",
"#  c #26090B",
"$  c #2B0A0A",
"%  c #260B07",
"&  c #330B0C",
"*  c #3D0D0E",
"=  c #2E1A09",
"-  c #34130B",
";  c #3B180B",
":  c #3F1F07",
">  c #3D0F11",
",  c #221917",
"<  c #351413",
"1  c #3B1313",
"2  c #3A1916",
"3  c #3C1C19",
"4  c #39210F",
"5  c #121623",
"6  c #151825",
"7  c #1A1B28",
"8  c #221E24",
"9  c #3C3238",
"0  c #420D0F",
"q  c #450E10",
"w  c #490F11",
"e  c #451213",
"r  c #4B1516",
"t  c #421A17",
"y  c #431B1A",
"u  c #4C1D1C",
"i  c #581616",
"p  c #6E171A",
"a  c #641C1C",
"s  c #661518",
"d  c #76181A",
"f  c #7C1A1C",
"g  c #701719",
"h  c #442308",
"j  c #472607",
"k  c #4E2311",
"l  c #42221D",
"z  c #4B291C",
"x  c #562B11",
"c  c #53331E",
"v  c #5A3A18",
"b  c #533206",
"n  c #673813",
"m  c #713F15",
"M  c #6C261E",
"N  c #4E1F24",
"B  c #452522",
"V  c #4B2B24",
"C  c #4C2423",
"Z  c #542724",
"A  c #542926",
"S  c #572B28",
"D  c #4F3220",
"F  c #543426",
"G  c #5B3A28",
"H  c #7A2A26",
"J  c #7D3B21",
"K  c #6B3933",
"L  c #623530",
"P  c #713C37",
"I  c #743F39",
"U  c #7B3C37",
"Y  c #642F26",
"T  c #5D401B",
"R  c #6F4E04",
"E  c #68421D",
"W  c #7B4417",
"Q  c #79451B",
"!  c #7A5A10",
"~  c #5F4029",
"^  c #5A423B",
"/  c #624329",
"(  c #735422",
")  c #795A2E",
"_  c #674031",
"`  c #75413A",
"'  c #784538",
"]  c #7B4522",
"[  c #282C44",
"{  c #29304C",
"}  c #353B5C",
"|  c #2F3654",
" . c #383F62",
".. c #3D446A",
"X. c #45435A",
"o. c #7A5C5C",
"O. c #454E7C",
"+. c #831B1E",
"@. c #88351E",
"#. c #851B20",
"$. c #921E23",
"%. c #9B1F24",
"&. c #872426",
"*. c #9D2025",
"=. c #932729",
"-. c #9A3E20",
";. c #943131",
":. c #A62225",
">. c #AB2326",
",. c #A92B27",
"<. c #AF232A",
"1. c #AA2B2A",
"2. c #B1242A",
"3. c #BA262B",
"4. c #B72D2D",
"5. c #B02427",
"6. c #AD302F",
"7. c #B02D31",
"8. c #BC3737",
"9. c #B4392C",
"0. c #C0272B",
"q. c #C4282D",
"w. c #CA292D",
"e. c #CC2D31",
"r. c #CD3236",
"t. c #C63337",
"y. c #D13236",
"u. c #D5363A",
"i. c #D7393D",
"p. c #DB3A3E",
"a. c #DA363A",
"s. c #8C4D1B",
"d. c #854E1B",
"f. c #8B521A",
"g. c #975A1F",
"h. c #8A6A04",
"j. c #93730F",
"k. c #9D7C0E",
"l. c #836314",
"z. c #8A6B11",
"x. c #907110",
"c. c #9B7510",
"v. c #9B5D28",
"b. c #9E5F30",
"n. c #844F2F",
"m. c #A04623",
"M. c #A55E23",
"N. c #A15A2A",
"B. c #BD4530",
"V. c #A64C3C",
"C. c #9A7D2C",
"Z. c #977825",
"A. c #9D7A37",
"S. c #AB6121",
"D. c #AC692F",
"F. c #B36829",
"G. c #BE6934",
"H. c #AD713D",
"J. c #C75D2C",
"K. c #CC6330",
"L. c #C97734",
"P. c #D56531",
"I. c #E16A33",
"U. c #976448",
"Y. c #A0674A",
"T. c #AD7443",
"R. c #C77F42",
"E. c #CC7052",
"W. c #BC9C06",
"Q. c #9F8237",
"!. c #A38637",
"~. c #AA8D38",
"^. c #AE9038",
"/. c #B69539",
"(. c #C4A404",
"). c #CDAD01",
"_. c #C7A804",
"`. c #DE963E",
"'. c #C89B34",
"]. c #DE995E",
"[. c #C68854",
"{. c #E28650",
"}. c #D4B843",
"|. c #DF9B61",
" X c #D69A6A",
".X c #E5A46B",
"XX c #E8A973",
"oX c #DCC140",
"OX c #E6CA47",
"+X c #EBCE47",
"@X c #EFD448",
"#X c #F2D749",
"$X c #FADE4B",
"%X c #FDE34C",
"&X c #515786",
"*X c #5A6499",
"=X c #7F86B0",
"-X c #A4A9CA",
";X c None",
/* pixels */
";X;X;X;X;X;X;X;X;X;X;X;X;X;X;X;X;X;X;X;X;X;X;X;X;X;X;X;X;X;X;X;X;X;X;X;X;X;X;X;X;X;X;X;X;X;X;X;X;X;X;X;X;X;X;X;X;X;X;X;X;X;X;X;X",
";X;X;X;X;X;X;X;X;X;X;X;X;X;X;X;X;X;X;X;X;X;X;X;X;X;X;X;X;X;X;X;X;X;X;X;X;X;X;X;X;X;X;X;X;X;X;X;X;X;X;X;X;X;X;X;X;X;X;X;X;X;X;X;X",
";X;X;X;X;X;X;X;X;X;X;X;X;X;X;X;X;X;X;X;X;X;X;X;X;X;X|.;X;X;X;X;X;X;X;X|.|.;X;X;X;X;X;X;X;X;X;X;X;X;X;X;X;X;X;X;X;X;X;X;X;X;X;X;X",
";X;X;X;X;X;X;X;X;X;X;X;X;X;X;X;X;X;X;X;X;X;X;X;X.X|.F.;X;X;X;X;X;X;X;XF.R..X;X;X;X;X;X;X;X;X;X;X;X;X;X;X;X;X;X;X;X;X;X;X;X;X;X;X",
";X;X;X;X;X;X;X;X;X;X;X;X;X;X;X;X;X;X;X;X;X;X;X;XT.H.S.S.;X;X;X;X;X;X;XM.D.T.;X;X;X;X;X;X;X;X;X;X;X;X;X;X;X;X;X;X;X;X;X;X;X;X;X;X",
";X;X;X;X;X;X;X;X;X;X;X;X;X;X;X;X;X;X;X;X;X;X;X;Xn m M.S.b.&X=X-X*Xo.S.S.s.n ;X;X;X;X;X;X;X;X;X;X;X;X;X;X;X;X;X;X;X;X;X;X;X;X;X;X",
";X;X;X;X;X;X;X;X;X;X;X;X;X;X;X;X;X;X;X;X;X;X;X;X;X;Xm ^ X...&X*XX...X.m m ;X;X;X;X;X;X;X;X;X;X;X;X;X;X;X;X;X;X;X;X;X;X;X;X;X;X;X",
";X;X;X;X;X;X;X;X;X;X;X;X;X;X;X;X;X;X;X;X;X;X;X;X;X;Xn 9 { } O.O. .| { v ;X;X;X;X;X;X;X;X;X;X;X;X;X;X;X;X;X;X;X;X;X;X;X;X;X;X;X;X",
";X;X;X;X;X;X;X;X;X;X;X;X;X;X;X;X;X;X;X;X;X;X;X;X;X;X;X5 6 }  .}  .[ 5 ;X;X;X;X;X;X;X;X;X;X;X;X;X;X;X;X;X;X;X;X;X;X;X;X;X;X;X;X;X",
";X;X;X;X;X;X;X;X;X;X;X;X;X;X;X;X;X;X;X;X;X;X;X;X;X;X;X6 5 . 5 7 . X 5 ;X;X;X;X;X;X;X;X;X;X;X;X;X;X;X;X;X;X;X;X;X;X;X;X;X;X;X;X;X",
";X;X;X;X;X;X;X;X;X;X;X;X;X;X;X;X;X;X;X;X;X;X;X;X;X;X;X6 6 = , 6 = , 6 ;X;X;X;X;X;X;X;X;X;X;X;X;X;X;X;X;X;X;X;X;X;X;X;X;X;X;X;X;X",
";X;X;X;X;X;X;X;X;X;X;X;X;X;X;X;X;X;X;X;X;X;X;X;X;X;X;X6 8 s.c 7 d.F 6 ;X;X;X;X;X;X;X;X;X;X;X;X;X;X;X;X;X;X;X;X;X;X;X;X;X;X;X;X;X",
";X;X;X;X;X;X;X;X;X;X;X;X;X;X;X;X;X;X;X;X;X;X;X;X;X;Xp.a < L.v.E L.] # 8.;X;X;X;X;X;X;X;X;X;X;X;X;X;X;X;X;X;X;X;X;X;X;X;X;X;X;X;X",
";X;X;X;X;X;X;X;X;X;X;X;X;X;X;X;X;X;X;X;X;X;X;X;X;X;Xu.=.a N.N.M.N.m s r.i.;X;X;X;X;X;X;X;X;X;X;X;X;X;X;X;X;X;X;X;X;X;X;X;X;X;X;X",
";X;X;X;X;X;X;X;X;X;X;X;X;X;X;X;X;X;X;X;X;X;X;X;Xi.u.w.y.t.$ d.L.o a p.w.r.i.;X;X;X;X;X;X;X;X;X;X;X;X;X;X;X;X;X;X;X;X;X;X;X;X;X;X",
";X;X;X;X;X;X;X;X;X;X;X;X;X;X;X;X;X;X;X;X;X;X;Xp.e.e.3.q.e.7.M 4 =.4.y.3.q.e.i.;X;X;X;X;X;X;X;X;X;X;X;X;X;X;X;X;X;X;X;X;X;X;X;X;X",
";X;X;X;X;X;X;X;X;X;X;X;X;X;X;X;X;X;X;X;X;X;X;Xu.e.3.2.3.q.a.#.> r.e.q.5.3.q.y.i.;X;X;X;X;X;X;X;X;X;X;X;X;X;X;X;X;X;X;X;X;X;X;X;X",
";X;X;X;X;X;X;X;X;X;X;X;X;X;X;X;X;X;X;X;X;Xi.u.w.3.5.2.2.2.w.y.u.e.3.<.<.<.2.q.e.i.;X;X;X;X;X;X;X;X;X;X;X;X;X;X;X;X;X;X;X;X;X;X;X",
";X;X;X;X;X;X;X;X;X;X;X;X;X;X;X;X;X;X;X;Xi.r.e.3.2.2.q.q.q.w.e.e.w.q.q.q.3.<.3.3.e.i.;X;X;X;X;X;X;X;X;X;X;X;X;X;X;X;X;X;X;X;X;X;X",
";X;X;X;X;X;X;X;X;X;X;X;X;X;X;X;X;X;X;X;Xu.e.3.<.5.5.>.>.<.q.3.:.q.3.:.:.<.3.5.3.q.y.i.;X;X;X;X;X;X;X;X;X;X;X;X;X;X;X;X;X;X;X;X;X",
";X;X;X;X;X;X;X;X;X;X;X;X;X;X;X;X;X;X;X;Xw.3.2.<.0.5.& @ * q.d & q.+.@ + g w.3.2.2.q.e.;X;X;X;X;X;X;X;X;X;X;X;X;X;X;X;X;X;X;X;X;X",
";X;X;X;X;X;X;X;X;X;X;X;X;X;X;X;X;X;X;X;X3.2.2.q.+.i @ @ * q.d & 3.f O @ * s 5.3.2.3.3.;X;X;X;X;X;X;X;X;X;X;X;X;X;X;X;X;X;X;X;X;X",
";X;X;X;X;X;X;X;X;X;X;X;X;X;X;X;X;X;X;X;X<.3.2.5.i + h ; * q.d < 0.f $ j ; + %.2.3.2.<.;X;X;X;X;X;X;X;X;X;X;X;X;X;X;X;X;X;X;X;X;X",
";X;X;X;X;X;X;X;X;X;X;X;X;X;X;X;X;X;X;X;X<.0.>.& @ h ).l.C q.&.C q.&.V _.h.@ @ s q.2.2.;X;X;X;X;X;X;X;X;X;X;X;X;X;X;X;X;X;X;X;X;X",
";X;X;X;X;X;X;X;X;X;X;X;X;X;X;X;X;X;X;X;X2.3.,.n e - ! x.c.H f.k.H f.W.! z % x @.3.2.2.;X;X;X;X;X;X;X;X;X;X;X;X;X;X;X;X;X;X;X;X;X",
";X;X;X;X;X;X;X;X;X;X;X;X;X;X;X;X;X;X;X;X<.2.,.f.k $ c x.W.T x.W.T x.(.E 4 % d.-.<.2.2.;X;X;X;X;X;X;X;X;X;X;X;X;X;X;X;X;X;X;X;X;X",
";X;X;X;X;X;X;X;X;X;X;X;X;X;X;X;X;X;X;X;X2.<.,.s.k 4 ).l.c ).z.D _.x.z _.h.@ m -.2.<.2.;X;X;X;X;X;X;X;X;X;X;X;X;X;X;X;X;X;X;X;X;X",
";X;X;X;X;X;X;X;X;X;X;X;X;X;X;X;X;X;X;X;X<.2.,.s.k - R Z.^.! C.^.l.C.^.! b $ W -.2.2.<.;X;X;X;X;X;X;X;X;X;X;X;X;X;X;X;X;X;X;X;X;X",
";X;X;X;X;X;X;X;X;X;X;X;X;X;X;X;X;X;X;X;X2.<.,.s.k O O C.OXG ~.OX~ !.+X2 + $ W -.2.<.2.;X;X;X;X;X;X;X;X;X;X;X;X;X;X;X;X;X;X;X;X;X",
";X;X;X;X;X;X;X;X;X;X;X;X;X;X;X;X;X;X;X;X<.2.,.s.k O @ 3 G @XA.F +X!.B $ @ & W -.2.2.<.;X;X;X;X;X;X;X;X;X;X;X;X;X;X;X;X;X;X;X;X;X",
";X;X;X;X;X;X;X;X;X;X;X;X;X;X;X;X;X;X;X;X2.2.,.s.k @ O ( /.%X}.~.%X}.Q.- @ & W -.2.<.2.;X;X;X;X;X;X;X;X;X;X;X;X;X;X;X;X;X;X;X;X;X",
";X;X;X;X;X;X;X;X;X;X;X;X;X;X;X;X;X;X;X;X2.<.1.g.x O O C.%X@X$X%X#X#XOXk & $ d.m.2.2.<.;X;X;X;X;X;X;X;X;X;X;X;X;X;X;X;X;X;X;X;X;X",
";X;X;X;X;X;X;X;X;X;X;X;X;X;X;X;X;X;X;X;X<.<.B.$X(   # 3 F F ^.$X/ F G K.@.$ oX{.<.<.2.;X;X;X;X;X;X;X;X;X;X;X;X;X;X;X;X;X;X;X;X;X",
";X;X;X;X;X;X;X;X;X;X;X;X;X;X;X;X;X;X;X;X2.2.9.'.A.' 3 2 3 B ) !.V l t P.G.n.'.G.2.<.<.;X;X;X;X;X;X;X;X;X;X;X;X;X;X;X;X;X;X;X;X;X",
";X;X;X;X;X;X;X;X;X;X;X;X;X;X;X;X;X;X;X;X2.<.1.s.[. XA < # B B 3 B 2 & J.{.XXZ.-.2.2.2.;X;X;X;X;X;X;X;X;X;X;X;X;X;X;X;X;X;X;X;X;X",
";X;X;X;X;X;X;X;X;X;X;X;X;X;X;X;X;X;X;X;X<.<.8.|.XX XV < @ @ 2 B - % @ C U.XX.XE.<.2.<.;X;X;X;X;X;X;X;X;X;X;X;X;X;X;X;X;X;X;X;X;X",
";X;X;X;X;X;X;X;X;X;X;X;X;X;X;X;X;X;X;X;X<.2.6.U.U.U.B 3 < @ < 2 # $ 2 B _ U.U.V.2.2.<.;X;X;X;X;X;X;X;X;X;X;X;X;X;X;X;X;X;X;X;X;X",
";X;X;X;X;X;X;X;X;X;X;X;X;X;X;X;X;X;X;X;X2.2.%.q y B B B B $ @ @ # 2 B B < + * s 2.2.2.;X;X;X;X;X;X;X;X;X;X;X;X;X;X;X;X;X;X;X;X;X",
";X;X;X;X;X;X;X;X;X;X;X;X;X;X;X;X;X;X;X;X;X3.%.q B 3 B V B # @ + % 2 C B 2 % > p 2.;X;X;X;X;X;X;X;X;X;X;X;X;X;X;X;X;X;X;X;X;X;X;X",
";X;X;X;X;X;X;X;X;X;X;X;X;X;X;X;X;X;X;X;X;X2.%.q y N V 3 2 $ $ < @ < 3 B 2 @ * p 2.;X;X;X;X;X;X;X;X;X;X;X;X;X;X;X;X;X;X;X;X;X;X;X",
";X;X;X;X;X;X;X;X;X;X;X;X;X;X;X;X;X;X;X;X;X2.*.w q 1 B < @ @ 2 B # # $ B 2 @ * p 2.;X;X;X;X;X;X;X;X;X;X;X;X;X;X;X;X;X;X;X;X;X;X;X",
";X;X;X;X;X;X;X;X;X;X;X;X;X;X;X;X;X;X;X;X;X2.*.w q e B < @ @ 2 B $ @ @ B 3 @ * p 3.;X;X;X;X;X;X;X;X;X;X;X;X;X;X;X;X;X;X;X;X;X;X;X",
";X;X;X;X;X;X;X;X;X;X;X;X;X;X;X;X;X;X;X;X;X2.*.w q e B 3 < @ 1 y $ $ < B 2 @ > p 2.;X;X;X;X;X;X;X;X;X;X;X;X;X;X;X;X;X;X;X;X;X;X;X",
";X;X;X;X;X;X;X;X;X;X;X;X;X;X;X;X;X;X;X;X;X<.*.w e e B B l % & q # 2 B C 3 @ * p 2.;X;X;X;X;X;X;X;X;X;X;X;X;X;X;X;X;X;X;X;X;X;X;X",
";X;X;X;X;X;X;X;X;X;X;X;X;X;X;X;X;X;X;X;X;X2.*.w q r K S l > > q q 3 B K C % * p 2.;X;X;X;X;X;X;X;X;X;X;X;X;X;X;X;X;X;X;X;X;X;X;X",
";X;X;X;X;X;X;X;X;X;X;X;X;X;X;X;X;X;X;X;X;X2.*.w q r P L A q q q 0 u S I A @ * p 2.;X;X;X;X;X;X;X;X;X;X;X;X;X;X;X;X;X;X;X;X;X;X;X",
";X;X;X;X;X;X;X;X;X;X;X;X;X;X;X;X;X;X;X;X;X2.*.w q r P P K e q q 0 Z I I Z @ > p 2.;X;X;X;X;X;X;X;X;X;X;X;X;X;X;X;X;X;X;X;X;X;X;X",
";X;X;X;X;X;X;X;X;X;X;X;X;X;X;X;X;X;X;X;X;X<.*.w q r P A 1 q p $.w e t P Z @ * g 3.;X;X;X;X;X;X;X;X;X;X;X;X;X;X;X;X;X;X;X;X;X;X;X",
";X;X;X;X;X;X;X;X;X;X;X;X;X;X;X;X;X;X;X;X;X2.*.w q r P A 2 i #.<.s r 3 P A @ > p 2.;X;X;X;X;X;X;X;X;X;X;X;X;X;X;X;X;X;X;X;X;X;X;X",
";X;X;X;X;X;X;X;X;X;X;X;X;X;X;X;X;X;X;X;X;X3.%.q q r P P U <.;X;X2.;.I ` Z @ > p 2.;X;X;X;X;X;X;X;X;X;X;X;X;X;X;X;X;X;X;X;X;X;X;X",
";X;X;X;X;X;X;X;X;X;X;X;X;X;X;X;X;X;X;X;X;X;X;X$.$.&.` S t ;X;X;X;Xi y P Z @ f $.;X;X;X;X;X;X;X;X;X;X;X;X;X;X;X;X;X;X;X;X;X;X;X;X",
";X;X;X;X;X;X;X;X;X;X;X;X;X;X;X;X;X;X;X;X;X;X;X2.2.1.U y @ ;X;X;X;X;X% K Y i :.3.;X;X;X;X;X;X;X;X;X;X;X;X;X;X;X;X;X;X;X;X;X;X;X;X",
";X;X;X;X;X;X;X;X;X;X;X;X;X;X;X;X;X;X;X;X;X;X;X2.;X;X;X# % ;X;X;X;X;X$ ;X;XI.4.2.;X;X;X;X;X;X;X;X;X;X;X;X;X;X;X;X;X;X;X;X;X;X;X;X",
";X;X;X;X;X;X;X;X;X;X;X;X;X;X;X;X;X;X;X;X;X;X;X;X;X;X;X# @ ;X;X;X;X;X# ;X;X;X;X;X;X;X;X;X;X;X;X;X;X;X;X;X;X;X;X;X;X;X;X;X;X;X;X;X",
";X;X;X;X;X;X;X;X;X;X;X;X;X;X;X;X;X;X;X;X;X;X;X;X;X;X;X1 1 ;X;X;X;X;X1 ;X;X;X;X;X;X;X;X;X;X;X;X;X;X;X;X;X;X;X;X;X;X;X;X;X;X;X;X;X",
";X;X;X;X;X;X;X;X;X;X;X;X;X;X;X;X;X;X;X;X;X;X;X;X;X;X;XI P ;X;X;X;X;XP ;X;X;X;X;X;X;X;X;X;X;X;X;X;X;X;X;X;X;X;X;X;X;X;X;X;X;X;X;X",
";X;X;X;X;X;X;X;X;X;X;X;X;X;X;X;X;X;X;X;X;X;X;X;X;X;X;XI I ;X;X;X;X;XI ;X;X;X;X;X;X;X;X;X;X;X;X;X;X;X;X;X;X;X;X;X;X;X;X;X;X;X;X;X",
";X;X;X;X;X;X;X;X;X;X;X;X;X;X;X;X;X;X;X;X;X;X;X;X;X;X;XI I ;X;X;X;X;XI ;X;X;X;X;X;X;X;X;X;X;X;X;X;X;X;X;X;X;X;X;X;X;X;X;X;X;X;X;X",
";X;X;X;X;X;X;X;X;X;X;X;X;X;X;X;X;X;X;X;X;X;X;X;X;X;X;X` I ;X;X;X;X;X` ;X;X;X;X;X;X;X;X;X;X;X;X;X;X;X;X;X;X;X;X;X;X;X;X;X;X;X;X;X",
";X;X;X;X;X;X;X;X;X;X;X;X;X;X;X;X;X;X;X;X;X;X;X;X;X;X;XI I ;X;X;X;X;XI ;X;X;X;X;X;X;X;X;X;X;X;X;X;X;X;X;X;X;X;X;X;X;X;X;X;X;X;X;X",
";X;X;X;X;X;X;X;X;X;X;X;X;X;X;X;X;X;X;X;X;X;X;X;X;X;X;XI ` ;X;X;X;X;XI ;X;X;X;X;X;X;X;X;X;X;X;X;X;X;X;X;X;X;X;X;X;X;X;X;X;X;X;X;X",
";X;X;X;X;X;X;X;X;X;X;X;X;X;X;X;X;X;X;X;X;X;X;X;X;X;X;XI I ;X;X;X;X;XI ;X;X;X;X;X;X;X;X;X;X;X;X;X;X;X;X;X;X;X;X;X;X;X;X;X;X;X;X;X",
";X;X;X;X;X;X;X;X;X;X;X;X;X;X;X;X;X;X;X;X;X;X;X;X;X;X;X;X;X;X;X;X;X;X;X;X;X;X;X;X;X;X;X;X;X;X;X;X;X;X;X;X;X;X;X;X;X;X;X;X;X;X;X;X",
";X;X;X;X;X;X;X;X;X;X;X;X;X;X;X;X;X;X;X;X;X;X;X;X;X;X;X;X;X;X;X;X;X;X;X;X;X;X;X;X;X;X;X;X;X;X;X;X;X;X;X;X;X;X;X;X;X;X;X;X;X;X;X;X"
};
