/* XPM */
static char *result[] = {
/* columns rows colors chars-per-pixel */
"64 64 159 2 ",
"   c #270608",
".  c #280709",
"X  c #270808",
"o  c #290809",
"O  c #300C0C",
"+  c #3C0D0F",
"@  c #3F1C0C",
"#  c #331109",
"$  c #341413",
"%  c #3C1A15",
"&  c #3C1C1A",
"*  c #3F211E",
"=  c #121625",
"-  c #121826",
";  c #2D1B27",
":  c #3D1F20",
">  c #411B0D",
",  c #5A1214",
"<  c #77181B",
"1  c #7B181C",
"2  c #422016",
"3  c #4F2B10",
"4  c #42211D",
"5  c #542D11",
"6  c #5D2F12",
"7  c #542C1B",
"8  c #563011",
"9  c #50301F",
"0  c #5B3B1D",
"q  c #5B3711",
"w  c #722C18",
"e  c #6D3D15",
"r  c #683D1C",
"t  c #623B1E",
"y  c #462622",
"u  c #492923",
"i  c #462922",
"p  c #532624",
"a  c #5F2927",
"s  c #5B3C2B",
"d  c #513D3B",
"f  c #7B2D2C",
"g  c #633920",
"h  c #6B450E",
"j  c #63431B",
"k  c #744615",
"l  c #7C5C14",
"z  c #614229",
"x  c #67482A",
"c  c #70512C",
"v  c #74513F",
"b  c #2D334F",
"n  c #2D3453",
"m  c #363D5E",
"M  c #383959",
"N  c #303653",
"B  c #343D61",
"V  c #383E63",
"C  c #473C46",
"Z  c #403F58",
"A  c #394166",
"S  c #3B446F",
"D  c #4E414A",
"F  c #574445",
"G  c #54444A",
"H  c #69524F",
"J  c #454F7D",
"K  c #424A76",
"L  c #4D567A",
"P  c #7D4464",
"I  c #68517D",
"U  c #811A1D",
"Y  c #802727",
"T  c #8B232A",
"R  c #8B2D2D",
"E  c #802E2D",
"W  c #9F2024",
"Q  c #912C20",
"!  c #95252C",
"~  c #89362B",
"^  c #933030",
"/  c #A82226",
"(  c #BF272B",
")  c #BE292C",
"_  c #B22727",
"`  c #B92C37",
"'  c #A03133",
"]  c #BD3638",
"[  c #CE2729",
"{  c #C4292D",
"}  c #C9292D",
"|  c #C32D33",
" . c #CC2D31",
".. c #D12D31",
"X. c #C43436",
"o. c #CD3135",
"O. c #CC363A",
"+. c #C73838",
"@. c #D13236",
"#. c #D43539",
"$. c #D7393D",
"%. c #D9393E",
"&. c #8A4B16",
"*. c #81461A",
"=. c #864A1A",
"-. c #8C4E1A",
";. c #935918",
":. c #997B0D",
">. c #816113",
",. c #8B6A12",
"<. c #AF7F0E",
"1. c #A3750D",
"2. c #B77518",
"3. c #864D2B",
"4. c #8C552D",
"5. c #8F5226",
"6. c #A55F23",
"7. c #9B792D",
"8. c #957834",
"9. c #967934",
"0. c #B16729",
"q. c #B66C2D",
"w. c #BF702D",
"e. c #A36839",
"r. c #B8783B",
"t. c #C2721A",
"y. c #D94B35",
"u. c #D56627",
"i. c #C67736",
"p. c #D17B36",
"a. c #A7384A",
"s. c #967360",
"d. c #B79A05",
"f. c #9F8237",
"g. c #A78937",
"h. c #B3953B",
"j. c #C49F04",
"k. c #CEAE02",
"l. c #C5A302",
"z. c #D3B201",
"x. c #D7A712",
"c. c #D98239",
"v. c #BC9175",
"b. c #C38148",
"n. c #E6AD41",
"m. c #E29F65",
"M. c #E5C946",
"N. c #F1D649",
"B. c #F8DD4A",
"V. c #FDE34C",
"C. c #FFEF4F",
"Z. c #455384",
"A. c #5F5789",
"S. c #5D588B",
"D. c #545D96",
"F. c #605688",
"G. c #9C8581",
"H. c #ACB2D3",
"J. c None",
/* pixels */
"J.J.J.J.J.J.J.J.J.J.J.J.J.J.J.J.J.J.J.J.J.J.J.J.J.J.J.J.J.J.J.J.J.J.J.J.J.J.J.J.J.J.J.J.J.J.J.J.J.J.J.J.J.J.J.J.J.J.J.J.J.J.J.J.",
"J.J.J.J.J.J.J.J.J.J.J.J.J.J.J.J.J.J.J.J.J.J.J.J.J.J.J.J.J.J.J.J.J.J.J.J.J.J.J.J.J.J.J.J.J.J.J.J.J.J.J.J.J.J.J.J.J.J.J.J.J.J.J.J.",
"J.J.J.J.J.J.J.J.J.J.J.J.J.J.J.J.J.J.J.J.J.J.J.J.J.J.J.J.J.J.J.J.J.J.J.J.J.J.J.J.J.J.J.J.J.J.J.J.J.J.J.J.J.J.J.J.J.J.J.J.J.J.J.J.",
"J.J.J.J.J.J.J.J.J.J.J.J.J.J.J.J.J.J.J.J.J.J.J.J.J.J.J.J.J.J.J.J.J.J.J.J.J.J.J.J.J.J.J.J.J.J.J.J.J.J.J.J.J.J.J.J.J.J.J.J.J.J.J.J.",
"J.J.J.J.J.J.J.J.J.J.J.J.J.J.J.J.J.J.J.J.J.J.J.J.J.J.J.J.J.J.J.J.J.J.J.J.J.J.J.J.J.J.J.J.J.J.J.J.J.J.J.J.J.J.J.J.J.J.J.J.J.J.J.J.",
"J.J.J.J.J.J.J.J.J.J.J.J.J.J.J.J.J.J.J.J.J.J.J.J.J.J.J.J.J.J.J.J.J.J.J.J.J.J.J.J.J.J.J.J.J.J.J.J.J.J.J.J.J.J.J.J.J.J.J.J.J.J.J.J.",
"J.J.J.J.J.J.J.J.J.J.J.J.J.J.J.J.J.J.J.J.J.J.J.J.J.J.J.J.J.J.J.J.J.J.J.J.J.J.J.J.J.J.J.J.J.J.J.J.J.J.J.J.J.J.J.J.J.J.J.J.J.J.J.J.",
"J.J.J.J.J.J.J.J.J.J.J.J.J.J.J.J.J.J.J.J.J.J.J.J.J.J.J.J.J.J.J.J.J.J.J.J.J.J.J.J.J.J.J.J.J.J.J.J.J.J.J.J.J.J.J.J.J.J.J.J.J.J.J.J.",
"J.J.J.J.J.J.J.J.J.J.J.J.J.J.J.J.J.J.J.J.J.J.J.J.J.J.J.J.J.J.J.J.J.J.J.J.J.m.J.J.J.J.J.J.J.J.J.J.J.J.J.J.J.J.J.J.J.J.J.J.J.J.J.J.",
"J.J.J.J.J.J.J.J.J.J.J.J.J.J.J.J.J.J.J.J.J.J.J.J.J.J.J.J.J.J.J.J.J.J.J.J.J.m.q.J.J.J.J.J.J.J.J.J.J.J.J.J.J.J.J.J.J.J.J.J.J.J.J.J.",
"J.J.J.J.J.J.J.J.J.J.J.J.J.J.J.J.J.J.J.J.J.J.J.J.J.J.J.J.J.J.J.J.J.J.J.J.v.b.6.e.J.J.J.J.J.J.J.J.J.J.J.J.J.J.J.J.J.J.J.J.J.J.J.J.",
"J.J.J.J.J.J.J.J.J.J.J.J.J.J.J.J.J.J.J.J.J.J.J.J.J.J.J.J.J.J.J.J.J.J.J.H.G.&.&.s.H.J.J.J.J.J.J.J.J.J.J.J.J.J.J.J.J.J.J.J.J.J.J.J.",
"J.J.J.J.J.J.J.J.J.J.J.J.J.J.J.J.J.J.J.J.J.J.J.J.J.J.J.J.J.J.J.J.J.J.J.L H -.-.v L A B J.J.J.J.J.J.J.J.J.J.J.J.J.J.J.J.J.J.J.J.J.",
"J.J.J.J.J.J.J.J.J.J.J.J.J.J.J.J.J.J.J.J.J.J.J.J.J.J.J.J.J.J.J.J.J.J.J.S G j r s D D C J.J.J.J.J.J.J.J.J.J.J.J.J.J.J.J.J.J.J.J.J.",
"J.J.J.J.J.J.J.J.J.J.J.J.J.J.J.J.J.J.J.J.J.J.J.J.J.J.J.J.J.J.J.J.J.J.J.D.V = = i -.&.t = J.J.J.J.J.J.J.J.J.J.J.J.J.J.J.J.J.J.J.J.",
"J.J.J.J.J.J.J.J.J.J.J.J.J.J.J.J.J.J.J.J.J.J.J.J.J.J.J.J.J.J.J.J.J.J.| S.K n n d -.i.4.= J.J.J.J.J.J.J.J.J.J.J.J.J.J.J.J.J.J.J.J.",
"J.J.J.J.J.J.J.J.J.J.J.J.J.J.J.J.J.J.J.J.J.J.J.J.J.J.J.J.J.J.J.J.J.} | A.J m A F -.p.e.= J.J.J.J.J.J.J.J.J.J.J.J.J.J.J.J.J.J.J.J.",
"J.J.J.J.J.J.J.J.J.J.J.J.J.J.J.J.J.J.J.J.J.J.J.J.J.J.J.J.J.J.J.J.} } | A.J m B F -.p.c.J.J.J.J.J.J.J.J.J.J.J.J.J.J.J.J.J.J.J.J.J.",
"J.J.J.J.J.J.J.J.J.J.J.J.J.J.J.J.J.J.J.J.J.J.J.J.J.J.J.J.J.J.J.J.#. .} a.P Z.V M F i.c.J.J.J.J.J.J.J.J.J.J.J.J.J.J.J.J.J.J.J.J.J.",
"J.J.J.J.J.J.J.J.J.J.J.J.J.J.J.J.J.J.J.J.J.J.J.J.J.J.J.J.J.J.J.J.$.@. .[ a.I M n n r.c.J.J.J.J.J.J.J.J.J.J.J.J.J.J.J.J.J.J.J.J.J.",
"J.J.J.J.J.J.J.J.J.J.J.J.J.J.J.J.J.J.J.J.J.J.J.J.J.J.J.J.J.J.} } $.$.$.} } | ; = - J.J.J.J.J.J.J.J.J.J.J.J.J.J.J.J.J.J.J.J.J.J.J.",
"J.J.J.J.J.J.J.J.J.J.J.J.J.J.J.J.J.J.J.J.J.J.J.J.J.J.J.J.J.} o.#. .#.%.#.@.O.! T T +.J.J.J.J.J.J.J.J.J.J.J.J.J.J.J.J.J.J.J.J.J.J.",
"J.J.J.J.J.J.J.J.J.J.J.J.J.J.J.J.J.J.J.J.J.J.J.J.J.J.J.J.J.} @.$.} X.] ] O.$..... .@.$.J.J.J.J.J.J.J.J.J.J.J.J.J.J.J.J.J.J.J.J.J.",
"J.J.J.J.J.J.J.J.J.J.J.J.J.J.J.J.J.J.J.J.J.J.J.J.J.J.J.} } $.$.$.%.^ y y R %.%.%.$. . .J.J.J.J.J.J.J.J.J.J.J.J.J.J.J.J.J.J.J.J.J.",
"J.J.J.J.J.J.J.J.J.J.J.J.J.J.J.J.J.J.J.J.J.J.J.J.J.J.}  .@.$.$.$.@.! i y a f f ' %.#.#.J.J.J.J.J.J.J.J.J.J.J.J.J.J.J.J.J.J.J.J.J.",
"J.J.J.J.J.J.J.J.J.J.J.J.J.J.J.J.J.J.J.J.J.J.J.J.J.J.} #.%.$.$.#.) Y y 4 * * p ~ y.+.+.J.J.J.J.J.J.J.J.J.J.J.J.J.J.J.J.J.J.J.J.J.",
"J.J.J.J.J.J.J.J.J.J.J.J.J.J.J.J.J.J.J.J.J.J.J.J.}  .$.$.$.$.o.{ p u y O o o ` u.z.h 5 J.J.J.J.J.J.J.J.J.J.J.J.J.J.J.J.J.J.J.J.J.",
"J.J.J.J.J.J.J.J.J.J.J.J.J.J.J.J.J.J.J.J.J.J.J.}  .@.%.$.$.$.@.) 7 2 $ o $ 2 t.2.>.q 5 J.J.J.J.J.J.J.J.J.J.J.J.J.J.J.J.J.J.J.J.J.",
"J.J.J.J.J.J.J.J.J.J.J.J.J.J.J.J.J.J.J.J.J.J.J.} #.$.$.$.$.$. ._ 6 @   . 2 s d.:.9 5 5 J.J.J.J.J.J.J.J.J.J.J.J.J.J.J.J.J.J.J.J.J.",
"J.J.J.J.J.J.J.J.J.J.J.J.J.J.J.J.J.J.J.J.J.J.J.} @.$.$.$.$...Q 5 5 @ . : >.k.q l k.h 3 J.J.J.J.J.J.J.J.J.J.J.J.J.J.J.J.J.J.J.J.J.",
"J.J.J.J.J.J.J.J.J.J.J.J.J.J.J.J.J.J.J.J.} } } @.#.$.$.#.| 1 w e > % % y j ,.g.7.,.k e J.J.J.c.c.J.J.J.J.J.J.J.J.J.J.J.J.J.J.J.J.",
"J.J.J.J.J.J.J.J.J.J.J.J.J.J.J.J.J.J.J.J.} }  .%.$.$.$.o./ o 6 =.O $ u 4 i s M.h.y *.-.J.J.J.c.c.c.J.J.J.J.J.J.J.J.J.J.J.J.J.J.J.",
"J.J.J.J.J.J.J.J.J.J.J.J.J.J.J.J.J.} }  .#.$.$.%.%.%...1 O J.*.*.O % y : 8.N.x g =.-.-.-.j.x.c.c.c.J.J.J.J.J.J.J.J.J.J.J.J.J.J.J.",
"J.J.J.J.J.J.J.J.J.J.J.J.J.J.J.J. ...@.@.$.$.$.o.@.| U , J.J.<.1.# $ y y c g.g.9.=.-.-.-.j.x.c.c.J.J.J.J.J.J.J.J.J.J.J.J.J.J.J.J.",
"J.J.J.J.J.J.J.J.J.J.J.J.J.J.} }  .O.O.O.O.O.o.) } _ o J.J.J.z.l.@ % y y y u M.C.J.J.J.J.J.J.J.J.J.J.J.J.J.J.J.J.J.J.J.J.J.J.J.J.",
"J.J.J.J.J.J.J.J.J.J.J.J.J.J.} } / + + + + + + + J.J.J.J.J.J.;.;.i.3.& y : u M.V.J.J.J.J.J.J.J.J.J.J.J.J.J.J.J.J.J.J.J.J.J.J.J.J.",
"J.J.J.J.J.J.J.J.J.J.J.J.J.J.} } W X X X X X X X J.J.J.J.J.J.5.0.c.r.9.9.8.9.N.V.J.J.J.J.J.J.J.J.J.J.J.J.J.J.J.J.J.J.J.J.J.J.J.J.",
"J.J.J.J.J.J.J.J.J.J.J.J.J.J.J.J.J.J.J.J.J.J.J.J.J.J.J.J.J.y 4.c.p.n.V.V.B.V.B.B.J.J.J.J.J.J.J.J.J.J.J.J.J.J.J.J.J.J.J.J.J.J.J.J.",
"J.J.J.J.J.J.J.J.J.J.J.J.J.J.J.J.J.J.J.J.J.J.J.J.J.J.J.J.J.y 4 > > 7 s z z s x z J.J.J.J.J.J.J.J.J.J.J.J.J.J.J.J.J.J.J.J.J.J.J.J.",
"J.J.J.J.J.J.J.J.J.J.J.J.J.J.J.J.J.J.J.J.J.J.J.J.J.J.J.J.J.& $ o $ % y y y y & & J.J.J.J.J.J.J.J.J.J.J.J.J.J.J.J.J.J.J.J.J.J.J.J.",
"J.J.J.J.J.J.J.J.J.J.J.J.J.J.J.J.J.J.J.J.J.J.J.J.J.J.J.J.J.. o o 4 y y y i y o o J.J.J.J.J.J.J.J.J.J.J.J.J.J.J.J.J.J.J.J.J.J.J.J.",
"J.J.J.J.J.J.J.J.J.J.J.J.J.J.J.J.J.J.J.J.J.J.J.J.J.J.J.J.o . $ 4 y y y i & o o o o o o J.J.J.J.J.J.J.J.J.J.J.J.J.J.J.J.J.J.J.J.J.",
"J.J.J.J.J.J.J.J.J.J.J.J.J.J.J.J.J.J.J.J.J.J.J.J.J.J.J.o o $ & u u y y & $ . . o o . o J.J.J.J.J.J.J.J.J.J.J.J.J.J.J.J.J.J.J.J.J.",
"J.J.J.J.J.J.J.J.J.J.J.J.J.J.J.J.J.J.J.J.J.J.J.J.J.J.o o o y y y y y y o o o o o o o o o J.J.J.J.J.J.J.J.J.J.J.J.J.J.J.J.J.J.J.J.",
"J.J.J.J.J.J.J.J.J.J.J.J.J.J.J.J.J.J.J.J.J.J.J.J.J.o . $ 4 y y y y y J.J.o o o . . o o o J.J.J.J.J.J.J.J.J.J.J.J.J.J.J.J.J.J.J.J.",
"J.J.J.J.J.J.J.J.J.J.J.J.J.J.J.J.J.J.J.J.J.J.J.J.o o . & u y y y y y J.J.J.o o o o o . o J.J.J.J.J.J.J.J.J.J.J.J.J.J.J.J.J.J.J.J.",
"J.J.J.J.J.J.J.J.J.J.J.J.J.J.J.J.J.J.J.J.J.J.J.o o o J.y y y u y y y J.J.J.J.o . . o . o J.J.J.J.J.J.J.J.J.J.J.J.J.J.J.J.J.J.J.J.",
"J.J.J.J.J.J.J.J.J.J.J.J.J.J.J.J.J.J.J.J.J.J.J.J.J.J.J.y y y y y J.J.J.J.J.J.o o o o o J.J.J.J.J.J.J.J.J.J.J.J.J.J.J.J.J.J.J.J.J.",
"J.J.J.J.J.J.J.J.J.J.J.J.J.J.J.J.J.J.J.J.J.J.J.J.J.J.J.y y y y y J.J.J.J.J.J.o o o o J.J.J.J.J.J.J.J.J.J.J.J.J.J.J.J.J.J.J.J.J.J.",
"J.J.J.J.J.J.J.J.J.J.J.J.J.J.J.J.J.J.J.J.J.J.J.J.J.J.J.y y y J.J.J.J.J.J.J.. o . o J.J.J.J.J.J.J.J.J.J.J.J.J.J.J.J.J.J.J.J.J.J.J.",
"J.J.J.J.J.J.J.J.J.J.J.J.J.J.J.J.J.J.J.J.J.J.J.J.J.J.J.y u y J.J.J.J.J.J.J.o o o J.J.J.J.J.J.J.J.J.J.J.J.J.J.J.J.J.J.J.J.J.J.J.J.",
"J.J.J.J.J.J.J.J.J.J.J.J.J.J.J.J.J.J.J.J.J.J.J.J.J.J.J.y y y J.J.J.J.J.J.o o o J.J.J.J.J.J.J.J.J.J.J.J.J.J.J.J.J.J.J.J.J.J.J.J.J.",
"J.J.J.J.J.J.J.J.J.J.J.J.J.J.J.J.J.J.J.J.J.J.J.J.J.J.y y y J.J.J.J.J.J.o o o J.J.J.J.J.J.J.J.J.J.J.J.J.J.J.J.J.J.J.J.J.J.J.J.J.J.",
"J.J.J.J.J.J.J.J.J.J.J.J.J.J.J.J.J.J.J.J.J.J.J.J.J.J.y u y J.J.J.J.J.o o o J.J.J.J.J.J.J.J.J.J.J.J.J.J.J.J.J.J.J.J.J.J.J.J.J.J.J.",
"J.J.J.J.J.J.J.J.J.J.J.J.J.J.J.J.J.J.J.J.J.J.J.J.J.J.y y y J.J.J.J.J.. o J.J.J.J.J.J.J.J.J.J.J.J.J.J.J.J.J.J.J.J.J.J.J.J.J.J.J.J.",
"J.J.J.J.J.J.J.J.J.J.J.J.J.J.J.J.J.J.J.J.J.J.J.J.J.J.y y y J.J.J.J.J.o J.J.J.J.J.J.J.J.J.J.J.J.J.J.J.J.J.J.J.J.J.J.J.J.J.J.J.J.J.",
"J.J.J.J.J.J.J.J.J.J.J.J.J.J.J.J.J.J.J.J.J.J.J.J.J.y J.J.J.J.J.J.J.J.J.J.J.J.J.J.J.J.J.J.J.J.J.J.J.J.J.J.J.J.J.J.J.J.J.J.J.J.J.J.",
"J.J.J.J.J.J.J.J.J.J.J.J.J.J.J.J.J.J.J.J.J.J.J.J.y y J.J.J.J.J.J.J.J.J.J.J.J.J.J.J.J.J.J.J.J.J.J.J.J.J.J.J.J.J.J.J.J.J.J.J.J.J.J.",
"J.J.J.J.J.J.J.J.J.J.J.J.J.J.J.J.J.J.J.J.J.J.J.J.y y J.J.J.J.J.J.J.J.J.J.J.J.J.J.J.J.J.J.J.J.J.J.J.J.J.J.J.J.J.J.J.J.J.J.J.J.J.J.",
"J.J.J.J.J.J.J.J.J.J.J.J.J.J.J.J.J.J.J.J.J.J.J.J.y y J.J.J.J.J.J.J.J.J.J.J.J.J.J.J.J.J.J.J.J.J.J.J.J.J.J.J.J.J.J.J.J.J.J.J.J.J.J.",
"J.J.J.J.J.J.J.J.J.J.J.J.J.J.J.J.J.J.J.J.J.J.J.J.y y J.J.J.J.J.J.J.J.J.J.J.J.J.J.J.J.J.J.J.J.J.J.J.J.J.J.J.J.J.J.J.J.J.J.J.J.J.J.",
"J.J.J.J.J.J.J.J.J.J.J.J.J.J.J.J.J.J.J.J.J.J.J.J.y u J.J.J.J.J.J.J.J.J.J.J.J.J.J.J.J.J.J.J.J.J.J.J.J.J.J.J.J.J.J.J.J.J.J.J.J.J.J.",
"J.J.J.J.J.J.J.J.J.J.J.J.J.J.J.J.J.J.J.J.J.J.J.J.J.J.J.J.J.J.J.J.J.J.J.J.J.J.J.J.J.J.J.J.J.J.J.J.J.J.J.J.J.J.J.J.J.J.J.J.J.J.J.J.",
"J.J.J.J.J.J.J.J.J.J.J.J.J.J.J.J.J.J.J.J.J.J.J.J.J.J.J.J.J.J.J.J.J.J.J.J.J.J.J.J.J.J.J.J.J.J.J.J.J.J.J.J.J.J.J.J.J.J.J.J.J.J.J.J."
};
