/* XPM */
static char *result[] = {
/* columns rows colors chars-per-pixel */
"64 64 225 2 ",
"   c #250507",
".  c #260708",
"X  c #280708",
"o  c #240809",
"O  c #280809",
"+  c #290809",
"@  c #2A0809",
"#  c #2A090A",
"$  c #2B090A",
"%  c #2A0A0A",
"&  c #2A0B0B",
"*  c #2C0A0B",
"=  c #2D0B0C",
"-  c #300D0D",
";  c #380B0C",
":  c #361212",
">  c #351514",
",  c #361514",
"<  c #391413",
"1  c #3E1716",
"2  c #361816",
"3  c #381816",
"4  c #3A1A18",
"5  c #3C1C1A",
"6  c #3F2621",
"7  c #440D0F",
"8  c #4B0F0F",
"9  c #481011",
"0  c #4F1010",
"q  c #401917",
"w  c #431B19",
"e  c #441D1B",
"r  c #501010",
"t  c #511010",
"y  c #521110",
"u  c #5E1313",
"i  c #5F1616",
"p  c #521B1A",
"a  c #611414",
"s  c #79181B",
"d  c #43231F",
"f  c #623612",
"g  c #673A13",
"h  c #683A12",
"j  c #6E3D14",
"k  c #613B1C",
"l  c #432320",
"z  c #432621",
"x  c #412622",
"c  c #432622",
"v  c #442521",
"b  c #442622",
"n  c #462622",
"m  c #472723",
"M  c #492622",
"N  c #4C2522",
"B  c #512522",
"V  c #552623",
"C  c #562623",
"Z  c #532724",
"A  c #5C2523",
"S  c #562926",
"D  c #5D2E2A",
"F  c #4B3C3E",
"G  c #662725",
"H  c #732726",
"J  c #63332E",
"K  c #64342F",
"L  c #6A3832",
"P  c #6C3934",
"I  c #6C3B35",
"U  c #6E3B35",
"Y  c #6F3C36",
"T  c #723E38",
"R  c #743F39",
"E  c #753F39",
"W  c #754039",
"Q  c #75403A",
"!  c #76403A",
"~  c #383C59",
"^  c #3B3C5C",
"/  c #313F63",
"(  c #553752",
")  c #523955",
"_  c #553854",
"`  c #573A56",
"'  c #5D3852",
"]  c #673746",
"[  c #384167",
"{  c #384268",
"}  c #3A456D",
"|  c #404A74",
" . c #454D7A",
".. c #604468",
"X. c #694D79",
"o. c #851C1E",
"O. c #8E1D1F",
"+. c #8D2727",
"@. c #8D2728",
"#. c #8F2728",
"$. c #982022",
"%. c #99292A",
"&. c #9C292A",
"*. c #9F292A",
"=. c #9E302C",
"-. c #AF2D24",
";. c #B0282B",
":. c #B72C28",
">. c #BD282B",
",. c #BE282B",
"<. c #B52E30",
"1. c #BE2A32",
"2. c #C3272B",
"3. c #C9272D",
"4. c #C32A2C",
"5. c #C5282C",
"6. c #C5292C",
"7. c #C7282C",
"8. c #C7292D",
"9. c #C7292E",
"0. c #C8282C",
"q. c #C9282D",
"w. c #C9292D",
"e. c #CA282D",
"r. c #C92A2D",
"t. c #CA292E",
"y. c #C92A2E",
"u. c #C82B2F",
"i. c #CA2A2E",
"p. c #CA2B2F",
"a. c #CB2B2F",
"s. c #CC2A2F",
"d. c #CD2B2F",
"f. c #CE2B2F",
"g. c #CB332E",
"h. c #CC382F",
"j. c #CC2930",
"k. c #CB2C30",
"l. c #CC2C30",
"z. c #CF2D31",
"x. c #CD2E32",
"c. c #CE2E32",
"v. c #CE2F33",
"b. c #CF2F33",
"n. c #D12C30",
"m. c #D32D31",
"M. c #CE3034",
"N. c #CF3034",
"B. c #CE3135",
"V. c #CE3236",
"C. c #D03034",
"Z. c #D03134",
"A. c #D03135",
"S. c #D13236",
"D. c #D33236",
"F. c #D23337",
"G. c #D33337",
"H. c #D43337",
"J. c #D23637",
"K. c #D23338",
"L. c #D23438",
"P. c #D33438",
"I. c #D43539",
"U. c #D4363A",
"Y. c #D5373B",
"T. c #D6373B",
"R. c #D6383C",
"E. c #D7383C",
"W. c #D7393D",
"Q. c #D83A3E",
"!. c #874C19",
"~. c #99561D",
"^. c #AA5F1E",
"/. c #AF601B",
"(. c #AE611F",
"). c #8B5527",
"_. c #855329",
"`. c #8F562C",
"'. c #9A5820",
"]. c #9C5C24",
"[. c #935728",
"{. c #A84725",
"}. c #AF6221",
"|. c #AC6122",
" X c #AE6323",
".X c #AF6B33",
"XX c #C65A2C",
"oX c #CE4531",
"OX c #CF4831",
"+X c #D15033",
"@X c #D15433",
"#X c #D46735",
"$X c #C37B3E",
"%X c #D67437",
"&X c #D87E38",
"*X c #E87035",
"=X c #8A3345",
"-X c #8F5F41",
";X c #927B7C",
":X c #D98239",
">X c #D98339",
",X c #DA8539",
"<X c #DA863A",
"1X c #AF8C7D",
"2X c #D28D51",
"3X c #D59055",
"4X c #DA965B",
"5X c #E2A066",
"6X c #E3A066",
"7X c #E4A167",
"8X c #4E578E",
"9X c #555F8C",
"0X c #5B6399",
"qX c #6873A3",
"wX c #8289B3",
"eX c #9497B7",
"rX c #979FC6",
"tX c #AEAEC7",
"yX c #A1A7C9",
"uX c #A7ADCD",
"iX c #ABB0CF",
"pX c #ACB1D0",
"aX c #ADB2D1",
"sX c #AEB5D6",
"dX c None",
/* pixels */
"dXdXdXdXdXdXdXdXdXdXdXdXdXdXdXdXdXdXdXdXdXdXdXdXdXdXdXdXdXdXdXdXdXdXdXdXdXdXdXdXdXdXdXdXdXdXdXdXdXdXdXdXdXdXdXdXdXdXdXdXdXdXdXdX",
"dXdXdXdXdXdXdXdXdXdXdXdXdXdXdXdXdXdXdXdXdXdXdXdXdXdXdXdXdXdXdXdXdXdXdXdXdXdXdXdXdXdXdXdXdXdXdXdXdXdXdXdXdXdXdXdXdXdXdXdXdXdXdXdX",
"dXdXdXdXdXdXdXdXdXdXdXdXdXdXdXdXdXdXdXdXdXdXdXdXdXdXdXdXdXdXdXdXdXdXdXdXdXdXdXdXdXdXdXdXdXdXdXdXdXdXdXdXdXdXdXdXdXdXdXdXdXdXdXdX",
"dXdXdXdXdXdXdXdXdXdXdXdXdXdXdXdXdXdXdXdXdXdXdXdXdXdXdXdXdXdXdXdXdXdXdXdXdXdXdXdXdXdXdXdXdXdXdXdXdXdXdXdXdXdXdXdXdXdXdXdXdXdXdXdX",
"dXdXdXdXdXdXdXdXdXdXdXdXdXdXdXdXdXdXdXdXdXdXdXdXdXdXdXdXdXdXdXdXdXdXdXdXdXdXdXdXdXdXdXdXdXdXdXdXdXdXdXdXdXdXdXdXdXdXdXdXdXdXdXdX",
"dXdXdXdXdXdXdXdXdXdXdXdXdXdXdXdXdXdXdXdXdXdXdXdXdXdXdXdXdXdXdXdXdXdXdXdXdXdXdXdXdXdXdXdXdXdXdXdXdXdXdXdXdXdXdXdXdXdXdXdXdXdXdXdX",
"dXdXdXdXdXdXdXdXdXdXdXdXdXdXdXdXdXdXdXdXdXdXdXdXdXdXdXdXdXdXdXdXdXdXdXdXdXdXdXdXdXdXdXdXdXdXdXdXdXdXdXdXdXdXdXdXdXdXdXdXdXdXdXdX",
"dXdXdXdXdXdXdXdXdXdXdXdXdXdXdXdXdXdXdXdXdXdXdXdXdXdXdXdXdXdXdXdXdXdXdXdXdXdXdXdXdXdXdXdXdXdXdXdXdXdXdXdXdXdXdXdXdXdXdXdXdXdXdXdX",
"dXdXdXdXdXdXdXdXdXdXdXdXdXdXdXdXdXdXdXdXdXdXdXdXdXdXdXdXdXdXdXdXdXdXdXdXdXdXdXdXdXdXdXdXdXdXdXdXdXdXdXdXdXdXdXdXdXdXdXdXdXdXdXdX",
"dXdXdXdXdXdXdXdXdXdXdXdXdXdXdXdXdXdXdXdXdXdXdXdXdXdXdXdXdXdXdXdXdXdXdXdXdXdXdXdXdXdXdXdXdXdXdXdXdXdXdXdXdXdXdXdXdXdXdXdXdXdXdXdX",
"dXdXdXdXdXdXdXdXdXdXdXdXdXdXdXdXdXdXdXdXdXdXdXdXdXdXdXdXdXdXdXdXdXdXdXdXdXdXdXdXdXdXdXdXdXdXdXdXdXdXdXdXdXdXdXdXdXdXdXdXdXdXdXdX",
"dXdXdXdXdXdXdXdXdXdXdXdXdXdXdXdXdXdXdXdXdXdXdXdXdXdXdXdXdXdXdXdXdXdXdXdXdXdXdXdXdXdXdXdXdXdXdXdXdXdXdXdXdXdXdXdXdXdXdXdXdXdXdXdX",
"dXdXdXdXdXdXdXdXdXdXdXdXdXdXdXdXdXdXdXdXdXdXdXdXdXdX7XdXdXdXdXdXdXdXdX7XdXdXdXdXdXdXdXdXdXdXdXdXdXdXdXdXdXdXdXdXdXdXdXdXdXdXdXdX",
"dXdXdXdXdXdXdXdXdXdXdXdXdXdXdXdXdXdXdXdXdXdXdXdXdXdX2XdXdXdXdXdXdXdXdX2X3XdXdXdXdXdXdXdXdXdXdXdXdXdXdXdXdXdXdXdXdXdXdXdXdXdXdXdX",
"dXdXdXdXdXdXdXdXdXdXdXdXdXdXdXdXdXdXdXdXdXdXdXdX5X4X XdXdXdXdXdXdXdXdX^.$X6XdXdXdXdXdXdXdXdXdXdXdXdXdXdXdXdXdXdXdXdXdXdXdXdXdXdX",
"dXdXdXdXdXdXdXdXdXdXdXdXdXdXdXdXdXdXdXdXdXdXdXdX_.).|.(..XtXaXpXsX1X/.}.]._.dXdXdXdXdXdXdXdXdXdXdXdXdXdXdXdXdXdXdXdXdXdXdXdXdXdX",
"dXdXdXdXdXdXdXdXdXdXdXdXdXdXdXdXdXdXdXdXdXdXdXdXdXj ~.[.-XeXyXiXrX;X`.'.!.f dXdXdXdXdXdXdXdXdXdXdXdXdXdXdXdXdXdXdXdXdXdXdXdXdXdX",
"dXdXdXdXdXdXdXdXdXdXdXdXdXdXdXdXdXdXdXdXdXdXdXdXdXdXh F [ 8XwXuX0X .~ k g dXdXdXdXdXdXdXdXdXdXdXdXdXdXdXdXdXdXdXdXdXdXdXdXdXdXdX",
"dXdXdXdXdXdXdXdXdXdXdXdXdXdXdXdXdXdXdXdXdXdXdXdXdX4.-.] / } 9XqX| { ^ =.:.e.w.w.w.dXdXdXdXdXdXdXdXdXdXdXdXdXdXdXdXdXdXdXdXdXdXdX",
"dXdXdXdXdXdXdXdXdXdXdXdXdXdXdXdXdXdXdXdXdXdXdXdXw.t.n.=X) ( ..X.` _ ' 1.s.l.w.i.l.dXdXdXdXdXdXdXdXdXdXdXdXdXdXdXdXdXdXdXdXdXdXdX",
"dXdXdXdXdXdXdXdXdXdXdXdXdXdXdXdXdXdXdXdXdXdXdXw.w.a.W.M.8.9.9.9.9.9.8.0.N.W.p.v.W.k.w.dXdXdXdXdXdXdXdXdXdXdXdXdXdXdXdXdXdXdXdXdX",
"dXdXdXdXdXdXdXdXdXdXdXdXdXdXdXdXdXdXdXdXdXdXw.w.N.F.c.A.S.w.v.F.w.x.L.L.A.c.F.S.x.i.w.w.dXdXdXdXdXdXdXdXdXdXdXdXdXdXdXdXdXdXdXdX",
"dXdXdXdXdXdXdXdXdXdXdXdXdXdXdXdXdXdXdXdXdXw.w.k.S.I.k.F.R.l.A.U.l.S.Q.Y.S.k.I.S.a.w.w.w.dXdXdXdXdXdXdXdXdXdXdXdXdXdXdXdXdXdXdXdX",
"dXdXdXdXdXdXdXdXdXdXdXdXdXdXdXdXdXdXdXdXw.w.k.W.v.a.R.W.W.W.C.i.T.W.R.i.N.W.a.v.W.k.w.w.dXdXdXdXdXdXdXdXdXdXdXdXdXdXdXdXdXdXdXdX",
"dXdXdXdXdXdXdXdXdXdXdXdXdXdXdXdXdXdXdXdXw.N.S.v.A.L.W.W.W.W.U.F.E.W.W.L.A.v.S.A.v.S.b.w.dXdXdXdXdXdXdXdXdXdXdXdXdXdXdXdXdXdXdXdX",
"dXdXdXdXdXdXdXdXdXdXdXdXdXdXdXdXdXdXdXdXw.S.I.a.L.Q.W.W.W.W.W.W.W.W.W.Q.F.a.R.P.a.Y.P.w.dXdXdXdXdXdXdXdXdXdXdXdXdXdXdXdXdXdXdXdX",
"dXdXdXdXdXdXdXdXdXdXdXdXdXdXdXdXdXdXdXdXw.w.l.R.W.W.W.W.W.W.W.W.W.W.W.W.W.R.W.W.R.W.L.w.dXdXdXdXdXdXdXdXdXdXdXdXdXdXdXdXdXdXdXdX",
"dXdXdXdXdXdXdXdXdXdXdXdXdXdXdXdXdXdXdXdXw.v.L.W.W.W.W.W.W.W.W.W.W.W.W.W.W.W.W.W.W.W.K.q.dXdXdXdXdXdXdXdXdXdXdXdXdXdXdXdXdXdXdXdX",
"dXdXdXdXdXdXdXdXdXdXdXdXdXdXdXdXdXdXdXdXw.L.Q.W.W.W.W.W.W.W.W.W.W.W.W.W.W.W.W.W.W.R.J.g.dXdXdXdXdXdXdXdXdXdXdXdXdXdXdXdXdXdXdXdX",
"dXdXdXdXdXdXdXdXdXdXdXdXdXdXdXdXdXdXdXdXw.L.Q.W.W.W.W.W.W.W.W.W.W.W.W.W.W.W.W.W.W.j.oX&XdXdXdXdXdXdXdXdXdXdXdXdXdXdXdXdXdXdXdXdX",
"dXdXdXdXdXdXdXdXdXdXdXdXdXdXdXdXdXdXdXdXw.x.S.W.W.W.W.W.W.W.W.W.W.W.W.W.W.W.W.U.Z.+X#X>XdXdXdXdXdXdXdXdXdXdXdXdXdXdXdXdXdXdXdXdX",
"dXdXdXdXdXdXdXdXdXdXdXdXdXdXdXdXdXdXdXdXw.w.a.W.W.W.W.W.W.W.W.W.W.W.W.W.W.W.R.S.r.%X,X:XdXdXdXdXdXdXdXdXdXdXdXdXdXdXdXdXdXdXdXdX",
"dXdXdXdXdXdXdXdXdXdXdXdXdXdXdXdXdXdXdXdX3.q.l.W.W.W.W.W.W.W.W.W.W.W.W.W.W.W.z.d.dXdXdXdXdXdXdXdXdXdXdXdXdXdXdXdXdXdXdXdXdXdXdXdX",
"dXdXdXdXdXdXdXdXdXdXdXdXdXdXdXdXdXdXdXdX@Xh.t.A.U.W.W.W.W.W.W.W.W.W.W.W.U.M.$.O.dXdXdXdXdXdXdXdXdXdXdXdXdXdXdXdXdXdXdXdXdXdXdXdX",
"dXdXdXdXdXdXdXdXdXdXdXdXdXdXdXdXdXdXdXdX<XOX3.0.S.W.W.W.W.W.W.W.W.W.W.W.S.2.u 8 dXdXdXdXdXdXdXdXdXdXdXdXdXdXdXdXdXdXdXdXdXdXdXdX",
"dXdXdXdXdXdXdXdXdXdXdXdXdXdXdXdXdXdXdXdXdXdXdXdXf.z.W.W.W.W.W.W.W.W.W.Q.D.7.a 0 r dXdXdXdXdXdXdXdXdXdXdXdXdXdXdXdXdXdXdXdXdXdXdX",
"dXdXdXdXdXdXdXdXdXdXdXdXdXdXdXdXdXdXdXdXdXdXdXdX#.%.B.U.W.W.W.W.W.W.W.G.<.+.i 0 r r dXdXdXdXdXdXdXdXdXdXdXdXdXdXdXdXdXdXdXdXdXdX",
"dXdXdXdXdXdXdXdXdXdXdXdXdXdXdXdXdXdXdXdXdXdXdXdXx V ,.B.W.W.W.W.W.W.Y.y.@.6 dXdXr r r dXdXdXdXdXdXdXdXdXdXdXdXdXdXdXdXdXdXdXdXdX",
"dXdXdXdXdXdXdXdXdXdXdXdXdXdXdXdXdXdXdXdXdXdXdXdXn M V &.m.W.W.W.Q.H.u.G C dXdXdXdXr r r dXdXdXdXdXdXdXdXdXdXdXdXdXdXdXdXdXdXdXdX",
"dXdXdXdXdXdXdXdXdXdXdXdXdXdXdXdXdXdXdXdXdXdXdXdXdXn c H *.V.F.F.H.;.o.N b dXdXdXdXdXr t {.dXdXdXdXdXdXdXdXdXdXdXdXdXdXdXdXdXdXdX",
"dXdXdXdXdXdXdXdXdXdXdXdXdXdXdXdXdXdXdXdXdXdXdXdXdXdXn z B >.5.6.w.s o d n dXdXdXdXdXdXy XX*XdXdXdXdXdXdXdXdXdXdXdXdXdXdXdXdXdXdX",
"dXdXdXdXdXdXdXdXdXdXdXdXdXdXdXdXdXdXdXdXdXdXdXdXdXdXm 3 - 7 p A 9 ; % l m dXdXdXdXdXdXdXdXdXdXdXdXdXdXdXdXdXdXdXdXdXdXdXdXdXdXdX",
"dXdXdXdXdXdXdXdXdXdXdXdXdXdXdXdXdXdXdXdXdXdXdXdXdXdXm > X . 2 v & O # 4 5 dXdXdXdXdXdXdXdXdXdXdXdXdXdXdXdXdXdXdXdXdXdXdXdXdXdXdX",
"dXdXdXdXdXdXdXdXdXdXdXdXdXdXdXdXdXdXdXdXdXdXdXdXdXdXm , X X 3 m dXdX+ + @ dXdXdXdXdXdXdXdXdXdXdXdXdXdXdXdXdXdXdXdXdXdXdXdXdXdXdX",
"dXdXdXdXdXdXdXdXdXdXdXdXdXdXdXdXdXdXdXdXdXdXdXdXdXdXI e   dXdXdXdXdX$ D K dXdXdXdXdXdXdXdXdXdXdXdXdXdXdXdXdXdXdXdXdXdXdXdXdXdXdX",
"dXdXdXdXdXdXdXdXdXdXdXdXdXdXdXdXdXdXdXdXdXdXdXdXdXdX! S 1 dXdXdXdXdXw Y ! dXdXdXdXdXdXdXdXdXdXdXdXdXdXdXdXdXdXdXdXdXdXdXdXdXdXdX",
"dXdXdXdXdXdXdXdXdXdXdXdXdXdXdXdXdXdXdXdXdXdXdXdXdXdXR R R dXdXdXdXdXR R R dXdXdXdXdXdXdXdXdXdXdXdXdXdXdXdXdXdXdXdXdXdXdXdXdXdXdX",
"dXdXdXdXdXdXdXdXdXdXdXdXdXdXdXdXdXdXdXdXdXdXdXdXdXdXQ Z < dXdXdXdXdXq U E dXdXdXdXdXdXdXdXdXdXdXdXdXdXdXdXdXdXdXdXdXdXdXdXdXdXdX",
"dXdXdXdXdXdXdXdXdXdXdXdXdXdXdXdXdXdXdXdXdXdXdXdXdXdXQ Z < dXdXdXdXdX* P W dXdXdXdXdXdXdXdXdXdXdXdXdXdXdXdXdXdXdXdXdXdXdXdXdXdXdX",
"dXdXdXdXdXdXdXdXdXdXdXdXdXdXdXdXdXdXdXdXdXdXdXdXdXdXR R R dXdXdXdXdX= P W dXdXdXdXdXdXdXdXdXdXdXdXdXdXdXdXdXdXdXdXdXdXdXdXdXdXdX",
"dXdXdXdXdXdXdXdXdXdXdXdXdXdXdXdXdXdXdXdXdXdXdXdXdXdXR E Q dXdXdXdXdX# dXdXdXdXdXdXdXdXdXdXdXdXdXdXdXdXdXdXdXdXdXdXdXdXdXdXdXdXdX",
"dXdXdXdXdXdXdXdXdXdXdXdXdXdXdXdXdXdXdXdXdXdXdXdXdXdXE L J dXdXdXdXdX+ dXdXdXdXdXdXdXdXdXdXdXdXdXdXdXdXdXdXdXdXdXdXdXdXdXdXdXdXdX",
"dXdXdXdXdXdXdXdXdXdXdXdXdXdXdXdXdXdXdXdXdXdXdXdXdXdXdX$ # dXdXdXdXdX+ dXdXdXdXdXdXdXdXdXdXdXdXdXdXdXdXdXdXdXdXdXdXdXdXdXdXdXdXdX",
"dXdXdXdXdXdXdXdXdXdXdXdXdXdXdXdXdXdXdXdXdXdXdXdXdXdXdXX X dXdXdXdXdX+ dXdXdXdXdXdXdXdXdXdXdXdXdXdXdXdXdXdXdXdXdXdXdXdXdXdXdXdXdX",
"dXdXdXdXdXdXdXdXdXdXdXdXdXdXdXdXdXdXdXdXdXdXdXdXdXdXdX: : dXdXdXdXdX+ dXdXdXdXdXdXdXdXdXdXdXdXdXdXdXdXdXdXdXdXdXdXdXdXdXdXdXdXdX",
"dXdXdXdXdXdXdXdXdXdXdXdXdXdXdXdXdXdXdXdXdXdXdXdXdXdXdXT T dXdXdXdXdX+ dXdXdXdXdXdXdXdXdXdXdXdXdXdXdXdXdXdXdXdXdXdXdXdXdXdXdXdXdX",
"dXdXdXdXdXdXdXdXdXdXdXdXdXdXdXdXdXdXdXdXdXdXdXdXdXdXdXR R dXdXdXdXdX+ dXdXdXdXdXdXdXdXdXdXdXdXdXdXdXdXdXdXdXdXdXdXdXdXdXdXdXdXdX",
"dXdXdXdXdXdXdXdXdXdXdXdXdXdXdXdXdXdXdXdXdXdXdXdXdXdXdXR R dXdXdXdXdX+ dXdXdXdXdXdXdXdXdXdXdXdXdXdXdXdXdXdXdXdXdXdXdXdXdXdXdXdXdX",
"dXdXdXdXdXdXdXdXdXdXdXdXdXdXdXdXdXdXdXdXdXdXdXdXdXdXdXR R dXdXdXdXdXdXdXdXdXdXdXdXdXdXdXdXdXdXdXdXdXdXdXdXdXdXdXdXdXdXdXdXdXdXdX",
"dXdXdXdXdXdXdXdXdXdXdXdXdXdXdXdXdXdXdXdXdXdXdXdXdXdXdXR R dXdXdXdXdXdXdXdXdXdXdXdXdXdXdXdXdXdXdXdXdXdXdXdXdXdXdXdXdXdXdXdXdXdXdX",
"dXdXdXdXdXdXdXdXdXdXdXdXdXdXdXdXdXdXdXdXdXdXdXdXdXdXdXR R dXdXdXdXdXdXdXdXdXdXdXdXdXdXdXdXdXdXdXdXdXdXdXdXdXdXdXdXdXdXdXdXdXdXdX",
"dXdXdXdXdXdXdXdXdXdXdXdXdXdXdXdXdXdXdXdXdXdXdXdXdXdXdXR R dXdXdXdXdXdXdXdXdXdXdXdXdXdXdXdXdXdXdXdXdXdXdXdXdXdXdXdXdXdXdXdXdXdXdX",
"dXdXdXdXdXdXdXdXdXdXdXdXdXdXdXdXdXdXdXdXdXdXdXdXdXdXdXdXdXdXdXdXdXdXdXdXdXdXdXdXdXdXdXdXdXdXdXdXdXdXdXdXdXdXdXdXdXdXdXdXdXdXdXdX",
"dXdXdXdXdXdXdXdXdXdXdXdXdXdXdXdXdXdXdXdXdXdXdXdXdXdXdXdXdXdXdXdXdXdXdXdXdXdXdXdXdXdXdXdXdXdXdXdXdXdXdXdXdXdXdXdXdXdXdXdXdXdXdXdX"
};
