/* XPM */
static char *result[] = {
/* columns rows colors chars-per-pixel */
"64 64 185 2 ",
"   c #260508",
".  c #280708",
"X  c #2B090A",
"o  c #250507",
"O  c #340B0C",
"+  c #3B0D0E",
"@  c #33100C",
"#  c #3C0F10",
"$  c #351414",
"%  c #3B1615",
"&  c #381816",
"*  c #3C1C19",
"=  c #131925",
"-  c #1D1A24",
";  c #151926",
":  c #1A1E30",
">  c #211B24",
",  c #231722",
"<  c #3C1C20",
"1  c #1F2439",
"2  c #292022",
"3  c #202539",
"4  c #420D0F",
"5  c #4B0E0F",
"6  c #440E10",
"7  c #451011",
"8  c #4D1414",
"9  c #411C14",
"0  c #421D1B",
"q  c #491B1B",
"w  c #4C1818",
"e  c #501010",
"r  c #5A1819",
"t  c #621C14",
"y  c #79191B",
"u  c #412111",
"i  c #44231F",
"p  c #48201E",
"a  c #5B2313",
"s  c #59261A",
"d  c #6A370F",
"f  c #723D0F",
"g  c #663A16",
"h  c #723A19",
"j  c #661F27",
"k  c #731C20",
"l  c #452622",
"z  c #482922",
"x  c #4E2624",
"c  c #522624",
"v  c #542A24",
"b  c #5C2B28",
"n  c #493020",
"m  c #523324",
"M  c #5B3927",
"N  c #4B3C3E",
"B  c #67242D",
"V  c #7D2B2A",
"C  c #64342F",
"Z  c #6C3A34",
"A  c #683733",
"S  c #743F39",
"D  c #793A36",
"F  c #7B4D0D",
"G  c #7F461B",
"H  c #6A4718",
"J  c #5D4423",
"K  c #705124",
"L  c #725328",
"P  c #75403A",
"I  c #714035",
"U  c #74472C",
"Y  c #333A5B",
"T  c #3B3D5B",
"R  c #393551",
"E  c #29314D",
"W  c #363E61",
"Q  c #743144",
"!  c #693746",
"~  c #394267",
"^  c #3D446C",
"/  c #424973",
"(  c #454D7A",
")  c #8B1D1F",
"_  c #8A371E",
"`  c #8D1F20",
"'  c #872627",
"]  c #972B29",
"[  c #83332B",
"{  c #903C2B",
"}  c #8F3B31",
"|  c #963937",
" . c #993836",
".. c #AB2A29",
"X. c #B5262A",
"o. c #B7292C",
"O. c #BE2D32",
"+. c #A43936",
"@. c #AA3333",
"#. c #BD3136",
"$. c #C32C2B",
"%. c #CB2A2E",
"&. c #C1262A",
"*. c #D02D2F",
"=. c #CE2E32",
"-. c #D12E32",
";. c #C43936",
":. c #C2343B",
">. c #CB3737",
",. c #D13236",
"<. c #D4363A",
"1. c #D9373D",
"2. c #D7393D",
"3. c #D9393D",
"4. c #854A19",
"5. c #8A4D1B",
"6. c #8C5317",
"7. c #8C5818",
"8. c #99561D",
"9. c #AA5F1E",
"0. c #947412",
"q. c #AF611D",
"w. c #914525",
"e. c #895428",
"r. c #9B5A22",
"t. c #935728",
"y. c #8A4B3E",
"u. c #9F4230",
"i. c #A64424",
"p. c #AC5F29",
"a. c #9C7E35",
"s. c #AE6222",
"d. c #AF6629",
"f. c #B56A2B",
"g. c #B86B2D",
"h. c #AF6B33",
"j. c #BA6436",
"k. c #C64530",
"l. c #CC4F32",
"z. c #CB612F",
"x. c #D6632E",
"c. c #DF6A32",
"v. c #CA7736",
"b. c #D57237",
"n. c #D87839",
"m. c #E87035",
"M. c #8F5F41",
"N. c #927B7C",
"B. c #B4880C",
"V. c #AF821A",
"C. c #BFA205",
"Z. c #9F8236",
"A. c #A68930",
"S. c #A98C39",
"D. c #A48738",
"F. c #AF913A",
"G. c #B2953B",
"H. c #D88519",
"J. c #C9A804",
"K. c #D2B001",
"L. c #D8A605",
"P. c #DB843A",
"I. c #AF8C7D",
"U. c #D28D51",
"Y. c #D89358",
"T. c #E98A5E",
"R. c #CDB141",
"E. c #D5B943",
"W. c #E39B7D",
"Q. c #E3A167",
"!. c #EBCD47",
"~. c #F5DA4A",
"^. c #FADE4B",
"/. c #F3D749",
"(. c #FFE94E",
"). c #4C5489",
"_. c #575F8B",
"`. c #5B6399",
"'. c #6B73A2",
"]. c #8B90B5",
"[. c #979FC6",
"{. c #A7ABCA",
"}. c #ABB0CF",
"|. c #ADB3D2",
" X c None",
/* pixels */
" X X X X X X X X X X X X X X X X X X X X X X X X X X X X X X X X X X X X X X X X X X X X X X X X X X X X X X X X X X X X X X X X",
" X X X X X X X X X X X X X X X X X X X X X X X X X X X X X X X X X X X X X X X X X X X X X X X X X X X X X X X X X X X X X X X X",
" X X X X X X X X X X X X X X X X X X X X X X X X X X X X X X X X X X X X X X X X X X X X X X X X X X X X X X X X X X X X X X X X",
" X X X X X X X X X X X X X X X X X X X X X X X X X X X X X X X X X X X X X X X X X X X X X X X X X X X X X X X X X X X X X X X X",
" X X X X X X X X X X X X X X X X X X X X X X X X X X X X X X X X X X X X X X X X X X X X X X X X X X X X X X X X X X X X X X X X",
" X X X X X X X X X X X X X X X X X X X X X X X X X X X X X X X X X X X X X X X X X X X X X X X X X X X X X X X X X X X X X X X X",
" X X X X X X X X X X X X X X X X X X X X X X X X X X X X X X X X X X X X X X X X X X X X X X X X X X X X X X X X X X X X X X X X",
" X X X X X X X X X X X X X X X X X X X X X X X X X X X X X X X X X X X X X X X X X X X X X X X X X X X X X X X X X X X X X X X X",
" X X X X X X X X X X X X X X X X X X X X X X X X X X X X X X X X X X X X X X X X X X X X X X X X X X X X X X X X X X X X X X X X",
" X X X X X X X X X X X X X X X X X X X X X X X X X X X X X X X X X X X X X X X X X X X X X X X X X X X X X X X X X X X X X X X X",
" X X X X X X X X X X X X X X X X X X X X X X X X X X X X X X X X X X X X X X X X X X X X X X X X X X X X X X X X X X X X X X X X",
" X X X X X X X X X X X X X X X X X X X X X X X X X X X X X X X X X X X X X X X X X X X X X X X X X X X X X X X X X X X X X X X X",
" X X X X X X X X X X X X X X X X X X X X X X X X X XQ. X X X X X X X XQ. X X X X X X X X X X X X X X X X X X X X X X X X X X X X",
" X X X X X X X X X X X X X X X X X X X X X X X X X XU. X X X X X X X XU.Y. X X X X X X X X X X X X X X X X X X X X X X X X X X X",
" X X X X X X X X X X X X X X X X X X X X X X X XQ.Y.s. X X X X X X X Xq.v.Q. X X X X X X X X X X X X X X X X X X X X X X X X X X",
" X X X X X X X X X X X X X X X X X X X X X X X Xe.e.s.s.h.{.|.|.|.I.q.s.r.e. X X X X X X X X X X X X X X X X X X X X X X X X X X",
" X X X X X X X X X X X X X X X X X X X X X X X X Xf 8.t.M.].[.|.[.N.t.r.4.g  X X X X X X X X X X X X X X X X X X X X X X X X X X",
" X X X X X X X X X X X X X X X X X X X X X X X X X Xg N ~ _.].{.`.( T g g  X X X X X X X X X X X X X X X X X X X X X X X X X X X",
" X X X X X X X X X X X X X X X X X X X X X X X X X<...! W ^ _.'./ ~ T +.;.2.2.2.2. X X X X X X X X X X X X X X X X X X X X X X X",
" X X X X X X X X X X X X X X X X X X X X X X X X<.<.*.Q Y Y ^ ).W Y R :.1.2.,.2.2. X X X X X X X X X X X X X X X X X X X X X X X",
" X X X X X X X X X X X X X X X X X X X X X X X2.-.%.3.B ; Y T ~ W E - X.,.2.%.=.2.2.2. X X X X X X X X X X X X X X X X X X X X X",
" X X X X X X X X X X X X X X X X X X X X X X2.=.,.,.,.B ; 1 1 3 1 : - #.,.=.,.,.=.,.=.%. X X X X X X X X X X X X X X X X X X X X",
" X X X X X X X X X X X X X X X X X X X X X<.,.=.,.<.*.j = 2 - ; 2 > , :.,.%.,.>.o.X.X.%. X X X X X X X X X X X X X X X X X X X X",
" X X X X X X X X X X X X X X X X X X X X2.=.=.2.*.*.1.B X 4.n ; 4.a X X.,.1.%.@.S 8 y %. X X X X X X X X X X X X X X X X X X X X",
" X X X X X X X X X X X X X X X X X X X X-.@.|  .| u.H.f @ f.e.g f.h X O.2.2.+.V r 6 t i. X X X X X X X X X X X X X X X X X X X X",
" X X X X X X X X X X X X X X X X X X X X$.} S A Z U C.F 8 b.p.5.n.w.7 k.l.>.D b + 6 s 5. X X X X X X X X X X X X X X X X X X X X",
" X X X X X X X X X X X X X X X X X X X X5.5.G 5 O O z | ,.-.' x 2.>.$.L.f.S w 6 6 6 a 5. X X X X X X X X X X X X X X X X X X X X",
" X X X X X X X X X X X X X X X X X X X X5.h a 6 + O $ ' ;.' 5.0.[ ..$.7.H p 6 6 6 6 d B. X X X X X X X X X X X X X X X X X X X X",
" X X X X X X X X X X X X X X X X X X X X5.a # 6 5 + . y o.M 0.C.J { >.c $ . # 7 4 8 F K. X X X X X X X X X X X X X X X X X X X X",
" X X X X X X X X X X X X X X X X X X X X5.a 6 6 6 4 . % M /.a.m !.^.!.u @ 4 7 4 5 f.g.6. X X X X X X X X X X X X X X X X X X X X",
" X X X X X X X X X X X X X X X X X X X XB.d 6 6 6 4 . K D.Z.Z.D.Z.R.~.9 O 6 4 t ' b.v.f. X X X X X X X X X X X X X X X X X X X X",
" X X X X X X X X X X X X X X X X X X X XK.F 5 6 6 4 . A.~.M F.(.M a.!.u + w e y -.n.P.P. X X X X X X X X X X X X X X X X X X X X",
" X X X X X X X X X X X X X X X X X X X X6.g.f.6 6 # . A.(././.(.(.A.m 4 y.W.>.&. X X X X X X X X X X X X X X X X X X X X X X X X",
" X X X X X X X X X X X X X X X X X X X Xd.v.v.` r % . K S.D.E.(.G.L & [ j.T.] )  X X X X X X X X X X X X X X X X X X X X X X X X",
" X X X X X X X X X X X X X X X X X X X XP.P.b.-.' l X $ < < Z.!.v $ O z.c.x.t e  X X X X X X X X X X X X X X X X X X X X X X X X",
" X X X X X X X X X X X X X X X X X X X X X X X Xo...7 O @ z m M z & X s s t e e e  X X X X X X X X X X X X X X X X X X X X X X X",
" X X X X X X X X X X X X X X X X X X X X X X X X] ' w O X & i l * & $ l p w e e e e  X X X X X X X X X X X X X X X X X X X X X X",
" X X X X X X X X X X X X X X X X X X X X X X X Xl l z $ X X $ i X $ z l i z  X Xe e e  X X X X X X X X X X X X X X X X X X X X X",
" X X X X X X X X X X X X X X X X X X X X X X X Xl l l l < X X   . $ z l z  X X X Xe e e  X X X X X X X X X X X X X X X X X X X X",
" X X X X X X X X X X X X X X X X X X X X X X X X Xl l l < X O $ . $ * l l  X X X X Xe e i. X X X X X X X X X X X X X X X X X X X",
" X X X X X X X X X X X X X X X X X X X X X X X X X Xz l i . & l X . X i z  X X X X X Xe z.m. X X X X X X X X X X X X X X X X X X",
" X X X X X X X X X X X X X X X X X X X X X X X X X Xz & X . & l X X . l z  X X X X X X X X X X X X X X X X X X X X X X X X X X X",
" X X X X X X X X X X X X X X X X X X X X X X X X X Xz $ . . * l X X X * *  X X X X X X X X X X X X X X X X X X X X X X X X X X X",
" X X X X X X X X X X X X X X X X X X X X X X X X X Xz % . . & z  X X. . X  X X X X X X X X X X X X X X X X X X X X X X X X X X X",
" X X X X X X X X X X X X X X X X X X X X X X X X X XZ 0 o  X X X X X. b C  X X X X X X X X X X X X X X X X X X X X X X X X X X X",
" X X X X X X X X X X X X X X X X X X X X X X X X X XP v %  X X X X X0 S P  X X X X X X X X X X X X X X X X X X X X X X X X X X X",
" X X X X X X X X X X X X X X X X X X X X X X X X X XS S P  X X X X XP S S  X X X X X X X X X X X X X X X X X X X X X X X X X X X",
" X X X X X X X X X X X X X X X X X X X X X X X X X XP c %  X X X X X* Z S  X X X X X X X X X X X X X X X X X X X X X X X X X X X",
" X X X X X X X X X X X X X X X X X X X X X X X X X XP c %  X X X X XX Z P  X X X X X X X X X X X X X X X X X X X X X X X X X X X",
" X X X X X X X X X X X X X X X X X X X X X X X X X XS P S  X X X X XX Z P  X X X X X X X X X X X X X X X X X X X X X X X X X X X",
" X X X X X X X X X X X X X X X X X X X X X X X X X XS S P  X X X X XX  X X X X X X X X X X X X X X X X X X X X X X X X X X X X X",
" X X X X X X X X X X X X X X X X X X X X X X X X X XP A C  X X X X XX  X X X X X X X X X X X X X X X X X X X X X X X X X X X X X",
" X X X X X X X X X X X X X X X X X X X X X X X X X X XX X  X X X X XX  X X X X X X X X X X X X X X X X X X X X X X X X X X X X X",
" X X X X X X X X X X X X X X X X X X X X X X X X X X X. .  X X X X XX  X X X X X X X X X X X X X X X X X X X X X X X X X X X X X",
" X X X X X X X X X X X X X X X X X X X X X X X X X X X$ $  X X X X X.  X X X X X X X X X X X X X X X X X X X X X X X X X X X X X",
" X X X X X X X X X X X X X X X X X X X X X X X X X X XS S  X X X X XX  X X X X X X X X X X X X X X X X X X X X X X X X X X X X X",
" X X X X X X X X X X X X X X X X X X X X X X X X X X XS S  X X X X X.  X X X X X X X X X X X X X X X X X X X X X X X X X X X X X",
" X X X X X X X X X X X X X X X X X X X X X X X X X X XS S  X X X X XX  X X X X X X X X X X X X X X X X X X X X X X X X X X X X X",
" X X X X X X X X X X X X X X X X X X X X X X X X X X XS S  X X X X X X X X X X X X X X X X X X X X X X X X X X X X X X X X X X X",
" X X X X X X X X X X X X X X X X X X X X X X X X X X XS P  X X X X X X X X X X X X X X X X X X X X X X X X X X X X X X X X X X X",
" X X X X X X X X X X X X X X X X X X X X X X X X X X XS S  X X X X X X X X X X X X X X X X X X X X X X X X X X X X X X X X X X X",
" X X X X X X X X X X X X X X X X X X X X X X X X X X XP S  X X X X X X X X X X X X X X X X X X X X X X X X X X X X X X X X X X X",
" X X X X X X X X X X X X X X X X X X X X X X X X X X X X X X X X X X X X X X X X X X X X X X X X X X X X X X X X X X X X X X X X",
" X X X X X X X X X X X X X X X X X X X X X X X X X X X X X X X X X X X X X X X X X X X X X X X X X X X X X X X X X X X X X X X X"
};
