/* XPM */
static char *result[] = {
/* columns rows colors chars-per-pixel */
"64 64 202 2 ",
"   c #260807",
".  c #280807",
"X  c #240909",
"o  c #260808",
"O  c #280808",
"+  c #290808",
"@  c #290908",
"#  c #290809",
"$  c #2A0909",
"%  c #2B0909",
"&  c #2A090A",
"*  c #2A0A0A",
"=  c #3D0C0D",
"-  c #361211",
";  c #3E1716",
":  c #3E1816",
">  c #3A1A25",
",  c #3C1B24",
"<  c #3D1F2A",
"1  c #1B2334",
"2  c #1B2335",
"3  c #1E263A",
"4  c #460D0E",
"5  c #421B19",
"6  c #431B19",
"7  c #631416",
"8  c #7B191B",
"9  c #5E391E",
"0  c #663A11",
"q  c #643814",
"w  c #653914",
"e  c #703F16",
"r  c #422320",
"t  c #452723",
"y  c #462723",
"u  c #492B3D",
"i  c #63342F",
"p  c #6A3732",
"a  c #6B3A35",
"s  c #6C3A35",
"d  c #6E3A34",
"f  c #6E3A35",
"g  c #6F3B35",
"h  c #703B35",
"j  c #723D38",
"k  c #743E38",
"l  c #743F38",
"z  c #753F38",
"x  c #743E39",
"c  c #753E39",
"v  c #743F39",
"b  c #753F39",
"n  c #754217",
"m  c #794416",
"M  c #74441D",
"N  c #644536",
"B  c #764039",
"V  c #29304C",
"C  c #363B5B",
"Z  c #323C5C",
"A  c #353C5E",
"S  c #373D5F",
"D  c #353E62",
"F  c #353E65",
"G  c #453B44",
"H  c #543751",
"J  c #553853",
"K  c #563853",
"L  c #573955",
"P  c #394063",
"I  c #394267",
"U  c #3C466E",
"Y  c #3F4772",
"T  c #564549",
"R  c #564B5A",
"E  c #454D7A",
"W  c #605C7B",
"Q  c #911D20",
"!  c #911E20",
"~  c #981F23",
"^  c #972023",
"/  c #9B2628",
"(  c #9B2728",
")  c #9C2829",
"_  c #B3292C",
"`  c #C1262A",
"'  c #C2272B",
"]  c #C8272C",
"[  c #C7282C",
"{  c #C7292C",
"}  c #C6282D",
"|  c #C6292D",
" . c #C7292D",
".. c #C8282C",
"X. c #C9282C",
"o. c #C8292C",
"O. c #C9292C",
"+. c #C8282D",
"@. c #C9282D",
"#. c #C8292D",
"$. c #C9292D",
"%. c #CA292D",
"&. c #C9292E",
"*. c #C92A2E",
"=. c #CA2A2E",
"-. c #CA2B2E",
";. c #CA2A2F",
":. c #CA2B2F",
">. c #CB2B2F",
",. c #CD292D",
"<. c #CD2A2D",
"1. c #CB2C2F",
"2. c #CE2B30",
"3. c #CF2B30",
"4. c #CB2C30",
"5. c #CC2C30",
"6. c #CC2D30",
"7. c #CC2C31",
"8. c #CC2D31",
"9. c #CD2D31",
"0. c #CF2C30",
"q. c #CD2E32",
"w. c #CE2F33",
"e. c #CE2F34",
"r. c #CF2F34",
"t. c #D42F33",
"y. c #CF3033",
"u. c #CF3034",
"i. c #CF3134",
"p. c #CF3035",
"a. c #CF3135",
"s. c #CE3236",
"d. c #D03034",
"f. c #D03035",
"g. c #D03135",
"h. c #D03235",
"j. c #D13235",
"k. c #D03136",
"l. c #D03236",
"z. c #D13236",
"x. c #D13336",
"c. c #D13237",
"v. c #D23337",
"b. c #D33337",
"n. c #D43437",
"m. c #D43438",
"M. c #D43639",
"N. c #D4353A",
"B. c #D4363A",
"V. c #D5363A",
"C. c #D5373A",
"Z. c #D4363B",
"A. c #D5363B",
"S. c #D5373B",
"D. c #D5373C",
"F. c #D6373C",
"G. c #D6383C",
"H. c #D7383C",
"J. c #D6393C",
"K. c #D7393C",
"L. c #D6383D",
"P. c #D7383D",
"I. c #D6393D",
"U. c #D7393D",
"Y. c #D7393E",
"T. c #D8393D",
"R. c #8E501B",
"E. c #AB5E1E",
"W. c #AC5E1C",
"Q. c #AC601F",
"!. c #A95F20",
"~. c #BD592B",
"^. c #AC6020",
"/. c #AE6221",
"(. c #AC6122",
"). c #B76D2E",
"_. c #AC6935",
"`. c #B46E33",
"'. c #BA7031",
"]. c #E97035",
"[. c #BB7D47",
"{. c #BE824E",
"}. c #AD8A7D",
"|. c #C98244",
" X c #DE995E",
".X c #E19E64",
"XX c #E29E64",
"oX c #E7A369",
"OX c #464E80",
"+X c #50588A",
"@X c #515A90",
"#X c #676D9D",
"$X c #7178A4",
"%X c #7078A9",
"&X c #8E94BC",
"*X c #9197BD",
"=X c #ACACC6",
"-X c #AAAFCF",
";X c #ACB1D0",
":X c #ACB1D1",
">X c #ACB3D5",
",X c None",
/* pixels */
",X,X,X,X,X,X,X,X,X,X,X,X,X,X,X,X,X,X,X,X,X,X,X,X,X,X,X,X,X,X,X,X,X,X,X,X,X,X,X,X,X,X,X,X,X,X,X,X,X,X,X,X,X,X,X,X,X,X,X,X,X,X,X,X",
",X,X,X,X,X,X,X,X,X,X,X,X,X,X,X,X,X,X,X,X,X,X,X,X,X,X,X,X,X,X,X,X,X,X,X,X,X,X,X,X,X,X,X,X,X,X,X,X,X,X,X,X,X,X,X,X,X,X,X,X,X,X,X,X",
",X,X,X,X,X,X,X,X,X,X,X,X,X,X,X,X,X,X,X,X,X,X,X,X,X,X,X,X,X,X,X,X,X,X,X,X,X,X,X,X,X,X,X,X,X,X,X,X,X,X,X,X,X,X,X,X,X,X,X,X,X,X,X,X",
",X,X,X,X,X,X,X,X,X,X,X,X,X,X,X,X,X,X,X,X,X,X,X,X,X,X,X,X,X,X,X,X,X,X,X,X,X,X,X,X,X,X,X,X,X,X,X,X,X,X,X,X,X,X,X,X,X,X,X,X,X,X,X,X",
",X,X,X,X,X,X,X,X,X,X,X,X,X,X,X,X,X,X,X,X,X,X,X,X,X,X,X,X,X,X,X,X,X,X,X,X,X,X,X,X,X,X,X,X,X,X,X,X,X,X,X,X,X,X,X,X,X,X,X,X,X,X,X,X",
",X,X,X,X,X,X,X,X,X,X,X,X,X,X,X,X,X,X,X,X,X,X,X,X,X,X,X,X,X,X,X,X,X,X,X,X,X,X,X,X,X,X,X,X,X,X,X,X,X,X,X,X,X,X,X,X,X,X,X,X,X,X,X,X",
",X,X,X,X,X,X,X,X,X,X,X,X,X,X,X,X,X,X,X,X,X,X,X,X,X,X,X,X,X,X,X,X,X,X,X,X,X,X,X,X,X,X,X,X,X,X,X,X,X,X,X,X,X,X,X,X,X,X,X,X,X,X,X,X",
",X,X,X,X,X,X,X,X,X,X,X,X,X,X,X,X,X,X,X,X,X,X,X,X,X,X,X,X,X,X,X,X,X,X,X,X,X,X,X,X,X,X,X,X,X,X,X,X,X,X,X,X,X,X,X,X,X,X,X,X,X,X,X,X",
",X,X,X,X,X,X,X,X,X,X,X,X,X,X,X,X,X,X,X,X,X,X,X,X,X,X,X,X,X,X,X,X,X,X,X,X,X,X,X,X,X,X,X,X,X,X,X,X,X,X,X,X,X,X,X,X,X,X,X,X,X,X,X,X",
",X,X,X,X,X,X,X,X,X,X,X,X,X,X,X,X,X,X,X,X,X,X,X,X,X,X,X,X,X,X,X,X,X,X,X,X,X,X,X,X,X,X,X,X,X,X,X,X,X,X,X,X,X,X,X,X,X,X,X,X,X,X,X,X",
",X,X,X,X,X,X,X,X,X,X,X,X,X,X,X,X,X,X,X,X,X,X,X,X,X,X,X,X,X,X,X,X,X,X,X,X,X,X,X,X,X,X,X,X,X,X,X,X,X,X,X,X,X,X,X,X,X,X,X,X,X,X,X,X",
",X,X,X,X,X,X,X,X,X,X,X,X,X,X,X,X,X,X,X,X,X,X,X,X,X,XXX,X,X,X,X,X,X,X,X.X.X,X,X,X,X,X,X,X,X,X,X,X,X,X,X,X,X,X,X,X,X,X,X,X,X,X,X,X",
",X,X,X,X,X,X,X,X,X,X,X,X,X,X,X,X,X,X,X,X,X,X,X,X,X X'.,X,X,X,X,X,X,X,X).|.oX,X,X,X,X,X,X,X,X,X,X,X,X,X,X,X,X,X,X,X,X,X,X,X,X,X,X",
",X,X,X,X,X,X,X,X,X,X,X,X,X,X,X,X,X,X,X,X,X,X,X,X{.[.(.Q.,X,X,X,X,X,X,XE.`.{.,X,X,X,X,X,X,X,X,X,X,X,X,X,X,X,X,X,X,X,X,X,X,X,X,X,X",
",X,X,X,X,X,X,X,X,X,X,X,X,X,X,X,X,X,X,X,X,X,X,X,Xw e !.^._.=X:X;X>X}.W./.R.q ,X,X,X,X,X,X,X,X,X,X,X,X,X,X,X,X,X,X,X,X,X,X,X,X,X,X",
",X,X,X,X,X,X,X,X,X,X,X,X,X,X,X,X,X,X,X,X,X,X,X,X,X,Xm N R #X&X-X%XW T M n ,X,X,X,X,X,X,X,X,X,X,X,X,X,X,X,X,X,X,X,X,X,X,X,X,X,X,X",
",X,X,X,X,X,X,X,X,X,X,X,X,X,X,X,X,X,X,X,X,X,X,X,X,X,X0 G F OX$X*X+XY C 9 ,X,X,X,X,X,X,X,X,X,X,X,X,X,X,X,X,X,X,X,X,X,X,X,X,X,X,X,X",
",X,X,X,X,X,X,X,X,X,X,X,X,X,X,X,X,X,X,X,X,X,X,X,X,X,X,XS S A E @XP S S ,X,X,X,X,X,X,X,X,X,X,X,X,X,X,X,X,X,X,X,X,X,X,X,X,X,X,X,X,X",
",X,X,X,X,X,X,X,X,X,X,X,X,X,X,X,X,X,X,X,X,X,X,X,X,X,X,X2 3 Z I U D V 1 ,X,X,X,X,X,X,X,X,X,X,X,X,X,X,X,X,X,X,X,X,X,X,X,X,X,X,X,X,X",
",X,X,X,X,X,X,X,X,X,X,X,X,X,X,X,X,X,X,X,X,X,X,X,X,X,X,X> < H K J L u , ,X,X,X,X,X,X,X,X,X,X,X,X,X,X,X,X,X,X,X,X,X,X,X,X,X,X,X,X,X",
",X,X,X,X,X,X,X,X,X,X,X,X,X,X,X,X,X,X,X,X,X,X,X,X,X,X,X} } |  . . .} { o.#.,X,X,X,X,X,X,X,X,X,X,X,X,X,X,X,X,X,X,X,X,X,X,X,X,X,X,X",
",X,X,X,X,X,X,X,X,X,X,X,X,X,X,X,X,X,X,X,X,X,X,X,X,X,X@...&.v.q.....q.v.=...#.,X,X,X,X,X,X,X,X,X,X,X,X,X,X,X,X,X,X,X,X,X,X,X,X,X,X",
",X,X,X,X,X,X,X,X,X,X,X,X,X,X,X,X,X,X,X,X,X,X,X,X,X,X+.=.8.B.a.1.1.a.B.9.=.X.,X,X,X,X,X,X,X,X,X,X,X,X,X,X,X,X,X,X,X,X,X,X,X,X,X,X",
",X,X,X,X,X,X,X,X,X,X,X,X,X,X,X,X,X,X,X,X,X,X,X,XO.@...l.S.$.g.K.U.g.%.S.z.] X.O.,X,X,X,X,X,X,X,X,X,X,X,X,X,X,X,X,X,X,X,X,X,X,X,X",
",X,X,X,X,X,X,X,X,X,X,X,X,X,X,X,X,X,X,X,X,X,X,X@.O.*.x.i.w.z.B.K.K.B.z.w.f.c.=.$.o.,X,X,X,X,X,X,X,X,X,X,X,X,X,X,X,X,X,X,X,X,X,X,X",
",X,X,X,X,X,X,X,X,X,X,X,X,X,X,X,X,X,X,X,X,X,X,X@.=.7.C.r.1.G.U.P.I.P.H.4.y.A.7.=.#.,X,X,X,X,X,X,X,X,X,X,X,X,X,X,X,X,X,X,X,X,X,X,X",
",X,X,X,X,X,X,X,X,X,X,X,X,X,X,X,X,X,X,X,X,XX.#.[ l.V.$.h.J.H.I.G.I.L.P.I.l.$.Z.c.[ o.@.,X,X,X,X,X,X,X,X,X,X,X,X,X,X,X,X,X,X,X,X,X",
",X,X,X,X,X,X,X,X,X,X,X,X,X,X,X,X,X,X,X,X,X@.=.k.u.e.g.N.U.I.P.P.P.L.U.U.B.j.u.p.l.=.O.,X,X,X,X,X,X,X,X,X,X,X,X,X,X,X,X,X,X,X,X,X",
",X,X,X,X,X,X,X,X,X,X,X,X,X,X,X,X,X,X,X,X,X;.8.D.w.4.I.U.H.K.H.L.U.K.P.K.I.L.5.w.S.6.=.,X,X,X,X,X,X,X,X,X,X,X,X,X,X,X,X,X,X,X,X,X",
",X,X,X,X,X,X,X,X,X,X,X,X,X,X,X,X,X,X,X,X,XG.M.$.z.G.G.K.H.K.H.H.K.K.U.K.U.I.G.z.&.B.H.,X,X,X,X,X,X,X,X,X,X,X,X,X,X,X,X,X,X,X,X,X",
",X,X,X,X,X,X,X,X,X,X,X,X,X,X,X,X,X,X,X,X,Xu.u.g.N.I.J.I.U.J.U.K.U.U.U.U.U.K.P.B.f.d.u.,X,X,X,X,X,X,X,X,X,X,X,X,X,X,X,X,X,X,X,X,X",
",X,X,X,X,X,X,X,X,X,X,X,X,X,X,X,X,X,X,X,X,X] :.U.U.U.K.U.I.K.I.I.U.P.P.I.U.U.K.U.U.>...,X,X,X,X,X,X,X,X,X,X,X,X,X,X,X,X,X,X,X,X,X",
",X,X,X,X,X,X,X,X,X,X,X,X,X,X,X,X,X,X,X,X,XX.>.G.P.U.K.U.K.J.I.U.U.P.K.U.K.H.U.K.J.>.o.,X,X,X,X,X,X,X,X,X,X,X,X,X,X,X,X,X,X,X,X,X",
",X,X,X,X,X,X,X,X,X,X,X,X,X,X,X,X,X,X,X,X,X..1.H.P.P.H.I.U.U.H.H.P.P.K.U.U.U.U.U.G.>.#.,X,X,X,X,X,X,X,X,X,X,X,X,X,X,X,X,X,X,X,X,X",
",X,X,X,X,X,X,X,X,X,X,X,X,X,X,X,X,X,X,X,X,Xo.1.F.H.P.P.L.P.K.P.P.P.U.P.I.U.L.L.H.F.1.#.,X,X,X,X,X,X,X,X,X,X,X,X,X,X,X,X,X,X,X,X,X",
",X,X,X,X,X,X,X,X,X,X,X,X,X,X,X,X,X,X,X,X,X,X,X=.v.U.I.H.U.P.P.P.U.U.U.K.I.L.U.v.=.,X,X,X,X,X,X,X,X,X,X,X,X,X,X,X,X,X,X,X,X,X,X,X",
",X,X,X,X,X,X,X,X,X,X,X,X,X,X,X,X,X,X,X,X,X,X,X..z.U.U.P.U.U.U.U.U.U.U.I.K.U.U.v...,X,X,X,X,X,X,X,X,X,X,X,X,X,X,X,X,X,X,X,X,X,X,X",
",X,X,X,X,X,X,X,X,X,X,X,X,X,X,X,X,X,X,X,X,X,X,X..z.I.U.U.I.J.P.K.K.K.L.P.K.P.U.s.' ,X,X,X,X,X,X,X,X,X,X,X,X,X,X,X,X,X,X,X,X,X,X,X",
",X,X,X,X,X,X,X,X,X,X,X,X,X,X,X,X,X,X,X,X,X,X,X,X-.6.J.U.K.U.I.I.U.I.K.K.U.P.t.^ = ,X,X,X,X,X,X,X,X,X,X,X,X,X,X,X,X,X,X,X,X,X,X,X",
",X,X,X,X,X,X,X,X,X,X,X,X,X,X,X,X,X,X,X,X,X,X,X,X,X-.z.B.J.P.U.I.P.P.K.U.B.a.~ 7 o @ ,X,X,X,X,X,X,X,X,X,X,X,X,X,X,X,X,X,X,X,X,X,X",
",X,X,X,X,X,X,X,X,X,X,X,X,X,X,X,X,X,X,X,X,X,X,X,X,X,X..g.H.G.H.H.L.P.G.P.k.` =   + # @ ,X,X,X,X,X,X,X,X,X,X,X,X,X,X,X,X,X,X,X,X,X",
",X,X,X,X,X,X,X,X,X,X,X,X,X,X,X,X,X,X,X,X,X,X,X,X,X,X,X2.0.3.b.T.Y.b.3.0.2.,X,X,X,X+ @ + ,X,X,X,X,X,X,X,X,X,X,X,X,X,X,X,X,X,X,X,X",
",X,X,X,X,X,X,X,X,X,X,X,X,X,X,X,X,X,X,X,X,X,X,X,X,X,X,X) ( ! _ n.m._ Q / ) ,X,X,X,X# + $ ,X,X,X,X,X,X,X,X,X,X,X,X,X,X,X,X,X,X,X,X",
",X,X,X,X,X,X,X,X,X,X,X,X,X,X,X,X,X,X,X,X,X,X,X,X,X,X,Xy r X 8 ,.<.8 X r t ,X,X,X,X,X,X% ~.].,X,X,X,X,X,X,X,X,X,X,X,X,X,X,X,X,X,X",
",X,X,X,X,X,X,X,X,X,X,X,X,X,X,X,X,X,X,X,X,X,X,X,X,X,X,Xs i * 4 ,X,X4 * i a ,X,X,X,X,X,X,X,X,X,X,X,X,X,X,X,X,X,X,X,X,X,X,X,X,X,X,X",
",X,X,X,X,X,X,X,X,X,X,X,X,X,X,X,X,X,X,X,X,X,X,X,X,X,X,XB h 6 ,X,X,X,X5 h B ,X,X,X,X,X,X,X,X,X,X,X,X,X,X,X,X,X,X,X,X,X,X,X,X,X,X,X",
",X,X,X,X,X,X,X,X,X,X,X,X,X,X,X,X,X,X,X,X,X,X,X,X,X,X,Xz v v ,X,X,X,Xv b z ,X,X,X,X,X,X,X,X,X,X,X,X,X,X,X,X,X,X,X,X,X,X,X,X,X,X,X",
",X,X,X,X,X,X,X,X,X,X,X,X,X,X,X,X,X,X,X,X,X,X,X,X,X,X,Xz d : ,X,X,X,X: f z ,X,X,X,X,X,X,X,X,X,X,X,X,X,X,X,X,X,X,X,X,X,X,X,X,X,X,X",
",X,X,X,X,X,X,X,X,X,X,X,X,X,X,X,X,X,X,X,X,X,X,X,X,X,X,Xz d ; ,X,X,X,X; f b ,X,X,X,X,X,X,X,X,X,X,X,X,X,X,X,X,X,X,X,X,X,X,X,X,X,X,X",
",X,X,X,X,X,X,X,X,X,X,X,X,X,X,X,X,X,X,X,X,X,X,X,X,X,X,Xz v v ,X,X,X,Xv l v ,X,X,X,X,X,X,X,X,X,X,X,X,X,X,X,X,X,X,X,X,X,X,X,X,X,X,X",
",X,X,X,X,X,X,X,X,X,X,X,X,X,X,X,X,X,X,X,X,X,X,X,X,X,X,Xb g 5 ,X,X,X,X6 f b ,X,X,X,X,X,X,X,X,X,X,X,X,X,X,X,X,X,X,X,X,X,X,X,X,X,X,X",
",X,X,X,X,X,X,X,X,X,X,X,X,X,X,X,X,X,X,X,X,X,X,X,X,X,X,X,Xp & ,X,X,X,X% p ,X,X,X,X,X,X,X,X,X,X,X,X,X,X,X,X,X,X,X,X,X,X,X,X,X,X,X,X",
",X,X,X,X,X,X,X,X,X,X,X,X,X,X,X,X,X,X,X,X,X,X,X,X,X,X,X,X,X# ,X,X,X,X+ ,X,X,X,X,X,X,X,X,X,X,X,X,X,X,X,X,X,X,X,X,X,X,X,X,X,X,X,X,X",
",X,X,X,X,X,X,X,X,X,X,X,X,X,X,X,X,X,X,X,X,X,X,X,X,X,X,X,X,X. ,X,X,X,XO ,X,X,X,X,X,X,X,X,X,X,X,X,X,X,X,X,X,X,X,X,X,X,X,X,X,X,X,X,X",
",X,X,X,X,X,X,X,X,X,X,X,X,X,X,X,X,X,X,X,X,X,X,X,X,X,X,X,X,X- ,X,X,X,X- ,X,X,X,X,X,X,X,X,X,X,X,X,X,X,X,X,X,X,X,X,X,X,X,X,X,X,X,X,X",
",X,X,X,X,X,X,X,X,X,X,X,X,X,X,X,X,X,X,X,X,X,X,X,X,X,X,X,X,Xj ,X,X,X,Xj ,X,X,X,X,X,X,X,X,X,X,X,X,X,X,X,X,X,X,X,X,X,X,X,X,X,X,X,X,X",
",X,X,X,X,X,X,X,X,X,X,X,X,X,X,X,X,X,X,X,X,X,X,X,X,X,X,X,X,Xv ,X,X,X,Xv ,X,X,X,X,X,X,X,X,X,X,X,X,X,X,X,X,X,X,X,X,X,X,X,X,X,X,X,X,X",
",X,X,X,X,X,X,X,X,X,X,X,X,X,X,X,X,X,X,X,X,X,X,X,X,X,X,X,X,Xc ,X,X,X,Xv ,X,X,X,X,X,X,X,X,X,X,X,X,X,X,X,X,X,X,X,X,X,X,X,X,X,X,X,X,X",
",X,X,X,X,X,X,X,X,X,X,X,X,X,X,X,X,X,X,X,X,X,X,X,X,X,X,X,X,Xx ,X,X,X,Xv ,X,X,X,X,X,X,X,X,X,X,X,X,X,X,X,X,X,X,X,X,X,X,X,X,X,X,X,X,X",
",X,X,X,X,X,X,X,X,X,X,X,X,X,X,X,X,X,X,X,X,X,X,X,X,X,X,X,X,Xl ,X,X,X,Xk ,X,X,X,X,X,X,X,X,X,X,X,X,X,X,X,X,X,X,X,X,X,X,X,X,X,X,X,X,X",
",X,X,X,X,X,X,X,X,X,X,X,X,X,X,X,X,X,X,X,X,X,X,X,X,X,X,X,X,Xv ,X,X,X,Xx ,X,X,X,X,X,X,X,X,X,X,X,X,X,X,X,X,X,X,X,X,X,X,X,X,X,X,X,X,X",
",X,X,X,X,X,X,X,X,X,X,X,X,X,X,X,X,X,X,X,X,X,X,X,X,X,X,X,X,Xv ,X,X,X,Xv ,X,X,X,X,X,X,X,X,X,X,X,X,X,X,X,X,X,X,X,X,X,X,X,X,X,X,X,X,X",
",X,X,X,X,X,X,X,X,X,X,X,X,X,X,X,X,X,X,X,X,X,X,X,X,X,X,X,X,X,X,X,X,X,X,X,X,X,X,X,X,X,X,X,X,X,X,X,X,X,X,X,X,X,X,X,X,X,X,X,X,X,X,X,X",
",X,X,X,X,X,X,X,X,X,X,X,X,X,X,X,X,X,X,X,X,X,X,X,X,X,X,X,X,X,X,X,X,X,X,X,X,X,X,X,X,X,X,X,X,X,X,X,X,X,X,X,X,X,X,X,X,X,X,X,X,X,X,X,X"
};
