/* XPM */
static char *_80749df58c247e7abaa869083c254c84HwWL5h7mziKQ9Aj[] = {
/* columns rows colors chars-per-pixel */
"64 64 155 2 ",
"   c None",
".  c #270707",
"X  c #280807",
"o  c #270809",
"O  c #290909",
"+  c #26060B",
"@  c #370D0D",
"#  c #2F100A",
"$  c #3E1C0C",
"%  c #341411",
"&  c #3A1A17",
"*  c #3A1A19",
"=  c #0F1624",
"-  c #131725",
";  c #121826",
":  c #191924",
">  c #121828",
",  c #3E1D21",
"<  c #3F3233",
"1  c #401D0D",
"2  c #75181A",
"3  c #7F1B1D",
"4  c #4F2F06",
"5  c #452408",
"6  c #41211E",
"7  c #4C241E",
"8  c #4B2B1F",
"9  c #5D2E12",
"0  c #572A1B",
"q  c #53331E",
"w  c #5C3C1F",
"e  c #623619",
"r  c #7A1F21",
"t  c #452522",
"y  c #4A2A22",
"u  c #492A22",
"i  c #512623",
"p  c #502A23",
"a  c #5A3727",
"s  c #4E3B39",
"d  c #5E3530",
"f  c #5A3E33",
"g  c #6B2725",
"h  c #603726",
"j  c #613826",
"k  c #6B332F",
"l  c #6F3E38",
"z  c #6C3934",
"x  c #723E38",
"c  c #753833",
"v  c #6D4D06",
"b  c #7C5C04",
"n  c #715108",
"m  c #63441C",
"M  c #5F453F",
"N  c #67482A",
"B  c #68492A",
"V  c #69462D",
"C  c #7B512F",
"Z  c #6C4732",
"A  c #764039",
"S  c #774C31",
"D  c #272D48",
"F  c #292F49",
"G  c #3B3645",
"H  c #353B5D",
"J  c #383B58",
"K  c #363D61",
"L  c #3F4667",
"P  c #3C446B",
"I  c #5A494F",
"U  c #604C51",
"Y  c #41476E",
"T  c #434B77",
"R  c #6C4265",
"E  c #6D4C76",
"W  c #8B211E",
"Q  c #99292E",
"!  c #853835",
"~  c #9E3D3B",
"^  c #AD292D",
"/  c #A7252A",
"(  c #BE292A",
")  c #B8272B",
"_  c #B72D30",
"`  c #A43334",
"'  c #B53339",
"]  c #B6353B",
"[  c #C42C2C",
"{  c #CA292D",
"}  c #C8272D",
"|  c #CD2D32",
" . c #C22A31",
".. c #CF3034",
"X. c #C63A3D",
"o. c #D03135",
"O. c #D4363A",
"+. c #D8363B",
"@. c #D7393C",
"#. c #D9393D",
"$. c #8D491B",
"%. c #8E4D16",
"&. c #924D1A",
"*. c #93511A",
"=. c #9A561E",
"-. c #A95E1E",
";. c #846404",
":. c #9A7B0B",
">. c #8E6D11",
",. c #826315",
"<. c #96771F",
"1. c #985620",
"2. c #8A5831",
"3. c #A45C25",
"4. c #8B6E32",
"5. c #8E7033",
"6. c #957534",
"7. c #AD6121",
"8. c #B76E34",
"9. c #C47D14",
"0. c #CA4535",
"q. c #D84138",
"w. c #C1722F",
"e. c #C87735",
"r. c #D17D35",
"t. c #983E59",
"y. c #A93648",
"u. c #90415C",
"i. c #8F664D",
"p. c #BC9B04",
"a. c #9E8237",
"s. c #A18538",
"d. c #A68939",
"f. c #B89B3D",
"g. c #C19D04",
"h. c #CDAD03",
"j. c #D0B002",
"k. c #D78239",
"l. c #D98439",
"z. c #B38058",
"x. c #AD8979",
"c. c #D99459",
"v. c #E09C62",
"b. c #E5A166",
"n. c #DDC244",
"m. c #F9D84A",
"M. c #FDE34C",
"N. c #FFEB4E",
"B. c #455386",
"V. c #58588E",
"C. c #535B93",
"Z. c #A58F8F",
"A. c #A0A7C9",
"S. c #A3A8C8",
"D. c #AEB2D3",
/* pixels */
"                                                                                                                                ",
"                                                                                                                                ",
"                                                                                                                                ",
"                                                                                                                                ",
"                                                                                                                                ",
"                                                                                                                                ",
"                                                                                                                                ",
"                                                                                                                                ",
"                                                                                                                                ",
"                                                                                                                                ",
"                                                                                                                                ",
"                                                                                                                                ",
"                                                                    b.v.                                                        ",
"                                                                    b.c.7.                                                      ",
"                                                                  D.z.8.7.x.                                                    ",
"                                                                  S.i.%.-.Z.A.                                                  ",
"                                                                  L S &.*.I P K                                                 ",
"                                                                  T s q q f M M <                                               ",
"                                                                  C.D ; > e &.*.u ;                                             ",
"                                                                  C.P J H Z =.r.f =                                             ",
"                                                                u.C.P H K Z =.l.C                                               ",
"                                                                y.V.Y H K Z 1.k.                                                ",
"                                                                 .' E B.K J U l.                                                ",
"                                                                | { t.R F F G 2.                                                ",
"                                                            #.@.@.o.{ / : : : -                                                 ",
"                                                            #.@.| o.+.O.' ' ^ / (                                               ",
"                                                            O.@.{ _ ` ] X.#.o.| {                                               ",
"                                                          { o.@.{ Q d l ~ #.@.o.{                                               ",
"                                                          O.o.[ g k A z c ! 0.q.+.                                              ",
"                                                          @.o.( i d x % O O g.9.Q                                               ",
"                                                          @.o.( 0 7 7 O 4 ;.b b ;.                                              ",
"                                                        { @.o.( 9 $ . + n h.5 v j.                                              ",
"                                                      { { @.o.( 9 $ O 6 u q p.:.8                                               ",
"                                                      { { @.o.( 9 $ O t m >.>.<.a.                                              ",
"                                                      { { @.o.( e 1 O , ,.h.w 5.M.                                              ",
"                                                      { { @.o.[ $.9 O t y a n.f.a                                               ",
"                                                      { { @.o.[ &.9 o t t y s.d.6.                                              ",
"                                                    { ..O.@.o.[ &.9 O t t t , 4.N.                                              ",
"                                                    { o.#.@.o.[ $.3.8.p t t , 4.N.                                              ",
"                                                    { o.@.#.^ W 3.w.k.6.5.5.4.f.M.                                              ",
"                                                    { o.@.#.r # e.k.l.m.M.M.M.M.M.                                              ",
"                                                    { o.@.#.r O a h j N B N N N B                                               ",
"                                                    { o.O.{ 2 o t t t t t t t t t                                               ",
"                                                    { o.O.{ 2 o t t t t t t t t t                                               ",
"                                                    { o.@.| 3 @ t t t t * O O %                                                 ",
"                                                    { o.@.@.| ) i t t t & . O o                                                 ",
"                                                        #.@.o.( i t t t & O O O                                                 ",
"                                                          #...}   t t t & O O O                                                 ",
"                                                          #...{     t t & X O O                                                 ",
"                                                          o.|       t t & O O O                                                 ",
"                                                          {         t u & O O O                                                 ",
"                                                                    t 6 % O O O                                                 ",
"                                                                    t O O O O O                                                 ",
"                                                                    t O O O O o                                                 ",
"                                                                    t O O O O o                                                 ",
"                                                                    t O O O O O                                                 ",
"                                                                      O O O                                                     ",
"                                                                      o O O                                                     ",
"                                                                      o O O                                                     ",
"                                                                      O O O                                                     ",
"                                                                      O O O                                                     ",
"                                                                      O O O                                                     ",
"                                                                                                                                ",
"                                                                                                                                "
};
