/* XPM */
static char *_52a034a675f452bcaedbff819bfae62B6tduZbgfVkwSZ9e[] = {
/* columns rows colors chars-per-pixel */
"64 64 154 2 ",
"   c None",
".  c #270707",
"X  c #280807",
"o  c #270A0A",
"O  c #290909",
"+  c #26060B",
"@  c #370D0D",
"#  c #2F100A",
"$  c #3E1C0C",
"%  c #341312",
"&  c #3A1A17",
"*  c #3A1A19",
"=  c #0F1524",
"-  c #131725",
";  c #121826",
":  c #191924",
">  c #121828",
",  c #3E1D21",
"<  c #3F3133",
"1  c #401D0D",
"2  c #75181A",
"3  c #7F1B1D",
"4  c #4F2F06",
"5  c #452408",
"6  c #41211E",
"7  c #4C241E",
"8  c #4B2B1F",
"9  c #5D2E12",
"0  c #572A1B",
"q  c #53331E",
"w  c #5C3C1F",
"e  c #623619",
"r  c #7A1F21",
"t  c #452522",
"y  c #4A2A22",
"u  c #492A22",
"i  c #512623",
"p  c #502A23",
"a  c #5A3727",
"s  c #4E3B39",
"d  c #5E3530",
"f  c #5A3E33",
"g  c #6B2725",
"h  c #603726",
"j  c #613826",
"k  c #6B332F",
"l  c #6F3E38",
"z  c #6C3934",
"x  c #743B36",
"c  c #6D4D06",
"v  c #7C5C04",
"b  c #715108",
"n  c #63441C",
"m  c #5F453F",
"M  c #67482A",
"N  c #68492A",
"B  c #69462D",
"V  c #7B502F",
"C  c #6B4732",
"Z  c #764039",
"A  c #774C31",
"S  c #292F49",
"D  c #262D48",
"F  c #3B3645",
"G  c #323757",
"H  c #353B5D",
"J  c #3D3E5A",
"K  c #363D61",
"L  c #3F4667",
"P  c #3C446B",
"I  c #5A494F",
"U  c #604C51",
"Y  c #41466E",
"T  c #434B77",
"R  c #6C4265",
"E  c #6D4C76",
"W  c #8B211E",
"Q  c #99292E",
"!  c #853835",
"~  c #9E3D3B",
"^  c #AD292D",
"/  c #A7252A",
"(  c #BE292A",
")  c #B8272B",
"_  c #B72D30",
"`  c #A43334",
"'  c #B53339",
"]  c #B6353B",
"[  c #C42B2C",
"{  c #CA292D",
"}  c #CD2D32",
"|  c #C32A31",
" . c #CF3034",
".. c #C63A3D",
"X. c #D03135",
"o. c #D4363A",
"O. c #D8373B",
"+. c #D7393D",
"@. c #D9393D",
"#. c #8D491B",
"$. c #8E4D16",
"%. c #924D1A",
"&. c #93511A",
"*. c #9A561E",
"=. c #A95E1E",
"-. c #846304",
";. c #9A7B0B",
":. c #8E6D11",
">. c #826214",
",. c #96771F",
"<. c #985620",
"1. c #8A5831",
"2. c #A45C25",
"3. c #8B6E32",
"4. c #8E7033",
"5. c #967534",
"6. c #AD6121",
"7. c #B76E34",
"8. c #C47D14",
"9. c #CA4535",
"0. c #D84138",
"q. c #C1722F",
"w. c #C87735",
"e. c #D17D35",
"r. c #983E59",
"t. c #A93648",
"y. c #90415D",
"u. c #8F664D",
"i. c #BC9B04",
"p. c #9E8237",
"a. c #A18538",
"s. c #A68939",
"d. c #B89B3D",
"f. c #C19D04",
"g. c #CDAD03",
"h. c #D0B003",
"j. c #D78239",
"k. c #D98439",
"l. c #B38059",
"z. c #AD8979",
"x. c #D99459",
"c. c #E29E64",
"v. c #E6A267",
"b. c #DDC244",
"n. c #F9D84A",
"m. c #FDE34C",
"M. c #FFEB4E",
"N. c #455386",
"B. c #58588E",
"V. c #535B93",
"C. c #A58F8F",
"Z. c #A0A7CA",
"A. c #A3A8C8",
"S. c #ADB2D3",
/* pixels */
"                                                                                                                                ",
"                                                                                                                                ",
"                                                                                                                                ",
"                                                                                                                                ",
"                                                                                                                                ",
"                                                                                                                                ",
"                                                                                                                                ",
"                                                                                                                                ",
"                                                                                                                                ",
"                                                                                                                                ",
"                                                                                                                                ",
"                                                                                                                                ",
"                                                        c.c.                                                                    ",
"                                                      6.x.v.                                                                    ",
"                                                    z.6.7.l.S.                                                                  ",
"                                                  Z.C.=.$.u.A.                                                                  ",
"                                                K P I &.%.A L                                                                   ",
"                                              < m m f q q s T                                                                   ",
"                                            ; u &.%.e > ; D V.                                                                  ",
"                                            = f e.*.C G G P V.                                                                  ",
"                                              V k.*.C K H P V.y.                                                                ",
"                                                j.<.C K H Y B.t.                                                                ",
"                                                k.U J K N.E ' |                                                                 ",
"                                                1.F S S R r.{ }                                                                 ",
"                                                - : : : / { X.+.+.+.                                                            ",
"                                              ( / ^ ' ' o.O.X.} +.+.                                                            ",
"                                              { } X.@...] ` _ { +.o.                                                            ",
"                                              { X.+.@.~ l d Q { +.X.{                                                           ",
"                                              O.0.9.! x z Z k g [ X.o.                                                          ",
"                                              Q 8.f.O O % x d i ( X.+.                                                          ",
"                                              -.v v -.4 O 7 7 0 ( X.+.                                                          ",
"                                              h.c 5 g.b + . $ 9 ( X.+.{                                                         ",
"                                              8 ;.i.q u 6 O $ 9 (  .+.{ {                                                       ",
"                                              p.,.:.:.n t O $ 9 ( X.+.{ {                                                       ",
"                                              m.4.w g.>., O 1 e ( X.+.{ {                                                       ",
"                                              a d.b.a y t O 9 #.[ X.+.{ {                                                       ",
"                                              5.s.a.y t t O 9 %.[ X.+.{ {                                                       ",
"                                              M.3., t t t O 9 %.[ X.+.o. .{                                                     ",
"                                              M.3., t t p 7.2.#.[ X.+.@.X.{                                                     ",
"                                              m.d.3.4.4.5.j.q.2.W ^ @.+.X.{                                                     ",
"                                              m.m.m.m.m.n.k.j.w.# r @.+.X.{                                                     ",
"                                              N M M M M M j h a O r @.+.X.{                                                     ",
"                                              t t t t t t t t t o 2 { o.X.{                                                     ",
"                                              t t t t t t t t t o 2 { o.X.{                                                     ",
"                                                % O O * t t t t @ 3 } +.X.{                                                     ",
"                                                O O . & t t t i ) } +.+.X.{                                                     ",
"                                                O O O & t t t i ( X.+.+.                                                        ",
"                                                O O O & t t t   [  .+.                                                          ",
"                                                O O X & t t     {  .@.                                                          ",
"                                                O O O & t t       } X.                                                          ",
"                                                O O O & u t         {                                                           ",
"                                                O O O % 6 t                                                                     ",
"                                                O O O O O t                                                                     ",
"                                                O O O O O t                                                                     ",
"                                                O O O O O t                                                                     ",
"                                                O O O O O t                                                                     ",
"                                                    O O O                                                                       ",
"                                                    O O O                                                                       ",
"                                                    O O O                                                                       ",
"                                                    O O O                                                                       ",
"                                                    O O O                                                                       ",
"                                                    O O O                                                                       ",
"                                                                                                                                ",
"                                                                                                                                "
};
