/* XPM */
static char *result[] = {
/* columns rows colors chars-per-pixel */
"64 64 173 2 ",
"   c #250506",
".  c #250607",
"X  c #260607",
"o  c #230708",
"O  c #260708",
"+  c #280708",
"@  c #240909",
"#  c #290809",
"$  c #2A0809",
"%  c #2B090A",
"&  c #2A0A0A",
"*  c #3D0C0D",
"=  c #361212",
"-  c #3B1514",
";  c #3E1716",
":  c #3E1817",
">  c #3C1A24",
",  c #1B2235",
"<  c #460D0F",
"1  c #431B19",
"2  c #431B1A",
"3  c #481F1D",
"4  c #641416",
"5  c #7B191B",
"6  c #42231F",
"7  c #49201E",
"8  c #5E391E",
"9  c #673911",
"0  c #653813",
"q  c #653913",
"w  c #703F15",
"e  c #452722",
"r  c #592623",
"t  c #542825",
"y  c #562926",
"u  c #532F2A",
"i  c #492A3E",
"p  c #772524",
"a  c #63342F",
"s  c #6A3732",
"d  c #6B3A34",
"f  c #6E3A35",
"g  c #6E3B35",
"h  c #6F3B36",
"j  c #723E38",
"k  c #743F39",
"l  c #753F39",
"z  c #764216",
"x  c #794416",
"c  c #75441D",
"v  c #644536",
"b  c #75403A",
"n  c #76403A",
"m  c #77413B",
"M  c #28314C",
"N  c #353C5C",
"B  c #353C5E",
"V  c #353D5F",
"C  c #363D5F",
"Z  c #3A3C5D",
"A  c #353F62",
"S  c #353F66",
"D  c #463B44",
"F  c #553853",
"G  c #553854",
"H  c #573955",
"J  c #5D3852",
"K  c #384063",
"L  c #384268",
"P  c #3C466E",
"I  c #3F4773",
"U  c #564549",
"Y  c #564B5A",
"T  c #454D7A",
"R  c #5F5D7B",
"E  c #901D20",
"W  c #911E20",
"Q  c #941D20",
"!  c #982023",
"~  c #9B2728",
"^  c #9C2829",
"/  c #9E2A2B",
"(  c #B3292C",
")  c #B4292C",
"_  c #AD2D36",
"`  c #BF2A30",
"'  c #C2272B",
"]  c #C8262C",
"[  c #C5282C",
"{  c #C7292D",
"}  c #C7292E",
"|  c #C8282C",
" . c #C9282C",
".. c #C9292D",
"X. c #CA282C",
"o. c #C92A2E",
"O. c #CA2A2E",
"+. c #CA2B2F",
"@. c #CB2B2F",
"#. c #CD2A2E",
"$. c #CB2E2E",
"%. c #CB2C30",
"&. c #CC2C30",
"*. c #CC2D31",
"=. c #CD2D31",
"-. c #CE2C30",
";. c #CF2C30",
":. c #CD2E32",
">. c #CE2E32",
",. c #CE2F33",
"<. c #CF2F33",
"1. c #D32D31",
"2. c #D42F33",
"3. c #CF3034",
"4. c #CF3236",
"5. c #D03135",
"6. c #D13236",
"7. c #D13337",
"8. c #D23337",
"9. c #D43337",
"0. c #D23438",
"q. c #D33438",
"w. c #D33539",
"e. c #D43438",
"r. c #D43539",
"t. c #D4363A",
"y. c #D5363A",
"u. c #D5373B",
"i. c #D6363C",
"p. c #D6383C",
"a. c #D7383C",
"s. c #D7383D",
"d. c #D7393D",
"f. c #D83A3E",
"g. c #8E501B",
"h. c #AB5F1F",
"j. c #AC5F1D",
"k. c #A95F20",
"l. c #BE592B",
"z. c #AB6020",
"x. c #AC6020",
"c. c #AE6221",
"v. c #AC6122",
"b. c #B76D2E",
"n. c #AC6A35",
"m. c #B36E34",
"M. c #B97031",
"N. c #D5443A",
"B. c #D15833",
"V. c #D7513B",
"C. c #E97035",
"Z. c #903140",
"A. c #BB7D47",
"S. c #DA8639",
"D. c #BE824E",
"F. c #AC8B7C",
"G. c #C98244",
"H. c #DE995E",
"J. c #E19E64",
"K. c #E7A369",
"L. c #464E80",
"P. c #50588A",
"I. c #515A90",
"U. c #676D9D",
"Y. c #7178A3",
"T. c #7078A9",
"R. c #8D94BB",
"E. c #9197BD",
"W. c #ACACC5",
"Q. c #AAAFCF",
"!. c #ACB1D0",
"~. c #ACB3D5",
"^. c None",
/* pixels */
"^.^.^.^.^.^.^.^.^.^.^.^.^.^.^.^.^.^.^.^.^.^.^.^.^.^.^.^.^.^.^.^.^.^.^.^.^.^.^.^.^.^.^.^.^.^.^.^.^.^.^.^.^.^.^.^.^.^.^.^.^.^.^.^.",
"^.^.^.^.^.^.^.^.^.^.^.^.^.^.^.^.^.^.^.^.^.^.^.^.^.^.^.^.^.^.^.^.^.^.^.^.^.^.^.^.^.^.^.^.^.^.^.^.^.^.^.^.^.^.^.^.^.^.^.^.^.^.^.^.",
"^.^.^.^.^.^.^.^.^.^.^.^.^.^.^.^.^.^.^.^.^.^.^.^.^.^.^.^.^.^.^.^.^.^.^.^.^.^.^.^.^.^.^.^.^.^.^.^.^.^.^.^.^.^.^.^.^.^.^.^.^.^.^.^.",
"^.^.^.^.^.^.^.^.^.^.^.^.^.^.^.^.^.^.^.^.^.^.^.^.^.^.^.^.^.^.^.^.^.^.^.^.^.^.^.^.^.^.^.^.^.^.^.^.^.^.^.^.^.^.^.^.^.^.^.^.^.^.^.^.",
"^.^.^.^.^.^.^.^.^.^.^.^.^.^.^.^.^.^.^.^.^.^.^.^.^.^.^.^.^.^.^.^.^.^.^.^.^.^.^.^.^.^.^.^.^.^.^.^.^.^.^.^.^.^.^.^.^.^.^.^.^.^.^.^.",
"^.^.^.^.^.^.^.^.^.^.^.^.^.^.^.^.^.^.^.^.^.^.^.^.^.^.^.^.^.^.^.^.^.^.^.^.^.^.^.^.^.^.^.^.^.^.^.^.^.^.^.^.^.^.^.^.^.^.^.^.^.^.^.^.",
"^.^.^.^.^.^.^.^.^.^.^.^.^.^.^.^.^.^.^.^.^.^.^.^.^.^.^.^.^.^.^.^.^.^.^.^.^.^.^.^.^.^.^.^.^.^.^.^.^.^.^.^.^.^.^.^.^.^.^.^.^.^.^.^.",
"^.^.^.^.^.^.^.^.^.^.^.^.^.^.^.^.^.^.^.^.^.^.^.^.^.^.^.^.^.^.^.^.^.^.^.^.^.^.^.^.^.^.^.^.^.^.^.^.^.^.^.^.^.^.^.^.^.^.^.^.^.^.^.^.",
"^.^.^.^.^.^.^.^.^.^.^.^.^.^.^.^.^.^.^.^.^.^.^.^.^.^.^.^.^.^.^.^.^.^.^.^.^.^.^.^.^.^.^.^.^.^.^.^.^.^.^.^.^.^.^.^.^.^.^.^.^.^.^.^.",
"^.^.^.^.^.^.^.^.^.^.^.^.^.^.^.^.^.^.^.^.^.^.^.^.^.^.^.^.^.^.^.^.^.^.^.^.^.^.^.^.^.^.^.^.^.^.^.^.^.^.^.^.^.^.^.^.^.^.^.^.^.^.^.^.",
"^.^.^.^.^.^.^.^.^.^.^.^.^.^.^.^.^.^.^.^.^.^.^.^.^.^.^.^.^.^.^.^.^.^.^.^.^.^.^.^.^.^.^.^.^.^.^.^.^.^.^.^.^.^.^.^.^.^.^.^.^.^.^.^.",
"^.^.^.^.^.^.^.^.^.^.^.^.^.^.^.^.^.^.^.^.^.^.^.^.^.^.J.^.^.^.^.^.^.^.^.J.J.^.^.^.^.^.^.^.^.^.^.^.^.^.^.^.^.^.^.^.^.^.^.^.^.^.^.^.",
"^.^.^.^.^.^.^.^.^.^.^.^.^.^.^.^.^.^.^.^.^.^.^.^.^.H.M.^.^.^.^.^.^.^.^.b.G.K.^.^.^.^.^.^.^.^.^.^.^.^.^.^.^.^.^.^.^.^.^.^.^.^.^.^.",
"^.^.^.^.^.^.^.^.^.^.^.^.^.^.^.^.^.^.^.^.^.^.^.^.D.A.v.z.^.^.^.^.^.^.^.h.m.D.^.^.^.^.^.^.^.^.^.^.^.^.^.^.^.^.^.^.^.^.^.^.^.^.^.^.",
"^.^.^.^.^.^.^.^.^.^.^.^.^.^.^.^.^.^.^.^.^.^.^.^.q w k.x.n.W.!.!.~.F.j.c.g.0 ^.^.^.^.^.^.^.^.^.^.^.^.^.^.^.^.^.^.^.^.^.^.^.^.^.^.",
"^.^.^.^.^.^.^.^.^.^.^.^.^.^.^.^.^.^.^.^.^.^.^.^.^.^.x v Y U.R.Q.T.R U c z ^.^.^.^.^.^.^.^.^.^.^.^.^.^.^.^.^.^.^.^.^.^.^.^.^.^.^.",
"^.^.^.^.^.^.^.^.^.^.^.^.^.^.^.^.^.^.^.^.^.^.^.^.^.^.9 D S L.Y.E.P.I N 8 ^.^.^.^.^.^.^.^.^.^.^.^.^.^.^.^.^.^.^.^.^.^.^.^.^.^.^.^.",
"^.^.^.^.^.^.^.^.^.^.^.^.^.^.^.^.^.^.^.^.^.^.^.^.^.^.^.V V B T I.K C C ^.^.^.^.^.^.^.^.^.^.^.^.^.^.^.^.^.^.^.^.^.^.^.^.^.^.^.^.^.",
"^.^.^.^.^.^.^.^.^.^.^.^.^.^.^.^.^.^.^.^.^.^.^.......X._ Z.Z L P A M , ^.^.^.^.^.^.^.^.^.^.^.^.^.^.^.^.^.^.^.^.^.^.^.^.^.^.^.^.^.",
"^.^.^.^.^.^.^.^.^.^.^.^.^.^.^.^.^.^.^.^.^.^.^.&.O...&.#.` J G F H i > ^.^.^.^.^.^.^.^.^.^.^.^.^.^.^.^.^.^.^.^.^.^.^.^.^.^.^.^.^.",
"^.^.^.^.^.^.^.^.^.^.^.^.^.^.^.^.^.^.^.^.^. .%.d.,.+.d.3.| { { { } { { ....^.^.^.^.^.^.^.^.^.^.^.^.^.^.^.^.^.^.^.^.^.^.^.^.^.^.^.",
"^.^.^.^.^.^.^.^.^.^.^.^.^.^.^.^.^.^.^.^...5.8.>.6.8.>.5.0.0.0.8...:.8.O.....^.^.^.^.^.^.^.^.^.^.^.^.^.^.^.^.^.^.^.^.^.^.^.^.^.^.",
"^.^.^.^.^.^.^.^.^.^.^.^.^.^.^.^.^.^.^.^...6.w.%.6.r.%.6.u.d.p.t.&.5.y.=.+...^.^.^.^.^.^.^.^.^.^.^.^.^.^.^.^.^.^.^.^.^.^.^.^.^.^.",
"^.^.^.^.^.^.^.^.^.^.^.^.^.^.^.^.^.^.^.^.....&.d.,.@.d.3.O.a.5.O.p.5.O.p.6.| ....^.^.^.^.^.^.^.^.^.^.^.^.^.^.^.^.^.^.^.^.^.^.^.^.",
"^.^.^.^.^.^.^.^.^.^.^.^.^.^.^.^.^.^.^.^...3.6.,.5.6.,.5.0.d.t.8.d.t.6.<.5.7.O.....^.^.^.^.^.^.^.^.^.^.^.^.^.^.^.^.^.^.^.^.^.^.^.",
"^.^.^.^.^.^.^.^.^.^.^.^.^.^.^.^.^.^.^.^...6.r.@.6.t.@.8.f.d.d.d.d.d.d.&.3.u.=.O...^.^.^.^.^.^.^.^.^.^.^.^.^.^.^.^.^.^.^.^.^.^.^.",
"^.^.^.^.^.^.^.^.^.^.^.^.^.^.^.^.^.^.^.^.....&.d.,.@.p.d.d.d.d.d.d.d.d.d.6.o.u.7.| ....^.^.^.^.^.^.^.^.^.^.^.^.^.^.^.^.^.^.^.^.^.",
"^.^.^.^.^.^.^.^.^.^.^.^.^.^.^.^.^.^.^.^...,.6.3.5.8.d.d.d.d.d.d.d.d.d.d.t.6.3.5.6.+...^.^.^.^.^.^.^.^.^.^.^.^.^.^.^.^.^.^.^.^.^.",
"^.^.^.^.^.^.^.^.^.^.^.^.^.^.^.^.^.^.^.^...q.u.O.0.f.d.d.d.d.d.d.d.d.d.d.d.d.&.<.p.=.+.^.^.^.^.^.^.^.^.^.^.^.^.^.^.^.^.^.^.^.^.^.",
"^.^.^.^.^.^.^.^.^.^.^.^.^.^.^.^.^.^.^.^.] 8.d.p.d.d.d.d.d.d.d.d.d.d.d.d.d.d.d.6.O.t.d.^.^.^.^.^.^.^.^.^.^.^.^.^.^.^.^.^.^.^.^.^.",
"^.^.^.^.^.^.^.^.^.^.^.^.^.^.^.^.^.^.^.^.B.N.s.d.d.d.d.d.d.d.d.d.d.d.d.d.d.d.d.t.5.5.5.^.^.^.^.^.^.^.^.^.^.^.^.^.^.^.^.^.^.^.^.^.",
"^.^.^.^.^.^.^.^.^.^.^.^.^.^.^.^.^.^.^.^.S.V.i.d.d.d.d.d.d.d.d.d.d.d.d.d.d.d.d.d.d.@.| ^.^.^.^.^.^.^.^.^.^.^.^.^.^.^.^.^.^.^.^.^.",
"^.^.^.^.^.^.^.^.^.^.^.^.^.^.^.^.^.^.^.^.^.$.*.d.d.d.d.d.d.d.d.d.d.d.d.d.d.d.d.d.d.%...^.^.^.^.^.^.^.^.^.^.^.^.^.^.^.^.^.^.^.^.^.",
"^.^.^.^.^.^.^.^.^.^.^.^.^.^.^.^.^.^.^.^.^.^.:.d.d.d.d.d.d.d.d.d.d.d.d.d.d.d.d.d.d.%...^.^.^.^.^.^.^.^.^.^.^.^.^.^.^.^.^.^.^.^.^.",
"^.^.^.^.^.^.^.^.^.^.^.^.^.^.^.^.^.^.^.^.^.^.^.p.d.d.d.d.d.d.d.d.d.d.d.d.d.d.d.d.p.%...^.^.^.^.^.^.^.^.^.^.^.^.^.^.^.^.^.^.^.^.^.",
"^.^.^.^.^.^.^.^.^.^.^.^.^.^.^.^.^.^.^.^.^.^.^.+.8.d.d.d.d.d.d.d.d.d.d.d.d.d.d.8.+.^.^.^.^.^.^.^.^.^.^.^.^.^.^.^.^.^.^.^.^.^.^.^.",
"^.^.^.^.^.^.^.^.^.^.^.^.^.^.^.^.^.^.^.^.^.^.^...8.d.d.d.d.d.d.d.d.d.d.d.d.d.d.8...^.^.^.^.^.^.^.^.^.^.^.^.^.^.^.^.^.^.^.^.^.^.^.",
"^.^.^.^.^.^.^.^.^.^.^.^.^.^.^.^.^.^.^.^.^.^.^...7.d.d.d.d.d.d.d.d.d.d.d.d.d.d.4.' ^.^.^.^.^.^.^.^.^.^.^.^.^.^.^.^.^.^.^.^.^.^.^.",
"^.^.^.^.^.^.^.^.^.^.^.^.^.^.^.^.^.^.^.^.^.^.^.^.@.=.d.d.d.d.d.d.d.d.d.d.d.d.2.! * ^.^.^.^.^.^.^.^.^.^.^.^.^.^.^.^.^.^.^.^.^.^.^.",
"^.^.^.^.^.^.^.^.^.^.^.^.^.^.^.^.^.^.^.^.^.^.^.^.^.@.6.y.d.d.d.d.d.d.d.d.y.4.! 4 O # ^.^.^.^.^.^.^.^.^.^.^.^.^.^.^.^.^.^.^.^.^.^.",
"^.^.^.^.^.^.^.^.^.^.^.^.^.^.^.^.^.^.^.^.^.^.^.^.^.^.[ 4.d.d.d.d.d.d.d.d.6.' * O # # # ^.^.^.^.^.^.^.^.^.^.^.^.^.^.^.^.^.^.^.^.^.",
"^.^.^.^.^.^.^.^.^.^.^.^.^.^.^.^.^.^.^.^.^.^.^.^.^.^.r / 1.;.9.f.f.9.;.;.-.^.^.^.^.# # # ^.^.^.^.^.^.^.^.^.^.^.^.^.^.^.^.^.^.^.^.",
"^.^.^.^.^.^.^.^.^.^.^.^.^.^.^.^.^.^.^.^.^.^.^.^.^.^.u p Q E ) e.e.( W ~ ^ ^.^.^.^.# # $ ^.^.^.^.^.^.^.^.^.^.^.^.^.^.^.^.^.^.^.^.",
"^.^.^.^.^.^.^.^.^.^.^.^.^.^.^.^.^.^.^.^.^.^.^.^.^.^.m 7 . o 5 #.#.5 @ 6 e ^.^.^.^.^.^.% l.C.^.^.^.^.^.^.^.^.^.^.^.^.^.^.^.^.^.^.",
"^.^.^.^.^.^.^.^.^.^.^.^.^.^.^.^.^.^.^.^.^.^.^.^.^.^.n 3   ^.^.^.^.< & a d ^.^.^.^.^.^.^.^.^.^.^.^.^.^.^.^.^.^.^.^.^.^.^.^.^.^.^.",
"^.^.^.^.^.^.^.^.^.^.^.^.^.^.^.^.^.^.^.^.^.^.^.^.^.^.b y ; ^.^.^.^.^.1 h b ^.^.^.^.^.^.^.^.^.^.^.^.^.^.^.^.^.^.^.^.^.^.^.^.^.^.^.",
"^.^.^.^.^.^.^.^.^.^.^.^.^.^.^.^.^.^.^.^.^.^.^.^.^.^.k k k ^.^.^.^.^.k k k ^.^.^.^.^.^.^.^.^.^.^.^.^.^.^.^.^.^.^.^.^.^.^.^.^.^.^.",
"^.^.^.^.^.^.^.^.^.^.^.^.^.^.^.^.^.^.^.^.^.^.^.^.^.^.b t - ^.^.^.^.^.: f l ^.^.^.^.^.^.^.^.^.^.^.^.^.^.^.^.^.^.^.^.^.^.^.^.^.^.^.",
"^.^.^.^.^.^.^.^.^.^.^.^.^.^.^.^.^.^.^.^.^.^.^.^.^.^.m 2 X ^.^.^.^.^.: f l ^.^.^.^.^.^.^.^.^.^.^.^.^.^.^.^.^.^.^.^.^.^.^.^.^.^.^.",
"^.^.^.^.^.^.^.^.^.^.^.^.^.^.^.^.^.^.^.^.^.^.^.^.^.^.^.# # ^.^.^.^.^.k k k ^.^.^.^.^.^.^.^.^.^.^.^.^.^.^.^.^.^.^.^.^.^.^.^.^.^.^.",
"^.^.^.^.^.^.^.^.^.^.^.^.^.^.^.^.^.^.^.^.^.^.^.^.^.^.^.# # ^.^.^.^.^.1 g l ^.^.^.^.^.^.^.^.^.^.^.^.^.^.^.^.^.^.^.^.^.^.^.^.^.^.^.",
"^.^.^.^.^.^.^.^.^.^.^.^.^.^.^.^.^.^.^.^.^.^.^.^.^.^.^.# # ^.^.^.^.^.% s ^.^.^.^.^.^.^.^.^.^.^.^.^.^.^.^.^.^.^.^.^.^.^.^.^.^.^.^.",
"^.^.^.^.^.^.^.^.^.^.^.^.^.^.^.^.^.^.^.^.^.^.^.^.^.^.^.# # ^.^.^.^.^.# ^.^.^.^.^.^.^.^.^.^.^.^.^.^.^.^.^.^.^.^.^.^.^.^.^.^.^.^.^.",
"^.^.^.^.^.^.^.^.^.^.^.^.^.^.^.^.^.^.^.^.^.^.^.^.^.^.^.# # ^.^.^.^.^.+ ^.^.^.^.^.^.^.^.^.^.^.^.^.^.^.^.^.^.^.^.^.^.^.^.^.^.^.^.^.",
"^.^.^.^.^.^.^.^.^.^.^.^.^.^.^.^.^.^.^.^.^.^.^.^.^.^.^.^.# ^.^.^.^.^.= ^.^.^.^.^.^.^.^.^.^.^.^.^.^.^.^.^.^.^.^.^.^.^.^.^.^.^.^.^.",
"^.^.^.^.^.^.^.^.^.^.^.^.^.^.^.^.^.^.^.^.^.^.^.^.^.^.^.^.^.^.^.^.^.^.j ^.^.^.^.^.^.^.^.^.^.^.^.^.^.^.^.^.^.^.^.^.^.^.^.^.^.^.^.^.",
"^.^.^.^.^.^.^.^.^.^.^.^.^.^.^.^.^.^.^.^.^.^.^.^.^.^.^.^.^.^.^.^.^.^.k ^.^.^.^.^.^.^.^.^.^.^.^.^.^.^.^.^.^.^.^.^.^.^.^.^.^.^.^.^.",
"^.^.^.^.^.^.^.^.^.^.^.^.^.^.^.^.^.^.^.^.^.^.^.^.^.^.^.^.^.^.^.^.^.^.k ^.^.^.^.^.^.^.^.^.^.^.^.^.^.^.^.^.^.^.^.^.^.^.^.^.^.^.^.^.",
"^.^.^.^.^.^.^.^.^.^.^.^.^.^.^.^.^.^.^.^.^.^.^.^.^.^.^.^.^.^.^.^.^.^.k ^.^.^.^.^.^.^.^.^.^.^.^.^.^.^.^.^.^.^.^.^.^.^.^.^.^.^.^.^.",
"^.^.^.^.^.^.^.^.^.^.^.^.^.^.^.^.^.^.^.^.^.^.^.^.^.^.^.^.^.^.^.^.^.^.k ^.^.^.^.^.^.^.^.^.^.^.^.^.^.^.^.^.^.^.^.^.^.^.^.^.^.^.^.^.",
"^.^.^.^.^.^.^.^.^.^.^.^.^.^.^.^.^.^.^.^.^.^.^.^.^.^.^.^.^.^.^.^.^.^.k ^.^.^.^.^.^.^.^.^.^.^.^.^.^.^.^.^.^.^.^.^.^.^.^.^.^.^.^.^.",
"^.^.^.^.^.^.^.^.^.^.^.^.^.^.^.^.^.^.^.^.^.^.^.^.^.^.^.^.^.^.^.^.^.^.k ^.^.^.^.^.^.^.^.^.^.^.^.^.^.^.^.^.^.^.^.^.^.^.^.^.^.^.^.^.",
"^.^.^.^.^.^.^.^.^.^.^.^.^.^.^.^.^.^.^.^.^.^.^.^.^.^.^.^.^.^.^.^.^.^.^.^.^.^.^.^.^.^.^.^.^.^.^.^.^.^.^.^.^.^.^.^.^.^.^.^.^.^.^.^.",
"^.^.^.^.^.^.^.^.^.^.^.^.^.^.^.^.^.^.^.^.^.^.^.^.^.^.^.^.^.^.^.^.^.^.^.^.^.^.^.^.^.^.^.^.^.^.^.^.^.^.^.^.^.^.^.^.^.^.^.^.^.^.^.^."
};
