/* XPM */
static char *result[] = {
/* columns rows colors chars-per-pixel */
"64 64 206 2 ",
"   c #280807",
".  c #240708",
"X  c #280808",
"o  c #290808",
"O  c #290908",
"+  c #290809",
"@  c #280909",
"#  c #290909",
"$  c #2A0809",
"%  c #2B0809",
"&  c #2A0909",
"*  c #2B0909",
"=  c #2B090A",
"-  c #2B0A0A",
";  c #2F0909",
":  c #2F0A0A",
">  c #330A0A",
",  c #3C0C0D",
"<  c #361211",
"1  c #381716",
"2  c #3E1716",
"3  c #381816",
"4  c #3E1816",
"5  c #3B1A18",
"6  c #4D1011",
"7  c #431B18",
"8  c #421B19",
"9  c #5C1314",
"0  c #76181A",
"q  c #613612",
"w  c #623712",
"e  c #6D3D13",
"r  c #6D3D14",
"t  c #6C3D15",
"y  c #683E1D",
"u  c #5D3A23",
"i  c #533F3B",
"p  c #643530",
"a  c #6A3732",
"s  c #6D3B35",
"d  c #6E3A34",
"f  c #6E3A35",
"g  c #6F3A35",
"h  c #703B35",
"j  c #723D38",
"k  c #743E38",
"l  c #743F38",
"z  c #753F38",
"x  c #743E39",
"c  c #743F39",
"v  c #753F39",
"b  c #763F39",
"n  c #764039",
"m  c #373C5C",
"M  c #3D3A59",
"N  c #3E3B5B",
"B  c #3F3B5B",
"V  c #3F3C5C",
"C  c #373E63",
"Z  c #433C4A",
"A  c #423F54",
"S  c #403C5C",
"D  c #403D5E",
"F  c #3E456D",
"G  c #424462",
"H  c #424A76",
"J  c #4B4974",
"K  c #4E527B",
"L  c #4A527F",
"P  c #811A1C",
"I  c #811B1D",
"U  c #8E1D1F",
"Y  c #AB2326",
"T  c #B02326",
"R  c #B12326",
"E  c #B12427",
"W  c #B22427",
"Q  c #BB2629",
"!  c #BD2629",
"~  c #B92B31",
"^  c #B82A32",
"/  c #B82B32",
"(  c #B92B33",
")  c #B92C35",
"_  c #BB2E37",
"`  c #C3272B",
"'  c #C4272B",
"]  c #C8272C",
"[  c #C7292D",
"{  c #C8282C",
"}  c #C9282C",
"|  c #C8292C",
" . c #C9292C",
".. c #C8282D",
"X. c #C9282D",
"o. c #C8292D",
"O. c #C9292D",
"+. c #CA292D",
"@. c #C92A2D",
"#. c #CA2A2D",
"$. c #CA2A2E",
"%. c #CB2A2E",
"&. c #CA2B2E",
"*. c #CA2A2F",
"=. c #CA2B2F",
"-. c #CB2B2F",
";. c #CD2A2E",
":. c #CF2A2E",
">. c #CB2C2F",
",. c #C42D31",
"<. c #CB2B30",
"1. c #CB2C30",
"2. c #CC2C30",
"3. c #CD2C30",
"4. c #CC2D30",
"5. c #CC2D31",
"6. c #CD2D31",
"7. c #CE2D32",
"8. c #CD2E32",
"9. c #CD2F32",
"0. c #CE2E32",
"q. c #CE2E33",
"w. c #CF2E33",
"e. c #CE2F33",
"r. c #CF2F33",
"t. c #D02F33",
"y. c #CF3033",
"u. c #CF3034",
"i. c #CF3134",
"p. c #CF3135",
"a. c #D03034",
"s. c #D03134",
"d. c #D03135",
"f. c #D03235",
"g. c #D03236",
"h. c #D13236",
"j. c #D13237",
"k. c #D13337",
"l. c #D23337",
"z. c #D23438",
"x. c #D33438",
"c. c #D33439",
"v. c #D33539",
"b. c #D33639",
"n. c #D43539",
"m. c #D4353A",
"M. c #D4363A",
"N. c #D5363A",
"B. c #D4373A",
"V. c #D5373A",
"C. c #D5373B",
"Z. c #D6363B",
"A. c #D6383B",
"S. c #D6383C",
"D. c #D7383C",
"F. c #D6393C",
"G. c #D7393C",
"H. c #D6383D",
"J. c #D7383D",
"K. c #D6393D",
"L. c #D7393D",
"P. c #D7393E",
"I. c #8B4E1A",
"U. c #A45C1F",
"Y. c #AD5F1C",
"T. c #A84E26",
"R. c #A35C21",
"E. c #A55D22",
"W. c #A85F21",
"Q. c #BD5A2B",
"!. c #AD6020",
"~. c #AC6122",
"^. c #AE6222",
"/. c #A8652C",
"(. c #B26727",
"). c #A36937",
"_. c #AD6A35",
"`. c #A36639",
"'. c #A16A3B",
"]. c #A16A3C",
"[. c #E87136",
"{. c #C77E40",
"}. c #A4857D",
"|. c #AD8B7D",
" X c #DD985D",
".X c #DD995D",
"XX c #DE995D",
"oX c #E39F65",
"OX c #E7A268",
"+X c #E7A369",
"@X c #565488",
"#X c #575F93",
"$X c #646C98",
"%X c #626AA0",
"&X c #7E84B0",
"*X c #878DB7",
"=X c #A5A5C1",
"-X c #ADADC7",
";X c #A9ADCE",
":X c #AAAFCF",
">X c #A6ACD0",
",X c #ACB0D0",
"<X c #ACB1D0",
"1X c #ADB1D0",
"2X c #ADB3D5",
"3X c None",
/* pixels */
"3X3X3X3X3X3X3X3X3X3X3X3X3X3X3X3X3X3X3X3X3X3X3X3X3X3X3X3X3X3X3X3X3X3X3X3X3X3X3X3X3X3X3X3X3X3X3X3X3X3X3X3X3X3X3X3X3X3X3X3X3X3X3X3X",
"3X3X3X3X3X3X3X3X3X3X3X3X3X3X3X3X3X3X3X3X3X3X3X3X3X3X3X3X3X3X3X3X3X3X3X3X3X3X3X3X3X3X3X3X3X3X3X3X3X3X3X3X3X3X3X3X3X3X3X3X3X3X3X3X",
"3X3X3X3X3X3X3X3X3X3X3X3X3X3X3X3X3X3X3X3X3X3X3X3X3X3X3X3X3X3X3X3X3X3X3X3X3X3X3X3X3X3X3X3X3X3X3X3X3X3X3X3X3X3X3X3X3X3X3X3X3X3X3X3X",
"3X3X3X3X3X3X3X3X3X3X3X3X3X3X3X3X3X3X3X3X3X3X3X3X3X3X3X3X3X3X3X3X3X3X3X3X3X3X3X3X3X3X3X3X3X3X3X3X3X3X3X3X3X3X3X3X3X3X3X3X3X3X3X3X",
"3X3X3X3X3X3X3X3X3X3X3X3X3X3X3X3X3X3X3X3X3X3X3X3X3X3X3X3X3X3X3X3X3X3X3X3X3X3X3X3X3X3X3X3X3X3X3X3X3X3X3X3X3X3X3X3X3X3X3X3X3X3X3X3X",
"3X3X3X3X3X3X3X3X3X3X3X3X3X3X3X3X3X3X3X3X3X3X3X3X3X3X3X3X3X3X3X3X3X3X3X3X3X3X3X3X3X3X3X3X3X3X3X3X3X3X3X3X3X3X3X3X3X3X3X3X3X3X3X3X",
"3X3X3X3X3X3X3X3X3X3X3X3X3X3X3X3X3X3X3X3X3X3X3X3X3X3X3X3X3X3X3X3X3X3X3X3X3X3X3X3X3X3X3X3X3X3X3X3X3X3X3X3X3X3X3X3X3X3X3X3X3X3X3X3X",
"3X3X3X3X3X3X3X3X3X3X3X3X3X3X3X3X3X3X3X3X3X3X3X3X3X3X3X3X3X3X3X3X3X3X3X3X3X3X3X3X3X3X3X3X3X3X3X3X3X3X3X3X3X3X3X3X3X3X3X3X3X3X3X3X",
"3X3X3X3X3X3X3X3X3X3X3X3X3X3X3X3X3X3X3X3X3X3X3X3X3X3X3X3X3X3X3X3X3X3X3X3X3X3X3X3X3X3X3X3X3X3X3X3X3X3X3X3X3X3X3X3X3X3X3X3X3X3X3X3X",
"3X3X3X3X3X3X3X3X3X3X3X3X3X3X3X3X3X3X3X3X3X3X3X3X3X3X3X3X3X3X3X3X3X3X3X3X3X3X3X3X3X3X3X3X3X3X3X3X3X3X3X3X3X3X3X3X3X3X3X3X3X3X3X3X",
"3X3X3X3X3X3X3X3X3X3X3X3X3X3X3X3X3X3X3X3X3X3X3X3X3X3X3X3X3X3X3X3X3X3X3X3X3X3X3X3X3X3X3X3X3X3X3X3X3X3X3X3X3X3X3X3X3X3X3X3X3X3X3X3X",
"3X3X3X3X3X3X3X3X3X3X3X3X3X3X3X3X3X3X3X3X3X3X3X3X3X3XoX3X3X3X3X3X3X3X3XoX3X3X3X3X3X3X3X3X3X3X3X3X3X3X3X3X3X3X3X3X3X3X3X3X3X3X3X3X",
"3X3X3X3X3X3X3X3X3X3X3X3X3X3X3X3X3X3X3X3X3X3X3X3X3X3X X3X3X3X3X3X3X3X3X X.X3X3X3X3X3X3X3X3X3X3X3X3X3X3X3X3X3X3X3X3X3X3X3X3X3X3X3X",
"3X3X3X3X3X3X3X3X3X3X3X3X3X3X3X3X3X3X3X3X3X3X3X3XOXXX(.3X3X3X3X3X3X3X3X^.{.+X3X3X3X3X3X3X3X3X3X3X3X3X3X3X3X3X3X3X3X3X3X3X3X3X3X3X",
"3X3X3X3X3X3X3X3X3X3X3X3X3X3X3X3X3X3X3X3X3X3X3X3X'.).~.!._.-X<X1X2X|.Y.!./.].3X3X3X3X3X3X3X3X3X3X3X3X3X3X3X3X3X3X3X3X3X3X3X3X3X3X",
"3X3X3X3X3X3X3X3X3X3X3X3X3X3X3X3X3X3X3X3X3X3X3X3Xw r U.E.`.=X;X,X>X}.R.W.I.q 3X3X3X3X3X3X3X3X3X3X3X3X3X3X3X3X3X3X3X3X3X3X3X3X3X3X",
"3X3X3X3X3X3X3X3X3X3X3X3X3X3X3X3X3X3X3X3X3X3X3X3X3X3Xe i G #X*X:X%XK A y t 3X3X3X3X3X3X3X3X3X3X3X3X3X3X3X3X3X3X3X3X3X3X3X3X3X3X3X",
"3X3X3X3X3X3X3X3X3X3X3X3X3X3X3X3X3X3X3X3X3X3X3X3X3X3X3XZ C H $X&XL F m u 3X3X3X3X3X3X3X3X3X3X3X3X3X3X3X3X3X3X3X3X3X3X3X3X3X3X3X3X",
"3X3X3X3X3X3X3X3X3X3X3X3X3X3X3X3X3X3X3X3X3X3X3X3X3X3X3XV B M J @XD N S 3X3X3X3X3X3X3X3X3X3X3X3X3X3X3X3X3X3X3X3X3X3X3X3X3X3X3X3X3X",
"3X3X3X3X3X3X3X3X3X3X3X3X3X3X3X3X3X3X3X3X3X3X3X3X3X3X3X^ / ^ ) _ ( ^ ~ [ 3X3X3X3X3X3X3X3X3X3X3X3X3X3X3X3X3X3X3X3X3X3X3X3X3X3X3X3X",
"3X3X3X3X3X3X3X3X3X3X3X3X3X3X3X3X3X3X3X3X3X3X3X3X3X3X3X} +.t.2.} X.2.r.#.O.3X3X3X3X3X3X3X3X3X3X3X3X3X3X3X3X3X3X3X3X3X3X3X3X3X3X3X",
"3X3X3X3X3X3X3X3X3X3X3X3X3X3X3X3X3X3X3X3X3X3X3X3X3X3X{ O.=.S.d.o.O.s.S.-.O.o.3X3X3X3X3X3X3X3X3X3X3X3X3X3X3X3X3X3X3X3X3X3X3X3X3X3X",
"3X3X3X3X3X3X3X3X3X3X3X3X3X3X3X3X3X3X3X3X3X3X3X3X| } { i.M.-.d.V.V.a.-.N.d.{  .} 3X3X3X3X3X3X3X3X3X3X3X3X3X3X3X3X3X3X3X3X3X3X3X3X",
"3X3X3X3X3X3X3X3X3X3X3X3X3X3X3X3X3X3X3X3X3X3X3X3X .@.9.d.h.0.x.L.L.x.e.h.d.e.O. .3X3X3X3X3X3X3X3X3X3X3X3X3X3X3X3X3X3X3X3X3X3X3X3X",
"3X3X3X3X3X3X3X3X3X3X3X3X3X3X3X3X3X3X3X3X3X3X3XX.O.-.S.y.$.S.J.K.K.L.S.$.e.D.<.X.O.3X3X3X3X3X3X3X3X3X3X3X3X3X3X3X3X3X3X3X3X3X3X3X",
"3X3X3X3X3X3X3X3X3X3X3X3X3X3X3X3X3X3X3X3X3X .o.{ p.v.-.d.B.J.K.D.G.L.L.V.d.-.v.d.{ X. .3X3X3X3X3X3X3X3X3X3X3X3X3X3X3X3X3X3X3X3X3X",
"3X3X3X3X3X3X3X3X3X3X3X3X3X3X3X3X3X3X3X3X3XO.O.8.d.j.8.z.L.L.J.H.S.K.L.L.x.0.j.d.8.O.} 3X3X3X3X3X3X3X3X3X3X3X3X3X3X3X3X3X3X3X3X3X",
"3X3X3X3X3X3X3X3X3X3X3X3X3X3X3X3X3X3X3X3X3X..>.H.e.$.S.L.J.G.F.K.L.D.D.L.L.S.*.q.F.1. .3X3X3X3X3X3X3X3X3X3X3X3X3X3X3X3X3X3X3X3X3X",
"3X3X3X3X3X3X3X3X3X3X3X3X3X3X3X3X3X3X3X3X3Xv.l.<.f.M.S.L.G.G.D.S.S.D.D.D.F.H.M.g.2.x.m.3X3X3X3X3X3X3X3X3X3X3X3X3X3X3X3X3X3X3X3X3X",
"3X3X3X3X3X3X3X3X3X3X3X3X3X3X3X3X3X3X3X3X3Xz.k.5.x.L.S.H.K.K.J.F.L.H.L.G.L.J.L.x.6.l.c.3X3X3X3X3X3X3X3X3X3X3X3X3X3X3X3X3X3X3X3X3X",
"3X3X3X3X3X3X3X3X3X3X3X3X3X3X3X3X3X3X3X3X3X{ -.S.G.L.G.F.L.L.K.L.L.H.J.L.L.D.J.L.S.-.o.3X3X3X3X3X3X3X3X3X3X3X3X3X3X3X3X3X3X3X3X3X",
"3X3X3X3X3X3X3X3X3X3X3X3X3X3X3X3X3X3X3X3X3X} <.S.J.L.G.G.D.G.F.K.L.J.J.L.G.D.L.L.S.-.{ 3X3X3X3X3X3X3X3X3X3X3X3X3X3X3X3X3X3X3X3X3X",
"3X3X3X3X3X3X3X3X3X3X3X3X3X3X3X3X3X3X3X3X3X| >.D.J.D.G.K.L.L.G.J.L.L.L.K.L.G.L.G.S.-.{ 3X3X3X3X3X3X3X3X3X3X3X3X3X3X3X3X3X3X3X3X3X",
"3X3X3X3X3X3X3X3X3X3X3X3X3X3X3X3X3X3X3X3X3X| >.D.L.G.L.K.J.G.G.S.J.L.J.K.L.J.J.J.H.-.| 3X3X3X3X3X3X3X3X3X3X3X3X3X3X3X3X3X3X3X3X3X",
"3X3X3X3X3X3X3X3X3X3X3X3X3X3X3X3X3X3X3X3X3X3X3X6.x.D.H.J.L.H.K.H.L.K.J.L.S.F.L.x.5.3X3X3X3X3X3X3X3X3X3X3X3X3X3X3X3X3X3X3X3X3X3X3X",
"3X3X3X3X3X3X3X3X3X3X3X3X3X3X3X3X3X3X3X3X3X3X3X] h.L.J.G.L.L.L.K.L.K.K.H.F.F.L.k.{ 3X3X3X3X3X3X3X3X3X3X3X3X3X3X3X3X3X3X3X3X3X3X3X",
"3X3X3X3X3X3X3X3X3X3X3X3X3X3X3X3X3X3X3X3X3X3X3X{ h.L.J.L.G.G.G.G.J.L.S.J.F.J.P.k.{ 3X3X3X3X3X3X3X3X3X3X3X3X3X3X3X3X3X3X3X3X3X3X3X",
"3X3X3X3X3X3X3X3X3X3X3X3X3X3X3X3X3X3X3X3X3X3X3X3X4.u.F.K.K.K.H.L.F.K.K.L.L.H.u.2.+.3X3X3X3X3X3X3X3X3X3X3X3X3X3X3X3X3X3X3X3X3X3X3X",
"3X3X3X3X3X3X3X3X3X3X3X3X3X3X3X3X3X3X3X3X3X3X3X3X3X&.b.C.F.L.J.L.G.L.F.L.A.n.%.! Y 3X3X3X3X3X3X3X3X3X3X3X3X3X3X3X3X3X3X3X3X3X3X3X",
"3X3X3X3X3X3X3X3X3X3X3X3X3X3X3X3X3X3X3X3X3X3X3X3X3X3X .h.L.L.J.J.H.L.L.L.g.} :.U $ 3X3X3X3X3X3X3X3X3X3X3X3X3X3X3X3X3X3X3X3X3X3X3X",
"3X3X3X3X3X3X3X3X3X3X3X3X3X3X3X3X3X3X3X3X3X3X3X3X3X3X3X7.t.r.c.L.L.x.w.t.3.' 0 6 X # 3X3X3X3X3X3X3X3X3X3X3X3X3X3X3X3X3X3X3X3X3X3X",
"3X3X3X3X3X3X3X3X3X3X3X3X3X3X3X3X3X3X3X3X3X3X3X3X3X3X3XE W T ,.C.Z.,.R E Q ` , . o + O 3X3X3X3X3X3X3X3X3X3X3X3X3X3X3X3X3X3X3X3X3X",
"3X3X3X3X3X3X3X3X3X3X3X3X3X3X3X3X3X3X3X3X3X3X3X3X3X3X3X: : * I ;.;.P % ; > 3X3X3X3Xo O X 3X3X3X3X3X3X3X3X3X3X3X3X3X3X3X3X3X3X3X3X",
"3X3X3X3X3X3X3X3X3X3X3X3X3X3X3X3X3X3X3X3X3X3X3X3X3X3X3X5 3 @ 9 3X3X9 @ 1 5 3X3X3X3X3XO & T.3X3X3X3X3X3X3X3X3X3X3X3X3X3X3X3X3X3X3X",
"3X3X3X3X3X3X3X3X3X3X3X3X3X3X3X3X3X3X3X3X3X3X3X3X3X3X3Xs p - 3X3X3X3X- p s 3X3X3X3X3X3X* Q.[.3X3X3X3X3X3X3X3X3X3X3X3X3X3X3X3X3X3X",
"3X3X3X3X3X3X3X3X3X3X3X3X3X3X3X3X3X3X3X3X3X3X3X3X3X3X3Xn h 7 3X3X3X3X7 h n 3X3X3X3X3X3X3X3X3X3X3X3X3X3X3X3X3X3X3X3X3X3X3X3X3X3X3X",
"3X3X3X3X3X3X3X3X3X3X3X3X3X3X3X3X3X3X3X3X3X3X3X3X3X3X3Xz c c 3X3X3X3Xv v z 3X3X3X3X3X3X3X3X3X3X3X3X3X3X3X3X3X3X3X3X3X3X3X3X3X3X3X",
"3X3X3X3X3X3X3X3X3X3X3X3X3X3X3X3X3X3X3X3X3X3X3X3X3X3X3Xz d 4 3X3X3X3X4 f z 3X3X3X3X3X3X3X3X3X3X3X3X3X3X3X3X3X3X3X3X3X3X3X3X3X3X3X",
"3X3X3X3X3X3X3X3X3X3X3X3X3X3X3X3X3X3X3X3X3X3X3X3X3X3X3Xv d 2 3X3X3X3X2 f v 3X3X3X3X3X3X3X3X3X3X3X3X3X3X3X3X3X3X3X3X3X3X3X3X3X3X3X",
"3X3X3X3X3X3X3X3X3X3X3X3X3X3X3X3X3X3X3X3X3X3X3X3X3X3X3Xv v v 3X3X3X3Xc l c 3X3X3X3X3X3X3X3X3X3X3X3X3X3X3X3X3X3X3X3X3X3X3X3X3X3X3X",
"3X3X3X3X3X3X3X3X3X3X3X3X3X3X3X3X3X3X3X3X3X3X3X3X3X3X3Xv g 8 3X3X3X3X8 g b 3X3X3X3X3X3X3X3X3X3X3X3X3X3X3X3X3X3X3X3X3X3X3X3X3X3X3X",
"3X3X3X3X3X3X3X3X3X3X3X3X3X3X3X3X3X3X3X3X3X3X3X3X3X3X3X3Xa = 3X3X3X3X* a 3X3X3X3X3X3X3X3X3X3X3X3X3X3X3X3X3X3X3X3X3X3X3X3X3X3X3X3X",
"3X3X3X3X3X3X3X3X3X3X3X3X3X3X3X3X3X3X3X3X3X3X3X3X3X3X3X3X3X+ 3X3X3X3Xo 3X3X3X3X3X3X3X3X3X3X3X3X3X3X3X3X3X3X3X3X3X3X3X3X3X3X3X3X3X",
"3X3X3X3X3X3X3X3X3X3X3X3X3X3X3X3X3X3X3X3X3X3X3X3X3X3X3X3X3X  3X3X3X3XX 3X3X3X3X3X3X3X3X3X3X3X3X3X3X3X3X3X3X3X3X3X3X3X3X3X3X3X3X3X",
"3X3X3X3X3X3X3X3X3X3X3X3X3X3X3X3X3X3X3X3X3X3X3X3X3X3X3X3X3X< 3X3X3X3X< 3X3X3X3X3X3X3X3X3X3X3X3X3X3X3X3X3X3X3X3X3X3X3X3X3X3X3X3X3X",
"3X3X3X3X3X3X3X3X3X3X3X3X3X3X3X3X3X3X3X3X3X3X3X3X3X3X3X3X3Xj 3X3X3X3Xj 3X3X3X3X3X3X3X3X3X3X3X3X3X3X3X3X3X3X3X3X3X3X3X3X3X3X3X3X3X",
"3X3X3X3X3X3X3X3X3X3X3X3X3X3X3X3X3X3X3X3X3X3X3X3X3X3X3X3X3Xc 3X3X3X3Xc 3X3X3X3X3X3X3X3X3X3X3X3X3X3X3X3X3X3X3X3X3X3X3X3X3X3X3X3X3X",
"3X3X3X3X3X3X3X3X3X3X3X3X3X3X3X3X3X3X3X3X3X3X3X3X3X3X3X3X3Xx 3X3X3X3Xc 3X3X3X3X3X3X3X3X3X3X3X3X3X3X3X3X3X3X3X3X3X3X3X3X3X3X3X3X3X",
"3X3X3X3X3X3X3X3X3X3X3X3X3X3X3X3X3X3X3X3X3X3X3X3X3X3X3X3X3Xx 3X3X3X3Xc 3X3X3X3X3X3X3X3X3X3X3X3X3X3X3X3X3X3X3X3X3X3X3X3X3X3X3X3X3X",
"3X3X3X3X3X3X3X3X3X3X3X3X3X3X3X3X3X3X3X3X3X3X3X3X3X3X3X3X3Xc 3X3X3X3Xk 3X3X3X3X3X3X3X3X3X3X3X3X3X3X3X3X3X3X3X3X3X3X3X3X3X3X3X3X3X",
"3X3X3X3X3X3X3X3X3X3X3X3X3X3X3X3X3X3X3X3X3X3X3X3X3X3X3X3X3Xc 3X3X3X3Xx 3X3X3X3X3X3X3X3X3X3X3X3X3X3X3X3X3X3X3X3X3X3X3X3X3X3X3X3X3X",
"3X3X3X3X3X3X3X3X3X3X3X3X3X3X3X3X3X3X3X3X3X3X3X3X3X3X3X3X3Xc 3X3X3X3Xc 3X3X3X3X3X3X3X3X3X3X3X3X3X3X3X3X3X3X3X3X3X3X3X3X3X3X3X3X3X",
"3X3X3X3X3X3X3X3X3X3X3X3X3X3X3X3X3X3X3X3X3X3X3X3X3X3X3X3X3X3X3X3X3X3X3X3X3X3X3X3X3X3X3X3X3X3X3X3X3X3X3X3X3X3X3X3X3X3X3X3X3X3X3X3X",
"3X3X3X3X3X3X3X3X3X3X3X3X3X3X3X3X3X3X3X3X3X3X3X3X3X3X3X3X3X3X3X3X3X3X3X3X3X3X3X3X3X3X3X3X3X3X3X3X3X3X3X3X3X3X3X3X3X3X3X3X3X3X3X3X"
};
