/* XPM */
static char *_71db23fc9374da7dcf760f1094e63e5W28ozueC7ZeryWfh[] = {
/* columns rows colors chars-per-pixel */
"64 64 150 2 ",
"   c None",
".  c #260609",
"X  c #280708",
"o  c #270A09",
"O  c #290909",
"+  c #2D0C07",
"@  c #300A0B",
"#  c #33130A",
"$  c #3E1C0C",
"%  c #3B1B07",
"&  c #341313",
"*  c #391917",
"=  c #3B1B19",
"-  c #0F1624",
";  c #121723",
":  c #131925",
">  c #251A27",
",  c #411E0F",
"<  c #461D11",
"1  c #75181A",
"2  c #73171A",
"3  c #48240C",
"4  c #42221F",
"5  c #5D2E13",
"6  c #5D3B1B",
"7  c #5E3D13",
"8  c #6D3F1B",
"9  c #693615",
"0  c #743B17",
"q  c #452522",
"w  c #4D2623",
"e  c #472922",
"r  c #4B2A25",
"t  c #512622",
"y  c #523323",
"u  c #5B322D",
"i  c #5C3324",
"p  c #553E37",
"a  c #5D3F30",
"s  c #632724",
"d  c #7F2C2C",
"f  c #613726",
"g  c #613826",
"h  c #70322E",
"j  c #623630",
"k  c #6A3833",
"l  c #743E38",
"z  c #6D4D05",
"x  c #7D5D06",
"c  c #6A491A",
"v  c #7F5E15",
"b  c #664729",
"n  c #67482A",
"m  c #7E502B",
"M  c #76403A",
"N  c #2B314D",
"B  c #2F3654",
"V  c #363B5D",
"C  c #343855",
"Z  c #353D61",
"A  c #383F64",
"S  c #473D4A",
"D  c #433F55",
"F  c #3A4269",
"G  c #4C404E",
"H  c #5B4543",
"J  c #534145",
"K  c #6F544D",
"L  c #795646",
"P  c #404771",
"I  c #454D7A",
"U  c #515A7F",
"Y  c #764568",
"T  c #8B211F",
"R  c #852C2C",
"E  c #8C2C2B",
"W  c #83242B",
"Q  c #95242B",
"!  c #9D2224",
"~  c #8C2D34",
"^  c #952D34",
"/  c #AC272A",
"(  c #BE292B",
")  c #BD272B",
"_  c #A23031",
"`  c #C42A2B",
"'  c #CA292D",
"]  c #D12A2D",
"[  c #CB2E32",
"{  c #C52F33",
"}  c #D22E31",
"|  c #CF3135",
" . c #C5363A",
".. c #D13135",
"X. c #D5363B",
"o. c #D6393D",
"O. c #DA393E",
"+. c #8E4E1A",
"@. c #8B4B15",
"#. c #924C1B",
"$. c #944E15",
"%. c #965219",
"&. c #A85C1B",
"*. c #836209",
"=. c #9F7F0F",
"-. c #907203",
";. c #927211",
":. c #997A10",
">. c #A55A25",
",. c #8D6F2E",
"<. c #95772F",
"1. c #896B31",
"2. c #9A6132",
"3. c #8E7033",
"4. c #947333",
"5. c #BE6F2D",
"6. c #B26728",
"7. c #BE702F",
"8. c #A36739",
"9. c #B77134",
"0. c #C7701E",
"q. c #C87735",
"w. c #CB7B38",
"e. c #D27F38",
"r. c #D37E35",
"t. c #9E3E56",
"y. c #A2394E",
"u. c #AC6F41",
"i. c #B59800",
"p. c #A08237",
"a. c #B99D3C",
"s. c #B1943A",
"d. c #C4A305",
"f. c #CBAB00",
"g. c #D68139",
"h. c #D98439",
"j. c #9C817A",
"k. c #AD836D",
"l. c #C6844A",
"z. c #C1916E",
"x. c #E29F64",
"c. c #E7CC47",
"v. c #F2D849",
"b. c #F9D84A",
"n. c #FDE24C",
"m. c #FFE94D",
"M. c #445081",
"N. c #545C94",
"B. c #625281",
"V. c #ADB3D5",
/* pixels */
"                                                                                                                                ",
"                                                                                                                                ",
"                                                                                                                                ",
"                                                                                                                                ",
"                                                                                                                                ",
"                                                                                                                                ",
"                                                                                                                                ",
"                                                                                                                                ",
"                                                                                                                                ",
"                                                                                                                                ",
"                                                                                                                                ",
"                                                          x.                                                                    ",
"                                                        6.x.                                                                    ",
"                                                      u.6.l.z.                                                                  ",
"                                                    V.k.&.@.j.V.                                                                ",
"                                                  F U L %.+.K U                                                                 ",
"                                                S G S a 8 8 J F                                                                 ",
"                                              : 6 +.+.e ; ; V N.                                                                ",
"                                              ; m 5.+.p N N P N.                                                                ",
"                                              - 2.r.+.H Z V I N.                                                                ",
"                                                g.w.#.H Z V I N.                                                                ",
"                                                h.w.H D A M.Y y.                                                                ",
"                                                9.8.C B V B.t.]                                                                 ",
"                                                : : : : > ) | o.o.o.                                                            ",
"                                              ' Q W ~ ~ ^ | ..| o.o.                                                            ",
"                                              ' ' } O.X. . .{ ' o.X.                                                            ",
"                                              ' ..O.O.E q e E ] o...'                                                           ",
"                                              .._ R R h u q s R [ ....                                                          ",
"                                               .d w e j l r e w ) ..O.                                                          ",
"                                              @ Q  .l M M l u t ( ..o.                                                          ",
"                                              . $.0.t w t l u t ( ..o.[                                                         ",
"                                              # -.i.% + + k u t ( ..o.' '                                                       ",
"                                              f.z 3 f.z . O , 5 ( ..o.' '                                                       ",
"                                              ;.*.x ;.7 & O $ 5 ( ..o.' '                                                       ",
"                                              r =.d.y e q O $ 5 ( ..o.' '                                                       ",
"                                              v.,.6 d.v q O $ 5 ( ..o.' '                                                       ",
"                                              s.p.<.:.c q O 3 0 ` ..o...[                                                       ",
"                                              q a.c.r q 4 . 5 #.` ..o.O...'                                                     ",
"                                              c.4.y q q 4 < 9 #.` ..O.o...'                                                     ",
"                                              m.a.1.3.3.4.e.7.>.T / X.o...'                                                     ",
"                                              n.n.n.n.n.b.h.g.q.# 2 ' X...'                                                     ",
"                                              n n n n n b g f i O 1 ' o...'                                                     ",
"                                              q q q q q q q q q o 1 ' o...'                                                     ",
"                                              q q q q q q q q q O 1 ' o...'                                                     ",
"                                                & + + = q q q w ! ( X.o...'                                                     ",
"                                                . O X * e q q t ` ..o.o...'                                                     ",
"                                                O O O * e q q t ( ..o.                                                          ",
"                                                O O O * q q q   ' ..O.                                                          ",
"                                                O O O * q q     ' | X.                                                          ",
"                                                O O O * q q         '                                                           ",
"                                                O O X * q q                                                                     ",
"                                                O O O & 4 q                                                                     ",
"                                                O O O O + q                                                                     ",
"                                                O O O O + q                                                                     ",
"                                                O O O O O q                                                                     ",
"                                                O O O O + q                                                                     ",
"                                                    O O O                                                                       ",
"                                                    O O O                                                                       ",
"                                                    O O O                                                                       ",
"                                                    O O O                                                                       ",
"                                                    O O O                                                                       ",
"                                                    O O O                                                                       ",
"                                                                                                                                ",
"                                                                                                                                "
};
