/* XPM */
static char *result[] = {
/* columns rows colors chars-per-pixel */
"64 64 130 2 ",
"   c #2F7D16",
".  c #327D15",
"X  c #357C19",
"o  c #487B1C",
"O  c #2F8114",
"+  c #328115",
"@  c #37811C",
"#  c #3C831D",
"$  c #328A1A",
"%  c #3D9D1B",
"&  c #35A41E",
"*  c #3CA51C",
"=  c #3EAC1D",
"-  c #3EB21D",
";  c #338535",
":  c #3AA620",
">  c #3DAC22",
",  c #3EB221",
"<  c #419D1B",
"1  c #769B1A",
"2  c #42A41D",
"3  c #4CA21F",
"4  c #43AD1D",
"5  c #4BAD1D",
"6  c #5EA916",
"7  c #57A618",
"8  c #53AD1D",
"9  c #59AD1C",
"0  c #44B717",
"q  c #44B41C",
"w  c #4AB31D",
"e  c #43B81C",
"r  c #4AB81E",
"t  c #56B517",
"y  c #5AB717",
"u  c #5EBC17",
"i  c #51B31D",
"p  c #59B31B",
"a  c #53B81B",
"s  c #64AD17",
"d  c #65A61B",
"f  c #64AB1A",
"g  c #69AA1B",
"h  c #63B517",
"j  c #66B816",
"k  c #68BC14",
"l  c #62B91A",
"z  c #438722",
"x  c #488022",
"c  c #489627",
"v  c #4C9D22",
"b  c #5A962B",
"n  c #6D9E30",
"m  c #44A522",
"M  c #4CA422",
"N  c #43AD21",
"B  c #4BAD22",
"V  c #42A529",
"C  c #4AA62E",
"Z  c #40AE28",
"A  c #4CAD2B",
"S  c #56A626",
"D  c #5AA725",
"F  c #53AD23",
"G  c #5BAD24",
"H  c #54A12C",
"J  c #58A02A",
"K  c #53AC2A",
"L  c #5AAD2A",
"P  c #45B422",
"I  c #4BB322",
"U  c #44B821",
"Y  c #4CB922",
"T  c #44B628",
"R  c #4DB329",
"E  c #44B829",
"W  c #4CB92B",
"Q  c #53B322",
"!  c #5AB223",
"~  c #54B924",
"^  c #5BBB26",
"/  c #53B429",
"(  c #5BB42A",
")  c #55BC2A",
"_  c #5BBB2A",
"`  c #54AD32",
"'  c #5AAC30",
"]  c #5DA63F",
"[  c #56AB3C",
"{  c #5CAD3C",
"}  c #4EB532",
"|  c #51B332",
" . c #5BB233",
".. c #56B930",
"X. c #52B33C",
"o. c #63AD25",
"O. c #6CAD25",
"+. c #69A72A",
"@. c #62AD2B",
"#. c #6BAD2A",
"$. c #72AD27",
"%. c #79A12D",
"&. c #72AE29",
"*. c #79AC2C",
"=. c #62B125",
"-. c #63B42C",
";. c #6CB32B",
":. c #62BB2D",
">. c #6DBA2E",
",. c #75BF24",
"<. c #75B62B",
"1. c #64AD32",
"2. c #68AA35",
"3. c #64AE3C",
"4. c #61B432",
"5. c #64BB33",
"6. c #72B131",
"7. c #7BB630",
"8. c #71B539",
"9. c #79B63F",
"0. c #00CF03",
"q. c #58C13C",
"w. c #6AC02F",
"e. c #61AD40",
"r. c #64AD4B",
"t. c #7BC445",
"y. c #B38604",
"u. c #FF9800",
"i. c #FFC007",
"p. c #FFEB3A",
/* pixels */
"P m T N 4 P T T T w Y q q I P I P Y P P T P T P 4 w P T I 4 T w w P N T Y I I P P 4 I w T N T T q 0 - q P 0 U T ! p P Y > T E E ",
"q P P U w T U Q P r q 4 P P I P P N P I N 4 I P w P P q w P w N 5 I N P B P P ( _ P P P P P P P P P U U e w e q I w G p Q a T I ",
"N P E w Y 5 w U P r P q 4 e q I P q q I P q N q q q I N q I w q I Y P 4 I q w _ ^ P ~ q P U P P e P r r 0 q P q F q G q i U q 0 ",
"P q P 5 q ! I 9 r P e P 5 P P N q R T P T 4 N Y Y P w 0.q 0.I , q q N I q w 5 P q q ~ _ ) w = I N r 0 w q q q w ! e i i q q P e ",
"P P U r I ~ g w r q , e e P e P P / _ q 0.Q q 0.4 4 w 0.4 q P P 5 w w P 5 N T w 4 q q ) B q I I Q p w w w 0 q w w q w I w w r 0 ",
"e P e e q w p r q r r e e - e , 0.e 5.0.4 4 0.4 q w 0.w q w q ! w Y q 5 q 5 q Y 4 e q r & = ( K Y ! ! q q w q i r i q w w w 0 0 ",
"P e - U I w i r 5 0 0 e e 0.- 0.q 0.; 0.4 0.0.; q ; ; 0.0.; ; y e - q 4 0 N q q 4 q 4 q = * w 4 Q ! w w w w 9 ! G p w w q 0 e q ",
"- - e e q 9 r q w q 0 - e 0.0.0.0.0.w ; ; ; ; w w 5 ; ; 0.q w q w w P e w Q Q Q 5 Q B B 4 N 2 5 F 5 q q 5 Q I -.p Q q r w r w T ",
"e - 4 5 w e w r q 8 0 e ; ; ; 0.0.; 4 w q 4 4 B q q w q ^ ~ q q e 5 I w i ! O.G F Q #.i 3 4 * w 7 8 q 8 w w 8 q ~ r 4 q q ! i 8 ",
", e q 5 N q w 0 q 0 e - - 0 0.; 0.4 4 w 4 q w q w P i P q ~ Q w q e w q q Q w Q w q ! 5 F 4 v 3 7 8 0 0 8 i w w q R 4 w w P 0 w ",
"U - e Y r r s w w 0 q 0 - q e e q w w q q 4 w P 5 q 5 q q w Q P r Y N q P - e 4 = q I i F M %.4 1 q q q 5 6 w ! w q I q q q r r ",
"- , e 0 w t r r w 0 0 0 = q I w w ! I q w D L 5 F = 4 q r P P q I ( +.e q - q Q w ! G ! F G G q 4 q - q 0 q q q q - Y Y 5 i w w ",
"e - - 0 - e e r w 0 w ~ q 5 F 8 5 ! 5 5 I ! F Q F m 5 B :.w 8 > I _ ) _ I e P ! F ! F K F O.F q q q w q q N q q w F 4 ~ w w w P ",
"e q.e 0 r ~ 0 0 q q 0 a Y 4 B F 5 F q 5 F F ' F F #.F Q ( L 4 S N R e ) e P U I N q - * 4 F N 5 = 0 w q = 4 I q K F B / F Q q T ",
"e e e e Y I q r 0 w w q q 4 4 3.A [ A I I e.L 5 B p F R ~ 3.I I 4 q 4 ~ / q q q P q q , 4 N P N 4 4 8 5 N S o.w H G ! / P i r P ",
"- e - e e q 0 ~ r ~ q q q P P ' [ A R R C ] B w 8 w G 5 F / B r I N N Y R P T q T q q q N I e P q N 4 4 8 B +.r b ;.r =.i U w P ",
"e U q q q q e q I Q ~ q q N C B A N ` I N F 4 8 ! G O.5 o.K ! r 5 * * q P P N P I I e Y q P w B 4 ( * 4 4 4 F q m / 8 q I r r r ",
"P U P e > U q q e q ( / I w 4 4 4 5 M w B B 4 S i -.G i -.! =.y.y.y.y.y.P q 4 U q q e Y q 4 Y I q / / e - P w e & r ~ Q I r Y 9 ",
"I Y P , , U P N q P q I Q e q m 4 4 M P 2 F 4 o.w Q D G G y.y.u.u.u.u.u.y.y.q 0 P q r 0 q q I q w w 4.q 0 q q q 4 q ^ r e Y w ! ",
"A U N P N T q w > q q - q q w * = 4 = 4 4 F 5 G o.F D B y.p.i.i.i.i.i.i.u.u.y.q.Y I P q 0 0 P q q q _ q q q q e q R r q q 0 q q ",
"/ > > U T Z q P T @.w = A q ) q 4 4 4 Q w M G 8 F G +.y.p.i.i.i.p.u.i.i.i.i.u.y.w q e r q q w e - r ^ q e q e e - e r Y q r Q e ",
"E T / Q T / I W I e w P 0 P Y Y 4 F q q w B o.5 G J S y.i.i.i.i.p.u.i.i.i.i.u.y.- q q q w q Q 0 q w w Y = q 0 0 e 0 0 ~ q 0 r q ",
"- R T q I T W U P w ! i 4 5 / q Q B I w I B G S G 8 y.i.i.i.i.i.p.u.i.i.i.i.i.u.y.5 q 5 q q R q q 0 T w.- 4 q q e e e e 0 0 0 U ",
"Y E T P N P e U X.9 r =.w 5 q G I I Q 5 w M o.O.O.9 y.i.i.i.i.i.p.u.i.i.i.i.i.u.y.q 4 q 4 4 B q w q V t.q q q q r e e 0 r e e i ",
"e P R q I e P } e.i w r w r w 5 ! B D F 5 F &.! <.5 y.p.i.i.i.i.p.u.i.i.i.i.i.u.y.q q q 4 > B q q 4 4 t.~ 4 q q w q 0 e q e r e ",
"e e e 0 U e 4 = e ^ r w p w w I ! S D D 8 i F 5 >.( y.p.i.i.i.i.p.u.i.i.i.i.i.u.y.w q 5 4 w q w q 4 q R ^ q 4 5 w q q e r - 0 e ",
"e - - e T w w B q P I 0.q q 0.w q q Q m 4 q 4 q q :.w y.i.i.i.i.p.u.i.i.i.i.u.y.N i 8 w 5 q q w = 2 q A ( 0 * 5 w q e q e e r r ",
"e e 0.r e r 0.P q I B 0.q 0.q w w q 5 ( 4 q q q 5 / 4 y.u.i.i.i.p.u.i.i.i.i.u.y.o.p &.8 4 w 4 D 5 0 q P Q / q q q q q q e - w e ",
"e 0.e e Y 0.q B I q 0.~ q 0.4 q 5 4 w Q Y w 4 q 4 w 4 = y.u.u.i.i.i.i.i.u.u.y.R o.8 i q 0 q 5 5 5 0 q 4 _ ) A q 0 e 0.0 r 0.e 0 ",
"e 0.r 0.P 0.q P P q 0.B 0.0.0.q 0 w q 4 r w q w 0 8 8 t 0 y.y.u.u.u.u.u.y.y.5 Q 8 5 8 7 4 5 8 5 2 q q 0 _ w / q e e 0.q 0.r e - ",
"; 0.e 0.0.0.; r q ; ; 0.0.0.; ; 4 8 q q w w w q w t t h j a r y.y.y.y.y.4 ! o.8.5 5 d 7 5 8 5 7 4 q = q ~ q / I e 0.0.e 0.e 0.r ",
", ; ; ; 0.; 4 q q w ; ; 0.P I q 0 0 I - i I Q w t t p y k u y - q w w 4 = q w 9.2 5 7 q 7 q q 8 = q 4 q q I q ( q 0.0.0.0.0.0.e ",
"- e q 4 e P m 4 4 q w P w q r - q q e Y Q I :.q 0 4 4 w 0 a q 4 Y 4 Y q 2 q D / = 4 4 q I q w 4 q q q q L T 0 2.; ; 0.; 0.0.; ; ",
"U r > - P w P 4 w q q w P w ~ q w q P Y 4 ..~ e 0 = 0 q q I w 4 / 4 N - q :.4.I M q 4 e q q I B B 8 o.( +.w I ( 5.w F 0.; 0.P U ",
"0 0 : e P P q 4 5 4 q q q q Y Q q 4 e 0 5 / Y Y 0 4 4 4 4 B R q -.q = 4 e >.2.~ B w 4 q N q q B q ! Q ( G 5 Q ( :.w S I I Y U U ",
"w , - e q q 4 N I 2 q 5 q 4 P _ 0 q 5 P q q w.w 4 4 * 4 q * ( e :.4 q P - Q -.( w ! 4 w w w D q q w ! Q i w A I ) R & q B U q e ",
"r m q I 2 q q q _ q q w = q Y ( / 5 q P 5 w q / 5 5 > 4 F * ^ - ( q 4 T - w ( I q w q Q F w G w q q w ! o.! m I / I / B q q w q ",
"r 4 Y r 4 F q q :.q q q q q q Q ( q w * 5 B q L 5 Q & 4 ' m  .q ( 0 q q q P Q ( 4 I N 5 w w G q q 5 F o.=.i 4 A q / ` 5 w r e r ",
"G > w P : q Y w ^ q w q - I I 5 P >.w N 4 8 4 I I K * 4 F K ;.q Q F q L I w ( Q w / 4 S q 4 4 q q 5 w I Q q - * - i C w w w U P ",
"I N U Q N > P S ~ ~ ( q q P 5 N 3 5.o.6.5 G &.o.5 Q v A o.( *.* v o 3 n I 4 K ~ G L M F 4 q q w w q P q w e q 4 5 q 4.8 w 4 r P ",
"=.q T > T m P B 5 S ( ~ N I N e w J 7.! S F O.o.G F B G F Q < + X . . x * w 5 w 9 8 F F q 8 w Q B p $.G w w q q 5 4 ( 9 B B Y B ",
"T 9 5 T F L P P P N N I > D P e e 8 4.B 4 N w w F 5 K / = 3 . O X   . #   * 4 4 r q i i i p i l ,.! G w w q q 0 q 4 4 5 6 w Q G ",
"P E P U q P N - q r P I m B 4 - w 5 F m 3 ' I q F B R c + . @ O   + . @ O O O $ = 0 q 5 h h i j ! q w q 4 q q w w w 0 w I 5 U T ",
"U P q P Y q A P q N q N B N m N 4 N D H F F T q R 3.I 5.q * # O   . . O O * q q - q - q y h 0.w w ~ 0.Y q q q w q q q w w e i P ",
"U U q Y T q P q Y N q P B ) A P 4 q I S N / Y q w ( Q Q q q 3 + O . X O 0.q w q 0.0 4 e I w 0.f 0.0.4 I q q 4 q q w q 0 w P I P ",
"T U U P > P S q Y 4 e q Z I R { q = R G L q q q 4 4 Q w q q q % % z v * 0.4 q 5 0.- - r q q 0.5 0.0.( P q e - e 0 q q q q w w P ",
"P P P K A K I U Y Y q - P T I R q 4 q ! L 4 w q q 4 0.0.4 q 0.q q 4 0.0.5 4 q 0.q 4 e U w 0.e 4 0.0.K A P e q 4 q q 4 w q q P P ",
"U q e T q e B q e R P R Y R } R q Y w r I * q e 0 q 0.0.4 0.4 q q 4 0.0.5 0.q 0.q e q q I 0.P 0.0.0.0.I w 4 0 4 5 q w 4 w q q P ",
"U e U , P S N q P q R | I P P q w r w q i m q q q q 0.0.5 0.w Y r > 0.0.L 0.q 0.5 / q q q 0.i 0.0.0.0.4 B 4 M 5 5 q q 4 w Y q q ",
"q P U I e B r e q q ~ q q q e w w R r w w q w q q 0.0.0.w 0.w 0.~ ; 0.0.Q 0.0.0.; / P q ; ; 0.0.0.0.; ; ( N 4 ! 4 w 2 5 q q N q ",
"P e - e 5 q 0 q q 4 I Y 4 q q w w I q 5 r i Q q q 0.0.0.0.0.0.0.q I ; ; ; ; 0.; 2 ~ 4 = ~ ; ; 0.A w p ; ^ B N ;.q B 4 q 5 4 P N ",
"r e r q 4 0 4 4 q * q Y I q 4 q q I q 5 i I w w w 0.0.0.0.0.0.0.4 ! ; ; ; ; 0.; 4 R A ) r ; ; 0.I w w 2 B M 5 L 8 4 5 q q w P Y ",
"e e e q r q q - 4 4 w w w N q q q q w Y i 5 w w ; ; 0.0.; 0.0.; ; Q B 5 i I I B w I K / w 4 w w w i w q w F F B B w w q N 4 I I ",
"e P - 0 - 0 q - 4 q q q w w F F w w p ! w ! I ! o.Q i G 0.; 0.I q ! K / { ` I A R w P w 8 5 q i q Q i B w Q r S w 5 q r 5 P P P ",
"q q 0 0 0 0 e = q 5 q 2 q w 5 G w F ! i ! I w G ! Q F F 0.; 0.q w ' [ ` r.[ B I R I 4 w i q w q q w 9 w q 5 5 ( w w q q 4 N q q ",
"q q q q e q e q 5 0 4 4 4 P 4 5 q q I w r 5 w w w B q i G =.p w K 3.` Q 1.A I q 8 ! 4 ! i q 5 ! q w w w q w w ( Q q q w 4 = F T ",
"4 0 0 q 0 q 0 4 0 4 4 4 0 w 4 w q 0 q w q 5 w w 5 = 2 q 5 8 ! w 5 5 4 5 1.B q w ! ! B G ! 5 F G 4 ! 5 q e ! I ~ r w q w w 2 w q ",
"0 q q q w w q 5 4 5 4 0 4 0 * w q q w q w 4 I I w = q q q w q q 4 4 q = I q q I F F F 8 w w 5 I w p S 5 q r w w.i q 0 q q q 4 P ",
"q q q w 0 5 5 q 0 4 0 5 4 q & w - q P e q q I q w B N - r q 5 w q q q = q q q q w q e 5 q w q 5 q ! 4 q w w q a w 0 w w 0 w q F ",
"q q q 0 0 w q 2 7 q 5 5 q q - 0 q q q e w 0 q w w 4 r - w 0 q N q q e q 4 e q q I P q w w 5 I w q ~ w w w w q q w q q q q P P q ",
"q w q q w w q 5 w w 4 w 5 w q q q q r q w w q q Y : w U e w q P q = T e B q e 4 q q P - w q q 5 4 w 4 q w q q w q q q 5 q q P U ",
"q q q w w P 8 Y B 5 w w w 4 q q P w q B q q q w q 4 w r q w q q P q q P q I N q B q e 8 e P w e q w q q e N w q 0 2 w q P Y P E ",
"P 8 r i T 7 P i w w 5 F i T w q q N Q q q q w q I P 5 q Q N Y w P > P N P P P q q q q P q q q w q q w q q q w q q q q e P e N U ",
"Y P 8 Y 8 9 P P N I I P Y U 5 4 Y N q q q w 4 q I P P P I 4 P P q - P q P P I > T P T P N T P q w w q q I P w P I P 4 e U U U P "
};
