/* XPM */
static char *result[] = {
/* columns rows colors chars-per-pixel */
"64 64 120 2 ",
"   c #2A6D12",
".  c #2B7213",
"X  c #2D7B13",
"o  c #327416",
"O  c #357B16",
"+  c #33721A",
"@  c #3A9B1C",
"#  c #35A41E",
"$  c #3CA51C",
"%  c #3EAC1D",
"&  c #3EB21D",
"*  c #338534",
"=  c #3AA620",
"-  c #3DAC22",
";  c #3FB221",
":  c #409E1E",
">  c #769B1A",
",  c #42A51D",
"<  c #4CA31F",
"1  c #44AD1D",
"2  c #4BAD1D",
"3  c #5EA916",
"4  c #57A618",
"5  c #5CA71A",
"6  c #53AD1D",
"7  c #5AAD1C",
"8  c #44B717",
"9  c #44B41C",
"0  c #4AB31D",
"q  c #43B81C",
"w  c #4AB81E",
"e  c #51B31D",
"r  c #59B31B",
"t  c #54B81C",
"y  c #64AD17",
"u  c #65A61B",
"i  c #64AB1A",
"p  c #69AA1B",
"a  c #63B417",
"s  c #66B816",
"d  c #66B019",
"f  c #62B81C",
"g  c #449921",
"h  c #4C9D23",
"j  c #5A962B",
"k  c #44A622",
"l  c #4BA522",
"z  c #43AD21",
"x  c #4BAD22",
"c  c #42A429",
"v  c #4AA52E",
"b  c #4CAD2B",
"n  c #56A626",
"m  c #5AA725",
"M  c #53AD22",
"N  c #5BAD24",
"B  c #54A12C",
"V  c #58A02A",
"C  c #53AC2A",
"Z  c #5BAD2A",
"A  c #45B422",
"S  c #4BB322",
"D  c #44B821",
"F  c #4CB922",
"G  c #45B628",
"H  c #4DB329",
"J  c #44B829",
"K  c #4CB92B",
"L  c #53B322",
"P  c #5BB323",
"I  c #54BA24",
"U  c #5CBB26",
"Y  c #53B429",
"T  c #5BB42A",
"R  c #55BC2B",
"E  c #5CBB2A",
"W  c #54AC32",
"Q  c #5AAC30",
"!  c #5DA63F",
"~  c #56AB3C",
"^  c #5CAD3C",
"/  c #4EB532",
"(  c #51B332",
")  c #5BB233",
"_  c #52B33C",
"`  c #60A627",
"'  c #63AD25",
"]  c #6CAD25",
"[  c #69A62A",
"{  c #62AD2B",
"}  c #6CAD2A",
"|  c #72AC27",
" . c #79A12D",
".. c #72AE29",
"X. c #79AB2C",
"o. c #62B225",
"O. c #64B32C",
"+. c #6CB32B",
"@. c #62BC2C",
"#. c #6DBA2E",
"$. c #75BF24",
"%. c #75B62B",
"&. c #64AD32",
"*. c #68AA35",
"=. c #64AE3C",
"-. c #61B432",
";. c #6CB133",
":. c #64BA33",
">. c #74B133",
",. c #7AB333",
"<. c #00CF03",
"1. c #58C13C",
"2. c #6AC02F",
"3. c #61AC40",
"4. c #65AD4B",
"5. c #7BC445",
"6. c #B38705",
"7. c #FF9800",
"8. c #FFC107",
"9. c #FEEB3B",
/* pixels */
"A k G z z A G S G 9 S 0 9 G S A 9 S A 9 G z G A 1 9 A A 0 9 G 0 2 9 z G A A S A A 9 S 0 G z G G 9 9 & w w q 9 G L r D S z J D J ",
"9 A A D 0 G D L S D 9 A A 9 0 S D A G A A z S A 0 0 A A 0 A 0 z 2 S z z S S G P E A z A A D A A A 9 q ; 8 9 q A L 0 M r L t G H ",
"z z G 0 D 0 S D A w D 9 2 9 A S S 1 A S A A z 9 9 9 S z 2 G 0 9 S S A 2 0 A 0 E E 9 I A A D A A D S w q 9 9 A 9 M w N 9 e D 9 q ",
"A 9 A 0 A 7 S r D S 9 9 0 D 9 - A H A 9 S 1 A A S A S <.9 <.S A 9 A A S 9 0 2 9 9 9 I E I S - S z w 8 w 9 9 9 0 L 9 e e 9 0 9 q ",
"D A D w S S p 0 w 9 ; q & D 9 D A Y E z <.S 9 <.9 1 9 <.1 9 9 A 2 0 9 9 2 z A 0 2 q 9 I x 9 H S t 7 0 0 9 8 9 0 0 9 0 9 9 0 w 8 ",
"D D q & 0 0 r 0 0 w q q q & q ; <.D :.<.9 2 <.1 9 0 <.e 9 0 9 L 0 S 9 2 9 x 0 D z 9 9 q # % T M S P N w 9 0 9 e w e 9 0 9 0 8 8 ",
"9 & q w S 0 e w 0 0 8 q q <.& <.8 <.* <.1 <.<.* 0 * * <.<.* * r w & A 9 9 x 9 0 1 8 z 8 # , 0 2 L M e 0 0 0 7 L ' r S 0 9 w w 9 ",
"D & q q 9 r 0 w 2 8 8 & q <.<.<.<.<.0 * * * * 9 9 2 * * <.8 A 0 8 0 q 9 0 L I S x L x x 9 1 , 2 L 0 9 9 0 L L O.P S 9 w 0 8 A S ",
"; q & 6 S 9 9 t & 6 w q * * * <.<.* 1 0 9 1 2 x 9 w 0 9 U I 9 9 D 2 S 0 e N ' N 6 x ] L , , , 2 4 6 8 2 0 0 2 0 t 0 1 9 9 P t x ",
"D q q 0 A 8 0 8 9 8 & 8 & 8 <.* <.2 1 9 1 0 0 9 9 A e 9 9 I L 9 9 9 0 9 w L 0 I S 9 P 6 M z h 2 3 2 9 0 2 e e 0 9 I S 0 9 S 9 0 ",
"& q 9 A 9 w d 0 0 8 8 8 % 8 q q 9 0 0 9 9 1 9 z 2 9 z 0 S 9 P A 0 F z 9 A 9 9 1 z 8 0 L M l  .1 > 9 & 0 2 3 0 L 9 9 S 0 0 8 0 w ",
"& ; 8 8 0 r q w 0 8 8 8 % 9 0 S 9 P S 2 2 N Z 2 M $ % A t 9 9 9 F T } 8 & 9 q e 0 L N P M N N 9 2 8 9 8 8 0 9 9 9 ; S D 2 e 0 0 ",
"D q q q 8 8 q 0 0 8 0 w w 1 M M 2 P 0 2 L M N L L k 2 x O.S r c H R R E A 9 9 P M P M C M ] x 9 % 8 A 9 9 z & 9 0 M z I 9 S 9 z ",
"q ; q q D F & w 8 9 0 I F 2 x M x M 2 9 H M Z M M } M L E M 1 x 1 b 9 R 9 D G S 2 9 9 # , M 2 2 % 8 0 9 1 x 0 0 M x M Y M t A G ",
"; D q & F I 8 w 8 0 w 9 8 - 2 =.b ~ x S x 3.Q 0 0 P M M Y =.S 0 2 9 2 I I 1 D 9 A 9 & ; 1 z 9 z 1 9 n 0 z l ' 0 B Z M T A t e 9 ",
"q q q q 9 9 q I 0 I 8 0 9 z 9 W ~ b H b b ! 2 2 6 2 M S L Y x I A z % F K A G 9 G 9 9 9 9 H D A 1 z % 2 M x ] 0 j #.0 P e D w D ",
"q F 9 9 9 9 9 9 D t I 9 9 x v z b S W H 1 M 1 6 e ' ] 0 ' C L e 2 $ $ 9 A 0 z D S S q S 9 9 0 x 9 Y = 1 9 z M A k I L 8 S w w S ",
"S D A 9 - D 9 9 9 A T Y L 9 1 1 1 1 l 9 l S 1 n e O.' 0 ' T o.P N S & 1 A D , D 9 9 q S 9 9 G S 9 L Y 9 9 1 S 8 = 9 P L S w S r ",
"x G A ; ; G D z A 9 9 S S 9 9 z , 2 l 9 , M 1 ' S M m N P >.@.E P F 0 A 9 9 9 q D w w 8 9 9 S 9 0 0 -.0 q A 9 9 , A I w 0 D 0 L ",
"C D z D z D 9 0 - 9 9 % 2 & 0 , & 1 $ A 1 M 2 N N M M l N ' r P 9 8 D A z % F 1.S S 9 w 9 8 A 9 9 9 U 9 9 9 8 q 8 H w 9 9 8 9 w ",
"Y - ; G G G 9 - J { D 1 H 9 R 0 9 z 1 I 0 x N 6 M N [ 0 P P o.L A S P D % 9 A R 9 9 q 9 9 9 0 8 & w E 9 w 8 9 8 q q q F 8 8 L D ",
"D G L M G Y S K 0 9 0 0 9 S D D 2 M 1 9 0 l ' 2 N V n 2 o.P o.6.6.6.6.6.8 9 G Y 9 q 9 9 9 9 Y 8 9 0 0 G - 8 8 9 8 q q I w 9 8 w ",
"; H G D G G K D 9 S P e 2 1 Y 9 L z 0 2 S x N n N 7 M 0 r 6.6.7.7.7.7.7.6.6.1 $ 9 0 9 e 2 9 x 9 9 8 S @.& 1 9 9 q D 9 8 8 w q w ",
"S J F 9 z A 9 D _ 6 t o.0 2 9 L 0 x L 2 0 l ' ] ] N X.N 6.9.8.8.8.8.8.8.7.7.6.@ 2 % 2 9 z 9 x 9 w 9 c 5.9 9 9 8 w 8 q 8 w q 8 0 ",
"D D G 9 A 9 A / 3.t 9 0 0 0 0 6 P x n M 6 6 ..N %.2 P 6.9.8.8.8.9.7.8.8.8.8.7.6.9 9 9 9 , ; x 9 9 1 % 5.I 1 0 9 0 9 8 D w q w q ",
"q q q 8 w w 9 % q E 0 0 P 0 0 S P M m ` e 2 M 2 #.T 9 6.8.8.8.8.9.7.8.8.8.8.7.6.0 0 9 2 1 S 0 0 9 1 8 H E 9 1 2 0 9 q 8 8 & q q ",
"& 8 q 9 G w 0 z 9 A S <.9 8 <.0 9 1 Y , 1 8 1 1 0 @.6.8.8.8.8.8.9.7.8.8.8.8.8.7.6.e 6 0 1 9 9 9 , , 9 b P 8 $ 2 0 9 q 9 q q w 8 ",
"q q <.9 9 D <.A 9 S x <.9 <.9 0 0 9 2 T 1 9 9 9 0 Y 6.8.8.8.8.8.9.7.8.8.8.8.8.7.6.7 | 6 9 2 1 N 2 9 9 A Y Y 9 9 2 & A 9 8 8 0 D ",
"q <.q w S <.0 x S 9 <.I A <.1 9 2 9 9 S L 0 9 A 1 2 6.9.8.8.8.8.9.7.8.8.8.8.8.7.6.2 r 2 8 2 2 2 2 8 & 8 @.Y S 9 8 q <.q 0 <.D q ",
"D <.D <.9 <.9 A A 9 <.x <.<.<.9 8 0 9 2 S 9 2 9 8 e 6.9.8.8.8.8.9.7.8.8.8.8.8.7.6.2 6 2 1 6 2 2 1 9 9 1 U D ( 9 8 q <.9 <.D & 8 ",
"* <.q <.<.<.* 9 9 * * <.<.<.* * 1 2 9 9 0 w 0 w 0 r r 6.8.8.8.8.9.7.8.8.8.8.7.6.2 6 u 4 2 2 0 7 , 9 % 9 I 9 Y S 9 <.<.q <.q <.D ",
"; * * * <.* 9 9 0 9 * * <.0 A 9 8 0 0 8 e S L 0 r t r 6.7.8.8.8.9.7.8.8.8.8.7.6., 2 4 1 7 8 9 6 % 8 1 9 0 0 9 Y w <.<.<.<.<.<.q ",
"q D 9 & q A k 1 9 2 0 A 9 0 0 9 8 9 9 F Y S @.0 8 1 8 2 6.7.7.8.8.8.8.8.7.7.6.Y % 2 % 9 0 1 9 k 9 1 9 9 M H q *.* * <.* <.<.* * ",
"D 8 z & D 0 A z 1 9 9 9 9 9 R 9 9 9 q F 2 E I 9 8 % 8 9 9 6.6.7.7.7.7.7.6.6.O.H l 9 9 9 9 9 0 x 6 S o.T } x S T :.0 M <.* <.D A ",
"8 8 = 9 G 9 9 % 2 , 9 9 9 0 D L S 1 w q 2 K R D 1 1 9 1 9 k H 6.6.6.6.6.& #.*.I 2 S 2 S z 9 9 x 8 P P P N 0 L T O.S l S L A D D ",
"9 ; & 9 9 9 1 z F , 9 2 9 9 9 E 9 8 1 0 1 9 E 0 1 1 $ 1 1 % T 9 -.9 9 z ; P O.I A e 1 0 0 0 N 9 9 0 Y P M 0 S 0 I F = A A D 8 w ",
"0 1 A S , 9 0 8 E 9 9 9 & 9 0 E L H 1 A 2 2 9 I 8 2 = , M # E & T 9 & S 9 A Z S 8 0 1 S L 2 N 0 9 9 0 P o.L z H Y S Y x 9 9 0 9 ",
"w z S t , L 9 9 2.8 9 9 9 9 w M T 9 0 $ 2 M 9 C 6 L % z Q k O.9 Y q 9 A 8 A P T 1 S z x 9 0 N 9 9 2 M ' o.e , b 9 L W 2 0 0 9 w ",
"P - S ; = A S S I 9 x 9 % H x 0 S @.0 z 2 2 2 S x H $ - M C ;.A L M 0 Z A S Y L 0 T 1 n 1 9 2 9 9 2 0 S L 9 9 $ & L v 0 0 0 D D ",
"S z G e z - 0 L P I T 9 9 A 0 z < -.o.>.2 P } o.2 P h x ' P X.8 M ] S ,.L z L P N Z l M 1 9 9 0 z 0 A 9 0 9 9 1 1 9 -.6 S 9 0 D ",
"f A G - D - G x l x T I z 0 A 9 0 n ,.o.M M } o.' M x N 6 C 2 9 g o , -.2 0 2 0 N 6 M 6 8 6 0 L x r | N S 0 9 9 6 , T 6 x 2 A M ",
"G 5 2 G M Z A S A z l F - m A 9 A 4 O.l , z 0 0 x 2 C Y 9 , : X .   o + $ # 1 8 0 9 L 6 0 r e f $.P N S 0 9 9 8 9 9 9 x i 0 L N ",
"A D S G A 9 , ; 9 9 z S k b 1 & 0 1 M c < W S 9 C z b C @ . .         +   . @ @ & 9 9 0 s a e s P 9 S 8 1 9 8 9 0 0 8 2 S 2 D G ",
"; D A A A A H 9 9 S 9 A x z z , 9 z m C M L H 9 H ;.S :.0 $ l X .   X X # $ 9 D & 9 & 8 r y <.0 0 I <.G 9 8 w 0 9 9 8 0 0 9 t ; ",
"A D 9 A A A A 9 0 A 9 A x I b A z 9 S C , Y S A 0 T L L 8 & P D $ O @ 9 <.9 0 8 <.q % w S 9 <.i <.<.1 S q 9 1 9 1 8 9 9 9 A S A ",
"A D G A z G C 9 F 0 9 9 G H b ) 9 $ M N T 8 9 9 1 1 H 0 1 9 2 9 , E Y 9 <.2 9 2 <.8 9 8 9 9 <.0 <.<.T A 9 8 % 9 8 9 9 9 9 0 0 D ",
"D A D C S n x 9 I D 9 9 D A H H 9 1 9 L Z 9 0 9 9 1 <.<.1 9 <.8 9 1 <.<.2 2 8 <.8 1 9 D S <.8 1 <.<.x b A 9 9 9 0 0 1 0 9 0 A A ",
"D 9 D G D q x 9 8 G z / G H ( I 9 D 0 0 S % 9 9 9 9 <.<.9 <.0 9 9 1 <.<.z <.& <.9 9 q A H <.A <.<.<.<.L 9 9 9 , 0 9 0 9 0 9 9 z ",
"D q D D D M x A A 9 H / H 9 A 9 9 S 0 8 L z 9 9 9 9 <.<.x <.0 0 D % <.<.C <.0 <.2 L 9 1 9 <.t <.<.<.<.z l 9 l 2 1 9 1 2 9 A 9 A ",
"9 D q x 9 l 9 9 8 9 I 0 9 9 9 0 0 H 0 0 0 1 S 9 8 <.<.<.0 <.0 <.I * <.<.L <.<.<.* I A 9 * * <.<.<.<.* * T z 1 o.2 0 1 1 9 0 9 0 ",
"A q ; q z 9 9 9 9 1 F F 1 9 9 9 0 L S 2 0 t S 9 9 <.<.<.<.<.<.<.0 S * * * * <.* k Y z ; I * * <.x 0 r * E 2 , +.9 2 , 0 2 2 A z ",
"w q w 9 1 8 9 1 9 $ 9 S S 9 9 0 9 0 9 0 L 0 0 0 0 <.<.<.<.<.<.<.2 L * * * * <.* 9 H x R S * * <.H 9 0 k x x 2 Q 6 1 9 9 9 0 S A ",
"& q 8 9 w 9 & 9 1 1 9 0 9 2 1 8 9 9 0 0 e 0 0 0 * * <.<.* <.<.* * P 2 0 e S S x 0 S b Y 0 1 2 0 0 e 0 2 0 x L x 0 2 0 A z 2 A A ",
"D 9 q & & 8 8 & 1 8 2 1 S 0 M M 9 0 L P e P S P ' L e N <.* <.S 9 P n b ^ W A b H 2 2 0 e 2 8 e 2 t L S 0 S 0 n 2 0 9 0 1 A G A ",
"8 8 9 9 q 9 q % 8 2 1 1 A 2 x N 0 r T e L S 0 N M L N M <.* <.0 0 ) ~ _ 4.~ x A H H 9 0 e 0 0 0 9 0 6 0 0 0 2 T e 9 9 9 , z 0 9 ",
"9 w 8 9 q 8 8 9 2 1 9 1 % A 2 9 9 9 0 0 0 x S 0 0 S 0 2 P ' r 0 M =.C L &.C S 9 7 L 2 e 0 0 2 L 9 0 e 0 9 0 0 T L 9 9 9 0 % S S ",
"8 9 8 9 8 2 2 8 8 8 1 1 1 8 1 2 9 9 9 9 9 2 0 0 x % % 9 2 r L 0 x 2 2 2 &.x 0 2 N L x N L e n L 2 L x 9 9 L 0 I 0 0 9 0 0 , 0 z ",
"2 8 9 9 9 9 8 1 2 1 1 8 8 2 $ w 9 9 0 0 x 1 S 0 0 $ 1 9 9 0 0 9 z 1 9 % A 9 9 0 L M M 6 2 0 2 0 0 e m 2 0 0 w 2.e 9 8 9 9 9 9 A ",
"8 9 8 9 8 0 2 0 2 2 1 2 9 8 # w & 9 S & 0 9 S 9 0 6 9 9 9 9 2 0 9 9 9 & 9 9 9 9 0 9 9 9 0 9 2 0 9 P 1 0 t 9 9 I e 8 9 w 9 9 9 M ",
"A 9 9 2 8 0 9 , 0 8 2 8 9 2 % 8 8 q 8 q 9 8 9 0 9 z 9 & 9 w 9 z 9 9 9 & % 8 9 D S A 0 2 0 S S 0 9 I 0 0 0 9 9 9 9 9 0 9 9 0 A 9 ",
"8 9 9 9 0 0 9 0 0 2 0 9 0 9 1 9 9 9 9 w 0 0 9 9 S = 0 D 9 2 9 A 9 & G & x 9 9 1 & 9 D 9 0 9 9 0 2 0 1 9 0 9 0 9 9 9 9 2 w 9 D G ",
"A 9 9 S 0 9 M 0 0 0 2 2 2 9 9 9 S 0 9 x 9 9 9 9 9 9 0 0 8 0 9 A A 9 9 z 9 S A 9 z 2 9 e 9 A S 9 9 9 8 0 9 z 9 0 8 , 0 9 9 A A D ",
"D 6 0 t G 4 S 0 2 S S L L 0 0 9 9 A L 9 9 9 9 0 x 9 2 0 x A 0 A A 9 D z A A & A 9 A 9 D 9 9 9 0 0 9 0 9 8 9 0 9 9 9 9 9 D 9 z D ",
"S A M A L 7 A z A 0 0 S A G 2 z A z 9 0 9 9 2 9 0 G A D S 2 A A 9 ; D 9 A A S z G A A A z G A 9 9 9 9 9 S A 0 A S A 9 9 D D D A "
};
