/* XPM */
static char *result[] = {
/* columns rows colors chars-per-pixel */
"64 64 127 2 ",
"   c #2F7D16",
".  c #327D15",
"X  c #357C1A",
"o  c #487B1C",
"O  c #2F8114",
"+  c #328115",
"@  c #37811C",
"#  c #3C831D",
"$  c #328A1A",
"%  c #349F1E",
"&  c #3D9E1B",
"*  c #35A41E",
"=  c #3CA51C",
"-  c #3EAC1D",
";  c #3EB21D",
":  c #338534",
">  c #3AA620",
",  c #3DAC22",
"<  c #3FB221",
"1  c #419D1B",
"2  c #769B1A",
"3  c #42A41D",
"4  c #4CA21F",
"5  c #44AD1D",
"6  c #4BAD1D",
"7  c #5EA916",
"8  c #57A618",
"9  c #53AD1D",
"0  c #5AAD1C",
"q  c #44B717",
"w  c #44B41C",
"e  c #4AB31D",
"r  c #43B81C",
"t  c #4AB81E",
"y  c #56B517",
"u  c #5AB717",
"i  c #5EBD17",
"p  c #51B31D",
"a  c #59B31B",
"s  c #53B81B",
"d  c #64AD17",
"f  c #65A61B",
"g  c #69AA1B",
"h  c #63B517",
"j  c #66B816",
"k  c #68BC15",
"l  c #438722",
"z  c #488122",
"x  c #499627",
"c  c #4C9D22",
"v  c #5A962B",
"b  c #6D9E30",
"n  c #43A522",
"m  c #4CA522",
"M  c #43AD21",
"N  c #4BAD22",
"B  c #42A529",
"V  c #4AA52E",
"C  c #4CAD2B",
"Z  c #56A626",
"A  c #5AA725",
"S  c #53AD22",
"D  c #5BAD24",
"F  c #54A12C",
"G  c #53AD2A",
"H  c #5AAD2A",
"J  c #45B422",
"K  c #4BB322",
"L  c #44B821",
"P  c #4CB922",
"I  c #44B628",
"U  c #4DB329",
"Y  c #44B829",
"T  c #4CB92B",
"R  c #53B322",
"E  c #5BB223",
"W  c #54B924",
"Q  c #5BBB26",
"!  c #53B429",
"~  c #5BB42A",
"^  c #56BC2A",
"/  c #5BBB2A",
"(  c #54AD31",
")  c #5AAD30",
"_  c #5DA63F",
"`  c #56AB3C",
"'  c #5CAD3C",
"]  c #4EB532",
"[  c #51B332",
"{  c #5BB233",
"}  c #52B33C",
"|  c #60A627",
" . c #63AD25",
".. c #6CAD25",
"X. c #69A72A",
"o. c #62AE2B",
"O. c #6CAD2A",
"+. c #72AC27",
"@. c #79A12D",
"#. c #72AE29",
"$. c #79AC2C",
"%. c #62B125",
"&. c #63B42C",
"*. c #6CB32B",
"=. c #62BB2D",
"-. c #6DBA2E",
";. c #75BE25",
":. c #75B72B",
">. c #64AD32",
",. c #68AA35",
"<. c #64AE3C",
"1. c #61B532",
"2. c #6CB133",
"3. c #64BA33",
"4. c #61BB3F",
"5. c #72B031",
"6. c #7BB630",
"7. c #71B538",
"8. c #79B63F",
"9. c #00CF03",
"0. c #58C13C",
"q. c #65AD4B",
"w. c #7BC445",
"e. c #B28705",
"r. c #FF9901",
"t. c #FEC107",
"y. c #FEEB3A",
/* pixels */
"J n I M M I I K L K e K w K I K w U w e I J J J w e I M K w I e e 5 M I P J K J J w K e I M L Y J r ; w w w r I R a K J I K L Y ",
"w J J L e J L R K L w J J w e J J J I J J 5 K J K w J J e J e M e K M M K K J ~ / t M I J r J J J J L r r w w t S e D p e p K U ",
"M J Y e J K p L J e L w 5 w w K J w J K M J M K w J K J M K w w K K J 5 w e e / ! w W J J L J M r w e t r 5 w J R w E e s L L r ",
"J w J 6 J a K p r I w w e L < M J U J 5 J w M J e w e 9.w 9.K J w J J K w N 6 w w w Q / ^ K - K M t r t r e r e R w p p w w w < ",
"J J ; q t s g p t e < w w L r L J ! / J 9.K w 9.w 5 5 9.e w w J e e e J e J J e M q w Q N w K U R a e e w e w K w e t J e e t q ",
"r J ; ; e t a e e J r r r ; r < 9.w 3.9.w 5 9.5 e e 9.s w w e R e J w 6 w m w P 5 r J r * = / S K E E w w w e e e s w e w e q q ",
"J ; ; 0.e t p e 6 q q r r 9.r 9.w 9.: 9.6 9.9.: e : : 9.9.: : a w w w 5 r U w w - w M r - = 6 6 R R p e e e D E  .p K e e r r K ",
"; r r r r 0 t w e w q ; r 9.9.9.9.9.e : : : : e w 5 : : 9.w w e w e w w w R R R 6 R S 6 5 , n 6 R 6 w e e p p %.Q p w e e r e J ",
"< r ; 9 e w e t w 9 q r : : : 9.9.: 5 e w e 5 N e w e w =.W w e w e K e p D .. .S N ..R n 5 3 6 8 9 q 9 e e 6 e p p 5 w w E p S ",
"L r w e 5 r e e q ; q ; r r 9.: 9.5 5 e 5 5 e e e J p J w R P w w w e J e K K P e w E 9 9 M 1 9 8 6 r e 9 p e p w P 5 e w L q e ",
"< r w e q t d t t ; r q - r w r w e e w e 5 N J 5 w w e w e R J e P 5 w w w w 5 5 w K p S m @.5 2 q w e q 7 K R w w J e e w e t ",
"; < w q t a q e y q q r - w 6 e e E K w e S D 5 R = M w e w w e P ~ O.r ; r r R e R D E S D D 5 5 r q w ; 6 w w w w U P e p e e ",
"; ; q ; r r r t t q e t w 5 D 9 e E N 6 R D S R S c w N =.P 9 , K ^ ^ / J w w E S E Z C S ..S w 5 w 5 e w M w 5 e S 5 W e K w J ",
"r 0.r q t P r w w w e R P 5 6 S N S e 5 K S H S S *.S S ~ S 5 Z M C r ^ r w I J 5 w w > 5 S 5 K - q e e w 5 K w R R m ! S p J J ",
"r r r r K P r t q e e q w M 5 <.C ` U N C <.H K e E S R ^ <.K P 5 e 5 ! W J w w J w w < 5 5 w M - w 9 6 N m D P F H R ~ J p e J ",
"r r ; r r e q W t R r e r J J ) ` N C ! B _ 6 6 9 K S N S ! N e K M 5 P ! L I w I w w w 5 U w J e n 5 5 S m ..e v *.e %.p L e L ",
"; L w w w w ; w P e W w w J V w C N ( U M S 5 9 p D ..e D S R R 6 - = w L J M w K K w K w J e N w ! > M w 3 ! e n R p e P r t R ",
"w Y J w < J w w w J ~ ! R e 5 5 5 M m w N N 5 A p *. .R O.~ %.e.e.e.e.e.w J 3 L w w q P r 5 P K r R ! w ; J e r > e R R K e J a ",
"K K J < < J L N w w w J P w 5 n 5 5 m w 5 S 5  .e S A D R e.e.r.r.r.r.r.e.e.r w L L q r e r K w e e 1.e r w w q 5 J Q w r e e R ",
"! J < J J I r e , K 5 - 5 r e 3 - 5 - 6 5 m 6 D E S Z N e.y.t.t.t.t.t.t.r.r.e.0.e P e w r ; w w w w Q w w w q q ; P P w w q e t ",
"U , < J K , J < Y o.P 5 U w ^ w w M w R e m E S S D X.e.y.t.t.t.y.r.t.t.t.t.r.e.e w r w e q K w ; r / w r w e ; r r r W q q R L ",
"L I ! R I ! K T e w w w q J P P 5 S 5 e e m  .6 E v A e.t.t.t.t.y.r.t.t.t.t.r.e.w w r e w w P w w e e P 5 w r ; r r q W P w e r ",
"J U K L P Y T L J K E p 5 5 ! w R N e e R M  .Z  .p e.t.t.t.t.t.y.r.t.t.t.t.t.r.e.6 w 6 w 5 K 5 K w K =.; 5 r w r r r r r r r r ",
"K I Y J M < J L } a p  .e 6 w S K N S 5 e S  . ...9 e.t.t.t.t.t.y.r.t.t.t.t.t.r.e.w 5 e N w N w r w B w.r w e q q r r t q q r p ",
"< L P w K w K ] 4.p t e e t e 9 R S A S 6 9 #.D :.6 e.y.t.t.t.t.y.r.t.t.t.t.t.r.e.e w w 5 5 N w w 5 5 w.s 5 w e 6 e r q r r t r ",
"r r r r r L < - w ~ t e E e e e E S A A 9 e S 6 -.~ e.y.t.t.t.t.y.r.t.t.t.t.t.r.e.e w 5 3 K w e w 5 w P / e 5 5 5 r w r r q w t ",
"r r ; r K J e N w J e 9.w q 9.w w e ! 3 5 w - w w &.e e.t.t.t.t.y.r.t.t.t.t.r.e.6 p 9 e 5 e ; w = 5 w C R w - 6 e w r w w r r t ",
"r r 9.r w r 9.J w K N 9.w 9.w K e w 6 H 5 e w w e ! w e.r.t.t.t.y.r.t.t.t.t.r.e. .p +.9 e e w A 6 5 e I R ! w w e r 5 w r r e r ",
"r 9.r t P 9.w N P w 9.! w 9.5 e 5 e e R R e e w 5 e 5 - e.r.r.t.t.t.t.t.r.r.e.K  .6 D 6 q e 6 6 6 w w - =.! K w r r 9.r e 9.J r ",
"L 9.w 9.w 9.w K w w 9.N 9.9.9.w q e r 5 P w 5 e q 9 y y q e.e.r.r.r.r.r.e.e.N R 6 6 9 6 5 6 6 8 5 w w q ^ e [ w r r 9.w 9.r r r ",
": 9.r 9.9.9.: w w : : 9.9.9.: : 5 6 w 5 e e e e e y 0 h h s e e.e.e.e.e.5 p | 7.6 8 f 8 6 6 5 9 5 5 - q W w ! e w 9.9.w 9.r 9.r ",
"< : : : 9.: M r 5 e : : 9.w K w q e w r e P R e y s u u k i a ; w 5 e e 5 e e 8.5 6 8 6 9 q e 9 5 r w 5 e K w R e 9.9.9.9.9.9.r ",
"r L w w r J n 5 w e e J e w e w r e r Y ! K =.w q 5 5 5 q s w M K w K w 5 5 A / 5 5 5 w e w w n r 5 w w G P w ,.: : 9.: 9.9.: : ",
"L r - ; J K M 5 5 w w e w w ^ w e w q P 5 / R r q - q e 5 P w 5 R 5 5 w ; =.{ K n e 5 w w w K m 9 K &.E X.e K ~ 3.e R 9.: 9.J J ",
"r r * w L w w 5 6 5 w w w w P K e 5 r t 6 ! ^ t q 5 - q 5 N P 5 &.w , 5 J -.,.R 6 K 5 K 5 w w K w E ~ R D N R ~ =.K m N R J P L ",
"e ; ; w J w w 3 P 3 w 5 w 6 J / e q 5 w e w =.t 5 5 = 5 e = ~ w 1.w w J ; R &.Q e R 5 e e e D 5 w w E E R e N K ^ K > w w L r r ",
"t 3 K K 5 5 e r ~ w w w ; r e ~ K N w J 6 6 r ! 6 6 n 5 K = ~ w ~ w w K ; e ~ P w e w K p e D e w e K E %.R n K ! U ! K w w e w ",
"t 5 e t - S w w =.w r e w w e R ~ w K = 6 S w G 6 R - - >.n { r ! w w e r J R ~ 5 K M N e e A e r 5 S  .%.p 5 C w R G 6 e K w r ",
"E , P w , w e e ^ w e w - U N e K =.e n 6 6 5 J M ! = - S G 5.w R S e H K K H R e R n A w 5 M w e 6 e K R w w = ; R V e e e L L ",
"e n I R M , K R ~ R ~ w w J e M 4 3.%.5.6 D +.%.S ! m m D E $.= c o 3 b K 5 R ! D H N S 5 w w e 5 e w w e w w 5 5 e { 9 e w R J ",
"E e I , L , L N N S ~ R < e J w e Z 6.E Z 9 O.%. .R N D 9 ! 1 + X . . z = e 6 e 0 6 S 9 e 9 e R N a #.D K e e q 6 5 { 9 6 6 K K ",
"L 0 6 I G A J K K M n R , A J w w 9 1.N 3 M e e N 6 G ! w 1 . + X   . # . = 5 5 P e R 9 t a y u ;.E D e e r w w e 5 w 6 7 e R D ",
"I L J J w J , J w r M P n N 5 ; e 5 S B 4 ( K w G M U x . . @ O   . . @   O   $ - 5 w e j h p j Q 5 e w 5 w w q q e q 6 K 6 L I ",
"J J K J J w C J w M w J N M n M 5 N A Z S G P w C 2.K 3.w = # O   . + O O = r w ; ; q r a d 9.t e W 9.L e w w w w e w e e w p J ",
"I L w J J J J J w K w J N ! C J 5 e R G 4 G e w e ~ K R r w 4 O O +     9.w e w 9.q 5 w K w 9.f 9.9.w P r w 5 w q w r w w I e J ",
"J L L J M J G w W M w ; I K U ' w , N D ! r t J 5 5 R e 5 e e = & l m = 9.6 w 6 9.r r w e r 9.6 9.9.~ N r w - w r e w e w e e L ",
"L J J G K G N J P P r w J J U U w 5 w R S w w w w 5 9.9.- w 9.w 5 5 9.9.5 5 w 9.r - r J e 9.w 5 9.9.N C K w w 5 5 q w 6 q e J J ",
"L e L I w w 6 r r K J ] J U ] P w K w e R - e w q e 9.9.5 9.e w w 5 9.9.6 9.w 9.e w r w P 9.J 9.9.9.9.N J w q 5 6 5 e 5 5 w e J ",
"r r L < J N N K w L I [ U w K r e P e w p , w e w r 9.9.6 9.e e P M 9.9.G 9.5 9.K R e 5 w 9.e 9.9.9.9.M m w m w 6 e 5 6 q J w J ",
"J L L K w N w w r w W e 5 w w w K K e e R w e w ; 9.9.9.6 9.e 9.P : 9.9.R 9.9.9.: R J w : : 9.9.9.9.: : ~ M 5 %.5 5 5 5 e e 5 w ",
"w L w r 5 e q q w 5 P P w w w e e K K 6 e R R r w 9.9.9.9.9.9.9.w R : : : : 9.: 3 ^ J , W : : 9.N e R : / M 3 *.w N 5 e e 5 K J ",
"r r w w 5 w 5 5 w = w e J 6 w w w e w e e e e e e 9.9.9.9.9.9.9.5 R : : : : 9.: M K N ^ t : : 9.R e e 3 K m 6 o.9 5 6 w e e 5 I ",
"r w w w w r 5 ; - 5 e e e J 5 e e e w e R 6 e e : : 9.9.: 9.9.: : E N e p K e K e K G ! e 5 e e e p e J e S S N N e e w M 5 K J ",
"L J r r r w r - 5 w e 5 e 6 m S e e R E e E P E  .R p D 9.: 9.K w E G U ' ( K C K K M K 9 e e p e R p N e p e G 6 e w e 6 J K J ",
"w w q q r r r 5 q 5 e 5 w 6 e D e R E p p R e D p R D D 9.: 9.w 5 ) ` ) q.` N K R K w e p 5 e e r q S e e e 6 ! e e w w 5 M w w ",
"q w w w w w q q q 6 5 5 5 J 5 e w w e e e N e e e N e e D  .p e S <.( ! >.C U w S R 6 R e e K R e e p e w 6 e ~ R w w e 5 5 N I ",
"e q q w 6 q q 5 5 e q 5 5 e 5 e w w q e w 5 6 e 6 - - w 9 R p e 6 6 5 e >.6 5 e D E N D R 9 Z a 6 R 6 e e R e W e e r e K = e M ",
"q w w w q e 5 e 5 q 5 q 5 q = t w w 6 e N 5 P e e = 5 e w e w w N 5 w - U w w e R S 9 9 e e 6 6 e p A w w t w -.s w q e w e w w ",
"w w q w q e 6 5 q 6 5 6 5 w % t w w K r w w e w e m w w w w 6 K w w ; ; w w w w e w w e w e M e w E 3 e p t q W e q w w w e w S ",
"w w w 6 q e 6 5 8 5 q 6 w 6 ; q r w w r e r w e t 5 w ; w t e M w w w w w r w J K J w 6 e K K e e W e e e w w r e w e w w J J w ",
"w e r 5 w 6 w e w p e e e e 5 r w w r r r e w w K , e L w 6 w J w ; J w 6 w w 5 w w J w e w w e 5 e 5 w e w e e e 5 w 6 r L e L ",
"J r e e 6 e a w N e 5 e e e w w K e w N w w w e w w e w w w w w J J J M w N J w N w w e w J w w w w r e w M w e ; 5 e w e J J Y ",
"J p e e I 9 J p 6 e e S R w e w w M N w e w w e 6 w 6 e R J t e J - w J w J < J w w w w J w w e e w e w r w w w w r w w < J I J ",
"e I p K R 0 J M J K e J K I 6 , J J e e w w 6 w J I J J K 5 J J w < J J < J K M I J I J M I J w w e w w K J K K e w w r L r J w "
};
