/* XPM */
static char *result[] = {
/* columns rows colors chars-per-pixel */
"64 64 138 2 ",
"   c #2E7512",
".  c #2E7C14",
"X  c #317716",
"o  c #357D15",
"O  c #367E1D",
"+  c #308315",
"@  c #358D17",
"#  c #328419",
"$  c #3C841B",
"%  c #369017",
"&  c #3A9317",
"*  c #3C9D17",
"=  c #379418",
"-  c #3B941B",
";  c #349F1E",
":  c #3A9C1B",
">  c #35A41E",
",  c #3DA61C",
"<  c #3EAC1D",
"1  c #3FB21D",
"2  c #338534",
"3  c #3AA620",
"4  c #3DAC22",
"5  c #3FB221",
"6  c #408F1F",
"7  c #44901C",
"8  c #419C1C",
"9  c #769B1A",
"0  c #43A51D",
"q  c #4CA41E",
"w  c #44AD1D",
"e  c #4BAE1D",
"r  c #5EA916",
"t  c #57A618",
"y  c #52AD1D",
"u  c #5AAD1C",
"i  c #44B717",
"p  c #44B41C",
"a  c #4AB31D",
"s  c #43B81C",
"d  c #4AB81E",
"f  c #56B517",
"g  c #5AB717",
"h  c #5EBD17",
"j  c #51B31D",
"k  c #59B31B",
"l  c #53B81B",
"z  c #64AD17",
"x  c #65A61B",
"c  c #64AB1A",
"v  c #69AA1B",
"b  c #64B517",
"n  c #68BC14",
"m  c #65B319",
"M  c #62B81A",
"N  c #4A9626",
"B  c #4D9D23",
"V  c #529126",
"C  c #5B9A23",
"Z  c #5A962B",
"A  c #44A522",
"S  c #4CA522",
"D  c #43AD21",
"F  c #4BAD22",
"G  c #42A529",
"H  c #4BA42C",
"J  c #40AE28",
"K  c #4CAD2B",
"L  c #54A424",
"P  c #5AA726",
"I  c #53AD22",
"U  c #5BAD24",
"Y  c #54A12C",
"T  c #58A02A",
"R  c #53AC2A",
"E  c #5AAD2A",
"W  c #45B422",
"Q  c #4BB322",
"!  c #44B821",
"~  c #4CB922",
"^  c #45B628",
"/  c #4DB329",
"(  c #44B929",
")  c #4CB92B",
"_  c #53B322",
"`  c #5BB223",
"'  c #54BA24",
"]  c #5BBB26",
"[  c #53B429",
"{  c #5BB42A",
"}  c #54BB2A",
"|  c #5BBB2A",
" . c #54AD32",
".. c #5AAB30",
"X. c #5DA63F",
"o. c #56AB3C",
"O. c #5CAD3C",
"+. c #4EB532",
"@. c #51B332",
"#. c #5BB233",
"$. c #53B33C",
"%. c #60A627",
"&. c #63AD25",
"*. c #6CAC25",
"=. c #61AD2B",
"-. c #6CAD2A",
";. c #72AD27",
":. c #73A42A",
">. c #79A12D",
",. c #71AE29",
"<. c #78AA2C",
"1. c #63B125",
"2. c #69B024",
"3. c #63B32C",
"4. c #6CB32B",
"5. c #62BC2D",
"6. c #6DBA2E",
"7. c #75B62B",
"8. c #64AD32",
"9. c #68AA35",
"0. c #66AE3B",
"q. c #72A633",
"w. c #61B432",
"e. c #6CB133",
"r. c #64BA33",
"t. c #72B131",
"y. c #7BB630",
"u. c #71B538",
"i. c #79B63F",
"p. c #00CF03",
"a. c #6AC02F",
"s. c #60AC40",
"d. c #65AD4B",
"f. c #7BC445",
"g. c #B38705",
"h. c #FF9800",
"j. c #FEC106",
"k. c #FFEA3B",
/* pixels */
"W A ^ D D W / W ! W a p p W Q Q p W Q a ! W W ^ p a W W a p Q Q a w D ^ Q Q W W W w Q a W D ^ ( p s 1 s p s a ( ` k W Q 5 ^ ! ( ",
"p W W ! d W ^ _ Q d Q p W W Q W W D ^ W W D Q W a p W W e W W w j W D W Q Q W { | W W W W ^ W W W W s ! s p s p Q a E y _ l W / ",
"D W ( a ! a a ! W a ! p e s p Q W p p / W W 4 Q p W / D a ^ p a Q Q ^ w a W p 5.| p ' W W ! W D p ! a s p p W p I a ` s j ! W s ",
"W p W e p U ~ u ! W s W a ! 5 D W / W p / w w W a p a p.p p.Q W w W p Q p e e p p p ' | ' Q < ~ F d p a s p p a _ p j k p a p s ",
"W W ! a Q ~ v d d p 1 s 1 W s ! W [ | W p.F p p.p w a p.w p p W a a a W a D W a w s p ] F W _ W _ k p p a p p Q d p j Q p a d i ",
"W s s s a a k a a a s s s 1 s 5 p.p r.p.p w p.p p a p.a p a p _ p Q p w p F p Q w s p p > , | I Q ` U a p a p j p j p p a p s s ",
"W s 1 ! Q a _ a a a s s s p.1 p.p p.2 p.e p.p.2 p 2 2 p.p.2 2 k a p Q w p F p s w p w p , , a w l _ a a j a U ` &.j a p a s p p ",
"s 1 s s s u a p p p i 1 s p.p.p.p.p.p 2 2 2 2 a a e 2 2 p.p a p p p s p p _ ' _ F _ F F p D 0 q I Q a p a j d &.k _ a p a d a d ",
"s 1 w a a s a l w y s s 2 2 2 p.p.2 w d p w w F p p a p ] ' p p p a ~ a j 1.&.U y F *._ 0 w 0 e t e p y a a y a ' l w a p U l I ",
"5 s p j D s a i p i s i 1 i p.2 p.w w p w e a a a Q a p p ' [ p p p a w p _ ~ _ Q p ` y L w A y r y i i e j a a p / D a p s s a ",
"! s s a s d z a a 1 i i 1 p s s p a a p p w e p e p W a a p ` W p / D p p 1 s p w p Q j I S >.w 9 p p p e r a _ p p W a a p p d ",
"1 5 p a p k s d l i i 1 < p a a Q ` Q a a U E w _ 3 , W l p s p l ] -.p W s p _ a j E ` y E U p w p p i 1 a s a s p Q ~ e y a d ",
"1 ! s s s s s a p i a l p e I y e ` F e d E I _ I A e F 5.a y A / } } | ! s p ` E k I R L *.I w w p p p p D p w Q I 1 ' p a p W ",
"s ! 1 s ~ d p i p p p ] ~ w F I Q I p w I I ..I I -.I _ { E w g.g.g.g.g.s W W W D s p > w _ p F < i a p w w Q p I I F [ E j p W ",
"s ! s s ! ' s d i a p p s w w 0.R o.D / F s.E a y _ I _ [ g.g.h.h.h.h.h.g.g.Q p W p W 5 w D W D w w I e F F U a Y U I { W l d W ",
"5 1 s s p a i ' d _ p p p W W ..o.F / K K X.e a I j I F g.k.j.j.j.j.j.j.h.h.g.5 W p p p w F s W p D w e I S -.~ Z 4.a &.l ! a W ",
"s ~ p 1 p p p p Q d ' a p w H F K D  ./ w L p y j &.*.g.k.j.j.j.k.h.j.j.j.j.h.g.Q ! s a p p a F w [ < D p A I p F ' _ p Q p d _ ",
"Q ( W s 4 ^ p p s W { [ ~ a w w w D S p F F w L j 3.&.g.j.j.j.j.k.h.j.j.j.j.h.g.a a p d p p / Q p _ R s s w a p 3 W ` _ a d W k ",
"p ~ W W 5 W s F p W p Q _ s w D w w S W w I p &.Q I g.j.j.j.j.j.k.h.j.j.j.j.j.h.g.s s s p p Q s a a r.p s p p s w W ] s p d l _ ",
"R W 4 ! 5 ^ s a 4 p p < D p a , w w , a w S e U U I g.j.j.j.j.j.k.h.j.j.j.j.j.h.g.~ a s p s p p p p ] p p p i i 1 Q ~ p p p p p ",
"[ 4 4 ^ / 4 s W / =.a w Q p } a w w w _ a S U I _ U g.k.j.j.j.j.k.h.j.j.j.j.j.h.g.p p s p p a p 1 d | p s s p 1 s s s l s s j s ",
"! ^ [ Q ^ [ Q ) d s W p p Q ! ! w I p W a F &.e E C g.k.j.j.j.j.k.h.j.j.j.j.j.h.g.p p a p p _ s p p p Q < p i p s s s ' d p p d ",
"! / / ! ~ ^ ) W W Q ` l a w [ p _ F a e ~ D U L &.y I g.j.j.j.j.k.h.j.j.j.j.h.g.p e p a p p Q p a p F a.1 p p p s s s s p d s s ",
"Q ^ W s D 5 W ! $.u Q &.a e a I a / I e a I &.*.*.y <.g.h.j.j.j.k.h.j.j.j.j.h.g.e w e p F D F p d s G f.p p p p s p s i p s s l ",
"s W W a F p Q +.s.l a a j l W e _ e L I y y ,.U 7.e ` k g.h.h.j.j.j.j.j.h.h.g.w p p p w w D F w p w < f.' w p p j p s s p i d s ",
"s s s s ! s p < s | d a k p a Q ` P U %.j a I e 6.{ p a p g.g.h.h.h.h.h.g.g.E e e a p p w Q p a p p p / ] w e w a p s s s s s d ",
"s s 1 s ( d Q D p W Q p.p p p.p p w [ 0 w w w p p 5.a p p A p g.g.g.g.g.w a F e F a y a w p p p , 0 p K ] p , a a p s p i s p d ",
"s s p.s p s p.W p Q F p.p p.p a a p e { w p p p e { p p p p s 1 p 1 ' -.q 2.U F &.u ;.y e a w U e p p W _ [ w p w p p p p p d s ",
"s p.s d ~ p.p F ~ p p.) a p.w p e p p _ _ p p a w p w < p i s p a p p j e e y _ &.e u p i a e e e p p < | } Q a p s p.s p p.p s ",
"! p.p p.s p.p a p p p.F p.p.p.p p a p w l p e a p y f f i p 1 p p p e w e p e _ y e y y w e e t w p p i | a @.p p s p.p p.s s s ",
"2 p.s p.p.p.2 p p 2 2 p.p.p.2 2 w q d p d d e p l f f m b l p p s i a a w I &.u.e q x r e e e y w p w p ' p [ a p p.p.s p.s p.s ",
"5 2 2 2 p.2 D p p e 2 2 p.p Q p i i a s e ~ _ p f f f f n h g p p a p a w p a i.w w t a t p p y < i < p p Q p ] p p.p.p.p.p.p.s ",
"s ! p < s p A w p w e p p a d p p p s ' [ Q 5.p i w w a s f p w Q p Q p w p E [ w w w p a p a D p p p p E / p 9.2 2 p.2 p.p.2 2 ",
"! s < w ! Q W , a p p a W p ' p p p p ! e | ' s i < i p p ~ p D _ w D p < 5.w.Q A a w p p p e F e I &.{ -.a a { r.p _ p.2 p.W p ",
"s s 3 s ! W p w w w p s p a ! _ a w s s e [ ~ ! p w w w w F / p 3.s < p s e.9.' F a w a D p p a p ` ' ` P a Q 3.3.d S Q ~ Q ! ! ",
"a p 1 s W p p A Q 0 a w p p W | p p e s w p a.a w w , w w , { s w.p p D s ' 3.` a _ w Q a a E w p a { I _ a F Q } / 3 a F ! s s ",
"a w W Q w w a p | p p p 1 p Q { _ _ p W e e s [ i e 3 0 _ , { 1 { p p ( 1 p { _ p p p j j e U a p p Q U 1._ D Q [ Q [ D p p a p ",
"a w W l 0 F p p 5.a p a 1 Q s ` { p a > e I p R y _ , w ..A { p [ w p a p W I { w Q D F a a U a p e I &.&.l w H p [  .y p j p s ",
"` 4 ~ p D s a Q ] p F p < Q Q e Q 5.a D w y w e F Q , 4 I E 4.W e B 0 U Q W [ _ a _ D P w p w p p e a ~ _ p p 3 1 l H d a a ! ! ",
"Q A W _ 4 4 Q I ' ' { p p W e W q r.&.t.e ` ;.{ I { B F U E :.w B C 8 q.F e Q { E E S I w p p p e p p p a s p w e w #.y a p j ^ ",
"` Q ^ 4 ! 4 W F F I { _ w a D p a T y.{ I I *.&.&._ F P q B 8 @ 6 $ o V & w 0 a u y I I p y a [ F ` ;.U a e p p e w { u F F Q Q ",
"W u e W R E W Q D w D [ 4 E W s p y w.S 0 w a a I e R F : 7 - + X X   $ % = @ 0 F p _ j a k f M a.k U a d i p p p w w e r a _ U ",
"W ! W ^ p W D 1 p W D Q A I w < a w I A q  .Q p R A H H @ @ - . .     O . + * * 1 , p w n m a n h w Q p w p p i a a i a Q e ! ^ ",
"! ^ W W W p K W s Q p W A W A < w F P R I I / p Q e.0 E & % $ +   .   . + = , 0 < p i p k z p.a a _ p.Q p p p a p p p a a p _ s ",
"! ! W Q W p W p p W p D F } K W w Q Q E D [ Q p a E _ j * & 7 + . o # @ p.& 0 p p.i < p Q p p.c p.p.p _ s p w p a i p p p W a W ",
"^ ! ! W D ^ E p ' a s p J W K #.s , F U E p s p p w [ p p p w 0 & N B , p.0 p e p.1 p s p p p.e p.p.{ W p p 1 s p p p p p a a W ",
"! W W I Q R F W ~ ! p p Q ! / / p w p _ R w a p p w p.p.< p p.w 0 : p.p.p w p p.s w p d d p.p w p.p.F K W p p w a p p w p a W W ",
"! p ! ^ p p D s s / p +.^ / @./ s Q a a ~ w p p p p p.p.w p.p s p p p.p.e p.p p.p p s s [ p.p p.p.p.p.Q a p i w e p a w a p p W ",
"! s ! ! W I A p W s / ) / p / p a ~ a p j 3 s p p p p.p.e p.a a ! < p.p.R p.p p.F _ p p p p.l p.p.p.p.D F p L w e p p e p W p p ",
"p ! ! F p e s a s p [ a w p p p Q Q d a j p a p p p.p.p.e p.a p.[ 2 p.p.[ p.p.p.2 ' W p 2 2 p.p.p.p.2 2 { D w { w e 0 w p a p a ",
"d ! 1 s e p p p p w ~ ~ w p p p a Q Q e d j _ p p p.p.p.p.p.p.p.p _ 2 2 2 2 p.2 0 [ w < [ 2 2 p.F a _ 2 ' S D 4.p e w a e w W D ",
"s p p s w p i < p , p ~ a a p p p a a a j F a a a p.p.p.p.p.p.p.p _ 2 2 2 2 p.2 F Q / } a 2 2 p.Q a j 0 F F e =.y w e p p a Q ^ ",
"s p p p p p 1 p w w p a p w p p p p a a j a a a 2 2 p.p.2 p.p.2 2 ` e e j Q a F p Q R / a w a a a j a D a I F F F a p p w w Q W ",
"! W s s s s p 1 w p p w a a F U a a _ ` _ U d _ &._ l U p.2 p.a w ] R R O. .Q K / Q a a j e p j a _ j Q a j e E e e p a e W Q W ",
"p p i p i i s < a w p w a a e U a y { j j Q a &.j _ U U p.2 p.p Q  .o.@.d.o.Q a [ Q p a j p a p p a y a p a e { j a p p w D p W ",
"p p p i p p i p p e w w w W w e p p a p a I a a a F a a U &._ a I 0.E _ 8.K / p I _ e I j p I _ p a j a p a a { l p p p F w Q W ",
"p p p p a w a e i e w w i e w a p p p p p e a a a < w p e j _ a e e w e =.e a a U _ I U _ a L k e _ I p p ` ~ ' ~ p p p Q 0 a w ",
"i p i a i p i p w i w i w i , l p p a a a w Q a a , w p a a a p D w p < / p p Q _ y I y e a F a a j L e p a p a.j p i a a p p p ",
"p p i p i a q p e i w e w p ; p 1 p Q s a p l w a L D p p p e a p p W < p w p p e p p a a a w a a ' w p l a p l j i p p p p p I ",
"p p i e i a w w e e e i a p < i p p p s p s p W p w s 1 a s a D p s p 1 p s p s ~ W p e a Q Q a p _ a e d p p p p p a p p W W s ",
"p p p p p e p a a e a p p i w p p p ! s p d p p Q 4 p s s e p W p 4 W s D s p w 1 p W 1 a p a a e a p p p a p a p w p w p W Q ! ",
"p p p a j D k W a a e a e a p p a a p F p p p a W p a p s p p w p p W W p F D p F p s y p W p s p a p p p D a s p w a p Q p ^ ! ",
"^ j d j W y F a e Q a I j W a p p D F a a p a a F W e a I W a a W D ! D W W W p W W W W W p p a p p a p p p a p p p p p W W D W ",
"a W y Q _ k W W w Q Q Q Q ^ a D W W a p p p w p Q W W W Q a 5 W s 5 W p 5 W F W W W W W W W a p a p w p Q W a W Q p p s ! ! s ! "
};
