/* XPM */
static char *result[] = {
/* columns rows colors chars-per-pixel */
"64 64 105 2 ",
"   c #000000",
".  c #04261C",
"X  c #123026",
"o  c #0C4030",
"O  c #08523C",
"+  c #3A981A",
"@  c #35A41E",
"#  c #3CA71D",
"$  c #3EAB1D",
"%  c #3FB21C",
"&  c #338535",
"*  c #3BA620",
"=  c #3EAC21",
"-  c #3FB222",
";  c #769B1A",
":  c #42A51E",
">  c #4DA61F",
",  c #43AD1D",
"<  c #4BAD1D",
"1  c #5EA916",
"2  c #57A618",
"3  c #52AD1D",
"4  c #5AAD1C",
"5  c #44B41C",
"6  c #4AB31D",
"7  c #43B81C",
"8  c #49B81E",
"9  c #5AB717",
"0  c #5EBD16",
"q  c #52B31D",
"w  c #5AB41C",
"e  c #55B81D",
"r  c #65A61B",
"t  c #64AB1B",
"y  c #63B517",
"u  c #68BC14",
"i  c #66B019",
"p  c #62B81A",
"a  c #4C9D23",
"s  c #5A962B",
"d  c #45A523",
"f  c #4CA621",
"g  c #44AC21",
"h  c #4BAD22",
"j  c #42A529",
"k  c #48A42E",
"l  c #4DAE2A",
"z  c #59A725",
"x  c #53AD22",
"c  c #5BAD24",
"v  c #54A12C",
"b  c #58A12A",
"n  c #54AD2A",
"m  c #5AAD2A",
"M  c #45B422",
"N  c #4BB322",
"B  c #44B821",
"V  c #4DB923",
"C  c #45B728",
"Z  c #4DB329",
"A  c #45B829",
"S  c #53B322",
"D  c #5BB323",
"F  c #54BA24",
"G  c #5BBB26",
"H  c #53B529",
"J  c #5BB42A",
"K  c #55BB2A",
"L  c #5CBB2A",
"P  c #53AC31",
"I  c #5BAC30",
"U  c #54AB3B",
"Y  c #5CAD3D",
"T  c #5BBC31",
"R  c #62AD25",
"E  c #6CAC25",
"W  c #69A72A",
"Q  c #63AD2B",
"!  c #6BAD2A",
"~  c #72AC27",
"^  c #79A12D",
"/  c #72AE29",
"(  c #79AC2C",
")  c #61B225",
"_  c #6AB124",
"`  c #63B42C",
"'  c #6CB32B",
"]  c #61BA2C",
"[  c #6CBA2F",
"{  c #75BF24",
"}  c #64AD32",
"|  c #69AA35",
" . c #63AF3C",
".. c #61B432",
"X. c #6CB133",
"o. c #64BC33",
"O. c #76B135",
"+. c #79B136",
"@. c #70B538",
"#. c #79B63F",
"$. c #00CF03",
"%. c #58C13C",
"&. c #6AC02F",
"*. c #65AD4B",
"=. c #7BC445",
/* pixels */
"O O . . O O O O O . . . . O . . . . . . . . . . X         6 B < 6 h g C B 6 h M M 6 M 5 C g M A - 7 5 5 5 7 B M F 4 N N - M B A ",
"O O O O o o O O o O O . O . . . . . . . . . . X X X     6 g B g 6 M g M N N B L L 5 h M B B M M M M B - 7 5 7 6 S 6 c q S F M Z ",
"o o o o o o X X o o O . O . . . . O O . . . . O         N B 6 6 N B C , 6 N 6 J K 5 G M M M M M B 7 8 8 5 5 5 6 x 5 D 5 q B B 7 ",
"o o o o o o X X o o o O . . . O O O . . . .         6 $.5 $.M M 6 6 g N 6 6 , N 5 6 F K F N g N h 6 7 8 7 5 5 6 S 5 q q 5 5 M 5 ",
"o o o o X X X X o o o . . . O O O . . .     X o O   6 $.5 5 5 M 6 N 5 6 , M B 6 g 7 7 G g 6 Z N q q 6 6 7 6 7 6 6 5 6 B 7 6 7 7 ",
"X X X X X X X X X o X . X X X X O . .     X X o     $.q 5 6 5 S 6 M 5 < 5 h 6 N , 7 5 5 @ # L x M i D 5 5 6 6 6 6 q 7 6 6 6 5 7 ",
"X X X X X X X X X X X X X X X O . . .   X X o   6 & & $.$.& & w 5 5 B , 5 h 5 5 $ 5 $ 7 $ # 6 , S x q 6 6 < c D R q 6 6 6 7 7 6 ",
"X X X X X X X X X X X X X X o o . . O O     o O 6 , & & $.5 6 5 7 6 5 5 5 S F N h S x 3 g , : < S N 5 6 6 q 6 ` w S 6 7 6 8 5 6 ",
"X X X X X X X X X X X X X X X X X O O O O O   O     6 5 G F 5 5 5 6 N 6 q D E R x N ! S > , : < 2 < 7 2 < 6 < 5 F q , 6 5 D q h ",
"X X X X X X X X X X X X X X X X o O O O O O   O     q B 6 F S , 5 5 6 M 5 S 6 N 6 5 D 3 f g a < 1 < 7 6 < q q 6 7 N M 6 5 M 7 6 ",
". X X . . X X X X . . X X X X X o o O O           6 < 5 5 5 G M 6 N , 5 M 5 7 , , 5 6 S x f ^ < ; 5 7 5 6 1 6 S 6 5 N 6 6 5 6 6 ",
". X X . . . X . . . . X X X X o o o           N S * = 5 q B 5 5 V L ! 5 - 7 5 S 6 S c D x x c 5 , 5 7 5 % 6 5 5 7 % N V < q 6 8 ",
". . . . . . . . . . . X X X X X o X       D x S h d < h ] N 3 j N K K L B 5 5 x x D n n 3 E h , , 7 5 5 5 , % 6 6 x g F 7 N 6 g ",
". . . . . . . . . . . . X X X X X X X X     m x x / x S J x 6 f g Z 7 K 7 5 M M , 5 % # , x 6 N , 7 6 5 , , N 6 S x h H c q M B ",
". . . . . . . o o . . . . X X X X X X         < q S x Z K  .N N , 6 6 H F M B 6 M M 5 - , g M g , , 2 6 g n ) 6 v m x J B q 6 M ",
". . . . . . o o o . . . . . . . . .         < < 3 q x < S H h N N g = N H B M M M 5 5 5 g h 5 M 5 , , , x f E N s ' 6 D w B 5 B ",
". . . . . X o o o . . . . . . . .   o o     C x q R E < c n S w < # # 5 B N g 7 N B 7 N 5 M 6 h , J # , , : D 7 : D 3 5 N 7 e N ",
". . X . X X X o o o o o . . . . .   o O O O   n q ` R S ` D ) c D < % g 5 M : B 6 6 5 8 5 5 N N 7 S H 5 5 5 6 7 @ 7 G S N 6 B w ",
". . X X X X X X o o o o .         X X O O O   Q N S z c c O.] G G N 5 M 5 5 5 B M 5 7 7 5 5 6 5 6 < ..6 7 , 5 7 , B G 7 7 6 6 S ",
"X X X X X X X X X X X X X X o o o     .   f < c c x x f c R w G 5 5 B N - $ V %.8 N 5 5 5 7 6 5 7 7 K 5 7 5 5 5 5 N N 5 7 7 8 N ",
"X X o o o o o X X X X X X X o o o o         c x x z W 6 ) D D D M 6 G M $ % 5 K 6 5 7 5 5 7 6 7 5 5 L 7 7 6 5 7 % 7 7 e 7 7 S 7 ",
"o o o o o o o X X X X X X X X o o     . .   R < c b c < ) D ) M S B 5 B 5 5 A S 5 7 7 6 5 5 Z 5 5 6 8 N $ 5 7 5 7 7 7 e 6 5 8 5 ",
"o o o o o o o X X o o X X X       . . O . . . O       6 w h S M 6 N - M 5 , % # 5 < 7 < 6 5 h 6 N 7 N ] % 5 7 5 7 7 7 7 7 7 7 7 ",
"o o o o o o o o o o o o X     O . . . . . . . X X     c _ < 6 N N 6 5 M 6 < 5 + < , < 5 g 5 h 5 7 5 j =.7 , 5 5 7 7 7 7 6 7 7 q ",
"o o o o o o o o o o o o X X o   O . . . . . . . X       D , 6 5 5 g h , N N h , 5 5 5 5 , $ h 5 7 , $ =.F , 6 7 q 7 % 7 7 7 8 7 ",
"o o O O o o o O O O o o X o o o   . . . . X X X X o O   6 < M 6 # 5 , , f 6 n 6 < 6 M 6 , M 5 6 , 5 5 Z ] , , , 6 5 7 % 7 7 7 8 ",
"o o O O O o o O O O O o X X X O     . . X X X X X o     5 : 7 5 5 7 7 5 , 6 n , h q 3 6 < , 5 6 , # 5 l S 5 # < 6 7 5 5 7 7 7 8 ",
"o O O O O O O O O O                 . . . . X X o   5 N 7 $ 7 % 7 % S _ > E 4 < R 4 / 3 , 6 5 z < , 5 h F F , 6 , 5 6 5 7 7 6 7 ",
"O O O O O O O O       . . . . . . . . . X X X X o O , $ 7 7 5 % 7 6 7 D < < q S t < q 5 5 6 < 6 < 5 7 , ] K N 7 7 7 $.7 q $.5 7 ",
"  O O O   O O     . . . . . . . . X X X X X X X O O     6 7 5 7 5 5 , 5 , 6 x S 3 < 3 2 , < < 2 , 5 5 5 K 6 P 7 5 7 $.5 $.7 7 % ",
"X   O O   O   . . . X X . . X X X . X X X X X O O O     y e 8 5 5 5 6 6 , q z @.< 3 r 1 < 6 6 2 : 5 $ 5 V 5 H < 5 $.$.7 $.7 $.7 ",
"  O   O O   X . . X X X X X X X X X X X X o X         9 u 0 9 % 5 6 5 < , 6 6 #.: , 2 5 2 5 7 3 $ 7 , 5 6 6 6 G 7 $.$.$.$.$.$.7 ",
"O O     O       . X X X X X X X X X X X o o       , , < 7 e 5 g 6 5 N 5 , , m G , , , 5 6 5 6 : 5 5 6 5 m N 7 | & & $.& $.$.& & ",
"O O O       O O         X X X X X X X o o o   5 5 , 7 5 7 N 5 g S , , $ 5 ] I N f 5 , 5 5 5 N h x 6 Q J ! N N J o.6 S $.& $.M B ",
"O O O O O O o o o o o o         X o o o O o     5 , $ 5 , f V 5 ` 5 $ 5 5 [ X.H h 6 , N g 5 5 N 7 S S G z 6 S J ..N f h N N B B ",
"o o O O O o o o o o o o X       O X     O O       , # , 5 $ J 5 ..5 5 M M S ` F < S , 6 6 6 c % 5 6 D x h 6 N S G N * B 6 B 5 7 ",
"o o o O O o o o o o o X X   O O O   X       7 H 6 < = : x # J % J 5 % N % 6 J N 5 6 5 N S 6 c 6 , 6 N c ) S g N H N S h 5 5 6 7 ",
"o o o o o o o o o o X X X         O     < x 5 n < S # , m d J 5 H 7 5 6 5 M S J , N g h 6 6 z 5 5 < S R ) q # l M S P < 6 N 5 7 ",
"o o o o o o o o o X X X X X X o o         3 , N N Z # $ x n X.5 S x 6 m N N J S < F , z 5 5 g 5 5 < 6 N S 5 5 # % S k 6 6 6 B B ",
"o o o o o o o o X X X X X X X o o o o   < c / R < J a h R J ( 5 x Q 6 +.Z M x S x J f z , 5 5 6 6 5 6 5 6 5 5 , , 6 ..3 B 6 S M ",
"o o o o o o o X X X X X X X o o o     D n z E ) c S h c x m 6 5 f < 6 ..5 6 h 6 c 3 x q 6 3 6 S h w ~ D 6 6 5 5 < , J 3 < < 5 S ",
"o o o o o X X X X X X X X           ..f : , 6 6 x < n S % N g % h 5 , H 5 % $ 5 N 7 S 3 6 9 q p { D c 6 6 5 5 5 5 , , < t 6 S c ",
"X X X X X X X X X o o o o   5 $ N , z d > P N 5 n , n T 6 5 M 5 , , , Z 5 5 5 # % 5 5 < y y q u D 5 6 5 , 5 7 6 6 6 6 6 5 6 M M ",
"X X X X X . . X X o o o o   j % 6 g c l x n M 5 Z | B o.6 % K 5 , 5 6 % 5 % 5 5 % 7 % 5 9 i $.6 6 S $.6 5 5 7 5 7 5 5 6 q M S - ",
"X X X . X . . X o o o X .     M g 5 N n g H N 5 6 J S q 5 5 S 5 % 6 g 5 $.B 6 5 $.% $ 7 N 6 $.t $.$.5 N 7 5 , 7 5 6 5 5 B M 6 M ",
"o X . . . . . . o o o . . .       * x c m 5 5 5 5 , Z 6 , 5 6 5 g L S 5 $., 7 < $.7 5 7 5 5 $.< $.$.J C 7 % , 5 5 6 7 5 6 6 6 - ",
"o . . . . . . . . . . . . . . X       S m 5 6 7 , , $.$., 7 $.5 5 g $.$.< , 5 $.7 , 7 8 6 $.5 , $.$.h h 6 5 5 , 5 6 , 5 7 5 B B ",
". . . . . . . . . . . . . . . X X X X         5 7 5 $.$., $.6 7 5 , $.$.h $.5 $.7 5 5 7 N $.B $.$.$.$.l 5 5 7 , < 5 6 , 6 6 5 g ",
". . . . . . . . . . . . X . . X X X X O O O   5 7 5 $.$.< $.5 N B = $.$.x $.6 $.< S 5 , 7 $.q $.$.$.$., f 5 f , < 6 , 6 5 M 5 6 ",
". . . . . . . . X . . . X X X X X X X O O     5 5 $.$.$.< $.6 $.S & $.$.S $.$.$.& F B 5 & & $.$.$.$.& & J M , D , 6 , , 5 6 g 6 ",
"X . . . X X . . X X . . X X X X X X O O     S 5 5 $.$.$.$.$.$.$.B S & & & & $.& d H M = F & & $.x 6 S & G f , X.6 h , 5 < , 5 C ",
"X X . . X X . . . X X . . X X X           6 6 6 6 $.$.$.$.$.$.$., S & & & & $.& g N h K N & & $.Z 6 6 : f h < m 3 , , 6 6 6 g B ",
"X X X X X X X X X X X X X X X X X     N S q 6 6 & & $.$.& $.$.& & S < < 6 N N M 6 N l S 6 5 6 6 6 q 6 6 6 x x h 6 < < M , , N M ",
"X X X X X X X X X X X X X X X X o o O       6 S R S S c $.& $.6 6 J n H Y P N P N Z h 6 3 < 5 3 6 N q N 6 6 < n h 5 6 5 < M M B ",
"X X X X X X X X X X X X X X X X o o O O O       3 S x x $.& $.6 6 I U U *.Y g 6 Z Z 6 6 q 5 6 6 5 6 4 6 5 6 < J 6 6 7 6 , , 6 M ",
"X X X X X X X X X X X X X X X X o X O O O O   6 6 N 6 q c ) q 6 h  .m S } n N 6 3 S < N q 5 < S 5 6 6 6 6 6 6 J q 7 5 6 , , Z M ",
"X X X X X X X o o X X X X o o X . . .       6 6 6 # , 5 3 S q < h < 6 < } h 6 6 D S h c 3 6 x c < 3 h 5 5 x N F N 6 5 6 6 : 6 , ",
"X X X o o o o o X X X X X X o O . . .   N , N 5 6 # , 7 5 6 5 5 h , 5 $ N 5 , B S x z q < 6 < 6 6 S z 6 6 6 7 &.q 7 7 5 7 5 6 5 ",
"X o o o o o o o o X o o X . . O O . . o     S 6         6 7 6 N 5 5 % % 5 5 7 5 6 % 5 6 6 6 5 < 5 G , 6 q 8 5 e q 6 5 6 7 5 5 3 ",
"X o o o o o o o o o o O O . . . . . . o o         O     6 7 5 g 5 5 5 % , 7 5 5 N M 6 < 6 N N 6 7 S 6 < 6 7 6 7 5 5 5 5 5 M B 5 ",
"O o o O O O O O O O O O O O O . . . . X o o o o O   6 B 7 3 5 5 % % M - < 5 5 , 5 M % 5 6 5 6 5 < 5 , 7 , 6 5 6 5 5 6 , 6 M 5 M ",
"O O O . . O O O O . . O . . . . . X X X X o o o O     5 5 5 5 M M 6 M M 5 N g 5 , 6 B 3 5 M 6 5 5 6 5 6 6 , 6 7 7 $ 6 5 6 B B A ",
"O O . . . O O O O . . . . . . . X X X X X X o O O O     S M 6 N B $ M , 5 M - M , M M 5 M 5 6 5 5 5 6 5 7 5 6 5 5 5 5 5 M M g M ",
"O O . . . . O . . O . . . . . . X X X X X X o O O O O     , M B 5 - M B M B h M C B M C M - B 6 5 5 6 5 N M M B 6 6 5 M 7 B M B "
};
