/* XPM */
static char *result[] = {
/* columns rows colors chars-per-pixel */
"64 64 62 1 ",
"  c #000000",
". c #04261C",
"X c #123026",
"o c #0C4030",
"O c #08523C",
"+ c #3EAB1D",
"@ c #3FB11C",
"# c #338534",
"$ c #3CAE22",
"% c #42A41E",
"& c #44AE1D",
"* c #4AAE1E",
"= c #53AF1D",
"- c #45B717",
"; c #44B41D",
": c #4AB31D",
"> c #42B81C",
", c #4AB91E",
"< c #53B31E",
"1 c #5AB21C",
"2 c #64AD17",
"3 c #69AA1B",
"4 c #43AD21",
"5 c #4BAE22",
"6 c #4BAC2B",
"7 c #59A723",
"8 c #54AD23",
"9 c #5BAD23",
"0 c #58A12A",
"q c #52AE2B",
"w c #5BAE2C",
"e c #44B422",
"r c #4BB422",
"t c #45B923",
"y c #4DB923",
"u c #45B628",
"i c #4EB42A",
"p c #53B322",
"a c #5BB324",
"s c #52B925",
"d c #5EB926",
"f c #51B42A",
"g c #5BB62A",
"h c #55BB2A",
"j c #5FBB2B",
"k c #5BAC30",
"l c #5DA63F",
"z c #57AB3D",
"x c #60AE25",
"c c #6CA926",
"v c #69A72A",
"b c #64AD29",
"n c #6DAD2B",
"m c #61B325",
"M c #64B329",
"N c #62B92B",
"B c #6EBA2C",
"V c #63AF3D",
"C c #65BA33",
"Z c #76B135",
"A c #00CF03",
"S c #58C13C",
/* pixels */
"e4u44ueeut:e;rerererueeu&:4u::e;*5&uerr4e>rr ..OO...o  XXoooXXXX",
";e;u:repr:;5e;rre4eee&re:;u;:ee**e44rre   O...O...O.o O oooooooO",
"44rrt::te:t;5>;er;>r4e4e;;:4ee;:rre*;r:  XX.......O.OO O OOOOOOO",
"e;e*e1r<tt;>*e;4eie4ee*e:r:A:A:e;:ur::   X.......O.  O OO OOO...",
"ee>:rp3<,;>>@@teefN;Ar;A*;;A&-ee*r:;*4 OoXXX      OOOOOOOoooo   ",
">t>t::1:::>>>>>@AeCA*&A&;;A<;:&p:r-&;*  oXXX  oXXoOOOoOOoooooX  ",
"e>@>r:p:=->>>A@A;A#A&AA#*##AA##1;er&;r;; oXX. ooXoOOOooOoooooX .",
">@>t@1,>*>>@>AAAAA-####:;*##A;:;:-;;;rapOoXXXX. XXoooooooooXXXXX",
"@@;:r>r:+<>>###AA#&:;&*&-;:;Ns;;>*r:<9  OOXXX  XXXoXXoooooXXXXXX",
"te-=4-:-;->---A#A&&-&**e:;<e>sp;;;:e:r  OOO oooXXXXXXoooXXXXXX  ",
"@S>;>:2<:-->+->;&::>;&*;*;*;:;a$:y&;e&>    X oXXXXXXXXXXXXXooo X",
"@@-:,1>,:--@@;*r:ar**9w*8$+e<;;*rgv-;>;p:   o   .oooXXXX..Xooo X",
"@>>@>>>::;: O 88:a**r98<8%*5Nr=4rhhje>;a9a8  ......ooX....ooo.. ",
">>>>ty----:OO 5=*p;*88k88n88g8*54i>h;eee5>  .......oo...........",
">>>>rs;,>* O O V6z4rilk:=p8rhVr<5;*ss;e;e  XXXXXX............X..",
">>@>>:-y  OO OO l6ii6l**=:958f5re5+rfteee@  XoXXXX........X..XXX",
"@S   oooooOOOOOOO      8pxc:9q<<*++;er4eer  oooXXX.....XX.XX.XXX",
"@@  XooooooOOooOOOXXoo 8<Mx<baga9*&4e>%e; OOOoXXXXXXXX O XXXXXXX",
";reeXXoooooOoooOOoXooX*br8779ZNdar;4>;>>e OOOXXXXXXXXXOO XXXXXXX",
"f   XXXoooooooooooXXo *ax885xx1d> O 4+yS:rr ..OXXXXXX O O XXXXoX",
"oooXXXXXoooooooXooXX  af89v:aamarOO +-rh,;  .OXXX.o  OO OO XXXoo",
" oooXXXXXooooooXXXXXXo  907*mdmr O O :uf>; ..   oooooOOOOOOO    ",
"t   XXXXXXXooooXXXXXooo  p8y<*  OO OO   O...O  XooooooOOooOOOXXo",
"rureooooXXXXXXXXXXXXoo     ooXooOOOOOOO      ..XXoooooOoooOOoXoo",
"ter;ooooX..XXXXooo.   n9  XooooooOOooOOOXXoo   XXXoooooooooooXXo",
">   ..oo  O .Xoo...... *BgXXoooooOoooOOoXoooooXXXXXoooooooXooXX ",
"  X.....OOO ..oo.......   XXXoooooooooo  O  oooXXXXXooooooXXXXXX",
"XXX.... OO O  .o...XX oooXXXXXoooooooXoOOO     XXXXXXXooooXXXXXo",
"XXX.   OOO OOO ...XXXX oooXXXXXooooooX OO O   .ooooXXXXXXXXXXXXo",
"OXXX   OOO OOO ...XXXoo   XXXXXXXoo   OOO OOO  ooooX..XXXXooo.  ",
"oooooooOOOOOOOOO        O ooooXXXXX   OOO OOO  ..oo.....Xo   ooo",
"ooooooooOOOoooOOOOXXooo OOoo   oooooooOOOOOOOOO        ..o  Xooo",
"XXooooooOOooooOOooXoooo   ..  XooooooooOOOoooOOOOXXooo ...o.XXXo",
"XXooooooOOooooOOooXoooo X.....XXXooooooOOooooOOooXoooo......XXXo",
"XXXoooooooooooooooXXo  XX.....XXXooooXoOOooooOOooXoooo..    XXXX",
"XXXXooooooooooXoooXX   XX.    XXXXoooooooooooooooXXo   ooooXXXXX",
"XXXXXXooooooooXXXXXXXoo  ooooXXXXXXooooooooooXoooXX   X ooooXXXX",
"XXXXXXXXooooooXXXXXXoooo  ooooXXXXXXXooooooooXXXXXXXoo      XXXX",
"XXXXXXXXooooooXXXXXXoooo      XXXXXXXXXooooooXXXXXXoooo     XXXX",
"ooooXXXXXXXXXXXXXXXXooo  X    XXXXXXXXXooooooXXXXXXoooo   Xooooo",
"ooooXX..XXXXXXoooo.    oXXXXXXoooooXXXXXXXXXXXXXXXXooo  XXoooooo",
"..oo.......Xooo........ XoXXXXoooooXX..XXXXXXoooo.    oo    ...o",
"............ooo.........      ...oo.......Xooo........    X.....",
"............ooo.........    X..............ooo.........   X.....",
"..............o....XXXXXX   X..............ooo.........   X.....",
"..................XXX    XXXX................o....XXXXXX   .X...",
"...X...X....XX....XXXOOOOXXXX.X..................XXXXXXXXX XX...",
"...X...X....XX....XXX   OOXXXXX...X...X....XX....XXXooo   XXX...",
"..XX...X...XXXX...XXX   OOXXXXX...X...X....XX....XXXooo   XX...X",
"XXXXXXXXXXXXXXXXXXXXXX      XX...XX...X...XXXX...XXXXXoOOO  XXXX",
"XXXXXXXXXXXXXXXXXXXXXXXOO XXXXXXXXXXXXXXXXXXXXXXXXXXXXOOOOO XXXX",
"XXXXXXXXXXXXXXXXXXXXX    OooXXXXXXXXXXXXXXXXXXXXXXXXXXOOOOO XXXX",
"XXXXXXXXXXXXXXXXXXXXXOOOOOooXXXXXXXXXXXXXXXXXXXXXXXXOO..  XXXXXX",
"XXXXooXXXXXXXXXoXXXXXOOOOOooXXXXXXXXXXXXXXXXXXXXXXXXOO..  XoXXXX",
"XXXXooooooXXXXoooo..O    ..XXoXXXXXooXXXXXXXXXoXXXXXXX..  OoXXXX",
"oooXooooooooXXoooo...OOO ...OoXXXXXoXOoXOXXXXoooo..OOO.... .Xooo",
"OOOOOOOOOOooOOoO    .   o.OOO.XoooXooooooooXXoooo...OOO....    O",
"OOOOOOOOOOooOOoOO OOooooX....OOOOOOOOOOOOooOOoOOOO..........XXX ",
"OO..OOOO..OOOOO.. OOooooX....OOOOOOOOOOOOooOOoOOOO..........XXX ",
"....OOOO...OOOO.  OOooXXXX.....OO..OOOO..OOOOO....O....X......X ",
"...O..O....OOOXO OOOOXXXXXXX.......OOOO...OOOO............XXXXXo",
"...O..O....OOO  OOOOOXXXXXXX......O..O....OOO.O...........XXXXXo",
"..............  OOOOOXXXXXXX......O..O....OOO.O...........XXXXXo",
"................. OOO XXXX..................................XXXo"
};
