/* XPM */
static char *result[] = {
/* columns rows colors chars-per-pixel */
"64 64 103 2 ",
"   c #000000",
".  c #04261C",
"X  c #123026",
"o  c #0C4030",
"O  c #08523C",
"+  c #349F1E",
"@  c #3BA71E",
"#  c #3EAC1D",
"$  c #3FB21C",
"%  c #338535",
"&  c #38A520",
"*  c #3DAC22",
"=  c #3FB221",
"-  c #42A61E",
";  c #4BA51E",
":  c #44AE1D",
">  c #4AAE1E",
",  c #52AE1D",
"<  c #59AD1C",
"1  c #45B717",
"2  c #44B41C",
"3  c #4AB31D",
"4  c #43B81C",
"5  c #4AB81E",
"6  c #57B517",
"7  c #5AB717",
"8  c #5EBD17",
"9  c #51B31E",
"0  c #59B31B",
"q  c #53B81B",
"w  c #64AD17",
"e  c #69AA1B",
"r  c #63B517",
"t  c #66B816",
"y  c #68BC14",
"u  c #65B319",
"i  c #61B818",
"p  c #4C9D23",
"a  c #43A623",
"s  c #4CA622",
"d  c #43AC21",
"f  c #4BAD22",
"g  c #4BA62E",
"h  c #40AE28",
"j  c #4CAE2B",
"k  c #56A626",
"l  c #5AA725",
"z  c #54AD23",
"x  c #5BAD24",
"c  c #58A12A",
"v  c #53AD2A",
"b  c #5AAD2A",
"n  c #45B422",
"m  c #4BB322",
"M  c #44B922",
"N  c #4CB922",
"B  c #45B628",
"V  c #4DB329",
"C  c #42B929",
"Z  c #4CB92B",
"A  c #53B323",
"S  c #5BB323",
"D  c #53B925",
"F  c #53B429",
"G  c #5BB42A",
"H  c #55BB2A",
"J  c #5CBB2B",
"K  c #55AD32",
"L  c #5BAC30",
"P  c #5DA63F",
"I  c #56AB3C",
"U  c #5CAD3C",
"Y  c #4EB532",
"T  c #51B333",
"R  c #5CB234",
"E  c #5BBC31",
"W  c #52B33C",
"Q  c #60A627",
"!  c #63AD25",
"~  c #6DAC27",
"^  c #69A72A",
"/  c #62AE2A",
"(  c #6CAD2A",
")  c #71AE2A",
"_  c #79AB2C",
"`  c #62B225",
"'  c #6AB124",
"]  c #63B42D",
"[  c #63BB2C",
"{  c #6DBA2E",
"}  c #75B62B",
"|  c #64AD32",
" . c #64AE3C",
".. c #62B431",
"X. c #6CB133",
"o. c #64BA33",
"O. c #61BB3F",
"+. c #75B133",
"@. c #7AB433",
"#. c #00CF03",
"$. c #58C13C",
"%. c #60AC40",
"&. c #65AD4B",
/* pixels */
"n a B d d B B m B 5 3 n 2 m M m n m n N M n n n 2 > n n m > n 2 3 m d         X . . . . . . . . . . O . . . . O O O O O . . O O ",
"2 n 2 B 3 n n A n 5 2 > n 2 3 B n d n m d d m n m n n n 3 n n > > n d n     X X X . . . . . . . . . . O . O O o O O o o O O O O ",
"d n N n n 3 3 B n 5 n n > 4 2 m n 2 n m n n d m 2 2 m d 2 n 2 3 m n m >         O . . . . O O . . . . O . O o o X X X o o o o o ",
"n 2 n > 2 S 3 0 M n 2 4 > n n d n V n 2 B : 2 n n n 3 #.3 #.m B > 2 n n 2 m         . . . . O O O . . . O o o o X X O X o o X O ",
"n n M 3 m A e 3 5 2 $ 4 $ M 4 n n F J d #.f 1 #.> 1 > #.1 n n d 3 3 2 3 3 n   O o X     . . . O O O . . . o o o X X X X o o o O ",
"n 4 4 4 3 3 0 3 1 5 5 4 4 $ 4 = #.n o.#.2 d #.2 2 3 #.9 2 2 1 A 3 n 3 : 1 s     o X X     . . O X X X X . X o X X X X X X X X X ",
"n 4 $ M m 3 9 5 > 3 4 4 4 #.$ #.2 #.% #.> #.#.% > % % #.#.% % 0 2 2 f : 2 m n 2   o X X   . . . O X X X X X X X X X X X X X X X ",
"4 $ 4 4 $ 0 3 5 : 2 1 $ 4 #.#.#.#.#.1 % % % % 3 1 > % % #.2 > 2 5 3 4 4 2 A A A O o     O O . . o o X X X X X X X X X X X X X X ",
"n $ 2 > 2 2 3 q 2 < 1 4 % % % #.#.% : 3 2 : > d 1 2 3 2 [ D 2 2 4 > 3 3 9 !     O   O O O O O X X X X X X X X X X X X X X X X X ",
"= 4 4 3 2 2 3 1 1 $ $ 1 4 4 #.% #.3 : 3 : : 3 3 3 n 9 2 2 D A 2 2 2 3 n 3 m     O   O O O O O o X X X X X X X X X X X X X X X X ",
"M $ 4 5 4 3 u 3 5 1 2 1 $ 2 4 2 # 3 3 4 1 : d d > 2 f 2 2 3 A n 3 N d 2 n 2 2           O O o o X X X X X . . X X X X . . X X . ",
"$ = 2 3 3 0 4 5 3 1 1 $ # 1 3 3 3 S m > > x G > z & # 4 3 5 2 > N G ~ 2 2 4 2 A 3           o o O X X X X . . . . X . . . X X . ",
"4 4 4 4 $ 4 4 3 3 2 3 q 2 > z z 3 S > > A x z A A a > f ] 3 0 h N H H J n 2 n S x A z       X o X X X X X . . . . . . . . . . . ",
"4 M 4 $ N N 2 1 1 1 5 D N > > f 3 z 1 f f z b z z ( z z J b : s d j 4 H 5 2 n n > 2     X X X X X X X X . . . . . . . . . . . . ",
"$ M 4 4 m D 2 5 2 3 1 2 2 2 >  .g I f m V %.L 3 9 A z A D U A 3 > 2 f D D n 2 2 n         X X X X X X . . . . X X . . . . . . . ",
"M 4 4 4 4 1 4 N N q 2 3 2 d n K I j V j j P > > , 3 x > A F f m 2 d # N V M n n B 2         . . . . . . . . . O X O . . . . . . ",
"4 N d 4 : n $ 2 m A D 2 4 d g > j n K j > z > ; 0 x ~ > ! v 0 9 > # @ 2 n 2 d n m m     o o   . . . . . . . . o o o X . . . . . ",
"m M M 4 2 M 2 2 4 2 S F m 3 # > : > s 2 d f : z 9 ] ! m / S G x x 3 # n n n : n 3   O O O o   . . . . . o o o o o X X X . X . . ",
"d N n = * M n f 2 n 2 m A 4 > - @ > s 2 : z 1 ^ m z z x S +.[ [ S m 2 d 2 2 4 4 n   O O O X X         . o o o o X X X X X X . . ",
"v n d M n M 2 3 * n 2 # 2 2 m @ 2 # @ > > s f x ! z z s x ! 0 D 4 2 N n d # N $.m m N   .     o o X X X X X X X X X X X X X X X ",
"F * * M Z * n d B / 5 : f 2 H 2 : : : A 3 s z z z x ^ > ` S ` S 3 m S 4 # 2 2 H 3 4         o o o o X X X X X X X o o o o o X X ",
"M B F V M F n Y 5 n 3 2 4 n N m : z 2 m 2 s ! > x c l > ` S ` n A M M n 2 2 B F 4 2   . .     o o X X X X X X X X o o o o o o o ",
"= V M M Z M Z M = 3 S 9 > d F 1 F > A 1 3 d ! k x , z 3 9 3 A n 3 m 4 M 2       O . . . O . .       X X X o O X X o o o o o o o ",
"m B m n a n 4 M W 0 A ` > 3 3 A m f z > 3 z ! ! ~ < _ ! ' > 3 3 3 > n n 3     X X . . . . . . . O     X O X X o o o o o o o o o ",
"M n N 2 m 4 B Y O.9 2 3 3 9 3 > A z k z , , ( x } > S 0 S > 2 2 2 d m >       X . . . . . . . O   o X X o X X O o o o o o o o o ",
"4 4 4 4 5 M 2 @ 2 S 9 3 S 3 3 m S z k Q , 3 z > { G 2 3 2 s n 3 - 2 d :   O o X X X X . . . .   o X O X o O O O O o o o O O o o ",
"4 4 $ 4 m 2 3 f $ f n #.1 2 #.2 1 : F - : 1 # > 2 o.3 1 2 d 1 $ 2 $ 1 1     o X X X X X . .     o o X X o O O O O o o O O O o o ",
"4 4 #.2 2 M #.n 5 m m #.2 #.2 2 3 2 > S : 2 2 2 > b 1 2 2 $ 2 2 1 $ Z ) ; '   o X X . . . .                 O O O O O O O O O o ",
"4 #.5 1 m #.n f n 1 #.Z 3 #.> 2 > 1 3 A 5 3 1 m : 3 : # 1 1 4 $ 2 2 2 A 3 , O o X X X X . . . . . . . . .       O O O O O O O O ",
"4 #.n #.n #.1 n 2 n #.f #.#.#.2 2 3 2 : m 3 : 3 1 , , 6 1 2 2 1 1 2 > >     O O X X X X X X X . . . . . . . .     O O   O O O   ",
"% #.4 #.#.#.% 2 2 % % #.#.#.% % : ; 5 : 3 5 3 2 3 6 6 u i q 3 2 2 2 m 3     O O O X X X X X . X X X . . X X . . .   O   O O   X ",
"= % % % #.% 2 2 3 3 % % #.2 m 2 1 3 n 4 9 m A 3 6 q 6 7 y 8 0 $ 2 2 1 3 #         X O X X X X X X X X X X X X . . X   O O   O   ",
"4 M n # 4 n a : 1 : 3 n 2 2 N : 2 2 4 N F n [ 2 1 : : : 2 q 2 d m 2 m 2 : 1 k       o o X X X X X X X X X X X .       O     O O ",
"4 4 : 2 n m d : > 2 2 3 3 3 D 1 3 2 4 N > J D 2 1 : 1 1 1 A 2 d A : d 2 : [ R V d   o X o X X X X X X X         O O       O O O ",
"1 4 & 4 n n 2 : > : 2 2 2 2 n A 2 : 2 5 > A D 5 : $ 1 : : f N 2 ] 2 : 2 2 X.X.A     o O o o o X         o o o o o o O O O O O O ",
"3 = $ 2 4 2 1 a m a 2 f 2 2 n J 2 1 : n 2 2 [ 5 : > @ - : @ G 2 ..4 2 d 4 D ]       O O     X O       X o o o o o o o O O O o o ",
"5 - n m : : 2 2 J 2 1 > $ 2 n J F f > n > > 5 F : > a - A @ G $ G 2 $ m $ 3 G m 4 3       X   O O O   X X o o o o o o O O o o o ",
"3 > n 5 - z 2 2 [ 1 4 2 2 n 3 A G 1 2 @ 3 A 2 v > D # : L a J 2 F 2 4 3 2 n F G : A d f     O         X X X o o o o o o o o o o ",
"x * 9 n * 4 n 3 G 2 f 2 2 m m > m [ 3 d 3 ; : m f F @ # z k X.5 F z 3 b m m S F m A d         o o X X X X X X o o o o o o o o o ",
"N f M 9 d d m z D D G 2 $ f 3 n ; o.! +.; S ) ` ; D p s x S _ 2 z ! f @.m 2 z A x b s z   o o o o X X X X X X X o o o o o o o o ",
"S n m * M * n s f f ] A d 3 d 2 > l @.S z z ~ ! ! 9 f x z z f 2 s s 2 ] 2 > f 3 x 9 z , 1     o o o X X X X X X X o o o o o o o ",
"n < > n v b n n f : d m d x n 2 2 , ..f - d 3 3 f > v F : m d $ f 2 > H 2 2 # 2 3 2 A , q 0           X X X X X X X X o o o o o ",
"n C n B 2 n d = 4 n n n a j : # 3 > z s ; K m 2 v d F E 2 2 N 2 : : # V 2 2 : * $ 1 2 3 r r 3 t q 2   o o o o X X X X X X X X X ",
"n M n n m n f n 2 f 2 > s d d # > d l g z j m 2 j X.3 o.2 2 F 2 : 2 2 $ 4 $ 2 4 $ 2 $ 2 7 w #.3 5 D   o o o o X X . . X X X X X ",
"n M n n B n n 2 n m 2 n f F j n : 3 V k s F n n m b F A 1 2 F n 2 3 : 2 #.2 > 2 #.$ : 4 f 3 #.e #.    . o o o o X . . X . X X X ",
"n M n 4 d M k 2 N 3 4 2 f B j R 4 @ m S A 2 3 3 n : m 3 : 2 1 > d J F 2 #.> 1 > #.4 4 1 2 4 #.      . . . o o o . . . . . . X o ",
"M M n v f v m M N m 2 2 M B V V 2 d 2 A x : 5 2 : : #.#.: 2 #.2 : d #.#.> > 2 #.1 2 4 n m       X . . . . . . . . . . . . . . o ",
"N n M B n 4 f 2 2 n n Y n Z T D 2 3 3 3 m # 2 2 2 1 #.#.: #.1 5 2 2 #.#.d #.2 #.2         X X X X . . . . . . . . . . . . . . . ",
"4 4 M M n f f n 2 N V T m n B 2 3 m 3 2 9 : 2 2 2 4 #.#.> #.2 3 N : #.#.v #.2 #.>   O O O X X X X . . X . . . . . . . . . . . . ",
"2 n 4 f 4 s 2 2 2 2 D 3 2 2 2 3 3 m 3 5 m 2 f 1 2 #.#.#.> #.3 #.N % #.#.A #.#.#.%     O O X X X X X X X . . . X . . . . . . . . ",
"M 4 = 4 > 2 1 1 2 : m 5 2 2 2 3 3 V 3 > 3 A A 2 2 #.#.#.#.#.#.#.n A % % % % #.% a D     O O X X X X X X . . X X . . X X . . . X ",
"4 5 2 2 : 2 : : 2 @ 2 5 2 > 2 1 2 3 3 3 9 3 3 1 3 #.#.#.#.#.#.#.: A % % % % #.% > V f           X X X . . X X . . . X X . . X X ",
"4 2 2 2 2 2 2 $ : : 1 3 2 3 : 2 1 2 > m 9 , m 3 % % #.#.% #.#.% % A f 3 9 m m f 1 m v N 3     X X X X X X X X X X X X X X X X X ",
"M n 4 4 4 1 2 # : 2 > : f 3 z z 3 3 A S m S 3 A ! A 9 x #.% #.m > S v v U K m j V f       O o o X X X X X X X X X X X X X X X X ",
"2 2 1 1 2 4 4 # 1 : 2 : 2 > > x 3 A G 9 9 A 3 S z z A z #.% #.3 3 R I T &.I m n       O O O o o X X X X X X X X X X X X X X X X ",
"2 1 2 2 2 2 1 1 : > : : : 2 > n 2 2 3 3 3 > 9 3 3 m 3 , S ! 0 2 s  .v v | j m 3 z   O O O O X o X X o X X X X X X X X X X X X X ",
"> 1 > 1 : 1 3 : 1 > : : 1 > : 3 1 > 2 1 2 > 3 3 > @ : 2 > 0 A 3 9 > > > | f 3 > S A       . . . X o o X X X X o o X X X X X X X ",
"2 1 2 2 1 > 1 : : 1 : 1 : 1 @ 3 2 2 > 2 f d m 3 3 # : 2 2 3 3 2 > : 2 # n 2 2 3 z A z ,   . . . O o X X X X X X o o o o o X X X ",
"4 2 1 2 2 3 > 1 > : : > : 1 + 5 4 4 2 $ 3 2 3 2 3 z > $ 2 2 > 3 2 $ 2 #         3 4     o . . O O . . X o o X o o o o o o o o X ",
"n 2 1 1 3 3 3 - , 1 > 1 1 > $ 1 $ 4 5 5 3 4 2 3 2 : 2 $ 2 5 3 d 4 2 2 4     O         o o . . . . . . O O o o X o o o o o o o X ",
"2 1 2 : 1 > 2 3 2 , 3 3 > 2 : 2 2 2 5 2 5 3 2 2 m & 3 M 4 > 2 n 2 # n 4 f n   O o o o o X . . . . O O O O O O O O O O O O o o O ",
"4 4 2 f 3 : , m 3 3 > 3 m > 1 4 3 3 2 f 2 2 2 3 n 2 3 2 4 3 1 d n 2 n n 2     O o o o X X X X . . . . . O . . O O O O . . O O O ",
"n , 3 A B < n 9 > m 3 z 3 n > n n d , 2 2 2 2 3 > 2 > 3 f n 3 n n n M d     O O O o X X X X X X . . . . . . . O O O O . . . O O ",
"3 B 0 n A < m d n 3 m n m B > d n 2 n 2 2 3 > 2 m B n n m > n n 2 $ n     O O O O o X X X X X X . . . . . . O . . O . . . . O O "
};
