/* XPM */
static char *result[] = {
/* columns rows colors chars-per-pixel */
"64 64 75 1 ",
"  c #000000",
". c #04261C",
"X c #123026",
"o c #0C4030",
"O c #08523C",
"+ c #35A51C",
"@ c #3DA61C",
"# c #3EAC1D",
"$ c #3FB21C",
"% c #338534",
"& c #3DAC22",
"* c #3FB123",
"= c #769B1B",
"- c #42A41E",
"; c #44AD1D",
": c #4BAE1D",
"> c #5CA71A",
", c #52AE1D",
"< c #5AAE1C",
"1 c #45B717",
"2 c #44B41D",
"3 c #4AB31D",
"4 c #43B81C",
"5 c #4AB91E",
"6 c #52B31D",
"7 c #59B21C",
"8 c #64AD17",
"9 c #69AA1B",
"0 c #5A962B",
"q c #46A321",
"w c #49A720",
"e c #43AD21",
"r c #4BAD22",
"t c #4BAC2B",
"y c #59A723",
"u c #53AC23",
"i c #5BAE24",
"p c #54A12C",
"a c #58A12A",
"s c #52AE2B",
"d c #5BAE2C",
"f c #45B422",
"g c #4BB422",
"h c #44B822",
"j c #4DB922",
"k c #45B628",
"l c #4EB42A",
"z c #45B829",
"x c #53B322",
"c c #5AB323",
"v c #54BA25",
"b c #5BBB26",
"n c #52B42A",
"m c #5BB52A",
"M c #55BB2A",
"N c #5CBA2A",
"B c #5DA63F",
"V c #57AB3D",
"C c #62AE24",
"Z c #6BAC25",
"A c #69A62A",
"S c #64AD29",
"D c #6DAD2B",
"F c #79A12D",
"G c #61B325",
"H c #64B229",
"J c #6CB32A",
"K c #62B92A",
"L c #6FBA2D",
"P c #64AF3D",
"I c #66B932",
"U c #76B135",
"Y c #00CF03",
"T c #58C13C",
"R c #61AC40",
/* pixels */
"fekeefkfk53f2k5g2gf2kfff2;ff3;g33fekf:gff2g3k;kk$24224gjx7gfkkhz",
"2fff5fkxg53;f23fffkge;gfg3ff3f2e:g;kggfmNfekffffh44f2244r3i637fl",
"eek3f33hf5ff;4frf;2gff&f2fgerk23ggk:g35mm2v*gk$ehg342222x2i26h24",
"f2f:f<j,ff423f2e2lkfg;gf32gY1Ygf;22g23;f21vNv5eje5232213xf7622f4",
"fhh5jj9664*$4f4f2nNfYg2Y;3;Y22ff:g3f:ef5;45bt2lgx733122r523g3534",
"hf$4337315444$4*YfIY;;Y;23Y623263g1:2:2j;222+#mugci3235326131314",
"4$$5r365:3144Y$Y2Y%Y:YY%2%%YY%%722e;4r22#4#4#@::6x633:xcCcr32142",
"$44h4<34;41$4YYYYY5%%%%32:%%Y22:12422xxxrxu,;@-:x322:x6Hx625332g",
"f4#:34562,44%%%YY%;34;e:2132bv22f33g,iZiu:D6q;@:,,1,33::x6;22i6u",
"*44,e431141$$4Y%Y;;31;32:g3f2vx;22:25g5xg2c,ywq:>:13:6634jr32511",
"$44543833$41$144;332;;:;:2;332cf5je2e24;e2g6,wF:=;221>3x22r52353",
"$*4137436111#2:3gcg33id:x@e25g2;jmZ4242x:xicuii2-1124:2242gh::3g",
"44444443313 O i,3c;:guixr-:rKgielvMNg2fcucusyCr;;1222r$23u#m5g2e",
"4*44hj41433OO rr:u;3ruduuUuxmc$ret4M42ff;44@;u;:;132;;g3uurju62k",
"4h44gv454: O O PtVrgtRd36xugMB3j;2:jn222f22&;r2e;2,:wri3pmimf66f",
"*44$431j  OO OO VltntB::u:i:xnwg3e&vlhk2k222;r4k;q;;uwDg0J5c7h2h",
"4j   oooooOOOOOOO      uxiZ3isx7:#@2ffefe52j22;g2n&;;;s2wm62j43x",
"gh  XoXooooOOooOOOXXoo u6HCxScGcir$e22;f25234ejg2xu24; O 4cxg3h7",
"gjkfXXoooooOoooOOoXooX;SgiyiiUKKcj2f2;44f52422r23rI242OO fvf2g3x",
"n   XXXoooooooooooXXo :ciiuwiC7b2 O e#lT3gg2143221N24 O O j14155",
"oooXXXXXoooooooXooXX  mxiiA:GcGcfOO #45M52242154$5N  OO OO v12x4",
" oooXXXXXooooooXXXXXXo  iaurCcGg O O 2kx22433   oooooOOOOOOO    ",
"h   XXXXXXXooooXXXXXooo  xuh73  OO OO #;;32:2  XooooooOOooOOOXXo",
"gzzhooooXXXXXXXXXXXXoo     oXoooOOOOOOO      2lXXoooooOoooOOoXoo",
"hfj2ooooX..XXXXooo.   Dc  XooooooOOooOOOXXoo   XXXoooooooooooXXX",
"4   ..oo  O .Xoo...... :LmXXoooooOoooOOoXoooooXXXXXoooooooXooXX ",
"  X.....OOO ..oo.......   XXXoooooooooo  O  oooXXXXXooooooXXXXXX",
"XXX.... OO O  .o...XX oooXXXXXoooooooXoOOO     XXXXXXXooooXXXXXo",
"XXX.   OOO OOO ...XXXX oooXXXXXooooooX OO O   ,ooooXXXXXXXXXXXXo",
"OXXX   OOO OOO ...XXXoo   XXXXXXXoo   OOO OOO  ooooX..XXXXooo.  ",
"oooooooOOOOOOOOO        O ooooXXXXX   OOO OOO  ..oo.....Xo   oOo",
"ooooooooOOOoooOOOOXXooo OOoo   oooooooOOOOOOOOO        ..o  Xooo",
"XXooooooOOooooOOooXoooo   ..  XooooooooOOOoooOOOOXXooo ...o.XXXo",
"XXooooooOOooooOOooXoooo X.....XXXooooooOOooooOOooXoooo......XXXo",
"XXXoooooooooooooooXXo  XX.....XXXooooooOOooooOOooXoooo..    XXXX",
"XXXXooooooooooXoooXX   XX.    XXXXoooooooooooooooXXo   ooooXXXXX",
"XXXXXXooooooooXXXXXXXoo  ooooXXXXXXXoooooooooXoooXX   X ooooXXXX",
"XXXXXXXXooooooXXXXXXoooo  ooooXXXXXXXooooooooXXXXXXXoo      XXXX",
"XXXXXXXXooooooXXXXXXoooo      XXXXXXXXXooooooXXXXXXoooo     XXXX",
"ooooXXXXXXXXXXXXXXXXooo  X    XXXXXXXXXooooooXXXXXXoooo   Xooooo",
"ooooXX..XXXXXXoooo.    oXXXXXXooOooXXXXXXXXXXXXXXXXooo  XXoooooo",
"..oo.......Xooo........ XoXXXXooXooXX..XXXXXXoooo.    oo    ...o",
"............ooo.........      ...oo.......Xooo........    X.....",
"............ooo.........    X..............ooo.........   X.....",
"..............o....XXXXXX   X..............ooO.........   X.....",
"..................XXX    XXXX................X....XXXXXX   .X...",
"...X...X....XX....XXXOOOOXXXX.X..................XXXXXXXXX XX...",
"...X...X....XX....XXX   OOXXXXX...X...X....XX....XXXooo   XXX...",
"..XX...X...XXXX...XXX   OOXXXXX...X...X....XX....XXXooo   XX...X",
"XXXXXXXXXXXXXXXXXXXXXX      XX...XX...X...XXXX...XXXXXoOOO  XXXX",
"XXXXXXXXXXXXXXXXXXXXXXXOO XXXXXXXXXXXXXXXXXXXXXXXXXXXXOOOOO XXXX",
"XXXXXXXXXXXXXXXXXXXXX    OooXXXXXXXXXXXXXXXXXXXXXXXXXXOOOOO XXXX",
"XXXXXXXXXXXXXXXXXXXXXOOOOOooXXXXXXXXXXXXXXXXXXXXXXXXOO..  XXXXXX",
"XXXXooXXXXXXXXXoXXXXXOOOOOXOXXXXXXXXXXXXXXXXXXXXXXXXOO..  XoXXXX",
"XXXXooooooXXXXoooo..O    ...XoXXXXXooXXXXXXXXXoXXXXXXX..  OoXXXX",
"oooXooooooooXXoooo...OOO ...OoXXXXXooooooXXXXoooo..OOO.... .Xooo",
"OOOOOOOOOOooOOoO    .   o.OOO.XoooXooooooooXXoooo...OOO....    O",
"OOOOOOOOOOooOOoOO OOooooX....OOOOOOOOOOOOooOOoOOOO..........XXX ",
"OO..OOOO..OOOOOX. OOooooX....OOOOOOOOOOOOooOOoOOOO..........XXX ",
"....OOOO...OOOO.  OOooXXXX.....OO..OOOO..OOOOO....O...........X ",
"...O..O....OOO.O OOOOXXXXXXX.......OOOO...OOOO............XXXXXo",
"...O..O....OOO  OOOOOXXXXXXX......O..O....OOO.O...........XXXXXo",
"..............  OOOOOXXXXXXX......O..O....OOO.O...........XXXXXo",
"................. OOO XXXX..................................XXXo"
};
