/* XPM */
static char *result[] = {
/* columns rows colors chars-per-pixel */
"64 64 81 1 ",
"  c #010101",
". c #050D0B",
"X c #0A0A0C",
"o c #0B1E05",
"O c #0E0F10",
"+ c #381F16",
"@ c #0F2B07",
"# c #112B07",
"$ c #132B08",
"% c #163C0A",
"& c #193D0A",
"* c #04261C",
"= c #0B251D",
"- c #07291F",
"; c #08291F",
": c #072920",
"> c #092A20",
", c #112C23",
"< c #0F372A",
"1 c #0E392A",
"2 c #123026",
"3 c #17342A",
"4 c #18342B",
"5 c #1E3C33",
"6 c #213E35",
"7 c #1F560F",
"8 c #23560E",
"9 c #22580F",
"0 c #225610",
"q c #225810",
"w c #2F7D16",
"e c #2E7D18",
"r c #327E15",
"t c #337E19",
"y c #397B18",
"u c #0C4030",
"i c #114434",
"p c #17493A",
"a c #194B3D",
"s c #08523C",
"d c #0D5540",
"f c #155C49",
"g c #2B4741",
"h c #255549",
"j c #318019",
"k c #3EB320",
"l c #48AE1F",
"z c #46B51E",
"x c #44B81F",
"c c #44B521",
"v c #44B920",
"b c #23A9AD",
"n c #23A7B1",
"m c #25A8B1",
"M c #2DABB4",
"N c #32ADB6",
"B c #35AEB8",
"V c #39AEB9",
"C c #37B1B8",
"Z c #3CB1BA",
"A c #45B4BC",
"S c #4AB5BE",
"D c #53BABC",
"F c #67BFBF",
"G c #64C0BE",
"H c #4DB6C0",
"J c #51B6C1",
"K c #54BAC1",
"L c #5BBCC4",
"P c #62BEC6",
"I c #68BFCA",
"U c #64C1C6",
"Y c #6AC0C6",
"T c #6EC3C9",
"R c #72C4CB",
"E c #7AC6CD",
"W c #7DC9CD",
"Q c #40C4FF",
"! c #81C8CE",
"~ c #BBDEFB",
"^ c #FFFFFF",
/* pixels */
"^  nnnbmmnmbmnbbnbnnb  bbbbb  nnnnnn  nnnnnnnnnnnMNVNMnnnnBN ^^^",
"Q^^ nnnmmmmmnnnnnnn ^^^ nnn ^^^nnnn ^^^nmmmnnnnnbMNVNMnnnnBB^^Q^",
"^^^^V^ mmMmmnnnnnnn^^^^  nn^^^^nbn ^^^^bmmmmmnnnnMMNmnnnn^^^^^^^",
"^^^^^^^^NBMMMnnnnnn^^^^^^nn^^^^  n ^^^^  MMmMmmnnnnnnnn ^^^^^^^^",
"^^^^^^^ NNMMmmmmnn ^~^^^^  ^~^~^^n^^~^~^^MMMmmmnnnnnnnn^^^^^^^^^",
"^^Q^^^^^VMMnmmmMnn^^^^^^^ ^^^^^^^ ^~^^^^^CZCBmmnnnnnnnBAA^QQQ^^Q",
"QQ^^^^^ VMNMMnmn^^^^^^^^^^^^^^^^^^^^^^^^^   N  s mNMZBHHA  ^^QQ^",
"  UKAADAVMMMNnn ^^^^^^^^^^^^^^^^^^^^^^^^^^^ V.ds mMNAZHSSSSAS  G",
"EEETLLKJAVNMMmm^^^^^^^^^^^^^^^^^^^^^^^^^^^^  dd s NNAVAHASSSSKLF",
"EEETIPPLJANMMm^^^^^  ^^^^^^^^^^^^^^^^^^^^^^ sss ss  CCAAASAAAKDK",
"EEETIPPLKHMMMn^^^^  s^^^^^^^^^^^^^^    iu1uudssssssss       AAAS",
"WEEERYPLJHVVVnn^~ ss  ~^^^^^^^^^^^^   4ufaau1ssdu1dsdu221u  AAAA",
"!WTLDDKAAAZZAmn  sss s  ^^~^^^^^^^^^^ 32aaa1hff1uudddu3uuu ADKHA",
"WWRLAASmmmNN   ssssssss   ^~~~~   ii432366aupphuuuuuuu3 .BSSLAAA",
"TRUDASAN    uu1uussssssss        uii33233,3uppd1uu<2u233   SLSHZ",
"SKLLASAC   2uuuuuusssussssu,uu  ^ . d 434,,uuu1iu122222221u  AAM",
"SASZDSHC   2221uuuuuuuuuuuu2u   LDXss 3442222uuuuu<2<2  d 1u  Cm",
"mUUZ    u,2222uuuuuuuuuuuuu  VMLI ss s pii3=*2244521uu ds  AKAAn",
"SAAZS   s 22222uuuuuuu22uu22   K dsfXss  ip*;4;435udp.dd s. HZZm",
"bDmKNB ss 222222uuuuuu22    1uuiidsddsssdd   .X  p1i ddd ss  CAn",
"mnmnM ss s 2232222u1u122   2uuuuuusdsiidsdp4 X  1uiiidddssdsss  ",
"nnnm sss ss  1223222<22222 22uuuuussupisddi4. X3ipiii1ddduusssu2",
"uuuuusssssssdd         uu222222u1uuuuiiiiii4 X 43iiiiudduuudss  ",
"uuuuuussdu1sssu22uu   uuu2222222uuiiiii4 X ii443333iiuiiiuuu1u  ",
"<1uuuudduuuddd1>uuu *u u1u222222uuiiiii34 iii4343344iiiiiuu22u,2",
"22<uuuu1uuuuuuu<  ****u    2222222iiiii333Xiii434344iiiiiu   uu2",
"2222uuuuuuu<21222   ****** uuu1,:*333433iii. X 4334434iiiuu uuu2",
"2222i1uuuuu>222<23u1  =**  *uuui::2*243iiii;;;Xiuii4;;4442<2 uuu",
"22<222uuuu1222<,2uu1u     ***uui->*-;4iii>>;; .>iiiu**2*222uu   ",
"u11<::2>,<2<uu1*   X44X 4:*****;--*>-;iii>>.X.*>>iiu*****2uuu***",
"u1uu**,*<22uu1u**:::.s444>*2:>>****-;;**>> X3;>>>>>-******uuu** ",
":uuu**:*:,1uu:::*:>>.s2,,,22>>>3>>>*** sas4,4;>3--*-;********   ",
"ss  s ****uuu***>:::>. >,222>:3<-43***  dd434443*:*3:*******  2*",
"sss   sd    2222322113= 322**,2:255;*43. sd2444,**,3:32* sss,22*",
"ssssssuuu1uu    ,uuusu  2222222222334433XX..443**,2**23*  ss2322",
"uusssu1uuuuu2   s3  ss   22222222<33444   si434,232222,,,  ss222",
"uuussuuuuuu22 sss ,   s  2u2222222322  Xdddu44444444322222    22",
"1uuuuuuuuu2<2    s  ssss uu2222u22,222 sdddu24u4444443443   s122",
"uuuuuuuuu2,222,uu    ss s**2uu<uuuuuuu2   :*3u15555hg66OO dssu22",
"uuuuuuuu2222222uuu1 ** ****ssu11uu   u,  u*dd::<uu2adappOssssu22",
"uuuuuuu322,222uuu  s** **sssssssss s    uu*****ssuuuu1uuu   **2u",
"uuuuu22222222     sss***   ****sss* suuuu2***dssssss   s1  u*ss*",
"<32222222uuuu *s****ss***s    s*s* sssu22222*******s s    uu****",
">2,22**2<uuuu *s*********222  *** ssssu22222******s*s suuuu2***s",
"222*2**2uuuu*  ********22222us *     s122222******** sssu22222**",
"u2******u1u***   ******2222uus **** ss  222******** ssssu22222**",
"u**************2   ***22222uu  2*****  2222**222**     su22222**",
"***************222,    **22uu 222***  u222222222**22* ss  222***",
"************2**,222sss 222u s22,2**  suu2222222***222**  2222**2",
"********2***232,222ss  222sss   22 ssssuu2222<2**2222*  u2222222",
"2***22**22**2222,2ss  22ssssss  2   ss    u2222222222  suu22222,",
"22**22***22**222     ,22,ssss  222,   22 uuu12222222 ssssuu22222",
"22222222222222222  ,22uss uu ,22,22  222 uuuuu22222   ss    u222",
"2222222222222222uus   us     uuu22222,2 suuuuuuu 2222   2, uuuu2",
"2222222222222222uusss    s  sssss ssss ssssss1s  uuu2  ,22 uuuuu",
"2222222222222u22u2ssss s    sssss ssss sssssss  sssss sss suuuuu",
"2222><<uu2222uu2***   s        ss ssss          sssss ss ssssss1",
"222uuu1u222222us***  +  &%%%&#%     s  s &  ###    ss ss sssssss",
"2uuuuuuuu2uu2**ss**u  $$    #@&&     +   %#######$#             ",
"2uuuuuu1uuuss******u1    s  &&%9 +++ +++ #&&&###&$##     +   qqq",
"suussssssssssss****2uuuus 9998rw ++++++ %&%######&&& +++ +++ 9jj",
"sss**ssss**s*****2222uuus  rwr88990  9898%9899&@#oo# ++++++ jr9j",
"ss:**ssss*******222222usss  yer8q7q7779wrewe999888rrr98  wwweewe",
"ss****s**s******2222,<1ssss  lcczkczceyetjrreewrrrrwrtrtrrrjxvxz"
};
