/* XPM */
static char *result[] = {
/* columns rows colors chars-per-pixel */
"64 64 64 1 ",
"  c #000000",
". c #04261C",
"X c #123026",
"o c #0C4030",
"O c #08523C",
"+ c #34A51C",
"@ c #3DA61C",
"# c #3EAB1D",
"$ c #3FB31D",
"% c #338434",
"& c #3DAC23",
"* c #3FB123",
"= c #769B1A",
"- c #42A41E",
"; c #43AD1E",
": c #4BAE1D",
"> c #5CA71A",
", c #51AD1D",
"< c #5AAF1C",
"1 c #45B41D",
"2 c #4AB31D",
"3 c #44B81D",
"4 c #52B31D",
"5 c #59B21C",
"6 c #5A962B",
"7 c #46A321",
"8 c #48A720",
"9 c #43AC21",
"0 c #4BAC22",
"q c #4CAE2A",
"w c #59A723",
"e c #53AC23",
"r c #5BAE24",
"t c #54A12C",
"y c #58A12A",
"u c #45B422",
"i c #4BB421",
"p c #44B822",
"a c #4EB923",
"s c #45B728",
"d c #45B829",
"f c #53B322",
"g c #5BB323",
"h c #54BA25",
"j c #5BBB26",
"k c #52B529",
"l c #5BB52A",
"z c #55BB2A",
"x c #5CBA2A",
"c c #5BAC30",
"v c #61AE24",
"b c #6BAC25",
"n c #69A72A",
"m c #64AD29",
"M c #6CAC2A",
"N c #79A12D",
"B c #61B325",
"V c #63B229",
"C c #6CB32A",
"Z c #62B92B",
"A c #60AF3E",
"S c #76B035",
"D c #01CF03",
"F c #58C13C",
/* pixels */
"XXXXoooXX  o...OO.. uuuuu1u912u2299siiu0u;uiu9ud*3$1331af5iuussd",
"OooXoooo O o.O...O...O   iuu:ui92i9uiiuzxa1uuppuu13p3111i2r4i4ii",
"OOOOOOO O OO.O.......XX  1iuui21iiu9122xh2h*usuu1a231111e1g24pp3",
"...OOO OO O  .O.......X   iD1Dip11uiii;211hxz2#i9332113:f1441111",
"   ooooOOOOOOO      XXXoO 2D111u2i21;uu1;11j8uiif522123i23412233",
"  XoooooOOoOOOoXXo  XXXo  D2121f2i1:1,ui1313+;leagr1122234121233",
". XoooooOooOOOoXoo .XXo 1%%DD%%51$1;1u12#1;1&@:94f2222egv4222332",
"XXXXXooooooooooX .XXXXoO2:%%D1;232111fgi:g00;;-:g:11244V5f232312",
"XXXXXXoooooXXoXXX  XXXOO  23Zh1112224gbwefM48;@:,41,:22:f4;11r4e",
"  XXXXXXoooXXXXXXooo OOO  411hi1112u3f2h21g:e87,>:12:4423au22132",
"X oooXXXXXXXXXXXXoo X    10112g*2a;1u$3;#1i4,8N;=1$22<1g11i12213",
"X oooX..XXXXooo.   o   :e&;123u;2lM11$1f2grrerr;:113$:111$ia1422",
" ..ooo....X O .....  eege720Zi,9azzxi11regeqwbe1;11110$1ie#g2i2u",
"...........OO ......  ceeMeflr;e9q3z3puu91$@;g;i#121;9i2g00he4uu",
"..X....... O O XXXXXX  ::geizAi2;12aau11up1&#9u9;1>180gitrglu42p",
"XXX..X..  OO OO XXoX  :2,2r0ekifi9&fkuupu311;i1u1;@:e8bi6C3B4u2p",
"XX   oooooOOOOOOO      egrb2ref4;##$u;93u21i1120;4@:;#eu8g41i34a",
"XX  XooooooOOooOOOXXoo e4VvfMlBgr2;;up;*12321ui214f$11 O phfi2p5",
"XXXXXXoooooOoooOOoXooX miewreSZxgf2u1113u31313iu22Z111OO uhp322f",
"X   XXXoooooooooooXXo :ggew8gv5l1 O &;aFii11131311x13 O O 433322",
"oooXXXXXoooooooXooXX  gkkwn2BgBguOO #32z23132321$3j  OO OO h33f3",
" oooXXXXXooooooXXXXXXo  ryw2BgBi O O 1dk13321   oooooOOOOOOO    ",
".   XXXXXXXooooXXXXXooo    a52  OO OO ##:21:1  XooooooOOooOOOXXo",
"OOOOooooXXXXXXXXXXXXoo     ooXooOOOOOOO      iiXXoooooOoooOOoXoo",
"....ooooX..XXXXooo.   ..  XooooooOOooOOOXXoo   XXXoooooooooooXXo",
".   ..oo  O .Xoo...... XXoXXoooooOoooOOoXoooooXXXXXoooooooXooXX ",
"  X.....OOO ..oo.......   XXXoooooooooo  O  oooXXXXXooooooXXXXXX",
"XXX.... OO O  .o...XX oooXXXXXoooooooXoOOO     XXXXXXXooooXXXXXo",
"XXX.   OOO OOO ...XXXX oooXXXXXooooooX OO O   ,ooooXXXXXXXXXXXXo",
"OXXX   OOO OOO ...XXXoo   XXXXXXXoo   OOO OOO  ooooX..XXXXooo.  ",
"oooooooOOOOOOOOO        O ooooXXXXX   OOO OOO  ..oo.....Xo   ooo",
"ooooooooOOOoooOOOOXXooo OOoo   oooooooOOOOOOOOO        ..o  Xooo",
"XXooooooOOooooOOooXoooo   ..  XooooooooOOOoooOOOOXXooo ...o.XXXo",
"XXooooooOOOoooOOooXoooo X.....XXXooooooOOooooOOooXoooo......XXXo",
"XXXoooooXoooooooooXXo  XX.....XXXooooooOOooooOOooXoooo..    XXXX",
"XXXXooooooooooXoooXX   XX.    XXXXoooooooooooooooXXo   ooooXXXXX",
"XXXXXXooooooooXXXXXXXoo  ooooXXXXXXooooooooooXoooXX   X ooooXXXX",
"XXXXXXXXooOoooXXXXXXoooo  ooooXXXXXXXooooooooXXXXXXXoo      XXXX",
"XXXXXXXXooXoooXXXXXXoooo      XXXXXXXXXooooooXXXXXXoooo     XXXX",
"ooooXXXXXXXXXXXXXXXXooo  X    XXXXXXXXXooooooXXXXXXoooo   Xooooo",
"ooooXX..XXXXXXoooo.    oXXXXXXoooooXXXXXXXXXXXXXXXXooo  XXoooooo",
"..oo.......Xooo........ XoXXXXoooooXX..XXXXXXoooo.    oo    ...o",
"............ooo.........      ...oo.......Xooo........    X.....",
"............ooo.........    X..............ooo.........   X.....",
"..............o....XXXXXX   X..............ooo.........   X.....",
"..................XXX    XXXX................o....XXXXXX   .X...",
"...X...X....XX....XXXOOOOXXXX.X..................XXXXXXXXX XX...",
"...X...X....XX....XXX   OOXXXXX...X...X....XX....XXXooo   XXX...",
"..XX...X...XXXX...XXX   OOXXXXX...X...X....XX....XXXooo   XX...X",
"XXXXXXXXXXXXXXXXXXXXXX      XX...XX...X...XXXX...XXXXXoOOO  XXXX",
"XXXXXXXXXXXXXXXXXXXXXXXOO XXXXXXXXXXXXXXXXXXXXXXXXXXXXOOOOO XXXX",
"XXXXXXXXXXXXXXXXXXXXX    OooXXXXXXXXXXXXXXXXXXXXXXXXXXOOOOO XXXX",
"XXXXXXXXXXXXXXXXXXXXXOOOOOOXXXXXXXXXXXXXXXXXXXXXXXXXOO..  XXXXXX",
"XXXXooXXXXXXXXXOXXXXXOOOOOXOXXXXXXXXXXXXXXXXXXXXXXXXOO..  XoXXXX",
"XXXXooooooXXXXXOoo..O    ...XoXXXXXooXXXXXXXXXoXXXXXXX..  OoXXXX",
"oooXooooooooXXoXXO...OOO ...OoXXXXXooooooXXXXoooo..OOO.... .Xooo",
"OOOOOOOOOOooOOoO    .   o.OOO.XXooXooooooooXXoooo...OOO....    O",
"OOOOOOOOOOooOOoOO OOoOooX....OOOOOOOOOOOOooOOoOOOO..........XXX ",
"OO..OOOO..OOOOO.. OOoXOXX....OOOOOOOOOOOOooOOoOOOO..........XXX ",
"....OOOO...OOOO.  OOooXXXX.....OO..OOOOX.OOOOO....O...........X ",
"...O..O....OOO.O OOOOXXXXXXX.......OOOO...OOOO............XXXXXo",
"...O..O....OOO  OOOOOXXXXXXX......O..O....OOO.O...........XXXXXo",
"..............  OOOOOXXXXXXX......O..O....OOO.O...........XXXXXo",
"..X.............. OOO XXXX..................................XXXo"
};
