/* XPM */
static char *result[] = {
/* columns rows colors chars-per-pixel */
"64 64 82 1 ",
"  c #010101",
". c #0F1010",
"X c #111314",
"o c #381F16",
"O c #0F2B07",
"+ c #112A07",
"@ c #163C0A",
"# c #183D0A",
"$ c #04261C",
"% c #07291F",
"& c #08291F",
"* c #092A20",
"= c #112F26",
"- c #0F372B",
"; c #063929",
": c #0E392A",
"> c #123026",
", c #17342A",
"< c #18342A",
"1 c #1B3A2F",
"2 c #1F3C33",
"3 c #203D33",
"4 c #1F560F",
"5 c #1E5210",
"6 c #23570E",
"7 c #28560E",
"8 c #23580E",
"9 c #225510",
"0 c #235911",
"q c #2F7D15",
"w c #327D15",
"e c #307B18",
"r c #397A18",
"t c #064331",
"y c #0C4030",
"u c #074834",
"i c #084B37",
"p c #0A4D38",
"a c #114434",
"s c #16493A",
"d c #08523C",
"f c #0D5540",
"g c #145B46",
"h c #155C48",
"j c #2B4741",
"k c #308018",
"l c #3EB320",
"z c #49AF1F",
"x c #56AF1E",
"c c #46B31C",
"v c #44AF21",
"b c #45B522",
"n c #49B421",
"m c #23A9AD",
"M c #23A7B1",
"N c #25A8B1",
"B c #2CAAB4",
"V c #32ADB6",
"C c #35AEB8",
"Z c #39AEB8",
"A c #3CB1BA",
"S c #45B4BC",
"D c #4AB6BE",
"F c #53BABC",
"G c #67BFBE",
"H c #64C0BE",
"J c #4DB6C0",
"K c #4EB8C0",
"L c #50B6C1",
"P c #54BAC1",
"I c #5BBCC4",
"U c #63BEC6",
"Y c #68BFCA",
"T c #64C1C6",
"R c #6AC0C6",
"E c #6EC3C9",
"W c #72C4CB",
"Q c #7AC6CD",
"! c #7DC9CD",
"~ c #40C4FF",
"^ c #BBDEFB",
"/ c #FFFFFF",
/* pixels */
"/  MNMmNNMMmmMmmMmMMm  mmmmmM MMMMM   MMMMMMMMMMMBVZVBMMMMVC ///",
"~// MMMNNNNMMMMMMMM /// MmM ///MMMM ///MNNmNNMMMMBVZVBMMMMCC//~/",
"////Z/ NNBNBMMMMMMM////  MM////MMM ////MNNNNNMMMMBVVNNMMM///////",
"////////VCBBNNNMMMM//////MM////  M ////  NBBBNMMMMMMMMM ////////",
"/////// VVBBBNNNMM /^////  /^/^//M//^/^//BBBBNNMMMMMMMM/////////",
"//~/////ZVNNNNNBMM/////// /////// /^/////VACVNNMMMMMMNCSS/~~~//~",
"~~///// ZBVBBMMM/////////////////////////   B  d NBBZZSJS  //~~/",
"  TPSSFSZBBVBMM /////////////////////////// A dd NVVSAJDDDDDS  H",
"QQQEUPPJSZBVBMM////////////////////////////  dd d CBAASDDDDDDPPG",
"QQQEYUUILDVBBM/////  ////////////////////// ddd dd  AASSSDSSSPFP",
"QQQWRUTIPJBVBN////  d//////////////    yyy:tddddddddd       SSDS",
"!Q!WWRTIJJZZSNM/^ dd .^////////////   >yyyyyydddy:dddy>>:y  DSSS",
"!!WPFPPSSJZSZBM  hhh h.X//^////////// >>yyyyyddyyydddy=yyy SFPJS",
"!!WIDSSBMBBC   ddhhhdhhX  /^^^^   yy>>>>=,yyyyyyyyyyyy>  CDDISSS",
"WWRPSSDC    yy:yyghgdddff        yy;>>>>=>=yytyyyy-=y>>=   DIDJA",
"DPPIDSSC   ,yyyyyydddydfffy1aa  /   d =>>>,:yyyyy:==>>>=,:y  SSB",
"SDDADDKC   >,*:ua:yyyyyaaay<a   PD dd ,,>>=,>yyyy:-=,=  d yy  ZM",
"mTTA    y,,>>,saayytyaaaaay  AVUY dd d ;yy=$$>>=,-,;yt dd  ZFSSM",
"DASAP   f 222>1aaaaa:a1,yy<1   P ddd dd  y;%$>$>>>yy; dd d  JAAN",
"NIBFCA dd ,,,>,,aaaaya,,    syasaddddddddd       yyy ddd dd  ZSM",
"MNNNB fd f 1<<=,=,auaa<<  .<ayyyayfddyydddy=    :yyyyffddddddd  ",
"NNNN ddf ff  a,1,,<<<<<<<< >,yyy:yddyyyfddy>   =tyyyy;dfdyydddy=",
"utyyyddfffdfff     . . aa,,=,*=:yyyytyyyyyy>   >,:ytuyffyyyddd  ",
"t:yyyydffa1fffa,1ss   aaa,,,,1,>yy;yy:y=   yy>>>,=,;a:t:yyyty:  ",
",yyyyyffaaafffa,aas *a saa,,,,=>yyyu:ya,> yyy>>=>>>>yyytyy:,=y>>",
"===yyyyuaaaaaaa,  *=**s  . ,,1==,,y;yyy==, yyy>>>>>>yyyyyy   yy>",
"=,,=yyyaaaa<,a,,1   =****& aaa:>$$==*,=,yyy    >>>>>>>yyy;u yyy>",
"====y:yaaau<,,,,,1as  ***. &yyau*$=$,=,;:yy%$$ yyyy>$$>>,=,= yyy",
"==,=,*yya:y>>,<,,aaaa .   *%%:yy%$$$$=yy:&%%$  $yyyy%$>$>>>:y   ",
"yy;,$%>>,,>>yaa*  . <<  <=*%**%%%$$%$$aaa**   $$$yyy$$$$$>yyy%$$",
"yyyy$$>$*=>yyaa*=*** f1,,$&,*$$$$**&$$**&&. 1&&$$$$$$$$$$$yyy$$ ",
"$yyy$$$$$,yay%$***** f,,=>=>$**,$**&$$ iip=>=*&>$$$$$$$$$$$$$   ",
"$$$$$$$$$$yay$%%&***$  1====$$,,$,,&$$  ut,,==,>$$$,$$$$$$ d  dd",
"$$$$$$$$$$%%%$$>=,,1,,1 ,,,**11-%>>$$>>  ;i-:=*,=>,*    dd   ddd",
"$$$,$$$$$$$$%$=>=,1a, .a,,,1,,,>>>>>>>>>  ydyyy>    yyyyyydddddd",
"$$=>$>>$$$>$$$,>><aaa  a,,,,<<>>>>>>>>>   dd  >d   =yyyyyyydddy:",
"$=>$$>>$$>><,*<,,<,aaff  ,:,>>>>>=>==   dd   > ddd >>yyyyyyddyyy",
"==>=>>><,<<,,,,,<,,,dfdf a;,>,>y>>=,>> ddddy  d    ,>>:yyyyyyyyy",
">>>>>>>2233jj2222t:*$dd d$*,yy-yyy:yyy>   $    y:=>>>>>yyyyyyyyy",
">>=>>>=332322=,>=,f*$$ $$$$ddy;:yy   y=  :$d yy:y,=>>>>>yyyyyyyy",
">>>y>>>>,,*>=y$=>>=d$$ $$ddddddddd d    yy$$$  yyy>>>>>>=yyyyyyy",
"yy>yyy:yyy,>yyd$$*ddd$$$   $$$$ddd$ dyyyy>$$$d     >>>>>>=>yyyyy",
"dyyyyyyyyy,=yy$d$$$$dd$$$d    d$d$ dddy>>>>>$$$$$% yyyy>>>=>,>>>",
"ddddddddy;ddyd$d$$$$$$$$$>>>  $$$ ddddy>>>>>$$$$$$ yyyy>>$$>==>>",
"$$$ddd$$$dddd$$$$$$$$$$=>>,=:d $     d;,>>>>$$$$$  $tyyy>$$=$==>",
"$$d$d$$*$ddd$d$$$$$$$$$=>>=yyd $$$$ dd  >>>$$$$   $$$yyy$$$$$$>y",
"$$$$$d$$$$$$$$$$$$$$$$==>>>yy  >$$$$$  >>>>$$   =$$$$$$$$$$$$$$y",
"$$$$$$$$$$$$$$$$$$$$$$$$$>>yy >>>$$$  y>>    >>>=$$$$$$$$$$$$$$$",
"$$$$$$$$$$$$$$$$$$$$$>>>>>y d>==>$$  dyy> ddd>>>>$$>$$$$$$$$$$$$",
"$*,*$$$$$$$$$$$$$$>>>>>>>>ddd   >> dddd:y  dd>>>>>>>$$$>$$$$$$$$",
"$$,*>$$$$$>>$>$$$$$>>>>>dddddd  >   dd      dd>>>>>>$$>=$$=>$$$>",
"$>>,>$$$$>>>$$>>=$$>>>>>=dddd  >>>>   >> y:     >>>$$>>$$$>>$$>>",
">>>>>>$$>>>>>>>>>>>>=,:dd ;y ,>>>>>  >>= yyyy  >>>>>>>>>>>>>>>>>",
">>>>>>$>>>>>>>>>>>>>=yyd     yyy>>>>>>> d:   dyy>>>>>>>>>>>>>>>>",
">>>>>>>>>>>>>>>>>>==yyyy d  ddddd dddd d   dddyy>>>>>>>>>>>>>>>>",
" >>=>>>>>>>>>>>>> yyyydd    ddddd dddd dd dddd>y>>y>,=>>>>>>>>>>",
" yyy>>>=>>>>>>>dd>>   d        dd dddd       $$$>yy>>>>yy>>>>>>>",
"ddddd ddddd ddddd  = o  #@@#@+@     d  d #   $$$dy>>>>>>yyyyy>>>",
"ddddd dddd  dddddd    ++++OO++##         @  :$$dd$$>yy,yyyyyyyy>",
"   dd ddddd  d  ddd  @@##@@@##@6 ooo  d    yy$$$$$$ddyy;yyyyyyy>",
"@@@     d  d 8  @##88886756887qq ooooo dyyyy>$$$$ddddddddddddyyd",
"8888     o   6860#896qwwqqwqqw84486    dyyy>>>>$$$$$d$$dddd$$ddd",
"k787 ooo ooo wwqwezwwqwwwewwrwk80484  dddy>>>>>>$$$$$$$dddd$$$dd",
"nbxb oooooo bbzvnccccccznbbcwzbbclb  ddddy>>>>=>$$$$$$d$$d$$$$dd"
};
