/* XPM */
static char *result[] = {
/* columns rows colors chars-per-pixel */
"64 64 63 1 ",
"  c #000000",
". c #0B1E05",
"X c #381F16",
"o c #0F2B07",
"O c #112B07",
"+ c #132B08",
"@ c #163D0A",
"# c #193D0A",
"$ c #04261C",
"% c #123026",
"& c #1F560F",
"* c #1E5210",
"= c #23560E",
"- c #28560E",
"; c #22580E",
": c #225510",
"> c #225810",
", c #2F7D16",
"< c #2E7D18",
"1 c #327D15",
"2 c #327D18",
"3 c #397B18",
"4 c #0C4030",
"5 c #08523C",
"6 c #308019",
"7 c #3EB320",
"8 c #49AF1F",
"9 c #56AF1E",
"0 c #46B31D",
"q c #4FAE20",
"w c #44B522",
"e c #49B421",
"r c #44B920",
"t c #23A9AD",
"y c #23A7B1",
"u c #25A8B1",
"i c #2DABB4",
"p c #32ADB6",
"a c #36AFB8",
"s c #39AEB8",
"d c #37B0B8",
"f c #3CB1BA",
"g c #45B4BC",
"h c #4AB5BE",
"j c #53BABC",
"k c #67BFBE",
"l c #64C0BE",
"z c #4DB6C0",
"x c #4FB8C0",
"c c #51B6C1",
"v c #54BAC1",
"b c #5BBCC4",
"n c #63BEC6",
"m c #65BEC9",
"M c #64C1C6",
"N c #6EC3C9",
"B c #72C4CB",
"V c #7AC6CD",
"C c #7DC9CE",
"Z c #40C4FF",
"A c #81C8CE",
"S c #BBDEFB",
"D c #FFFFFF",
/* pixels */
"D  yuytyyyuutyytytyyt  ttttty tyyyyy  yyyyyyyyyyyipsiiyyyypa DDD",
"ZDD yyyuuuyyyyyyyyy DDD yyy DDDyyyy DDDyyyyuuytyyipsppyyyyaaDDZD",
"DDDDsD uuuiuuyyyyyyDDDD  yyDDDDyyy DDDDuuuuyuuuyyippuyyyyDDDDDDD",
"DDDDDDDDddiiuuuyyyyDDDDDDyyDDDD  y DDDD  uiiuuuyyyyyyyy DDDDDDDD",
"DDDDDDD ppiiuiuuyy DSDDDD  DSDSDDyDDSDSDDiiiiuuuyyyyyyyDDDDDDDDD",
"DDZDDDDDspyyuuityyDDDDDDD DDDDDDD DSDDDDDafapuuuyyyyyydggDZZZDDZ",
"ZZDDDDD spipiyyyDDDDDDDDDDDDDDDDDDDDDDDDD   p  5 upigsgzg  DDZZD",
"  Mbfhjgaiiipyy DDDDDDDDDDDDDDDDDDDDDDDDDDD f 55 ypigdzhhhhgh  l",
"VVVNbbvzgaipiyyDDDDDDDDDDDDDDDDDDDDDDDDDDDD  55 5 pigsgzhhhhhvvk",
"VVVNmnnbhhipiyDDDDD  DDDDDDDDDDDDDDDDDDDDDD 555 55  ffggghgggvjv",
"VVVNmmnbbzippyDDDD  5DDDDDDDDDDDDDD    44%44555555555       gghg",
"CVVVBNMbchsssyyDS 55  SDDDDDDDDDDDD   %4444445554%5554%%44  gghg",
"ACNbjjbgzzffsiy  555 5  DDSDDDDDDDDDD %%44444554545554%444 gjczg",
"CCBbgggtyupd   55555555   DSSSS   44%%%%%%444444%44444%  phzbghg",
"BBMjghgd    44%4455555555        444%%%%%%%4444444%%4%%%   hbhzf",
"gjbbgggd   %444444555455554%44  D   5 %%%%%4444444%%%%%%%44  ggi",
"hghfjhzd   %%%4444444444444%4   bx 55 %%%%%%%44444%%%%  5 44  fu",
"iMMf    4%%%%%4444444444444  fpbM 55 5 444%$$%%%%%%444 55  fvzgy",
"gfgfz   5 %%%%%4444444%%44%%   x 555 55  44$$%$%%%444 55 5  zffy",
"tbuvpd 55 %%%%%%444444%%    44444555555555       444 555 55  ffy",
"yuuuu 55 5 %%%%%%%4444%%   %444444555445554%    44444555555555  ",
"yuuu 555 55  4%%%%%%%%%%%% %%44444554445554%   %444444555445554%",
"44444555555555         44%%%%%%444444444444%   %%4444455444555  ",
"444444555445554%%44   444%%%%%%%4444444%   44%%%%%%44444444444  ",
"%44444554%45554%444 $4 444%%%%%%4444444%% 444%%%%%%%4444444%%4%%",
"%%%444444544444%  $$$$4    %%%%%%%44444%%% 444%%%%%%444444   44%",
"%%%%445%444%%4%%%   $$$$$$ 4444%$$%%%%%%444    %%%%%%%44444 444%",
"%%%%%5%4444%%%%%%%44  $$$  $4444$$%$%%%4444$$$ 4444%$$%%%%%% 444",
"%%%%%%44445%%%%%%4444     $$$444$$$$$%444$$$$  $4444$$%$%%%44   ",
"444%$$%%%%%%4%4$    %%  %$$$$$$$$$$$$$444$$   $$$444$$$$$%444$$$",
"4444$$%$%%%4444$$$$$ 5%%%$$%$$$$$$$$$$$$$$  %$$$$$$$$$$$$$444$$ ",
"$444$$$$$%5%4$$$$$$$ 5%%%%%%$$$%$$$$$$ 555%%%$$%$$$$$$$$$$$$$   ",
"$$$$$$$$$$444$$$$$$$$  %%%%%$$%%$%%$$$  55%%%%%%$$$%$$$$$$$$  %$",
"$$$$$$$$$$$$$$$%%%%%%%% %%%$$%%$$%%$$%%  55%%%%%$$%%$%%$ 555%%%$",
"$$$%$$$$$$$$$$%%%%%4%  4%%%%%%%%%%%%%%%%    %%%$$%%$$%%$  55%%%%",
"$$%%$%%$$$%$$$%%%%444  4%%%%%%%%%%%%%%%   54%%%%%%%%%%%%%  55%%%",
"$%%$$%%$$%%%%$%%%%%4455  %4%%%%%%%%%%   5554%%%%%%%%%%%%%%    %%",
"%%%%%%%%%%%%%%%%%%%%5555 44%%%%4%%%%%% 55554%%4%%%%%%%%%%   5%%%",
"%%%%%%%%%%%%%%%%%44$$55 5$$%44%4444444%   $$%44%%%%4%%%   555%%%",
"%%%%%%%%%%%%%%%%%%5$$$ $$$$5544444   4%  4$55$$%44%44444 55555%%",
"%%%4%%%%%%%%%4$%%%%5$$ $$555555555 5    44$$$$$5544444445   $$%4",
"44%4444444%%445$$$555$$$   $$$$555$ 54444%$$$5555555   54  4$55$",
"5444444444%%44$5$$$$55$$$5    5$5$ 5554%%%%%$$$$$$$5 5    44$$$$",
"55555555445545$5$$$$$$$$$%%%  $$$ 55554%%%%%$$$$$$5$5 54444%$$$5",
"$$$555$$$5555$$$$$$$$$$%%%%%45 $     54%%%%%$$$$$$$$ 555%%%%%%$$",
"$$5$5$$$$555$5$$$$$$$$$%%%%445 $$$$ 55  %%%$$$$$$$$ 55555%%%%%$$",
"$$$$$5$$$$$$$$$$$$$$$$%%%%%44  %$$$$$  %%%%$$%%%$$     5%%%%%%$$",
"$$$$$$$$$$$$$$$$$$$$$$$$$%%44 %%%$$$  4%%%%%%%%%$$%%% 55  %%%$$$",
"$$$$$$$$$$$$$$$$$$$$$%%%%%4 5%%%%$$  544%%%%%%%$$$%%%$$  %%%%$$%",
"$$%%$$$$$$$$$$$$$$%%%%%%%%555   %% 555544%%%%%%$$%%%%$  4%%%%%%%",
"$$%%%$$$$$%%$%$$$$$%%%%%555555  %   55    4%%%%%%%%%%  544%%%%%%",
"$%%%%$$$$%%%$$%%%$$%%%%%%5555  %%%%   %% 4444%%%%%%% 555544%%%%%",
"%%%%%%$$%%%%%%%%%%%%%%455 44 %%%%%%  %%% 44444%%%%%   55    4%%%",
"%%%%%%$%%%%%%%%%%%%%%445     444%%%%%%% 544%4444 %%%%   %% 4444%",
"%%%%%%%%%%%%%%%%%%%%4444 5  55555 5555 55555545  444%  %%% 44444",
" %%%%%%%%%%%%%%%% 444455    55555 5555 5555555  55555 555 544444",
" 444%%%%%%%%%%%55%%   5        55 5555          55555 55 5555554",
"55555 55555 55555  % X  #@@##O#     5  5 #  OOO    55 55 5555555",
"55555 5555  555555    OOO+ooOO@#     X   #OOOOOOO+O             ",
"   55 55555  5  555  ####@##@##= XXX XXX O###OOO#+OO     X   >>>",
"*@@     5  5 ;  ###=;;;;:*=;&-,, XXXXXX ###OOOOOO### XXX XXX >66",
"&==-     X   ;;;>#=>;,,1111,11;;=;>  >>>=#&;;;#oO..O XXXXXX 66>6",
"6-=; XXX XXX 666118111,11211316;>&>&&&>6,<,,;;;=;;111;;  ,,,<<2<",
"0w9e XXXXXX ee8008000080qww018ww07wrw63<26<2,,,1111,12121116rrrw"
};
