/* XPM */
static char *_f9cc7dc5efd4b8dc152f43d5653e38b3BoP6mXTpmWoJBQM[] = {
/* columns rows colors chars-per-pixel */
"64 64 175 2 ",
"   c #020202",
".  c #070E0C",
"X  c #090B0C",
"o  c #0B1507",
"O  c #0C1508",
"+  c #0E190A",
"@  c #061211",
"#  c #0C1112",
"$  c #111315",
"%  c #133E3B",
"&  c #232627",
"*  c #362D2B",
"=  c #262F31",
"-  c #292E31",
";  c #4B1C03",
":  c #5E351C",
">  c #6C2A06",
",  c #6B2808",
"<  c #722902",
"1  c #7C2E06",
"2  c #712F0A",
"3  c #7A2D08",
"4  c #733E0D",
"5  c #285518",
"6  c #2A5419",
"7  c #354D2A",
"8  c #394E2B",
"9  c #2E5829",
"0  c #31582A",
"q  c #394345",
"w  c #3A4248",
"e  c #217271",
"r  c #5D4F47",
"t  c #715B4B",
"y  c #635E56",
"u  c #716659",
"i  c #55737A",
"p  c #636A6B",
"a  c #87370C",
"s  c #853913",
"d  c #8A3F1B",
"f  c #8E431C",
"g  c #934016",
"h  c #96441D",
"j  c #9A451B",
"k  c #8F4821",
"l  c #934821",
"z  c #9A4B27",
"x  c #974B29",
"c  c #9B4C29",
"v  c #A54E27",
"b  c #A74F29",
"n  c #A65029",
"m  c #B75929",
"M  c #B95828",
"N  c #A45634",
"B  c #A75936",
"V  c #A76831",
"C  c #D46C35",
"Z  c #DE7037",
"A  c #E6763C",
"S  c #BB6745",
"D  c #BB6946",
"F  c #B96948",
"G  c #B6795E",
"H  c #B47B63",
"J  c #CD6F47",
"K  c #CD6F48",
"L  c #D26F46",
"P  c #D36F48",
"I  c #D27047",
"U  c #D57248",
"Y  c #EC7C46",
"T  c #349F1E",
"R  c #35A41E",
"E  c #3EA61D",
"W  c #3EAC1D",
"Q  c #3EB21D",
"!  c #338535",
"~  c #3AA620",
"^  c #3DAC23",
"/  c #3FB221",
"(  c #769B1A",
")  c #42A51E",
"_  c #4EA41F",
"`  c #44AD1D",
"'  c #4BAE1D",
"]  c #53AD1C",
"[  c #5DA818",
"{  c #5AAD1D",
"}  c #45B717",
"|  c #45B41C",
" . c #4AB31D",
".. c #43B81C",
"X. c #4AB81E",
"o. c #51B31D",
"O. c #59B11C",
"+. c #67AC19",
"@. c #479B27",
"#. c #599926",
"$. c #43A522",
"%. c #43AD21",
"&. c #4BAD22",
"*. c #4AA829",
"=. c #52AD22",
"-. c #5BAE23",
";. c #54A12C",
":. c #53AB29",
">. c #5BAA2B",
",. c #42B621",
"<. c #46B621",
"1. c #44B422",
"2. c #46B625",
"3. c #49B221",
"4. c #4BB322",
"5. c #49B521",
"6. c #44B822",
"7. c #4DB922",
"8. c #44B628",
"9. c #4CB328",
"0. c #44B829",
"q. c #4CB92B",
"w. c #53B222",
"e. c #5BB323",
"r. c #54B924",
"t. c #58BD25",
"y. c #53B429",
"u. c #5BB32B",
"i. c #5BBA2A",
"p. c #57AC36",
"a. c #5AA53C",
"s. c #4EB532",
"d. c #54B334",
"f. c #64AD27",
"g. c #79A12D",
"h. c #65B52A",
"j. c #68AC3B",
"k. c #62BA37",
"l. c #00CE03",
"z. c #00CF03",
"x. c #6CAE41",
"c. c #638673",
"v. c #B4816A",
"b. c #BA8770",
"n. c #B28A7B",
"m. c #FE8446",
"M. c #FE8448",
"N. c #FEB169",
"B. c #FEBE71",
"V. c #FFCC7B",
"C. c #5D7D85",
"Z. c #2C8C8D",
"A. c #31A09F",
"S. c #31A2A1",
"D. c #648B92",
"F. c #6D959D",
"G. c #6D989E",
"H. c #6D95A0",
"J. c #6B9CA3",
"K. c #69A1A7",
"L. c #66ADB4",
"P. c #65B4BA",
"I. c #3BC5C5",
"U. c #3ECACA",
"Y. c #5AD2D6",
"T. c #5BD8D8",
"R. c #56DEE2",
"E. c #54E6E7",
"W. c #54E6E8",
"Q. c #52EBED",
"!. c #4FF7F7",
"~. c #4DF9F7",
"^. c #4DFAFA",
"/. c #50F6F8",
"(. c #A4A8AB",
/* pixels */
"1.$.2.%.%.1.2.2.2.|  .| | 2.1.5.| 5.1.| 2.1.,.2.|  .1.,. . .1. . .3.%.8.1.3.3.3.1.| 5. .1.%.2.0.| | | | | | | 2.w.O.1.5.^ 2.2.0.",
"1.1.1.1. .1.2.w.3.| | | 1.| 3.1.1.1.2.2.1.` 5.1. .| 2.1. .1.1.%.' 2.%.,.3.5.1.i.i.| 1.8.1.6.1.,.6.....6...| ..| 9. .-.o.w.o.5.9.",
"%.%.2. .1. . .6.,. .,.| ' | 1.3.5.| | 2.1.1.%.1.| | 5.%.1.1.|  .5.5.2.`  . . .i.i.| r.%.5.2.,.,.,.1.o...| | | ..w.| -.1.o.6.| ..",
"1.| 1.' 1.O.5.] 6.1.| |  .,.| %.1.9.,.| 1.` %.1. .|  .l. .l.5.,.| | 1.5.|  .` | | | r.i.t.5.` 3.$. ... ...| |  .w.| o.o.|  .| ..",
"1.1.|  .5.5.+. . . .,.| ..,.| 1.1.y.i.%.l.5.| l.| | | l.| | ,.1.'  .| 1. .,.1. .` ..| t.&.| 9.3.w.{  . .| ....3. .|  .5. . . ...",
",.......|  .O. .|  .| ..........l.,.k.l.| ` l.| .. .l.o.|  .| w. .3.| ` ..' | 3.` | | | R W i.y.5.e.-. .|  .|  .1.o.|  ... ...| ",
"...... .3. .o.| ' ....| ..l.| l.| l.! l.` l.l.! | ! ! l.l.              ; < < < < < ` | W E  .` w.w. . . . .w.e.f.w.3. .| | | | ",
"....| ....{  .| ` ..| ....l.l.l.l.l.| ! ! ! !  .5 . . . ^.^.^.G.G.2 2 2 m.V.< < F F < < | ) $.' w.' | .. .w.w.f.e.w.| |  ...| 5.",
",...Q  . ... . .| ] ....! ! ! l.l.! ` 3.| a.a.e U.Y.Y.Y.F.F.F.Q.u m.m.m.N.m.< < L L 1 1 h ` E ' ] ' ..]  . . .| w. .` | | e.o.=.",
",.....] ` |  ...| | ....| ..l.! l.| `  .` a.a.e U.Y.Y.Y.F.F.F.Q.u m.m.m.N.m.< < L L 1 1 h $.$._ [ ' .. .' o.o. ...7.1. .| 6... .",
",..... ... .+. . ...| ..Q ......|  . .| @.^.^.F.F.^.^.^.F.      < m.m.m.V m.< < L L 1 1 D   g.' ( ..|  . .{  .w. .| 3. .| ..|  .",
"..^ .. . .O...X. ...} | W | '  . .e.3.  Q.G.G.F.F.      - - - * m.m.m.m.V M.< < L L 1 1 D < Z.Z.` ..| | | ' ..| ..| 3.7. .o. . .",
".............. . .|  .X. .` -.=.7 8 7 L.F.F.F.% & - - - - - - * M.B.B.B.l m.< < L L 1 1 J < K.K.I.I. .| | %.| |  .=.W r. .5. .1.",
"........7.7......... .r.7.` &.=.7 7 7 L.F.F.F.% & - - - - - - * M.B.B.B.l m.< < L L 1 1 J < K.K.I.I. .| ` ` 3.| =.=.=.y.:.o.,.1.",
"..,.....7.r.| X.|  . ...| W ` j.@ @ @ !.J.D.D.- - - - - - - - a m.V.V.V.f m.< < D D 1 1 I m.c.c././.>. .&.&.-. .;.-.=.u.1.o. .,.",
"....| .... ...7.X.r... ...1.1.p.^.^.^.F.C.- - - - - - - - - - a m.V.V.V.f m.< < D D 1 1 I m.t t F.F.  %.=.&.f. .#.h. .f.o.1. .6.",
"| 9.| | | | | | 7.o.r.| ..%.*.  H.H.H.F.# - - - - - - - - < < m.m.D D D h m.< < L L 1 1 I m.x x F.F.^.$.) ) w.| $.y.w. .3... .3.",
"&.2.1...,.2.| | ..| u.y.3. .`   H.H.H.F.# - - - - - - - - < < m.m.D D D h m.< < L L 1 1 I m.x x F.F.^.` | |  .| R ..e.w.3. .5.O.",
"&.7.,.,./ 8.1.&.| | | 3.3.6 6 ^.E.E.E.i $ - - - - - - - - < < m.m.S S S h m.< < L L 1 1 I m.z z W.W.F.. . | ....) 1.r.6.|  . .w.",
":.1.%.,.,.2.|  .^  .| W ` 5 6 ^.F.F.F.  - - - - - - - - - < < m.m.S S S j m.< < P P 1 1 I m.v v     F.. . | ....| 7.7.| ....| | ",
"y.^ / 8.7.%.| ,.8.f.5.` 9.A.A.H.F.F.F.= - - - - - - - - - < < m.< < < < < m.< < F D 1 1 D m.z z     F.~.~.+ ..| ......r.....w...",
"2.8.y.w.8.y.5.q. ... .| | S.S.R.R.R.R.- - - - - - - - - - < < A m.Y Y Y m g < < N N 1 1 D m.c c     R.^.^.o | ........r.| .. .| ",
",.9.2.,.7.2.q.6.,.3.e.o. .S.S.R.R.R.R.- - - - - - - - - - < < A m.Y Y Y m g < < N N 1 1 D m.c c     R.^.^.o | ....| | ........| ",
"5.8.2...%.,...6.d.O.3.f. .S.S.F.F.F.F.- - - - - - - - - - < < A m.D D D v.D m.m.m.m.< < < m.c c     F.^.^.o | | ..............o.",
"..1.7.| 3...5.s.k.o. . . .S.S.F.F.F.F.- - - - - - - - - - < < A m.D D D v.D m.m.m.m.< < < m.c c     F.^.^.o | |  .| ........X...",
"........X...| W | u. . .e.S.S.F.F.F.F.- - - - - - - - - - < < m.m.< < < < < D D (.(.D D D m.M M < < F.^.^.O ` '  .| ......| | | ",
"| ....| 2. . .&.| 1.5.l.| S.S.L.L.L.L.- - - - - - - - - - < < m.m.S S S g A < < s s s s G D b.b.< < L.^.^.O W '  .| ..| ...... .",
"....l.| | ..l.1. .1.&.l.| S.S.F.F.F.F.- - - - - - - - - - < < m.m.D D D h m.< < < < < < < < S S < < F.^.^.O ` | | ..| ..| .. ...",
"..l... .3.l.| &.3.| l.7.| S.S.F.F.F.F.- - - - - - - - - - < < m.m.L L L f m.< < D D 1 1 D m.< <     F.~.~.O 3.......l... .l.....",
"6.l.| l...l.| 5.| | l.&.l.S.S.J.J.J.J.- - - - - - - - - - < < m.m.D D D : m.< < I I 1 1 D m.c c     J.!.^.O y.| | ..l. .l.1.....",
"! l...l.l.l.! | | ! ! l.l.S.S.F.F.F.F.- - - - - - - - - - < < m.m.q q q p m.< < L L 1 1 D m.c c     F.^.^.O y. .| l.l...l...l.| ",
",.! ! ! l.! ` ..|  .! ! l.S.S.F.F.F.F.- - - - - - - - - - < < m.m.q q q p m.< < L L 1 1 D m.c c     F.^.^.O | u.| l.l.l.l.l.l...",
"....| ` ..1.$.` | `  .| | S.S.F.F.F.F.- - - - - - - - - - < < m.m.q q q p m.< < L L 1 1 D m.c c     F.^.^.O ..j.! ! l.! l.l.! ! ",
"1...W | 1. .3.`  .| .. .| S.S.H.H.H.H.- - - - - - - - - - < < m.m.w w w p M.< < L L 1 1 F m.n n     H.~.~.O  .u.k. .w.l.! l.,.| ",
"....~ ..1.| | ` ' ) | ..| S.S.F.H.H.F.- - - - - - - - - - < < m.m.S S S : m.< < L L 1 1 L m.n n     H.~.~.O 3.u.h.5.;.3.w.5.6.6.",
" .W Q | Q | | $.5.) | ' ..S.S.F.F.F.F.- - - - - - - - - - < < m.m.L L L : m.< < D D 1 1 L m.c c     F.^.^.O &.3.r.7.~ | %.6.| ..",
" .) 1.3.` |  ...i.| ..| Q S.S.J.J.J.J.- - - - - - - - - - < < m.m.L L L : m.< < D D 1 1 S m.c c     J.^.!.O $.3.y.3.y.&.| |  .| ",
" .%.5.X.) =.| | h...| | | S.S.F.F.F.F.- - - - - - - - - - < < m.m.S S S : m.< < L L 1 1 D m.n n     F.^.^.O ) *.| y.p._  .3.| ..",
"-.^ 3./ $... . .i.| &.| | S.S.F.F.F.F.- - - - - - - - - - < < m.m.S S S : m.< < L L 1 1 D m.n n     F.^.^.O | W | w.*. . . .6.6.",
"5.&.8.w.%.^ 5.=.y.r.u...| S.S.F.F.F.F.- - - - - - - - - - < < m.m.q q q p m.< < L L 1 1 I m.n n     F.^.^.O | ` ' ` k.] 1.| o.,.",
"e.1.2.^ 2.^ 1.&.&.=.u.y.%.S.S.P.P.P.P.- - - - - - - - - - < < m.m.r r r y m.< < J J 1 1 L m.n n     P.^.^.O | | o.` u.] ' ' 1.w.",
"1.{ ' 2.:.>.,.1.3.` $.3.$.S.S.P.P.P.P.- - - - - - - - - - < < m.m.r r r y m.< < J J 1 1 L m.n n     P.^.^.O ....| ` | &.[  .w.-.",
",.2.3.8.| ,.%.,.....1.3.$.S.S.F.F.F.F.- - - - - - - - - - < < m.m.S S S h M.< < D D 1 1 D m.c c     F.^.^.O ...... ... . .' 6.2.",
"6.2.1.1.1.| 9.` | 3.| 1.&.S.S.F.F.F.F.- - - - - - - - - - < < m.m.L L L h m.< < D D 1 1 D m.< < < < F.^.^.O .. .| | .. . .| w.,.",
"1.1.,.5.2.| 1.| | 3.| | &.S.S.R.R.R.R.- - - - - - - - - - < < m.m.L L L f m.< < d d 3 3 C C U U B B T.^.^.O ` | | ....| | ,. .,.",
"1.6.2.1.%.1.:.| 7.` ....%.S.S.F.F.F.F.- - - - - - - - - - < < m.m.L L L f M.< < m.m.M.M.D D n.n.D D F.^.^.O ` .... .| | |  . .,.",
"6.1.1.:.3.:.3.1.7.5.| | 1.S.S.F.F.F.F.- - - - - - - - - - < < m.m.L L L f M.< < m.m.M.M.D D n.n.D D F.^.^.O | `  .| |  ... .1.1.",
"6.| 6.0.| | &.| ..7.1.s.1.S.S.F.F.F.F.- - - - - - - - - - < < m.< < < < m.M.F F (.(.D D D < < <     F.^.^.o ..) ' | | |  .| | ,.",
"....6.6.1.=.&.| | | 9.s.9.S.S.W.W.W.W.- - - - - - - - - - < < A M.K K K H F s s s s < < < Z l l     E.^.^.o _ ` ' | ` | | 2.| 1.",
"| ,...&.| &.| | | ..r.| | S.S.F.F.F.F.- - - - - - - - - - < < A M.S S S f < < < < < 1 1 D m.b b     F.^.^.o ) u.` ` ) ` | | |  .",
" .......&.| | | | ` 3.3.| S.S.F.F.F.F.- - - - - - - - - - < < A M.S S S f < < < < < 1 1 D m.b b     F.^.^.o ) h.| &.`  .' ` | 1.",
"..|  ...| | | ` ..) .. .3.S.S.F.F.F.F.- - - - - - - - - - < < m.m.< < < < m.< < L L 1 1 L m.c c     F.^.^.o ' >.] | ' | |  .1.1.",
"..| | | | | | | ` ` | 5. .0 9 X X X X                     < < m.m.L L L h m.< < D D 1 1 L m.c c     X @ @ y.=.&.3. .| | ` ` 3.1.",
"....| | ......W ` | | |  .0 0 X X X X                     < < m.m.L L L h m.< < D D 1 1 L m.c c     X @ @ y. .:.'  .| 5.' ,.2.1.",
"........| | ..` | ` | ` 3. .' -. .w.u.o.o.3. .-.=.w.w.=.l., > m.m.S S S h m.< < D D 1 1 S Z #.#.| | w. .|  .' u. .| ..| ` $.| | ",
"............| | | ` | ` ` | ` ` | | 5. . .&. . . .&. .o.-.> > m.m.S S S h M.< < D D 3 3 < |  .w.|  . . .|  . .u.w.....| ' W &.2.",
"| ..| | | |  .` | | ` ` |  .`  .| | ..| | '  . .3.W W | ' > > m.m.S S S f m.< < < < &.-.=. .=.e.' w.=.| | w.3.r.3. .|  .5.)  .,.",
"| ........| | | ` | ` | ` | E 7.| |  .| 3.` 3. . .W ` ..| > > m.m.S S S f m.j.x.=.w.=.]  . .'  . .w.-.| .. . .h.o. ...| | | | 1.",
"..| ..| .. .' |  .' ` ' ` | T 7...| 3... .` w.|  ._ ` | ..> > m.m.S S S k 4 | .. .| | | |  .| ' | e.$.| o. ...r. . ...| ....| w.",
"| | | | |  . .)  .|  . . . .W | | ..| .. ...|  .| ` | Q | > > m.m.S S S k 4 | | 3.1.| '  .3.5. .| r. .`  ...| ..| ..| | | 1.1.| ",
"..| | | |  .|  .|  . . . .| ` | ....1.| 5....... .^  .6...] ..< < < < < &...| ` ..| ,.|  .|  . .'  .| .. .| |  .| | | ` 1.1.5.2.",
"| ..|  . .| e.1. . .' '  .| ..|  . .| &.| | |  .1.`  .| .. .| < < < < < | 3.%.| &.| | o...1.| ..| 3...| | %.| | | `  .| 1.1.,.1.",
"1.]  . .2.] 1.o. . . .=.w.1. .1.| %.&.|  .|  . . .1.'  .w.,. . .1.| 1.%...1.,.,.| ,.| ..1.| |  . ... .| ..|  .| | | | ..,.,.%.1.",
"3.1.] 5.w.O.1.1.|  . .3.5.2.' %.1.%.1.| | | | | 3.2.1.,.5.' ,.1.| / 1.| ,.1.5.,.2.1.1.1.,.1.1.| | | | | 5.1.3.1.5.5.| | 6.6...1."
};
