/* XPM */
static char *d3fb999bbbb643a0cf2dfc3a9fa4312dEZeRuuYT1UxUsiXt[] = {
/* columns rows colors chars-per-pixel */
"64 64 161 2 ",
"   c #020202",
".  c #090402",
"X  c #080B07",
"o  c #040C0C",
"O  c #090B0C",
"+  c #0B1507",
"@  c #051805",
"#  c #0C1608",
"$  c #1D1009",
"%  c #071314",
"&  c #2D1205",
"*  c #351402",
"=  c #153E3B",
"-  c #401904",
";  c #5C2304",
":  c #572509",
">  c #6C2601",
",  c #6E2902",
"<  c #6F2C08",
"1  c #722703",
"2  c #722901",
"3  c #792E06",
"4  c #7B3006",
"5  c #224813",
"6  c #284817",
"7  c #294C17",
"8  c #304F18",
"9  c #2B4B27",
"0  c #334E2C",
"q  c #3B4345",
"w  c #3C5256",
"e  c #20706F",
"r  c #227171",
"t  c #486369",
"y  c #567179",
"u  c #80350F",
"i  c #A2481B",
"p  c #B75623",
"a  c #B85624",
"s  c #C2653C",
"d  c #935F44",
"f  c #B26747",
"g  c #BA6747",
"h  c #BB6846",
"j  c #BA6949",
"k  c #B7775D",
"l  c #B77861",
"z  c #C16A46",
"x  c #CD6D45",
"c  c #D46F45",
"v  c #D47046",
"b  c #D57248",
"n  c #CF7C58",
"m  c #F07C40",
"M  c #349F1E",
"N  c #35A41E",
"B  c #3EA61D",
"V  c #3EAC1D",
"C  c #3EB21D",
"Z  c #338535",
"A  c #3AA620",
"S  c #3DAC23",
"D  c #3FB221",
"F  c #769B1A",
"G  c #42A61D",
"H  c #4EA41F",
"J  c #44AD1D",
"K  c #4BAE1D",
"L  c #53AD1C",
"P  c #5DA818",
"I  c #5AAD1D",
"U  c #45B717",
"Y  c #45B41C",
"T  c #4AB31D",
"R  c #43B81C",
"E  c #4AB81E",
"W  c #51B31D",
"Q  c #59B11C",
"!  c #67AC19",
"~  c #4C9327",
"^  c #569829",
"/  c #43A522",
"(  c #4CA521",
")  c #44AD21",
"_  c #4BAD22",
"`  c #4AA52E",
"'  c #40AE28",
"]  c #4DAD2A",
"[  c #52AD22",
"{  c #5BAE24",
"}  c #59A72C",
"|  c #53AC2A",
" . c #42B621",
".. c #46B621",
"X. c #44B422",
"o. c #46B625",
"O. c #49B221",
"+. c #4BB322",
"@. c #49B521",
"#. c #45B821",
"$. c #44B822",
"%. c #4DB922",
"&. c #44B628",
"*. c #4CB328",
"=. c #44B829",
"-. c #4CB92B",
";. c #53B222",
":. c #5AB323",
">. c #54B924",
",. c #58BD25",
"<. c #52B429",
"1. c #5CB32B",
"2. c #5BBA2A",
"3. c #53AE32",
"4. c #59A93C",
"5. c #5CAD3C",
"6. c #4EB532",
"7. c #51B436",
"8. c #5AB233",
"9. c #63AE25",
"0. c #67AC29",
"q. c #79A12D",
"w. c #62B125",
"e. c #63B42B",
"r. c #6CB32B",
"t. c #61BD2D",
"y. c #65AC33",
"u. c #66AE3B",
"i. c #62BA37",
"p. c #00CE03",
"a. c #00CF03",
"s. c #64A848",
"d. c #7BC445",
"f. c #FF8545",
"g. c #267F81",
"h. c #597A80",
"j. c #35ACAC",
"k. c #668A92",
"l. c #6D959D",
"z. c #6D989E",
"x. c #6D96A0",
"c. c #6C9BA2",
"v. c #6BA3AB",
"b. c #67ADB3",
"n. c #66B2B7",
"m. c #63B5BA",
"M. c #3FC5C4",
"N. c #3FCDCE",
"B. c #5BCBCE",
"V. c #5BD5D7",
"C. c #56DDE1",
"Z. c #58DCE1",
"A. c #55E3E7",
"S. c #54E6E8",
"D. c #52EBEC",
"F. c #4EF6F6",
"G. c #4DFBFB",
"H. c #52F7F9",
"J. c #50FBFC",
"K. c #BE9E8C",
"L. c #C09C8E",
/* pixels */
"X./ o.) ) X.o.o.o.Y T Y Y o.X.@.Y @.X.Y o.X. .o.Y T X. .T T X.T T +.) &.X.+.+.+.X.Y @.T X.) o.=.Y Y R Y Y Y Y o.;.Q X.@.S o.o.=.",
"X.X.X.X.T X.o.;.+.Y Y Y X.Y +.X.X.X.o.o.X.J @.X.T Y o.X.T X.X.) K o.)  .+.@.X.2.2.Y X.&.X.#.X. .#.R R #.R Y R Y *.T { Q ;.W @.*.",
") ) o.T X.T T #. .T  .Y K Y X.+.@.Y Y o.X.X.) X.Y Y @.) X.X.Y T @.@.o.J T T T 2.2.Y >.) @.o. . . .X.W R Y Y Y R ;.Y { X.W #.Y R ",
"X.Y X.K X.Q @.L #.X.Y Y T  .Y ) X.*. .Y X.J ) X.T Y T p.T p.@. .Y Y X.@.Y T J Y Y Y >.,.,.@.J +./ T R T R Y R T ;.Y W W Y T Y R ",
"X.X.Y T +.+.! T T T  .Y R  .R X.X.<.2.) p.+.Y p.Y Y Y p.Y Y  .X.T T Y X.T  .X.T J R Y ,._ Y *.+.;.I T T Y R R +.T Y W @.T T T R ",
" .R R R Y T Q T Y T Y R R R R R p. .i.p.Y J p.Y R T p.W Y T Y ;.T +.Y J R _ Y +.J Y Y Y N V 2.<.@.:.{ T Y T Y T X.W Y T R T R Y ",
"R R R T +.T W Y K R R R R p.R p.Y p.Z p.J p.p.Z Y Z Z p.p.Z Z Q Y Y T J R _ Y Y V R J R V B T J ;.;.T T T T ;.:.9.;.+.T Y Y Y Y ",
"R R Y R R I T Y J R Y R R p.p.p.p.p.Y Z Z Z Z T Y T Z Z p.              Y ;.;.;._ ;.[ _ Y G / K ;.K Y R T ;.;.e.:.;.Y Y T R Y @.",
" .R C T T R T T Y L R R Z Z Z p.p.Z J +.Y J J K X X G.G.G.V.z.z.z.z.z.J.G.G.X 8 7 +.r.;.( J B K L K R L T T K Y ;.T J Y Y :.W [ ",
" .R R L J R T R Y R R R R R p.Z p.Y J T J J s.e G.G.l.l.l.m.l.l.l.D.D.l.l.l.V.N.N.r s.L [ / / H P K R T K W W T R %.X.T Y #.R T ",
" .R R T R T ! T T R R R C R R R Y T T Y Y J s.e G.G.l.l.l.m.l.l.l.D.D.l.l.l.V.N.N.r 4.W [ _ q.K F Y R T T I T ;.T Y +.T Y R Y T ",
"R S R T T Q R E T R U R V Y K T T :.+.T     G.l.l.l.l.l.l.t           l.l.l.G.l.l.l.G.^ ~ | { Y J R R Y R K R Y R Y +.%.T W T T ",
"R R R R R R R T T R T E T J { [ T :.K g.l.l.G.l.l.l.  2 2 2 2 2 2 2 2 2 1 1   l.l.l.l.S.S.  [ Y J R T Y Y ) R Y T [ V >.T @.T X.",
"R R R R %.%.R R R R T >.%.J _ [ K M.M.v.l.l.l.: ; ; 2 s s i h h h h h , s s 2 ; ; = l.l.l.v.0 0 V R T Y J J +.Y [ [ [ <.| W  .X.",
"R  .R R %.>.R E R T T R R V J u.] M.M.v.l.l.l.: ; ; 2 s s i h h h h h , s s 2 ; ; = l.l.l.v.0 0 J J [ T _ _ { T } { [ 1.X.W T  .",
"R R R R R T R %.E >.R T R X.X.3.s.F.F.B.l.l.. 4 3 3 h c c i h h h h h > c c h 3 3 2 k.c.c.F.% % Y / J ) [ _ 0.T ^ r.T w.W X.T #.",
"Y *.Y R Y Y Y Y +.W >.Y R ) ` _   l.l.l.    2 m c c h v v i h h h h h > h h c c c 2 2 h.h.l.G.G.Y 1.A J J G | Y / <.;.T +.R T +.",
"_ o.X.R Y o.Y Y R Y 1.<.+.T G G G.l.l.w , , h m h h h h h i h h c h h > h h v x x 2 2 $ $ l.l.l.  >.<.R Y Y T R N R :.;.+.T @.Q ",
"_ %. . .D &.X._ Y Y Y +.+.R o o l.S.S.q 2 2 h m h h z h h i h h c h h > h h x x x 2 h & & y S.S.G.5 6 Y R J R R G X.>.#.Y T T ;.",
"| X.)  . .o.Y T S T Y V J R o o l.S.S.q 2 2 h m h h z h h i h h c h h > h h x x x 2 h & & y S.S.G.5 7 Y Y Y R R R %.%.R R R Y Y ",
"<.S S &.%.' Y  .&.w.@.J *.Y o o l.l.l.* h h h m h h c h h i h h c h h > h h h x x 2 h u u   l.l.G.5 7 R R R R R R R R >.R R ;.R ",
"o.&.<.;.&.<.@.-.T R T Y R # G.G.l.    2 h h h m h h c h h i h h h z z > h h h c c 2 h u u 2 l.l.l.j.j.+.V Y R R R R R >.Y R T Y ",
" .*.o. .%.o.-.#. .+.:.W T + G.G.C.    p h h h m h h h h h i c c h z z > h h h c c 2 h h h 2 C.C.C.j.j.t.C Y Y R R Y Y R R R R Y ",
"@.&.%.R )  .R #.7.Q +.w.T # G.G.l.    a j j h m h h h h h i c c h z z > h h h h h 2 h h h 2 l.l.l.j.j.d.Y Y Y R R R R R R R R W ",
"R X.%.Y +.R @.6.i.W T T T # G.G.l.    a j j h m h h h h h i c c h z z > h h h h h 2 h h h 2 l.l.l.j.j.d.>.J Y Y T Y R R R R E R ",
"R R R R E R Y V Y 1.T T :.# G.G.l.f.f.f.f.f.f.f.f.f.f.f.f.f.f.f.f.f.f.f.f.f.f.f.f.f.f.f.f.f.2 2 l.j.j.%.2.Y J K T Y R R R R Y Y ",
"R R R Y o.T T _ Y X.@.p.Y + G.G.b.f.f.h h h h h h h k h h h h h l h h h h h l h h h h j j h , , b.j.j.] <.R V K T Y R Y R R R T ",
"R R p.Y Y R p.X.T X._ p.R @ G.G.l.1 1 2 2 2 2 2 2 2 2 2 2 2 2 2 2 2 2 2 2 2 2 2 2 2 2 2 2 2 l.l.l.j.j.X.<.<.J Y Y R Y R R R T R ",
"R p.R T +.p.Y _ +.Y p.%.Y @ G.G.l.1 1 2 2 2 2 2 2 2 2 2 2 2 2 2 2 2 2 2 2 2 2 2 2 2 2 2 2 2 l.l.l.j.j.Y t.<.*.R R R p.R T p.R R ",
"#.p.Y p.R p.Y @.Y Y p._ p.@ G.G.l.    a h h h m v v h h h i v v h x x > h h h h h 2 h z z 2 l.l.l.j.j.Y ,.T <.Y R R p.T p.X.R R ",
"Z p.R p.p.p.Z Y Y Z Z p.p.@ J.J.c.    p h h h m h h h h h i c c h x x > h h h h h 2 c c c 2 c.c.c.j.j.Y >.Y <.T Y p.p.R p.R p.Y ",
" .Z Z Z p.Z J R Y T Z Z p.# G.G.l.    p d d d m h h z h h i h h h x x > h h z h h 2 c x x 2 l.l.l.j.j.Y Y T Y 1.Y p.p.p.p.p.p.R ",
"R R Y J R X./ J Y J T Y Y # G.G.x.    p q q q m h h c h h i h h v z z > h h c h h 2 c x x 2 x.x.x.j.j.Y | %.R y.Z Z p.Z p.p.Z Z ",
"X.R V Y X.T +.J T Y R T Y # G.G.x.    p q q q m h h c h h i h h v z z > h h c h h 2 c x x 2 x.x.x.j.j.:.0.T T 1.i.T ;.p.Z p. .Y ",
"R R A R X.Y Y J K G Y R Y # H.H.l.    p g g h m h h j h h i h h c z z > h h c h h 2 c c c 2 x.x.x.j.j.:.{ T +.1.e.@.( +.;.@.#.#.",
"T V C Y C Y Y / +.G Y K R # G.G.l.    p g g h m h h h h h i h h c z z > h h c h h 2 z z z 2 l.l.l.j.j.;.;.T _ +.>.%.A Y ) #.Y R ",
"T G X.+.G Y T R 2.Y R Y C # G.G.c.    p g g h m h h h c c i h h c z z > h h c h h 2 h z z 2 c.c.c.j.j.:.w.;./ +.>.*.<._ Y Y T R ",
"T ) @.E G [ Y Y t.R R Y Y # G.G.c.    p g g h m h h h c c i h h c z z > h h c h h 2 h z z 2 c.c.c.j.j.9.9.W G ] Y >.3.H T +.Y R ",
"{ S +.D / R +.T 2.Y _ Y Y # G.G.l.    p q q q m h h h c c i h h c z z > h h c x x 2 h c c 2 l.l.l.j.j.+.;.R Y V Y ;.` T T T #.#.",
"@._ &.;.) S @.[ <.>.1.R Y + G.G.l.    p f f f m h h h c c i h h h h h > h h h x x 2 h z z 2 l.l.l.j.j.Y T R Y J K J i.L X.Y W  .",
":.X.o.S o.S X._ _ [ 1.<.) # G.G.m.    p h h h m h h h c c i h h h h h > v v h x x 2 h h h 2 n.n.n.j.j.{ +.T Y Y W J 8.L K K X.;.",
"X.I K o.| }  .X.+.J / +./ # G.G.l.    p h h h m h h h c c i h h h h h > c c h c c 2 h h h 2 l.l.l.j.j.T T R R R Y J Y _ P T ;.{ ",
" .o.+.&.Y  .)  .Y R X.+./ # G.G.l.    p h h h m h h h c c i h h h h h > c c h c c 2 h h h 2 l.l.l.j.j.Y J R R R R T R T T K #.o.",
"#.o.X.X.X.Y ] J Y +.Y X._ # G.G.l.2 2 2 2 2 2 2 2 2 2 2 2 2 2 2 2 2 2 2 2 2 2 2 2 2 2 2 2 2 l.l.l.j.j.%.Y R R T Y Y R T T Y ;. .",
"X.X. .@.o.Y X.Y Y +.Y Y _ # G.G.Z.f.f.b b b b b b v L.b b b b b K.b b b b b K.b b b b n n b 2 2 V.j.j.%.R Y J Y Y R R Y Y  .T  .",
"X.#.o.X.) X.| Y %.J R R ) # G.G.l.f.f.h h h h h h h h h h h h h h h h h h h h h h h h h h h 2 2 l.j.j.) R R J R R T Y Y Y T T  .",
"#.X.X.| +.| +.X.%.@.R Y X.+ G.G.l.    2 2 2 2 2 2 2 2 2 2 2 2 2 2 2 2 2 2 2 2 2 2 2 2 2 2 2 x.x.l.j.j._ X.R Y J T Y Y T R T X.X.",
"#.Y #.=.Y Y _ Y R %.X.6.X.# G.G.l.    2 2 2 2 2 2 2 2 2 2 2 2 2 2 2 2 2 2 2 2 2 2 2 2 2 2 2 x.x.l.j.j._ X.Y R G K Y Y Y T Y Y  .",
"R R #.#.X.[ _ Y Y Y *.6.*.+ G.G.S.    p z z h m h h c h h i h h v h h > h h h x x 2 h h h 2 A.A.A.j.j.J _ Y H J K Y J Y Y o.Y X.",
"Y  .R _ Y _ Y Y R R >.Y Y + G.G.l.    p h h h m g g v h h i h h h z z > h h v x x 2 h h h 2 l.l.l.j.j.Z 1.) G 1.J J G J Y Y Y T ",
"T R R R _ Y Y Y Y J +.+.Y + G.G.l.    p h h v m j j h h h i v v h c c > h h h h h 2 h h h 2 l.l.l.j.j.Z 2._ G r.Y _ J T K J Y X.",
"R Y T R Y Y Y J R G R T +.+ G.G.l.    p h h v m j j h h h i v v h c c > h h h h h 2 h h h 2 l.l.l.j.j.G _ _ K } L Y K Y Y T X.X.",
"R Y Y Y Y Y Y Y J J Y @.T *.% % O     - 3 3 3 < 3 3 3 3 3 * 3 3 3 3 3 . 3 3 3 3 3 . 3 3 3 . O O O 9 9 Y T [ [ _ +.T Y Y J J +.X.",
"R R R R R R R V J Y Y Y T T [ [ T T ;.:.T :.T ;.9.;.;.{ p.Z p.+.Y 1.| <.5.3.+.] *.+._ T [ K Y ;.T ;.W +.T +.T | K T Y @.K  .o.X.",
"R Y R R R R R J Y J Y J +.T K { T ;.1.W W +.T { [ ;.;.[ p.Z p.T Y 8.4.8.s.5.+.X.*.*.Y T W Y T T Y Y ;.T Y T K 1.T Y R Y J / Y Y ",
"R R Y R R R R Y Y J Y J J Y J J Y Y T Y T _ T T T _ T W { 9.;.T [ u.} <.y.| +.Y [ ;.K ;.T Y T ;.Y T T T Y T T 1.;.R R Y K V _ o.",
"Y Y Y Y Y Y T J Y Y J J Y T J T Y Y R Y Y K T T +.V V Y K ;.;.T K K K K y.K T T { ;._ { [ T [ :.K ;.[ Y Y ;.+.>.+.T Y T @.G T  .",
"Y Y R Y R Y Y Y J Y J Y J Y B %.Y Y T Y +.J +.T T V J R Y T Y Y ) J Y V *.Y Y @.[ [ [ L T T K T T ;.{ Y R T T t.W T R Y Y Y Y X.",
"R Y R Y R T K Y T K J K J Y M %.R Y +.R T J ;.Y T H J Y R Y K T Y Y Y V Y Y Y R T Y Y Y Y T Y K Y :./ Y W T R >.T T R Y R R Y ;.",
"Y Y Y Y Y T T G T Y T T T T V R Y R Y R T R Y T Y J Y C Y Y Y ) Y R R R Y R Y Y +.X.Y K T +.+.T Y >.T J T R Y R Y R T Y Y X.X.Y ",
"R R Y Y Y T Y T Y T T T T Y J Y R R X.Y @.T R R T S T #.R L R X.Y C X.R _ R Y J R Y  .R T Y T T K T Y R T Y Y T Y Y Y J X.X.@.o.",
"Y R Y T T Y :.X.T T K K T Y R Y Y T Y _ Y Y Y T X.J T Y R T Y Y Y Y X. .Y +.) Y _ Y Y W R X.Y R Y +.R Y Y ) Y Y R G T Y X.X. .X.",
"X.L T T o.I X.W T T T [ ;.X.T X.Y ) _ Y T Y Y T T X.K T ;. .T T X.Y X.) R X. . .Y  .Y R X.Y Y T T R T Y R Y T Y Y Y Y R  . .) X.",
"+.X.L @.;.Q X.X.Y T T +.@.o.K ) X.) X.Y Y Y Y Y +.o.X. .+.K  .X.Y D X.Y  .X.+. .o.X.X.X. .X.X.Y Y Y Y Y @.X.+.X.@.X.Y Y #.#.R X."
};
