/* XPM */
static char *_bee582c2cea4ddaae74a13a813c0243XHGc219U2zqg2hWT[] = {
/* columns rows colors chars-per-pixel */
"64 64 152 2 ",
"   c #349F1E",
".  c #3B981A",
"X  c #35A41E",
"o  c #3CA61E",
"O  c #3EAC1D",
"+  c #3FB21C",
"@  c #338535",
"#  c #3AA620",
"$  c #3DAC22",
"%  c #3FB221",
"&  c #769B1A",
"*  c #42A51E",
"=  c #4CA41F",
"-  c #44AD1D",
";  c #4BAE1D",
":  c #5EA916",
">  c #57A618",
",  c #5CA71A",
"<  c #53AD1D",
"1  c #5AAD1C",
"2  c #45B717",
"3  c #44B41C",
"4  c #4AB31D",
"5  c #43B81C",
"6  c #4AB81E",
"7  c #56B517",
"8  c #5AB717",
"9  c #5EBD17",
"0  c #52B31D",
"q  c #59B31B",
"w  c #53B81B",
"e  c #64AD17",
"r  c #65A61B",
"t  c #64AB1A",
"y  c #69AA1B",
"u  c #63B517",
"i  c #66B816",
"p  c #68BC14",
"a  c #65B319",
"s  c #62B81A",
"d  c #4C9D23",
"f  c #5A962B",
"g  c #44A522",
"h  c #4CA522",
"j  c #43AD21",
"k  c #4BAD22",
"l  c #42A529",
"z  c #4AA52E",
"x  c #40AE28",
"c  c #4CAD2A",
"v  c #56A626",
"b  c #5AA725",
"n  c #53AD22",
"m  c #5BAD24",
"M  c #54A12C",
"N  c #58A12A",
"B  c #53AD2A",
"V  c #5AAD2A",
"C  c #41B521",
"Z  c #43B721",
"A  c #46B420",
"S  c #45B622",
"D  c #42B024",
"F  c #44B225",
"G  c #45B425",
"H  c #45B627",
"J  c #49B321",
"K  c #4AB222",
"L  c #4EB223",
"P  c #4AB520",
"I  c #49B622",
"U  c #4EB521",
"Y  c #4FB124",
"T  c #4CB327",
"R  c #48B625",
"E  c #42B921",
"W  c #45B821",
"Q  c #43B824",
"!  c #47B925",
"~  c #4CB922",
"^  c #44B628",
"/  c #4DB329",
"(  c #4FB628",
")  c #42B929",
"_  c #45B829",
"`  c #4CB92B",
"'  c #53B321",
"]  c #53B022",
"[  c #55B222",
"{  c #51B521",
"}  c #5BB323",
"|  c #53B924",
" . c #57B924",
".. c #55BC26",
"X. c #5EB926",
"o. c #58BD25",
"O. c #52B528",
"+. c #53B429",
"@. c #5BB42A",
"#. c #55BB2A",
"$. c #58B929",
"%. c #5CB82B",
"&. c #5CBB2A",
"*. c #5BBC2B",
"=. c #5FBD2D",
"-. c #54AD32",
";. c #5AAC30",
":. c #5DA63F",
">. c #56AB3C",
",. c #5CAD3C",
"<. c #4EB532",
"1. c #51B332",
"2. c #5BB233",
"3. c #56B930",
"4. c #5BBC31",
"5. c #52B33C",
"6. c #60A627",
"7. c #63AD25",
"8. c #6CAD25",
"9. c #69A72A",
"0. c #62AE2B",
"q. c #6CAD2A",
"w. c #72AC27",
"e. c #79A12D",
"r. c #71AE29",
"t. c #79AB2C",
"y. c #62B225",
"u. c #6AB124",
"i. c #63B42C",
"p. c #6CB32B",
"a. c #62BB2C",
"s. c #6DBA2E",
"d. c #75BF24",
"f. c #75B62B",
"g. c #64AD32",
"h. c #68AA35",
"j. c #64AE3C",
"k. c #61B432",
"l. c #6CB133",
"z. c #64BA33",
"x. c #61BB3F",
"c. c #75B133",
"v. c #7AB433",
"b. c #70B538",
"n. c #79B63F",
"m. c #00CE03",
"M. c #00CF03",
"N. c #58C13C",
"B. c #6AC02F",
"V. c #61AC40",
"C. c #65AD4B",
"Z. c #7BC445",
/* pixels */
"A g G j j F G G G 3 4 3 3 R A P 3 P A 3 G D Z G 4 4 F Z 4 4 A 4 4 A j ^ A J J J A 4 P 4 D j G _ 3 3 5 3 3 3 3 G [ q A P $ G Q _ ",
"A A A A 4 A ! ' J 3 4 4 A 3 4 A A A G G A - P A 4 4 G A 4 A A j ; R j Z J P A $.%.A A G A W A Z W 5 5 E 5 3 5 3 Y 4 m 0 { 0 P Y ",
"j j ! 4 A 4 4 W Z 4 Z 4 ; 3 A J P 4 4 R A A j A 3 3 P A A A 4 4 P P G - 4 4 4 %.$.3 | j P G Z Z Z A 0 5 3 4 3 5 ' 3 m A 0 E 3 5 ",
"A 3 A ; A q P < W A 3 3 4 Z 3 j A ( Z 3 A - j A 4 3 4 m.4 m.P Z 4 3 A P 3 4 - 4 4 3 | $.| P - U g 4 5 4 5 3 5 4 ' 3 0 0 4 4 3 5 ",
"A A 3 4 L U y 4 4 4 Z 3 5 Z 5 A A O.=.j m.L 4 m.4 3 4 m.3 3 Z A 4 4 3 A 4 Z A 4 - 5 3 o.k 4 Y J { 1 4 3 3 5 5 L 4 3 4 P 4 4 4 5 ",
"Z 5 5 5 4 4 q 4 3 4 3 5 5 5 5 Z m.Z z.m.4 - m.4 3 4 m.0 3 4 3 ' 4 P 3 - 5 k 4 U - 3 3 3 X O $.O.P } m 3 3 4 3 4 A 0 3 4 5 4 5 3 ",
"5 5 5 4 J 4 0 3 ; 5 5 5 5 m.5 m.3 m.@ m.- m.m.@ 4 @ @ m.m.@ @ q 3 3 4 - 5 k 3 3 O 5 - 5 O o 4 - { [ 4 4 4 4 [ } 7.[ J 4 3 3 3 4 ",
"5 5 5 5 5 1 4 3 - 5 3 5 5 m.m.m.m.m.4 @ @ @ @ 4 3 4 @ @ m.5 4 4 4 4 5 3 3 ' [ ' k ' n ; 4 - g ; [ ; 3 5 4 ' { y.} { 4 3 4 5 3 P ",
"Z 5 + 4 4 5 4 4 3 < 5 5 @ @ @ m.m.@ - U 4 - - ; 3 3 5 3 X.| 5 4 5 4 4 4 0 m 7.7.n L u.' g - o ; < ; 5 < 4 4 4 3 [ 4 - 3 3 } 0 n ",
"Z 5 5 < - 5 4 5 3 5 5 5 5 5 m.@ m.3 - 4 - - 4 4 4 A < 3 5 | { 4 3 3 4 4 3 { J U J 3 } < h g g ; , ; 5 4 ; 0 0 4 5 ~ A 4 4 W 5 4 ",
"Z 5 5 4 5 4 e 4 4 5 5 5 + 5 5 5 3 4 4 5 4 - k 4 ; 4 ; 3 3 4 } Z 4 ~ j 3 J 3 5 - - 4 L 0 n k e.; & 5 5 4 4 1 4 [ 3 4 J 4 4 5 3 4 ",
"5 $ 5 4 4 q 5 6 4 5 2 5 O 3 ; 4 4 } L 4 L n V ; n o - 3 4 3 3 3 U @.q.5 3 5 3 [ 4 [ m } n n m 3 - 5 5 3 5 ; 5 3 5 3 J ~ 4 0 4 4 ",
"5 5 5 5 5 5 5 4 4 5 4 6 4 - m n 4 } ; ; L n n ' ' * ; k a.4 < g ~ #.#.%.A 5 3 } n } n B n 8.n 4 - 5 4 3 3 j 5 4 4 n O | 4 P 4 A ",
"5 5 5 5 P ~ 5 5 5 5 4  .~ - k n ; n 4 4 k n ;.n n q.n ' %.m - n g c 5 #.5 5 G A - 5 3 o - n 4 4 O 5 4 3 - - L 4 B n n O.n 0 Z A ",
"5 Z 5 5 ~ { 5 6 5 4 4 5 5 O - j.c >.k J c V.V 4 4 [ n Y #.j.L U - 3 4 | | - 3 4 A 5 3 % - ; 3 k - - n 4 k k m 4 M m n @.A 0 4 Z ",
"5 5 5 5 5 4 5 ~ 6 { 5 4 5 A A -.>.c / O.c :.; 4 < 4 n 4 n O.k U P g - ~ O.A A Z G 5 3 3 - J 3 A 3 g - j n k q.4 f p.4 y.0 A 4 E ",
"5 ~ 3 5 4 3 3 3 ~ 0 | 3 5 j z k c j -.J - n - n [ m 8.4 7.B [ 0 ; O O 3 A J k 3 J P 3 P 3 4 4 k 4 @.$ - - * n 3 g O.' 3 U 5 4 U ",
"k G A 5 3 G 3 3 5 3 @.O.L 4 - - - - h 4 j L - n 0 i.7.' 0.} y.} m 4 3 j Z Z * Z 3 3 5 4 5 3 R J 5 O.O.5 3 3 4 5 X 5 } [ L 4 P q ",
"k ~ Z Z % G A k 3 3 3 J U 5 3 g - - h 4 g n - 0.L n b m m c.a.%.} U 3 j 3 4 3 3 A 3 5 5 5 5 J 3 4 k z.3 5 - 5 5 - A | W 3 4 4 [ ",
"B A j Z Z G 3 4 $ 4 3 O - 5 J * 3 - O 4 - h ; } m n n k m 7.0 } 3 5 6 P j O ~ N.P U 4 3 5 5 A 5 5 5 %.4 3 3 5 5 5 ~ ~ 5 5 5 3 3 ",
"O.$ $ G ~ x 3 Z ^ 0.P - / 3 #.4 - - - { 4 h m n n b 9.4 } } y.} P J } 5 O 5 P #.4 3 3 3 4 5 4 5 + 4 $.3 5 5 5 5 5 5 5 { 5 5 ' 5 ",
"G ^ O.' G O.P ` 4 5 4 4 5 A P ! - n - P 4 k 7.; m N b ; y.} y.J [ A 5 A 5 3 ^ O.3 3 3 4 5 5 O.5 4 4 4 L O 3 5 5 5 5 5 { 3 5 4 3 ",
"Z Y G Z ~ G ` W Z L } 0 4 - O.5 ' ; ' 3 U j m v m < n 4 [ ; [ Z 4 4 5 Z 3 - + - 3 4 5 ; 4 3 Y 3 3 5 J %.+ 3 3 5 5 3 3 5 5 5 5 3 ",
"P ^ ~ 5 j Z 5 W 5.q L y.4 ; 3 [ 4 J n ; 4 h 7.7.8.n t.m u.; 4 U 4 4 P Z 4 - 3 . ; - - 3 j 4 c 3 3 3 l Z.5 3 3 5 5 5 5 5 5 5 5 0 ",
"5 A ~ 3 J 5 P <.x.0 4 4 4 4 4 ; [ h b n 0 n q.m f.; } } } j 4 5 3 - k - k k k - 4 3 3 4 - - k 3 3 - - Z.{ - 3 4 4 3 5 5 5 5 6 5 ",
"5 5 5 5 6 5 3 O 3 @.4 4 } 4 4 L } n b 6.0 4 n ; s.@.3 4 4 k A 3 - 3 j - k 4 V 4 ; 4 4 4 - 4 4 4 - - 3 ~ %.4 - ; 4 3 5 5 5 5 3 3 ",
"5 5 5 3 R 4 4 k 3 F P m.3 5 m.3 4 3 / * - 3 O 4 3 a.4 5 4 g 4 3 5 5 5 3 O 4 B - j 0 n 4 - 4 3 4 - - 3 c O.5 O ; 4 3 5 3 5 5 5 4 ",
"5 5 m.3 3 5 m.A 4 A k m.5 m.3 J 4 3 - @.- 5 3 3 4 @.- 3 3 + 5 5 5 + #.r.= 8.m ; 6.< r.< 4 4 4 m ; 3 3 F O.O.- 3 4 5 4 5 5 5 4 5 ",
"5 m.5 3 U m.3 k U 3 m.~ 3 m.3 5 4 4 4 ' { 4 - A - 3 - O 5 5 3 3 3 3 5 [ ; ; n ' 7.; < 3 3 4 ; ; ; 3 5 3 a.O.J 5 5 5 m.5 4 m.5 5 ",
"E m.4 m.5 m.4 P 4 3 m.k m.m.m.3 5 4 3 - U 4 - 4 3 0 0 7 4 5 3 5 5 5 - 4 - 4 ; O.< ; < < 3 ; ; ; - 3 3 3 $.4 O.3 5 5 m.4 m.A 5 5 ",
"@ m.5 m.m.m.@ 3 3 @ @ m.m.m.@ @ 3 ; 3 - 4 4 4 3 4 q 1 u s w 4 3 3 5 4 4 - [ 7.b.; < r , ; 4 4 > - 4 - 3 | 3 O.4 3 m.m.5 m.5 m.3 ",
"Z @ @ @ m.@ - 5 4 4 @ @ m.4 A 3 5 4 J 5 4 U 0 4 q w 8 8 p 9 q + 3 4 3 4 O 3 4 n.- ; > 4 < 4 3 < O 5 3 4 4 4 4 @.3 m.m.m.m.m.m.5 ",
"5 5 3 - 5 A g - 3 - 4 3 3 4 P 3 5 4 5 ~ @.A a.5 5 - 3 4 5 w 3 - P 3 P 5 - 4 V $.- - - 3 J 4 4 - 3 3 3 4 B ~ 5 h.@ @ m.@ m.m.@ @ ",
"A 5 O 3 A 4 J - 4 3 5 4 4 4 $.3 4 3 5 P - *.O.5 5 - 5 4 3 U 3 j O.- j 3 3 a.2.Y g 4 3 3 3 5 4 k n L i.} q.4 4 @.z.4 [ m.@ m.Z 3 ",
"5 5 # 5 A 3 3 O ; - 4 5 3 4 P ' 4 - 3 5 ; O...4 3 3 - 3 - k ~ 3 i.3 - 3 3 s.h.O.k 4 - 4 j 4 5 L 5 } O.} b 4 L %.i.P h J { P W E ",
"4 O + 3 + 3 4 g U * 3 ; 5 4 5 %.5 5 - A 3 4 =.4 - ; O - - o @.5 k.3 3 J 5 O.i.O.4 ' - J 4 4 m 3 5 4 } ' ' 4 c L | ~ # 3 j W 3 5 ",
"4 * A U - 4 5 5 %.3 5 4 + 3 P %.O.n 3 A ; 4 5 O.- ; g - L o @.5 @.3 3 P 3 4 @.U 5 4 4 ' ' 4 m 4 3 3 4 } y.' g L O.J O.k 3 3 4 5 ",
"4 j P 6 - n 3 3 a.5 5 3 + 3 4 n @.3 4 o ; n 4 B k O.O - 0.g k.3 @.3 5 3 5 A O.@.- U j k 4 4 b 4 5 ; n 7.y.0 - c 3 O.-.; 4 L 3 5 ",
"m $ U % g 5 J 4 $.3 k 3 3 Y J ; J a.4 g - ; - J j O.o O n B l.3 ' n 4 V J J @.O.4 O.g b 4 3 j 5 3 ; 4 L [ 5 3 O 3 { z 4 4 4 W E ",
"P k G [ j $ P n O.| @.5 3 A 4 A = z.y.c.; } r.y.; ' d k 6.V t.5 B 7.L v.{ 4 ' O.m V h n 3 3 3 4 k 4 4 5 4 5 4 - ; - k.< A 4 0 Z ",
"} A G $ G $ A h k n @.O.j 4 j 3 4 v v.} n n q.7.m ' k b n B ; 3 k ; 4 i.4 4 k L m < n < 3 < 4 { k [ w.m L 4 4 3 0 - 2.< ; ; A ' ",
"A 1 ; G n V Z A J - g U g b A 5 3 < i.k * g J 4 k ; B O.+ L A 5 g - - $.4 5 - 3 P 3 ' < 4 q 0 s d.} n 4 4 5 5 5 4 - 3 k : 4 ' m ",
"Z ! J G 4 Z j Z 5 5 A U g B - O 4 - n l ; -.J 4 B g B 4.4 3 ~ 3 - - - / 3 5 3 $ 5 3 3 4 u a 4 i w 3 P 3 - 5 5 4 5 4 5 4 4 ; E G ",
"E G A A A 4 c - 3 J 4 A k 4 g - - j b B n B ! 3 J l.4 z.4 5 O.3 - 3 4 3 3 5 5 5 + 5 5 5 q a m.4 4 | m.! 4 5 5 4 3 4 5 4 4 3 ' Z ",
"A A Z P G 3 A 5 4 J 3 Z c | c A - 3 L B k @.P 3 J @.O.{ 5 3 [ Z 5 L g 5 m.3 4 5 m.5 - 3 L 4 m.t m.m.- ~ 5 3 - 3 3 5 5 4 3 Z 4 Z ",
"A E G A j A B 3 ~ - 5 5 j R c 2.5 o L m B 5 3 3 4 - O.4 - 5 4 4 j =.O.3 m.- 5 ; m.5 3 5 4 5 m.; m.m.@.j 5 5 - 5 5 3 3 4 4 4 4 Z ",
"W A A B L B J A ~ P 5 3 A G J / 3 - 3 [ V - 4 3 3 - m.m.- 4 m.3 - j m.m.- - 3 m.3 - 3 A J m.5 - m.m.k k A 5 3 - 4 3 3 4 5 4 A A ",
"W 3 W ) 3 3 k 4 5 ~ A <.A Y 1.~ 3 6 4 4 L O 5 3 5 3 m.m.- m.4 3 3 - m.m.; m.3 m.4 4 5 3 ~ m.A m.m.m.m.k A 3 5 - 4 3 3 4 4 3 4 Z ",
"5 5 E E A B c 3 3 3 Y 1.Y 3 R 5 3 U 4 3 0 $ 3 3 5 5 m.m.; m.4 4 P $ m.m.B m.3 m.; O.3 3 3 m.U m.m.m.m.- k 4 = - ; 3 - 4 3 G 3 A ",
"3 Z 5 k 3 k 3 4 5 5 | 3 3 4 3 4 4 L 4 4 { 4 J 3 5 m.m.m.4 m.4 m.O.@ m.m.{ m.m.m.@ O.A 4 @ @ m.m.m.m.@ @ @.j - @.- - * - 4 3 4 3 ",
"4 5 5 5 k 3 3 4 3 - U ~ 4 3 4 4 4 L J 4 4 0 L 3 3 m.m.m.m.m.m.m.4 ' @ @ @ @ m.@ * $.j O | @ @ m.k 4 0 @ %.k - p.4 k - 3 ; - 3 A ",
"5 3 4 5 4 3 3 - 5 * 5 4 J 4 3 3 3 4 4 4 4 4 4 4 4 m.m.m.m.m.m.m.- [ @ @ @ @ m.@ - J c 3.P @ @ m.L 4 4 * k h ; V < 4 ; 4 4 4 A A ",
"5 4 3 3 3 3 + 3 - - 3 P 4 4 3 3 4 3 4 U 0 4 4 4 @ @ m.m.@ m.m.@ @ [ k 4 < J J J 4 L c O.4 - 4 4 4 0 4 4 4 n n k L 4 4 3 - - J A ",
"5 5 5 5 5 5 5 O - 3 3 3 4 4 n n 4 4 [ } 4 } 4 [ 7.' { m m.@ m.J 4 @.B O.,.-.J c Y L J 4 n ; 3 ' 4 { 0 L 4 L 4 B ; 4 4 P ; Z G A ",
"5 3 5 5 5 5 5 O 3 - 4 - J 4 ; m 4 ' @.0 0 U 4 m n ' [ n m.@ m.4 4 2.>.2.C.,.J A Y Y 4 4 0 3 4 4 3 3 [ 4 3 4 ; @.4 3 5 3 - j 3 4 ",
"5 5 5 5 5 5 5 3 4 - 3 - - 4 - - 4 4 4 4 4 k 4 4 4 k 4 0 m 7.' 4 n j.V O.g.B J 4 n [ ; [ 4 3 4 [ 3 4 4 4 4 4 4 %.{ 5 5 3 ; O k G ",
"3 3 3 3 3 3 4 - 3 3 - - 3 4 - 4 3 3 5 4 4 ; 4 4 J O O 3 ; [ ' 4 ; ; ; ; g.; 4 4 } [ h m n 4 n } ; [ n 4 3 ' U | U 5 3 4 P * 4 Z ",
"3 3 5 3 5 4 3 3 - 3 - 3 - 3 o ~ 3 3 4 3 J - L 4 4 O - 5 3 4 3 3 j - 3 O J 4 4 P n ' n < 4 4 ; 4 4 ' b 4 5 4 4 B.0 5 5 3 3 3 4 A ",
"5 4 5 3 5 4 ; 3 4 ; - ; - 3   P 5 3 J 5 4 - U 4 4 ; - 3 5 3 ; 4 3 3 3 O 3 3 3 5 4 3 5 4 4 4 4 ; 3 } g 3 0 4 5  .4 4 5 3 5 5 3 [ ",
"4 3 3 3 3 4 4 - 4 3 ; 4 4 4 O 5 5 5 3 5 4 5 5 4 3 - 3 + 3 5 3 j 3 5 5 5 3 5 3 3 L A 3 ; 4 J U 4 3 { 4 - 4 5 3 5 4 5 3 3 3 A A 3 ",
"5 5 3 4 4 4 5 4 4 4 4 4 4 3 - 3 5 5 A 3 P 5 5 5 4 $ 4 E 5 < 5 A 4 + Z 5 k 5 3 - 5 3 Z 5 4 4 4 4 ; 4 3 5 4 3 3 4 4 3 3 - A A P G ",
"3 5 3 4 4 4 } A 4 4 4 ; 4 4 3 3 3 4 3 k 4 3 4 4 A - 4 3 5 4 3 4 4 3 Z Z 3 J j 4 k 4 3 0 5 A 3 5 3 A 5 4 3 j 3 3 5 - 4 3 A A Z A ",
"A 0 4 4 G > A 4 4 4 4 n ' A 4 A 4 j k 4 4 3 3 4 4 A ; 4 ' Z 4 4 A + A j 5 A Z Z 3 Z 3 5 A 3 4 4 3 5 4 4 5 4 4 3 3 4 3 5 Z Z j A ",
"J A < P ' q A A 4 4 4 J P G ; j A j A 4 4 3 3 4 J G A Z L ; Z A 4 % A 3 Z A L Z G A A A Z D A 3 3 3 4 3 P A J A P A 4 3 W W 5 A "
};
